<svg width="104" height="65" viewBox="0 0 104 65" fill="none" xmlns="http://www.w3.org/2000/svg">
<rect width="104" height="65" fill="white"/>
<rect x="4" y="11" width="100" height="45" rx="9" fill="#4BCD49"/>
<path fill-rule="evenodd" clip-rule="evenodd" d="M30.0713 18.9629L18.2246 23.0386V32.2502C18.2246 37.1694 20.9275 40.935 23.9657 43.62C26.599 45.9473 29.2918 47.283 30.0687 47.6431C30.839 47.2865 33.5379 45.9506 36.1771 43.6187C39.2151 40.9343 41.918 37.1694 41.918 32.2502V23.0386L30.0713 18.9629ZM29.8593 47.7374C29.8593 47.7374 29.8594 47.7374 29.8594 47.7373L29.8593 47.7374ZM17.8698 23.1606L17.8747 23.159C17.8731 23.1595 17.8715 23.1601 17.8698 23.1606ZM17.1312 20.9822L29.5033 16.7257C29.871 16.597 30.2716 16.597 30.6392 16.7257L43.0114 20.9822C43.7302 21.2276 44.2109 21.9069 44.2109 22.6743V32.2502C44.2109 43.9376 31.3108 49.6169 30.7618 49.8528C30.5402 49.9481 30.3069 49.9958 30.0713 49.9958C29.8356 49.9958 29.6023 49.9481 29.3808 49.8552C28.8317 49.6193 15.9316 43.9376 15.9316 32.2502V22.6743C15.9316 21.9069 16.4124 21.2276 17.1312 20.9822Z" fill="white"/>
<path d="M62.2553 31.2406H56.8406L55.8112 34.2875H52.5273L58.1068 19.5H60.9685L66.5788 34.2875H63.295L62.2553 31.2406ZM57.6744 28.7727H61.4215L59.5376 23.2375L57.6744 28.7727Z" fill="white"/>
<path d="M76.9964 27.8789H71.067V31.8398H78.0259V34.2875H67.9788V19.5H78.0053V21.968H71.067V25.4922H76.9964V27.8789Z" fill="white"/>
<path d="M87.6097 30.4078C87.6097 29.8323 87.4038 29.3922 86.992 29.0875C86.5803 28.776 85.8391 28.451 84.7685 28.1125C83.6979 27.7672 82.8504 27.4286 82.2259 27.0969C80.5239 26.1896 79.6729 24.9674 79.6729 23.4305C79.6729 22.6315 79.8994 21.9206 80.3523 21.2977C80.8121 20.668 81.4675 20.1771 82.3185 19.825C83.1763 19.4729 84.1371 19.2969 85.2009 19.2969C86.2714 19.2969 87.2254 19.4898 88.0626 19.8758C88.8999 20.2549 89.5484 20.7932 90.0082 21.4906C90.4749 22.188 90.7082 22.9802 90.7082 23.8672H87.62C87.62 23.1901 87.4038 22.6654 86.9714 22.293C86.5391 21.9138 85.9317 21.7242 85.1494 21.7242C84.3945 21.7242 83.8077 21.8833 83.3891 22.2016C82.9705 22.513 82.7612 22.926 82.7612 23.4406C82.7612 23.9214 83.0048 24.3242 83.492 24.6492C83.9862 24.9742 84.7102 25.2789 85.6641 25.5633C87.421 26.0846 88.7009 26.7313 89.5038 27.5031C90.3067 28.275 90.7082 29.2365 90.7082 30.3875C90.7082 31.6672 90.2175 32.6727 89.2361 33.4039C88.2548 34.1284 86.9337 34.4906 85.2729 34.4906C84.12 34.4906 83.07 34.2841 82.1229 33.8711C81.1759 33.4513 80.4518 32.8792 79.9509 32.1547C79.4567 31.4302 79.2097 30.5906 79.2097 29.6359H82.3082C82.3082 31.2677 83.2964 32.0836 85.2729 32.0836C86.0072 32.0836 86.5803 31.938 86.992 31.6469C87.4038 31.349 87.6097 30.9359 87.6097 30.4078Z" fill="white"/>
<path d="M59.4554 48.1541H53.1567V47.094L56.2771 43.7361C56.7275 43.241 57.047 42.8284 57.2358 42.4983C57.4288 42.164 57.5253 41.8297 57.5253 41.4954C57.5253 41.0553 57.3987 40.6998 57.1457 40.429C56.8969 40.1581 56.5602 40.0227 56.1356 40.0227C55.6294 40.0227 55.237 40.1751 54.9582 40.4797C54.6794 40.7844 54.54 41.2013 54.54 41.7302H52.9766C52.9766 41.1674 53.1052 40.6617 53.3626 40.2131C53.6242 39.7603 53.9953 39.4091 54.4756 39.1594C54.9603 38.9097 55.5179 38.7849 56.1484 38.7849C57.0578 38.7849 57.774 39.0113 58.2973 39.4641C58.8249 39.9127 59.0887 40.5348 59.0887 41.3303C59.0887 41.7916 58.9557 42.2761 58.6898 42.7839C58.4282 43.2875 57.9971 43.8609 57.3966 44.5042L55.1062 46.9226H59.4554V48.1541Z" fill="white"/>
<path d="M61.0639 43.571L61.5721 38.9119H66.6034V40.2449H62.8718L62.6144 42.4539C63.0476 42.2084 63.5366 42.0857 64.0813 42.0857C64.9735 42.0857 65.6662 42.3671 66.1595 42.9299C66.657 43.4928 66.9058 44.2502 66.9058 45.2024C66.9058 46.1419 66.6313 46.8909 66.0823 47.4495C65.5332 48.0038 64.7805 48.281 63.824 48.281C62.9661 48.281 62.2541 48.0419 61.688 47.5637C61.1261 47.0813 60.8215 46.4465 60.7744 45.6594H62.2863C62.3464 46.108 62.5093 46.4529 62.7753 46.6941C63.0412 46.9311 63.3886 47.0496 63.8176 47.0496C64.2979 47.0496 64.6711 46.8803 64.937 46.5418C65.2073 46.2032 65.3424 45.7419 65.3424 45.158C65.3424 44.5951 65.1944 44.1508 64.8984 43.825C64.6025 43.4949 64.195 43.3298 63.676 43.3298C63.3929 43.3298 63.1527 43.3679 62.9554 43.4441C62.7581 43.516 62.5437 43.6599 62.312 43.8757L61.0639 43.571Z" fill="white"/>
<path d="M72.9986 38.8674V40.1433H72.8056C71.9306 40.156 71.2315 40.393 70.7082 40.8542C70.1849 41.3155 69.8739 41.9693 69.7753 42.8157C70.2771 42.2952 70.9184 42.0349 71.699 42.0349C72.5268 42.0349 73.1788 42.3227 73.6549 42.8982C74.1353 43.4737 74.3755 44.2164 74.3755 45.1262C74.3755 46.0657 74.0945 46.8274 73.5326 47.4114C72.975 47.9911 72.2416 48.281 71.3323 48.281C70.3972 48.281 69.638 47.9404 69.0547 47.259C68.4756 46.5777 68.1861 45.6848 68.1861 44.5803V44.0535C68.1861 42.4327 68.585 41.1632 69.3828 40.2449C70.1849 39.3266 71.3365 38.8674 72.8378 38.8674H72.9986ZM71.3194 43.2791C70.9763 43.2791 70.661 43.3743 70.3736 43.5647C70.0905 43.7551 69.8825 44.009 69.7495 44.3264V44.7961C69.7495 45.4817 69.8954 46.0276 70.187 46.4338C70.4787 46.8359 70.8562 47.0369 71.3194 47.0369C71.7826 47.0369 72.1494 46.8655 72.4196 46.5227C72.6898 46.1799 72.8249 45.7293 72.8249 45.1707C72.8249 44.6121 72.6877 44.1571 72.4131 43.8059C72.1386 43.4547 71.774 43.2791 71.3194 43.2791Z" fill="white"/>
<path d="M75.8745 48.1541V38.9119H79.085C80.1445 38.9119 80.9508 39.1213 81.5041 39.5403C82.0574 39.9592 82.3341 40.5834 82.3341 41.4128C82.3341 41.836 82.2183 42.2169 81.9867 42.5554C81.7551 42.894 81.4162 43.1563 80.9701 43.3425C81.4763 43.4779 81.8666 43.734 82.1411 44.1106C82.4199 44.483 82.5593 44.9316 82.5593 45.4563C82.5593 46.3238 82.2762 46.9903 81.71 47.4558C81.1481 47.9213 80.3418 48.1541 79.2909 48.1541H75.8745ZM77.5023 43.9836V46.8718H79.3102C79.8206 46.8718 80.2195 46.747 80.5069 46.4973C80.7943 46.2476 80.938 45.9006 80.938 45.4563C80.938 44.4957 80.4404 44.0048 79.4453 43.9836H77.5023ZM77.5023 42.803H79.0979C79.604 42.803 79.9986 42.6908 80.2817 42.4666C80.5691 42.238 80.7128 41.9164 80.7128 41.5017C80.7128 41.0447 80.5798 40.7146 80.3139 40.5115C80.0522 40.3084 79.6426 40.2068 79.085 40.2068H77.5023V42.803Z" fill="white"/>
<path d="M85.699 48.1541H84.1356V41.2859H85.699V48.1541ZM84.0391 39.5022C84.0391 39.2652 84.1141 39.0684 84.2642 38.9119C84.4187 38.7553 84.6374 38.677 84.9205 38.677C85.2036 38.677 85.4223 38.7553 85.5767 38.9119C85.7312 39.0684 85.8084 39.2652 85.8084 39.5022C85.8084 39.7349 85.7312 39.9296 85.5767 40.0862C85.4223 40.2385 85.2036 40.3147 84.9205 40.3147C84.6374 40.3147 84.4187 40.2385 84.2642 40.0862C84.1141 39.9296 84.0391 39.7349 84.0391 39.5022Z" fill="white"/>
<path d="M89.3663 39.6165V41.2859H90.5951V42.4285H89.3663V46.2625C89.3663 46.5248 89.4177 46.7153 89.5207 46.8337C89.6279 46.948 89.8166 47.0051 90.0869 47.0051C90.267 47.0051 90.4493 46.984 90.6337 46.9417V48.135C90.2777 48.2323 89.9346 48.281 89.6043 48.281C88.4033 48.281 87.8028 47.6272 87.8028 46.3196V42.4285H86.6576V41.2859H87.8028V39.6165H89.3663Z" fill="white"/>
</svg>
