<svg width="281" height="93" viewBox="0 0 281 93" fill="none" xmlns="http://www.w3.org/2000/svg">
<path d="M42.9472 41.4678C39.2611 47.8893 41.6144 57.6374 45.6822 63.5456C47.7161 66.5008 49.7645 69.1524 52.598 69.1524H52.7589C54.0868 69.0994 55.0449 68.6896 55.9694 68.2943C57.0092 67.8483 58.085 67.3903 59.7731 67.3903C61.3772 67.3903 62.4025 67.8339 63.3919 68.2653C64.3812 68.6968 65.3754 69.1283 66.8594 69.0994C70.0387 69.0391 71.991 66.1778 73.7127 63.654C75.0017 61.7507 76.0125 59.6718 76.7143 57.4807L76.7263 57.4422C76.7546 57.3581 76.7508 57.2665 76.7158 57.1851C76.6808 57.1036 76.6169 57.0381 76.5366 57.001H76.5102C75.9507 56.772 71.04 54.5905 70.9872 48.6245C70.9392 43.7818 74.6708 41.2195 75.42 40.7542L75.4536 40.7325C75.4937 40.7065 75.5281 40.6727 75.5549 40.6331C75.5817 40.5935 75.6003 40.5489 75.6097 40.502C75.6191 40.455 75.6191 40.4067 75.6096 40.3598C75.6001 40.3128 75.5814 40.2683 75.5545 40.2288C72.9803 36.4443 69.0325 35.8754 67.4429 35.8055C67.2027 35.7838 66.9746 35.7717 66.7345 35.7717C64.8687 35.7717 63.0797 36.478 61.6437 37.0469C60.652 37.4398 59.7947 37.77 59.204 37.77C58.5412 37.77 57.6792 37.4253 56.6826 37.03C55.3475 36.4973 53.8347 35.8947 52.2354 35.8947H52.1225C48.4029 35.9453 44.885 38.0834 42.9472 41.4678Z" fill="url(#paint0_linear)"/>
<path d="M67.4476 25.3775C65.1952 25.4691 62.4913 26.8624 60.8753 28.7523C59.5017 30.348 58.1618 33.0116 58.5148 35.6969C58.5256 35.7782 58.564 35.8532 58.6234 35.9094C58.6829 35.9656 58.7599 35.9995 58.8413 36.0055C58.9926 36.0175 59.1487 36.0247 59.3024 36.0247C61.5068 36.0247 63.8841 34.8002 65.5074 32.8284C67.2171 30.7482 68.0792 28.0797 67.8198 25.6861C67.8068 25.5975 67.7616 25.517 67.6928 25.46C67.6241 25.403 67.5367 25.3736 67.4476 25.3775V25.3775Z" fill="url(#paint1_linear)"/>
<path d="M93.3818 25.1897H97.6562C101.08 25.1897 103.395 27.4532 103.395 30.6109C103.395 33.7687 101.08 36.0322 97.6562 36.0322H93.3818V25.1897ZM97.5937 35.3138C100.648 35.3138 102.608 33.3613 102.608 30.6037C102.608 27.8461 100.648 25.896 97.5937 25.896H94.1695V35.3211L97.5937 35.3138Z" fill="url(#paint2_linear)"/>
<path d="M105.009 31.9899C105.009 29.5794 106.721 27.8921 109.036 27.8921C111.351 27.8921 113.063 29.5939 113.063 31.9899C113.063 34.386 111.351 36.0878 109.036 36.0878C106.721 36.0878 105.009 34.3908 105.009 31.9899ZM112.275 31.9899C112.275 29.9627 110.887 28.5839 109.036 28.5839C107.184 28.5839 105.787 29.9724 105.787 31.9899C105.787 34.0075 107.17 35.3984 109.026 35.3984C110.882 35.3984 112.266 34.0196 112.266 31.9899H112.275Z" fill="url(#paint3_linear)"/>
<path d="M126.724 27.947L123.667 36.0319H122.947L120.228 29.0076L117.496 36.0319H116.787L113.73 27.947H114.472L117.157 35.1641L119.897 27.947H120.56L123.29 35.1496L126.013 27.947H126.724Z" fill="url(#paint4_linear)"/>
<path d="M135.717 31.3099V36.0321H134.946V31.3701C134.946 29.543 133.974 28.5836 132.338 28.5836C130.441 28.5836 129.284 29.8057 129.284 31.7173V36.0321H128.513V27.9472H129.262V29.6973C129.803 28.5667 130.929 27.887 132.456 27.887C134.406 27.887 135.717 29.0464 135.717 31.3099Z" fill="url(#paint5_linear)"/>
<path d="M138.896 24.5413H139.667V36.0321H138.896V24.5413Z" fill="url(#paint6_linear)"/>
<path d="M142.042 31.9899C142.042 29.5794 143.757 27.8921 146.071 27.8921C148.386 27.8921 150.098 29.5939 150.098 31.9899C150.098 34.386 148.384 36.0878 146.071 36.0878C143.759 36.0878 142.042 34.3908 142.042 31.9899ZM149.311 31.9899C149.311 29.9627 147.923 28.5839 146.071 28.5839C144.22 28.5839 142.83 29.9724 142.83 31.9899C142.83 34.0075 144.218 35.3984 146.071 35.3984C147.925 35.3984 149.311 34.0196 149.311 31.9899Z" fill="url(#paint7_linear)"/>
<path d="M158.275 30.9048V36.0319H157.532V34.5856C157.023 35.5137 156.036 36.0874 154.632 36.0874C152.828 36.0874 151.731 35.1569 151.731 33.7805C151.731 32.556 152.504 31.5171 154.74 31.5171H157.504V30.8759C157.504 29.3717 156.685 28.5666 155.102 28.5666C154.083 28.5566 153.095 28.9199 152.324 29.5886L151.937 29.0318C152.841 28.2747 153.986 27.8684 155.162 27.8868C157.163 27.8868 158.275 28.9089 158.275 30.9048ZM157.504 33.6479V32.1414H154.757C153.09 32.1414 152.504 32.838 152.504 33.7685C152.504 34.8219 153.321 35.4727 154.74 35.4727C156.099 35.4606 157.04 34.8098 157.504 33.6479Z" fill="url(#paint8_linear)"/>
<path d="M168.627 24.5413V36.0321H167.87V34.1278C167.563 34.7383 167.088 35.2478 166.502 35.5963C165.916 35.9448 165.242 36.1178 164.561 36.0948C162.295 36.0948 160.58 34.4075 160.58 31.9969C160.58 29.5864 162.295 27.8991 164.561 27.8991C165.234 27.8802 165.899 28.0508 166.48 28.3916C167.061 28.7325 167.535 29.2299 167.849 29.8275V24.5413H168.627ZM167.856 31.9897C167.856 29.9625 166.466 28.5837 164.614 28.5837C162.763 28.5837 161.375 29.9721 161.375 31.9897C161.375 34.0073 162.763 35.3982 164.614 35.3982C166.466 35.3982 167.856 34.0194 167.856 31.9897V31.9897Z" fill="url(#paint9_linear)"/>
<path d="M174.966 31.9899C174.966 29.5794 176.681 27.8921 178.993 27.8921C181.306 27.8921 183.023 29.5939 183.023 31.9899C183.023 34.386 181.308 36.0878 178.993 36.0878C176.678 36.0878 174.966 34.3908 174.966 31.9899ZM182.235 31.9899C182.235 29.9627 180.847 28.5839 178.993 28.5839C177.139 28.5839 175.754 29.9724 175.754 31.9899C175.754 34.0075 177.142 35.3984 178.993 35.3984C180.845 35.3984 182.235 34.0196 182.235 31.9899Z" fill="url(#paint10_linear)"/>
<path d="M192.618 31.3099V36.0321H191.848V31.3701C191.848 29.543 190.887 28.5836 189.24 28.5836C187.34 28.5836 186.183 29.8057 186.183 31.7173V36.0321H185.412V27.9472H186.154V29.6973C186.694 28.5667 187.821 27.887 189.348 27.887C191.307 27.887 192.618 29.0464 192.618 31.3099Z" fill="url(#paint11_linear)"/>
<path d="M203.758 35.5159C203.296 35.9052 202.708 36.1095 202.106 36.0895C200.687 36.0895 199.916 35.2531 199.916 33.8912V28.6146H198.434V27.9469H199.916V26.1824H200.687V27.9469H203.249V28.6146H200.687V33.8285C200.687 34.8674 201.196 35.4411 202.183 35.4411C202.641 35.4513 203.086 35.2907 203.434 34.9904L203.758 35.5159Z" fill="url(#paint12_linear)"/>
<path d="M213.106 31.31V36.0321H212.347V31.3702C212.347 29.5431 211.375 28.5837 209.739 28.5837C207.842 28.5837 206.685 29.8058 206.685 31.7173V36.0321H205.914V24.5413H206.685V29.6371C207.24 28.5355 208.351 27.887 209.847 27.887C211.795 27.887 213.106 29.0465 213.106 31.31Z" fill="url(#paint13_linear)"/>
<path d="M223.105 32.1754H216.19C216.266 34.1038 217.671 35.3983 219.599 35.3983C220.086 35.4158 220.57 35.3232 221.016 35.1275C221.462 34.9319 221.858 34.638 222.176 34.2677L222.623 34.7788C221.902 35.6465 220.802 36.0949 219.583 36.0949C217.145 36.0949 215.433 34.3907 215.433 31.997C215.433 29.6034 217.083 27.8992 219.29 27.8992C221.496 27.8992 223.132 29.5697 223.132 31.9705C223.12 32.0211 223.105 32.0983 223.105 32.1754ZM216.19 31.5728H222.361C222.253 29.8228 220.99 28.5669 219.275 28.5669C217.561 28.5669 216.317 29.8059 216.19 31.5728Z" fill="url(#paint14_linear)"/>
<path d="M104.802 59.9993H95.5742L93.7564 64.2876H90.2217L98.5254 45.7605H101.899L110.232 64.2876H106.649L104.802 59.9993ZM103.669 57.2996L100.189 49.2003L96.734 57.2996H103.669Z" fill="url(#paint15_linear)"/>
<path d="M127.214 57.2105C127.214 61.6048 124.181 64.4637 120.07 64.4637C118.276 64.4637 116.694 63.8538 115.56 62.5594V69.4125H112.263V50.1549H115.402V52.0062C116.509 50.6563 118.144 49.9958 120.07 49.9958C124.181 49.9958 127.214 52.8547 127.214 57.2105ZM123.866 57.2105C123.866 54.5107 122.073 52.792 119.7 52.792C117.328 52.792 115.507 54.5107 115.507 57.2105C115.507 59.9103 117.328 61.6314 119.7 61.6314C122.073 61.6314 123.866 59.9199 123.866 57.2105V57.2105Z" fill="url(#paint16_linear)"/>
<path d="M145.301 57.2105C145.301 61.6048 142.27 64.4637 138.157 64.4637C136.363 64.4637 134.781 63.8538 133.647 62.5594V69.4125H130.353V50.1549H133.489V52.0062C134.596 50.6563 136.231 49.9958 138.157 49.9958C142.27 49.9958 145.301 52.8547 145.301 57.2105ZM141.953 57.2105C141.953 54.5107 140.159 52.792 137.787 52.792C135.414 52.792 133.585 54.5204 133.585 57.2105C133.585 59.9006 135.405 61.6314 137.777 61.6314C140.15 61.6314 141.953 59.9199 141.953 57.2105Z" fill="url(#paint17_linear)"/>
<path d="M154.476 62.3305L155.662 59.6573C157.139 60.8481 159.485 61.6942 161.752 61.6942C164.634 61.6942 165.834 60.6625 165.834 59.2837C165.834 55.287 154.867 57.9073 154.867 51.0253C154.867 48.0338 157.24 45.4932 162.312 45.4932C164.526 45.4932 166.848 46.0765 168.454 47.1347L167.373 49.808C165.832 48.8876 164.078 48.389 162.285 48.3617C159.437 48.3617 158.277 49.4729 158.277 50.8758C158.277 54.8194 169.22 52.2522 169.22 59.0547C169.22 62.0196 166.819 64.5603 161.757 64.5603C158.88 64.553 156.006 63.6539 154.476 62.3305Z" fill="url(#paint18_linear)"/>
<path d="M180.763 63.5214C179.973 64.1554 178.787 64.4736 177.598 64.4736C174.515 64.4736 172.747 62.832 172.747 59.7104V52.908H170.428V50.2564H172.747V47.0264H176.044V50.2564H179.814V52.908H176.044V59.6212C176.044 60.9976 176.729 61.7377 177.994 61.7377C178.658 61.7564 179.308 61.551 179.841 61.1543L180.763 63.5214Z" fill="url(#paint19_linear)"/>
<path d="M181.851 57.2108C181.851 52.9779 185.016 49.9792 189.34 49.9792C193.715 49.9792 196.854 52.9707 196.854 57.2108C196.854 61.4508 193.715 64.464 189.34 64.464C185.008 64.4736 181.851 61.4557 181.851 57.2108ZM193.531 57.2108C193.531 54.511 191.739 52.7923 189.34 52.7923C186.941 52.7923 185.174 54.511 185.174 57.2108C185.174 59.9105 186.965 61.6316 189.34 61.6316C191.715 61.6316 193.523 59.9202 193.523 57.2108H193.531Z" fill="url(#paint20_linear)"/>
<path d="M208.157 49.9958V53.1464C207.905 53.0963 207.65 53.0697 207.393 53.0668C204.889 53.0668 203.311 54.5469 203.311 57.4323V64.2877H200.009V50.1549H203.148V52.2183C204.096 50.7359 205.811 49.9958 208.157 49.9958Z" fill="url(#paint21_linear)"/>
<path d="M224.003 58.2809H212.957C213.351 60.3443 215.066 61.6677 217.52 61.6677C219.102 61.6677 220.341 61.1639 221.343 60.1322L223.11 62.1715C221.844 63.6804 219.866 64.4735 217.44 64.4735C212.722 64.4735 209.663 61.429 209.663 57.2203C209.663 53.0115 212.748 49.9888 216.941 49.9888C221.054 49.9888 224.058 52.8814 224.058 57.2926C224.056 57.565 224.03 57.9627 224.003 58.2809ZM212.931 56.0825H220.92C220.656 54.0457 219.1 52.6427 216.939 52.6427C214.777 52.6427 213.245 54.0191 212.931 56.0825Z" fill="url(#paint22_linear)"/>
<defs>
<linearGradient id="paint0_linear" x1="53.4962" y1="13.8235" x2="104.354" y2="28.5017" gradientUnits="userSpaceOnUse">
<stop stop-color="#3564AC"/>
<stop offset="1" stop-color="#4497E1"/>
</linearGradient>
<linearGradient id="paint1_linear" x1="61.7274" y1="18.3763" x2="75.4876" y2="21.6633" gradientUnits="userSpaceOnUse">
<stop stop-color="#3564AC"/>
<stop offset="1" stop-color="#4497E1"/>
</linearGradient>
<linearGradient id="paint2_linear" x1="96.8622" y1="18.0606" x2="111.436" y2="21.6994" gradientUnits="userSpaceOnUse">
<stop stop-color="#3564AC"/>
<stop offset="1" stop-color="#4497E1"/>
</linearGradient>
<linearGradient id="paint3_linear" x1="107.808" y1="22.5033" x2="119.439" y2="25.5935" gradientUnits="userSpaceOnUse">
<stop stop-color="#3564AC"/>
<stop offset="1" stop-color="#4497E1"/>
</linearGradient>
<linearGradient id="paint4_linear" x1="118.247" y1="22.6311" x2="135.146" y2="29.9738" gradientUnits="userSpaceOnUse">
<stop stop-color="#3564AC"/>
<stop offset="1" stop-color="#4497E1"/>
</linearGradient>
<linearGradient id="paint5_linear" x1="131.017" y1="22.5314" x2="141.553" y2="25.0507" gradientUnits="userSpaceOnUse">
<stop stop-color="#3564AC"/>
<stop offset="1" stop-color="#4497E1"/>
</linearGradient>
<linearGradient id="paint6_linear" x1="139.164" y1="16.9858" x2="140.355" y2="17.0075" gradientUnits="userSpaceOnUse">
<stop stop-color="#3564AC"/>
<stop offset="1" stop-color="#4497E1"/>
</linearGradient>
<linearGradient id="paint7_linear" x1="144.842" y1="22.5033" x2="156.476" y2="25.5952" gradientUnits="userSpaceOnUse">
<stop stop-color="#3564AC"/>
<stop offset="1" stop-color="#4497E1"/>
</linearGradient>
<linearGradient id="paint8_linear" x1="154.005" y1="22.4939" x2="163.672" y2="24.5792" gradientUnits="userSpaceOnUse">
<stop stop-color="#3564AC"/>
<stop offset="1" stop-color="#4497E1"/>
</linearGradient>
<linearGradient id="paint9_linear" x1="163.377" y1="16.9433" x2="175.392" y2="19.2054" gradientUnits="userSpaceOnUse">
<stop stop-color="#3564AC"/>
<stop offset="1" stop-color="#4497E1"/>
</linearGradient>
<linearGradient id="paint10_linear" x1="177.766" y1="22.5033" x2="189.401" y2="25.5952" gradientUnits="userSpaceOnUse">
<stop stop-color="#3564AC"/>
<stop offset="1" stop-color="#4497E1"/>
</linearGradient>
<linearGradient id="paint11_linear" x1="187.917" y1="22.5314" x2="198.456" y2="25.0523" gradientUnits="userSpaceOnUse">
<stop stop-color="#3564AC"/>
<stop offset="1" stop-color="#4497E1"/>
</linearGradient>
<linearGradient id="paint12_linear" x1="200.284" y1="19.6674" x2="208.345" y2="20.8383" gradientUnits="userSpaceOnUse">
<stop stop-color="#3564AC"/>
<stop offset="1" stop-color="#4497E1"/>
</linearGradient>
<linearGradient id="paint13_linear" x1="208.414" y1="16.9858" x2="219.224" y2="18.815" gradientUnits="userSpaceOnUse">
<stop stop-color="#3564AC"/>
<stop offset="1" stop-color="#4497E1"/>
</linearGradient>
<linearGradient id="paint14_linear" x1="218.109" y1="22.5104" x2="229.291" y2="25.3501" gradientUnits="userSpaceOnUse">
<stop stop-color="#3564AC"/>
<stop offset="1" stop-color="#4497E1"/>
</linearGradient>
<linearGradient id="paint15_linear" x1="97.1766" y1="33.5786" x2="125.684" y2="41.9027" gradientUnits="userSpaceOnUse">
<stop stop-color="#3564AC"/>
<stop offset="1" stop-color="#4497E1"/>
</linearGradient>
<linearGradient id="paint16_linear" x1="117.46" y1="37.2291" x2="139.615" y2="41.8412" gradientUnits="userSpaceOnUse">
<stop stop-color="#3564AC"/>
<stop offset="1" stop-color="#4497E1"/>
</linearGradient>
<linearGradient id="paint17_linear" x1="135.548" y1="37.2291" x2="157.7" y2="41.8398" gradientUnits="userSpaceOnUse">
<stop stop-color="#3564AC"/>
<stop offset="1" stop-color="#4497E1"/>
</linearGradient>
<linearGradient id="paint18_linear" x1="159.601" y1="32.9563" x2="181.442" y2="37.5224" gradientUnits="userSpaceOnUse">
<stop stop-color="#3564AC"/>
<stop offset="1" stop-color="#4497E1"/>
</linearGradient>
<linearGradient id="paint19_linear" x1="174.02" y1="35.5546" x2="189.6" y2="38.0497" gradientUnits="userSpaceOnUse">
<stop stop-color="#3564AC"/>
<stop offset="1" stop-color="#4497E1"/>
</linearGradient>
<linearGradient id="paint20_linear" x1="187.065" y1="40.4553" x2="208.575" y2="46.479" gradientUnits="userSpaceOnUse">
<stop stop-color="#3564AC"/>
<stop offset="1" stop-color="#4497E1"/>
</linearGradient>
<linearGradient id="paint21_linear" x1="202.841" y1="40.5987" x2="215.146" y2="42.4953" gradientUnits="userSpaceOnUse">
<stop stop-color="#3564AC"/>
<stop offset="1" stop-color="#4497E1"/>
</linearGradient>
<linearGradient id="paint22_linear" x1="214.666" y1="40.4649" x2="235.425" y2="46.0427" gradientUnits="userSpaceOnUse">
<stop stop-color="#3564AC"/>
<stop offset="1" stop-color="#4497E1"/>
</linearGradient>
</defs>
</svg>
