<svg width="1440" height="539" viewBox="0 0 1440 539" fill="none" xmlns="http://www.w3.org/2000/svg">
<path opacity="0.69" d="M-966.73 261.5C-960.731 196.97 -858.73 135.5 -858.73 135.5C-858.73 135.5 -784.91 51.9355 -722.23 51.0364C-701.272 50.7358 -811.73 64.0003 -669.23 59.5003C-526.73 55.0002 -506.23 69.0002 -302.73 82.0002C-99.2299 95.0002 -104.393 63.129 22.6031 51.0364C163.659 37.6052 243.189 17.6563 384.604 26.536C521.096 35.1065 586.604 74.036 728.604 92.1365C859.27 115.536 883.27 92.1365 1219.8 40.1365C1336.77 22.0631 1659.94 80.5349 1659.94 80.5349L2082.6 22.0352C2082.6 22.0352 2148.67 13.2517 2191.27 12.0349C2287.36 9.29036 2366.36 -26.3272 2435.8 40.1365C2518.81 119.577 2478.42 227.641 2435.8 334.336C2373.19 491.094 2242.84 530.428 2082.6 583.5C1939.71 630.827 1782.77 589 1697.8 605.837C1612.84 622.673 1455.77 664 1081.77 670.5C707.77 677 597.271 605.837 275.771 640C-45.7295 674.164 -469.597 684 -557.73 640C-971.697 571.664 -800.23 450.573 -792.73 415.037C-785.23 379.5 -975.118 351.734 -966.73 261.5Z" fill="#E2EAFD"/>
</svg>
