<svg width="1440" height="496" viewBox="0 0 1440 496" fill="none" xmlns="http://www.w3.org/2000/svg">
<path d="M-702.23 72.0002C-621.23 10.5002 -246.197 70.0362 -151.53 46.0361C-111.13 35.7361 -72.5333 61.3695 53.9999 37.0361C121.467 24.0617 148 13.0002 319.136 0.0361328C426.87 2.43613 468.47 25.0361 572.47 37.0361C606.47 40.9361 898.603 65.4362 952.603 64.0362C1006.6 62.6362 1238 41.5727 1362 37.0361C1416.67 35.0361 1575.14 31.0361 1612.47 52.0362C1649.8 73.0362 1633.8 95.7362 1686.6 64.0362C1827.27 15.5358 1997.94 10.0361 2076.47 10.0361C2123.14 23.0361 2487.14 44.0362 2571.14 64.0362C2655.14 84.0362 2900.47 182.036 2879.14 287.036C2857.8 392.036 2679.14 557.036 2535.14 513.036C2391.14 469.036 1971.14 434.036 1684.47 520.036C1397.8 606.036 1465.99 638.69 1312.47 651.036C1125.06 666.108 1032.24 547.676 844.47 538.036C591.372 525.042 461.757 658.495 208.47 667.036C18.7845 673.433 -275.53 623.036 -275.53 623.036C-275.53 623.036 -676.531 621.057 -754.23 436C-809.819 303.603 -783.23 133.5 -702.23 72.0002Z" fill="#B3D359"/>
</svg>
