<svg width="74" height="74" viewBox="0 0 74 74" fill="none" xmlns="http://www.w3.org/2000/svg">
<path d="M52.9216 45.2769C51.6705 44.4095 50.2532 43.8111 48.7591 43.5194V40.5941C49.0541 40.7267 49.318 40.9197 49.5338 41.1606C49.7464 41.4724 49.9174 41.8105 50.0425 42.1666L53.8581 41.5538C53.6579 40.5315 53.0954 39.616 52.2741 38.9753C51.2512 38.277 50.0438 37.8987 48.8053 37.8884V36.8594H47.2675V37.8884C45.8711 37.8584 44.5126 38.3441 43.4519 39.2528C43.0348 39.6424 42.7049 40.1157 42.4837 40.6418C42.2625 41.1679 42.155 41.7348 42.1684 42.3053C42.1414 43.0905 42.3553 43.8652 42.7813 44.5253C43.1416 45.1031 43.6535 45.571 44.2612 45.8781C45.2174 46.2942 46.2078 46.6269 47.2213 46.8725V50.5031C46.8114 50.3313 46.453 50.0565 46.1806 49.7053C45.9213 49.2568 45.7524 48.7619 45.6834 48.2484L41.625 48.6878C41.7334 49.2951 41.9199 49.8859 42.18 50.4453C42.448 50.9547 42.8088 51.4096 43.2438 51.7866C43.7137 52.2142 44.2585 52.5513 44.8509 52.7809C45.649 53.0406 46.4763 53.1999 47.3137 53.255V55.2091H48.8053V53.3128C49.5066 53.2803 50.2014 53.1638 50.875 52.9659C51.4752 52.7603 52.0348 52.4512 52.5284 52.0525C53.0487 51.6187 53.4806 51.0888 53.8003 50.4916C54.151 49.8619 54.3379 49.1542 54.3438 48.4334C54.3558 47.8347 54.2344 47.2409 53.9884 46.6949C53.7424 46.1489 53.378 45.6645 52.9216 45.2769ZM47.2675 43.1378C46.9156 43.0455 46.5982 42.8526 46.3541 42.5828C46.1791 42.3539 46.0855 42.0731 46.0881 41.785C46.0816 41.5123 46.1717 41.2461 46.3425 41.0334C46.5928 40.7702 46.9141 40.5854 47.2675 40.5016V43.1378ZM50.0425 49.9713C49.6878 50.3088 49.2413 50.534 48.7591 50.6188V47.3234C49.2663 47.4555 49.7318 47.7141 50.1119 48.075C50.3227 48.3236 50.4375 48.6394 50.4356 48.9653C50.4383 49.3386 50.2976 49.6987 50.0425 49.9713V49.9713Z" fill="url(#paint0_linear)"/>
<path d="M47.9382 30.8351C47.1636 30.8321 46.39 30.894 45.6257 31.0201C44.8737 31.1426 44.1317 31.3204 43.4057 31.5519C43.2023 32.4477 42.8958 33.3168 42.4923 34.1419C43.3211 33.7403 44.1943 33.4376 45.0938 33.2401C46.0214 33.0163 46.9724 32.9037 47.9266 32.9048C50.4271 32.9002 52.8728 33.6375 54.9541 35.0234C57.0354 36.4092 58.6589 38.3814 59.6189 40.6902C60.579 42.9991 60.8326 45.5409 60.3476 47.9939C59.8625 50.4469 58.6607 52.7009 56.8942 54.4706C55.1277 56.2404 52.8759 57.4463 50.4238 57.9358C47.9717 58.4253 45.4294 58.1764 43.1188 57.2206C40.8082 56.2647 38.8331 54.6449 37.4434 52.5662C36.0537 50.4874 35.312 48.0431 35.312 45.5426C35.3102 44.5845 35.4228 43.6296 35.6473 42.6982C35.844 41.8052 36.1387 40.9366 36.526 40.1082C35.7071 40.5047 34.846 40.8072 33.9591 41.0101C33.7235 41.7349 33.5457 42.4772 33.4273 43.2301C33.3016 43.9944 33.2397 44.7679 33.2423 45.5426C33.2423 48.4519 34.1051 51.2959 35.7217 53.7148C37.3383 56.1337 39.636 58.0188 42.3241 59.1316C45.0122 60.2445 47.97 60.535 50.8233 59.9666C53.6766 59.3982 56.2972 57.9963 58.3536 55.9382C60.41 53.8802 61.8099 51.2585 62.3761 48.4048C62.9423 45.551 62.6494 42.5935 61.5344 39.9062C60.4195 37.219 58.5326 34.9228 56.1124 33.3081C53.6922 31.6934 50.8476 30.8328 47.9382 30.8351V30.8351Z" fill="url(#paint1_linear)"/>
<path d="M36.0866 28.4415C34.8315 27.5887 33.4148 27.0024 31.9241 26.7187V23.7124C32.2111 23.8528 32.4698 24.0449 32.6872 24.279C32.9041 24.59 33.0791 24.9282 33.2076 25.2849L37.0232 24.6837C36.8206 23.6592 36.2589 22.7407 35.4391 22.0937C34.4216 21.3758 33.2151 20.9736 31.9704 20.9374V19.9199H30.4326V20.9374C29.0193 20.9338 27.6537 21.448 26.5938 22.3827C26.1765 22.7696 25.8462 23.2408 25.6249 23.7651C25.4036 24.2894 25.2964 24.8548 25.3104 25.4237C25.2766 26.2435 25.5032 27.0531 25.9579 27.7362C26.34 28.2936 26.8625 28.7404 27.4726 29.0312C28.4273 29.451 29.418 29.7838 30.4326 30.0255V33.6562C30.0227 33.4844 29.6643 33.2095 29.3919 32.8584C29.1383 32.4083 28.9734 31.9137 28.9063 31.4015L24.7554 31.8871C24.8555 32.4987 25.0383 33.0939 25.2988 33.6562C25.5646 34.1605 25.9213 34.6113 26.351 34.9859C26.8222 35.4176 27.3716 35.7551 27.9697 35.9802C28.7654 36.2511 29.5937 36.4144 30.4326 36.4659V38.3968H31.9241V36.4543C32.6486 36.4355 33.3677 36.3228 34.0632 36.119C34.6618 35.915 35.221 35.6099 35.7166 35.2171C36.2411 34.7844 36.6769 34.2544 37.0001 33.6562C37.328 33.0198 37.4986 32.314 37.4972 31.598C37.5107 31.0003 37.3911 30.4069 37.1471 29.861C36.9032 29.3151 36.5409 28.8303 36.0866 28.4415ZM30.4326 26.3024C30.0814 26.2082 29.7645 26.0157 29.5191 25.7474C29.3392 25.5212 29.245 25.2386 29.2532 24.9496C29.2467 24.6769 29.3368 24.4107 29.5076 24.198C29.7561 23.9327 30.0782 23.7475 30.4326 23.6662V26.3024ZM33.2076 33.1243C32.8568 33.4695 32.4091 33.6995 31.9241 33.7834V30.4765C32.4294 30.6194 32.8932 30.8811 33.2769 31.2396C33.486 31.4846 33.6008 31.7962 33.6007 32.1184C33.5999 32.491 33.4597 32.8499 33.2076 33.1243V33.1243Z" fill="url(#paint2_linear)"/>
<path d="M31.1147 14C29.1833 14 27.2708 14.3804 25.4864 15.1195C23.702 15.8587 22.0807 16.942 20.715 18.3077C19.3492 19.6734 18.2659 21.2948 17.5268 23.0792C16.7876 24.8636 16.4072 26.7761 16.4072 28.7075C16.4072 30.6389 16.7876 32.5514 17.5268 34.3358C18.2659 36.1202 19.3492 37.7416 20.715 39.1073C22.0807 40.473 23.702 41.5563 25.4864 42.2955C27.2708 43.0346 29.1833 43.415 31.1147 43.415C31.8894 43.418 32.6629 43.3561 33.4272 43.23C34.179 43.1061 34.9209 42.9283 35.6472 42.6981C37.8526 41.9716 39.8564 40.7372 41.4972 39.0944C43.138 37.4515 44.37 35.4462 45.0938 33.24C45.324 32.5137 45.5017 31.7718 45.6257 31.02C45.745 30.2549 45.8069 29.4819 45.8107 28.7075C45.8046 24.8107 44.2546 21.0751 41.5003 18.3186C38.7459 15.562 35.0115 14.0092 31.1147 14V14ZM42.5038 34.1419C41.2583 36.7601 39.1466 38.8677 36.526 40.1081C34.8353 40.9139 32.9876 41.3364 31.1147 41.3453C28.6157 41.3453 26.1728 40.6044 24.0947 39.2163C22.0167 37.8281 20.3969 35.855 19.44 33.5464C18.4832 31.2379 18.2322 28.6974 18.7189 26.2462C19.2056 23.7951 20.4081 21.5432 22.1744 19.7753C23.9406 18.0074 26.1914 16.8029 28.6421 16.3139C31.0929 15.825 33.6335 16.0736 35.943 17.0284C38.2525 17.9831 40.227 19.6011 41.6171 21.6779C43.0071 23.7547 43.7503 26.1969 43.7525 28.6959C43.7542 29.6578 43.6416 30.6165 43.4172 31.5519C43.2138 32.4476 42.9073 33.3167 42.5038 34.1419Z" fill="url(#paint3_linear)"/>
<defs>
<linearGradient id="paint0_linear" x1="46.0459" y1="24.7942" x2="65.0445" y2="28.3546" gradientUnits="userSpaceOnUse">
<stop stop-color="#3564AC"/>
<stop offset="1" stop-color="#4497E1"/>
</linearGradient>
<linearGradient id="paint1_linear" x1="43.466" y1="11.4941" x2="85.8471" y2="22.9522" gradientUnits="userSpaceOnUse">
<stop stop-color="#3564AC"/>
<stop offset="1" stop-color="#4497E1"/>
</linearGradient>
<linearGradient id="paint2_linear" x1="29.1844" y1="7.77111" x2="48.2244" y2="11.3213" gradientUnits="userSpaceOnUse">
<stop stop-color="#3564AC"/>
<stop offset="1" stop-color="#4497E1"/>
</linearGradient>
<linearGradient id="paint3_linear" x1="26.627" y1="-5.34085" x2="68.9936" y2="6.10879" gradientUnits="userSpaceOnUse">
<stop stop-color="#3564AC"/>
<stop offset="1" stop-color="#4497E1"/>
</linearGradient>
</defs>
</svg>
