<svg width="74" height="74" viewBox="0 0 74 74" fill="none" xmlns="http://www.w3.org/2000/svg">
<path d="M58.0695 44.9927L58.068 44.9911L54.0442 40.9212L54.0442 40.9211L54.0422 40.9191C53.9152 40.7921 53.8438 40.6198 53.8438 40.4402C53.8438 40.2605 53.9152 40.0883 54.0422 39.9612C54.1692 39.8342 54.3415 39.7628 54.5211 39.7628C54.7008 39.7628 54.8731 39.8342 55.0001 39.9612L55.0006 39.9617L59.0803 44.0298C59.0805 44.0301 59.0808 44.0304 59.0811 44.0307C59.1423 44.0926 59.1906 44.1661 59.2231 44.2469C59.2558 44.328 59.2719 44.4149 59.2706 44.5023L59.2705 44.5023V44.5102C59.2705 44.6842 59.2014 44.8511 59.0783 44.9742C58.9552 45.0973 58.7883 45.1664 58.6143 45.1664H58.518L58.469 45.186C58.4072 45.1795 58.3465 45.1642 58.2888 45.1404C58.2065 45.1066 58.1318 45.0563 58.0695 44.9927ZM54.4749 30.9561V30.9561L54.4712 30.9561C54.3383 30.9571 54.2083 30.9177 54.0983 30.8432C53.9882 30.7687 53.9034 30.6625 53.8551 30.5388C53.8067 30.415 53.7971 30.2795 53.8274 30.1501C53.8577 30.0207 53.9266 29.9036 54.0249 29.8143L54.0335 29.8065L54.0417 29.7983L58.1233 25.7283L58.1233 25.7283L58.1273 25.7242C58.1888 25.6614 58.2624 25.6116 58.3435 25.5778C58.4247 25.544 58.5119 25.5268 58.5998 25.5274V25.5274L58.6056 25.5274C58.6936 25.5268 58.7807 25.544 58.8619 25.5778C58.943 25.6116 59.0166 25.6614 59.0781 25.7242L59.078 25.7243L59.0856 25.7317C59.1481 25.7929 59.1978 25.8658 59.2317 25.9464C59.2656 26.027 59.2831 26.1135 59.2831 26.201C59.2831 26.2884 59.2656 26.3749 59.2317 26.4555C59.1978 26.5361 59.1481 26.6091 59.0856 26.6702L59.0856 26.6702L59.0837 26.6721L55.0021 30.7074L54.9895 30.7199L54.9778 30.7332C54.9185 30.8008 54.846 30.8555 54.7647 30.8939C54.6855 30.9313 54.5996 30.9524 54.5121 30.9561H54.4749ZM56.0011 36.0899C55.8271 36.0899 55.6602 36.0207 55.5371 35.8977C55.414 35.7746 55.3449 35.6077 55.3449 35.4336C55.3449 35.2596 55.414 35.0926 55.5371 34.9696C55.6602 34.8465 55.8271 34.7774 56.0011 34.7774H61.7824C61.9564 34.7774 62.1234 34.8465 62.2464 34.9696C62.3695 35.0926 62.4386 35.2596 62.4386 35.4336C62.4386 35.6077 62.3695 35.7746 62.2464 35.8977C62.1234 36.0207 61.9564 36.0899 61.7824 36.0899H56.0011Z" fill="url(#paint0_linear)" stroke="url(#paint1_linear)"/>
<path d="M59.2993 26.868C59.3828 26.7698 59.4457 26.656 59.4846 26.5334C59.4958 26.4978 59.5051 26.4615 59.5122 26.4246C59.5287 26.3389 59.5335 26.2519 59.5268 26.1658C59.5189 26.064 59.4949 25.9636 59.4553 25.8684C59.4484 25.8519 59.441 25.8356 59.4333 25.8195C59.3896 25.7291 59.3322 25.6463 59.2635 25.5739C59.3294 25.6481 59.3826 25.7328 59.4207 25.8247C59.4656 25.9328 59.4887 26.0487 59.4887 26.1658C59.4887 26.2828 59.4656 26.3987 59.4207 26.5069C59.3759 26.615 59.3101 26.7132 59.2273 26.7959L55.1573 30.8659M59.2993 26.868L57.8812 25.5539L57.8815 25.5535C57.8988 25.5362 57.9166 25.5196 57.9351 25.5038C57.9352 25.5037 57.9353 25.5036 57.9354 25.5034C58.0128 25.437 58.1004 25.3832 58.1951 25.3443C58.2135 25.3368 58.2321 25.3298 58.2509 25.3234C58.3519 25.289 58.4581 25.2718 58.565 25.2725L58.5659 25.2725C58.5782 25.2725 58.5906 25.2728 58.6029 25.2734L58.6029 25.2812M59.2993 26.868L59.2273 26.796L59.2993 26.8681L59.2993 26.868ZM55.1573 30.8659C55.0754 30.9502 54.9774 31.0172 54.8692 31.0629C54.761 31.1087 54.6446 31.1322 54.5271 31.1322C54.4096 31.1322 54.2933 31.1087 54.1851 31.0629C54.0768 31.0172 53.9789 30.9502 53.897 30.8659M55.1573 30.8659L55.2268 30.9335L55.2258 30.9345L55.1573 30.8659ZM53.897 30.8659C53.8145 30.7842 53.749 30.687 53.7043 30.5798C53.6596 30.4726 53.6366 30.3577 53.6366 30.2416C53.6366 30.1254 53.6596 30.0105 53.7043 29.9033C53.749 29.7961 53.8145 29.6989 53.897 29.6172L57.967 25.5356C58.0509 25.4533 58.1504 25.3885 58.2595 25.3448C58.3687 25.3012 58.4854 25.2796 58.6029 25.2812M53.897 30.8659L53.7983 30.9618L54.4913 31.2793C54.3656 31.2755 54.2424 31.2476 54.1282 31.1976C54.0715 31.1728 54.0171 31.1426 53.9656 31.1073C53.905 31.0656 53.8495 31.0174 53.8001 30.9637L53.897 30.8659ZM58.6029 25.2812C58.6683 25.2808 58.7333 25.2876 58.7969 25.3016C58.7336 25.2857 58.6687 25.2762 58.603 25.2734L58.6029 25.2812ZM59.8992 44.4568C59.9057 44.1003 59.7821 43.7532 59.551 43.4806M59.8992 44.4568L55.481 39.3991L59.551 43.4806M59.8992 44.4568C59.8955 44.3983 59.8881 44.3399 59.877 44.282C59.8253 44.0127 59.6951 43.7648 59.5028 43.5693L59.4994 43.5659L59.4824 43.549L59.551 43.4806M59.8992 44.4568L59.4769 43.5435L59.551 43.4806M61.7826 36.8437H56.0014C55.7983 36.8618 55.5938 36.8374 55.4007 36.7721C55.2077 36.7068 55.0303 36.6021 54.8799 36.4645C54.7296 36.3269 54.6095 36.1595 54.5273 35.973C54.4452 35.7865 54.4027 35.5849 54.4027 35.3811C54.4027 35.1773 54.4452 34.9757 54.5273 34.7892C54.6095 34.6027 54.7296 34.4353 54.8799 34.2977C55.0303 34.1601 55.2077 34.0553 55.4007 33.99C55.5938 33.9248 55.7983 33.9004 56.0014 33.9184L61.7826 36.8437ZM61.7826 36.8437C61.9758 36.845 62.1672 36.8078 62.3459 36.7343M61.7826 36.8437L62.3459 36.7343M62.3459 36.7343C62.5245 36.6609 62.6868 36.5527 62.8232 36.4159L62.3459 36.7343ZM59.5808 27.1495C59.7101 27.0204 59.8126 26.8672 59.8826 26.6984C59.9082 26.6366 59.9293 26.573 59.9458 26.5084C59.9742 26.3967 59.9887 26.2816 59.9887 26.1658C59.9887 26.0006 59.9592 25.8369 59.9019 25.6823C59.8958 25.6658 59.8893 25.6494 59.8826 25.6331C59.822 25.4871 59.7371 25.3527 59.6315 25.2355C59.7517 25.3634 59.8486 25.5125 59.9168 25.6761C60.0279 25.9426 60.0579 26.236 60.0031 26.5195C59.9483 26.803 59.8112 27.064 59.6089 27.27L55.5273 31.34C55.3914 31.4783 55.2295 31.5883 55.0509 31.6637C54.8723 31.7392 54.6805 31.7785 54.4867 31.7794L59.5808 27.1495ZM54.4423 39.2729L54.4404 39.5841L54.4379 39.365L54.4404 38.9712L54.4423 39.2729Z" fill="url(#paint2_linear)" stroke="url(#paint3_linear)"/>
<path d="M43.2825 20.0547L28.0084 27.4778C27.3039 27.8124 26.5337 27.9862 25.7538 27.9866H14.5497C13.6072 27.9896 12.7043 28.3662 12.039 29.0337C11.3736 29.7012 11 30.6053 11 31.5478V39.3987C11 39.8644 11.0919 40.3254 11.2704 40.7554C11.449 41.1854 11.7106 41.576 12.0404 41.9047C12.3701 42.2334 12.7616 42.4938 13.1922 42.6709C13.6228 42.848 14.0841 42.9384 14.5497 42.9369H25.7538C26.5355 42.9332 27.3074 43.1113 28.0084 43.4572L43.2825 50.8341V20.0547Z" stroke="url(#paint4_linear)"/>
<path d="M47.7801 29.3394L47.7047 29.8337C48.5564 29.9635 49.3345 30.3914 49.9004 31.041C50.4655 31.6899 50.7825 32.5179 50.7951 33.3782L50.7951 37.5829C50.7951 37.583 50.7951 37.5831 50.7951 37.5832C50.794 38.4441 50.4868 39.2766 49.9283 39.9318C49.3698 40.5871 48.5965 41.0224 47.7465 41.1599L47.3263 41.2278V41.6534V50.9034C47.3263 51.1651 47.2229 51.4162 47.0386 51.6019C46.8548 51.7872 46.6052 51.8925 46.3442 51.895H44.7623C44.6329 51.895 44.5049 51.8694 44.3855 51.8197C44.2661 51.77 44.1577 51.6971 44.0666 51.6053C43.9755 51.5135 43.9034 51.4045 43.8546 51.2847C43.8058 51.1649 43.7812 51.0367 43.7823 50.9073H43.7823V50.9034V20.061C43.7893 19.8122 43.8907 19.5753 44.0661 19.3985C44.2411 19.2221 44.4765 19.1188 44.7246 19.1094H46.3001C46.56 19.1094 46.8093 19.2126 46.993 19.3964C47.1768 19.5802 47.2801 19.8295 47.2801 20.0894V29.3394H47.7801Z" fill="url(#paint5_linear)" stroke="url(#paint6_linear)"/>
<path d="M19.8916 58.0382H18.0184C17.4546 58.0771 16.8978 57.8948 16.4661 57.53C16.0344 57.1652 15.7617 56.6466 15.7059 56.0842L19.8916 58.0382ZM19.8916 58.0382C20.4538 58.0865 21.0123 57.9106 21.4454 57.5489C21.8785 57.1873 22.1512 56.6691 22.2041 56.1073L19.8916 58.0382ZM14.5497 42.4376L14.5481 42.4376C14.1482 42.4389 13.7521 42.3613 13.3824 42.2092C13.0126 42.0571 12.6765 41.8335 12.3934 41.5513C12.1102 41.269 11.8855 40.9337 11.7322 40.5644C11.5789 40.1952 11.5 39.7993 11.5 39.3995V31.5486C11.5 30.7384 11.8212 29.9612 12.3931 29.3874C12.9649 28.8138 13.7406 28.4901 14.5505 28.4873H25.1728V42.4145H22.2041H21.7041V42.9145V56.0823C21.6587 56.5043 21.4512 56.8927 21.1249 57.1651C20.793 57.4423 20.3651 57.577 19.9343 57.5401L19.913 57.5382H19.8916H18.0184H18.0012L17.9841 57.5394C17.5499 57.5693 17.1212 57.429 16.7888 57.1481C16.4623 56.8722 16.2539 56.482 16.2059 56.0578V42.9376V42.4376H15.7059L14.5497 42.4376Z" fill="url(#paint7_linear)" stroke="url(#paint8_linear)"/>
<defs>
<linearGradient id="paint0_linear" x1="56.6567" y1="11.4415" x2="71.3109" y2="13.2878" gradientUnits="userSpaceOnUse">
<stop stop-color="#3564AC"/>
<stop offset="1" stop-color="#4497E1"/>
</linearGradient>
<linearGradient id="paint1_linear" x1="56.6567" y1="11.4415" x2="71.3109" y2="13.2878" gradientUnits="userSpaceOnUse">
<stop stop-color="#3564AC"/>
<stop offset="1" stop-color="#4497E1"/>
</linearGradient>
<linearGradient id="paint2_linear" x1="56.541" y1="10.8816" x2="72.147" y2="12.9323" gradientUnits="userSpaceOnUse">
<stop stop-color="#3564AC"/>
<stop offset="1" stop-color="#4497E1"/>
</linearGradient>
<linearGradient id="paint3_linear" x1="56.541" y1="10.8816" x2="72.147" y2="12.9323" gradientUnits="userSpaceOnUse">
<stop stop-color="#3564AC"/>
<stop offset="1" stop-color="#4497E1"/>
</linearGradient>
<linearGradient id="paint4_linear" x1="22.2204" y1="-0.183197" x2="68.4181" y2="12.9167" gradientUnits="userSpaceOnUse">
<stop stop-color="#3564AC"/>
<stop offset="1" stop-color="#4497E1"/>
</linearGradient>
<linearGradient id="paint5_linear" x1="46.0673" y1="-3.60517" x2="58.4053" y2="-2.81405" gradientUnits="userSpaceOnUse">
<stop stop-color="#3564AC"/>
<stop offset="1" stop-color="#4497E1"/>
</linearGradient>
<linearGradient id="paint6_linear" x1="46.0673" y1="-3.60517" x2="58.4053" y2="-2.81405" gradientUnits="userSpaceOnUse">
<stop stop-color="#3564AC"/>
<stop offset="1" stop-color="#4497E1"/>
</linearGradient>
<linearGradient id="paint7_linear" x1="16.0998" y1="8.22323" x2="38.3973" y2="11.1659" gradientUnits="userSpaceOnUse">
<stop stop-color="#3564AC"/>
<stop offset="1" stop-color="#4497E1"/>
</linearGradient>
<linearGradient id="paint8_linear" x1="16.0998" y1="8.22323" x2="38.3973" y2="11.1659" gradientUnits="userSpaceOnUse">
<stop stop-color="#3564AC"/>
<stop offset="1" stop-color="#4497E1"/>
</linearGradient>
</defs>
</svg>
