<svg width="74" height="74" viewBox="0 0 74 74" fill="none" xmlns="http://www.w3.org/2000/svg">
<path d="M58.2964 50.395C58.298 50.4668 58.285 50.5382 58.2583 50.6049C58.2315 50.6715 58.1915 50.732 58.1408 50.7828C58.09 50.8336 58.0294 50.8736 57.9628 50.9003C57.8961 50.9271 57.8248 50.9401 57.753 50.9385H56.0417L55.7758 53.5632C56.5115 54.0804 57.0633 54.8185 57.3511 55.6705C57.639 56.5225 57.6479 57.4441 57.3767 58.3015C57.1054 59.1589 56.5681 59.9076 55.8426 60.439C55.1171 60.9705 54.2412 61.257 53.3419 61.257C52.4426 61.257 51.5667 60.9705 50.8412 60.439C50.1157 59.9076 49.5783 59.1589 49.3071 58.3015C49.0358 57.4441 49.0448 56.5225 49.3327 55.6705C49.6205 54.8185 50.1723 54.0804 50.908 53.5632L50.642 50.9385H31.853L31.5986 53.5632C32.328 54.0817 32.8736 54.8188 33.1567 55.6677C33.4398 56.5167 33.4457 57.4337 33.1735 58.2863C32.9013 59.1388 32.3652 59.8828 31.6425 60.4107C30.9198 60.9386 30.0481 61.2231 29.1531 61.2231C28.2582 61.2231 27.3864 60.9386 26.6637 60.4107C25.9411 59.8828 25.4049 59.1388 25.1327 58.2863C24.8606 57.4337 24.8664 56.5167 25.1495 55.6677C25.4326 54.8188 25.9783 54.0817 26.7077 53.5632L26.4533 50.9385H25.297C24.8795 50.9396 24.4719 50.8108 24.1309 50.5698C23.7898 50.3289 23.5322 49.9879 23.3937 49.594C23.2552 49.2 23.2427 48.7728 23.3579 48.3715C23.4731 47.9701 23.7104 47.6146 24.0367 47.3541L26.0139 45.7816L25.2392 42.5557H56.458L55.4636 46.1863C55.4225 46.2926 55.349 46.3832 55.2536 46.4455C55.1582 46.5077 55.0456 46.5384 54.9317 46.5332H26.7424L24.6611 48.2097C24.5142 48.3294 24.4077 48.4913 24.3558 48.6735C24.3039 48.8557 24.3093 49.0494 24.3711 49.2285C24.4328 49.4076 24.5481 49.5634 24.7013 49.6748C24.8545 49.7862 25.0383 49.848 25.2277 49.8516H57.753C57.8248 49.85 57.8961 49.863 57.9628 49.8898C58.0294 49.9165 58.09 49.9565 58.1408 50.0073C58.1915 50.058 58.2315 50.1186 58.2583 50.1852C58.285 50.2519 58.298 50.3232 58.2964 50.395V50.395Z" fill="url(#paint0_linear)"/>
<path d="M53.3478 61.8071C52.3618 61.8013 51.4018 61.4912 50.5987 60.9191C49.7957 60.3471 49.1889 59.5411 48.8612 58.6112C48.5335 57.6813 48.501 56.6729 48.768 55.7238C49.035 54.7747 49.5886 53.9313 50.3531 53.3086L50.1796 51.5164H32.3387L32.1653 53.3086C32.9293 53.9365 33.4806 54.7851 33.7438 55.7384C34.0071 56.6916 33.9694 57.7029 33.6359 58.6339C33.3024 59.5648 32.6894 60.3701 31.8808 60.9393C31.0722 61.5086 30.1075 61.8142 29.1185 61.8142C28.1296 61.8142 27.1649 61.5086 26.3563 60.9393C25.5476 60.3701 24.9347 59.5648 24.6012 58.6339C24.2677 57.7029 24.23 56.6916 24.4932 55.7384C24.7565 54.7851 25.3078 53.9365 26.0718 53.3086L25.8984 51.5164H25.2278C24.6879 51.5199 24.1605 51.3546 23.7192 51.0437C23.2779 50.7327 22.9448 50.2916 22.7665 49.7821C22.5882 49.2726 22.5735 48.72 22.7246 48.2018C22.8756 47.6835 23.1848 47.2254 23.609 46.8914L25.2971 45.5386L24.43 41.9658H57.0824L55.9262 46.3249C55.8473 46.5505 55.7005 46.7462 55.5058 46.8849C55.3112 47.0236 55.0783 47.0986 54.8393 47.0996H26.9506L25.0196 48.6489C24.9618 48.6888 24.9198 48.7476 24.9008 48.8151C24.8817 48.8827 24.887 48.9548 24.9156 49.0189C24.9335 49.0882 24.9738 49.1496 25.0303 49.1936C25.0868 49.2375 25.1562 49.2615 25.2278 49.2618H57.7531C57.9236 49.219 58.1016 49.2157 58.2735 49.2521C58.4455 49.2885 58.6069 49.3636 58.7455 49.4718C58.884 49.5799 58.9961 49.7182 59.0732 49.8761C59.1503 50.0341 59.1904 50.2075 59.1904 50.3833C59.1904 50.5591 59.1503 50.7325 59.0732 50.8905C58.9961 51.0485 58.884 51.1868 58.7455 51.2949C58.6069 51.403 58.4455 51.4781 58.2735 51.5145C58.1016 51.5509 57.9236 51.5476 57.7531 51.5049H56.5968L56.4118 53.2971C57.1793 53.9222 57.7342 54.7699 58 55.7234C58.2658 56.6769 58.2294 57.6894 57.8959 58.6214C57.5624 59.5534 56.9482 60.3591 56.1378 60.9275C55.3274 61.496 54.3608 61.7992 53.3709 61.7955L53.3478 61.8071ZM51.174 50.4296L51.5209 53.8983L51.2434 54.0833C50.6075 54.5295 50.1304 55.1666 49.8813 55.9023C49.6321 56.638 49.6239 57.434 49.8579 58.1747C50.0918 58.9153 50.5557 59.5622 51.1822 60.0213C51.8087 60.4805 52.5652 60.728 53.342 60.728C54.1187 60.728 54.8753 60.4805 55.5018 60.0213C56.1283 59.5622 56.5922 58.9153 56.8261 58.1747C57.06 57.434 57.0518 56.638 56.8027 55.9023C56.5535 55.1666 56.0764 54.5295 55.4406 54.0833L55.1746 53.8983L55.5215 50.4296H51.174ZM26.9506 50.4296L27.2859 53.8983L27.0084 54.0949C26.3788 54.5424 25.9079 55.1784 25.6635 55.9111C25.4191 56.6438 25.414 57.4352 25.6488 58.171C25.8837 58.9068 26.3464 59.5489 26.9701 60.0045C27.5938 60.4602 28.3462 60.7057 29.1185 60.7057C29.8909 60.7057 30.6433 60.4602 31.267 60.0045C31.8907 59.5489 32.3534 58.9068 32.5883 58.171C32.8231 57.4352 32.818 56.6438 32.5736 55.9111C32.3292 55.1784 31.8582 54.5424 31.2287 54.0949L30.9512 53.9099L31.2865 50.4411L26.9506 50.4296ZM26.5806 45.9549H54.8046L55.5678 43.1336H25.8984L26.5806 45.9549Z" fill="url(#paint1_linear)"/>
<path d="M60.3775 25.2811L56.6081 39.1561H24.9153L19.8741 18.1008C19.8314 17.8999 19.7206 17.72 19.5605 17.5915C19.4003 17.4629 19.2007 17.3937 18.9953 17.3955H13.7344C13.581 17.3955 13.434 17.3346 13.3256 17.2262C13.2172 17.1178 13.1562 16.9707 13.1562 16.8174C13.1562 16.6641 13.2172 16.517 13.3256 16.4086C13.434 16.3002 13.581 16.2393 13.7344 16.2393H18.9953C19.4499 16.2387 19.8912 16.3929 20.2464 16.6767C20.6016 16.9604 20.8495 17.3567 20.9494 17.8002L22.73 24.6221H59.8456C59.9252 24.6186 60.0046 24.6323 60.0784 24.6622C60.1522 24.6921 60.2188 24.7376 60.2734 24.7955C60.344 24.8521 60.3929 24.9313 60.4119 25.0198C60.4308 25.1083 60.4187 25.2006 60.3775 25.2811Z" fill="url(#paint2_linear)"/>
<path d="M57.4869 40.2315H24.0134L18.7872 18.5518H13.7344C13.2744 18.5518 12.8332 18.369 12.508 18.0438C12.1827 17.7185 12 17.2774 12 16.8174C12 16.3574 12.1827 15.9163 12.508 15.591C12.8332 15.2658 13.2744 15.083 13.7344 15.083H18.9953C19.7117 15.0807 20.4076 15.322 20.9686 15.7675C21.5296 16.213 21.9224 16.836 22.0825 17.5343L23.6203 23.4543H59.8456C60.0779 23.4536 60.308 23.4992 60.5224 23.5886C60.7369 23.6779 60.9313 23.8092 61.0944 23.9746C61.278 24.1598 61.4123 24.388 61.485 24.6385C61.5577 24.8889 61.5665 25.1536 61.5106 25.4083V25.4777L57.4869 40.2315ZM25.8403 37.919H55.7178L59.0247 25.813H22.9266L25.8403 37.919Z" fill="url(#paint3_linear)"/>
<defs>
<linearGradient id="paint0_linear" x1="35.4505" y1="30.2593" x2="78.5464" y2="52.0755" gradientUnits="userSpaceOnUse">
<stop stop-color="#3564AC"/>
<stop offset="1" stop-color="#4497E1"/>
</linearGradient>
<linearGradient id="paint1_linear" x1="35.3315" y1="28.9153" x2="80.6317" y2="51.4801" gradientUnits="userSpaceOnUse">
<stop stop-color="#3564AC"/>
<stop offset="1" stop-color="#4497E1"/>
</linearGradient>
<linearGradient id="paint2_linear" x1="29.5839" y1="1.17108" x2="85.3282" y2="32.2538" gradientUnits="userSpaceOnUse">
<stop stop-color="#3564AC"/>
<stop offset="1" stop-color="#4497E1"/>
</linearGradient>
<linearGradient id="paint3_linear" x1="29.221" y1="-1.45247" x2="88.8952" y2="30.3332" gradientUnits="userSpaceOnUse">
<stop stop-color="#3564AC"/>
<stop offset="1" stop-color="#4497E1"/>
</linearGradient>
</defs>
</svg>
