<svg width="74" height="74" viewBox="0 0 74 74" fill="none" xmlns="http://www.w3.org/2000/svg">
<path d="M40.1614 25.3981L40.017 25.2434V23.1809C40.034 23.0915 40.0775 23.0093 40.1419 22.9449C40.2063 22.8805 40.2885 22.837 40.3779 22.82L40.5945 23.3975V24.9341L40.1614 25.3981ZM40.5945 25.9756L40.1614 25.5425L40.017 25.6869V27.7494C40.0335 27.8401 40.0766 27.9239 40.1409 27.99C40.2052 28.0561 40.2877 28.1016 40.3779 28.1206L40.5945 27.5328V25.9756ZM40.677 27.5431L40.4604 28.1206H42.7395L42.5229 27.5431H40.677ZM44.2348 23.4181L44.0182 22.8406C43.928 22.8583 43.8449 22.9019 43.779 22.966C43.7131 23.0301 43.6672 23.1119 43.647 23.2016V25.2641L43.8017 25.4187L44.2348 24.9753V23.4181ZM46.1426 23.4181L46.3695 22.8303H44.0904L44.3276 23.4181H46.1426ZM44.3173 27.5431L44.1007 28.1206H46.3798L46.1529 27.5431H44.3173ZM46.2561 25.7075L46.5757 25.4187L46.2767 25.13H44.2142L43.8532 25.46L44.1111 25.7075H46.2561ZM46.2561 25.9756V27.5122L46.4726 28.1C46.5623 28.0797 46.6441 28.0339 46.7082 27.968C46.7723 27.9021 46.8158 27.8189 46.8336 27.7288V25.6663L46.6892 25.5219L46.2561 25.9756ZM47.9782 22.8819L47.7617 23.4594V24.9959L48.1948 25.4291L48.3495 25.2847V23.2222C48.3267 23.1295 48.2758 23.046 48.2038 22.9833C48.1319 22.9205 48.0423 22.8815 47.9473 22.8716L47.9782 22.8819ZM47.7617 25.9756V27.5122L47.9782 28.0897C48.0684 28.072 48.1515 28.0284 48.2175 27.9643C48.2834 27.9003 48.3292 27.8184 48.3495 27.7288V25.6663L48.1948 25.5116L47.7617 25.9756ZM54.0317 18.6847V57.8413C54.0317 58.6618 53.7057 59.4487 53.1255 60.0289C52.5453 60.6091 51.7584 60.935 50.9379 60.935H23.0942C22.2737 60.935 21.4868 60.6091 20.9066 60.0289C20.3264 59.4487 20.0004 58.6618 20.0004 57.8413V18.7156C19.9936 18.305 20.0686 17.8972 20.221 17.5159C20.3734 17.1345 20.6002 16.7874 20.8881 16.4946C21.1761 16.2018 21.5195 15.9693 21.8982 15.8106C22.277 15.652 22.6835 15.5703 23.0942 15.5703H50.9379C51.346 15.5743 51.7492 15.659 52.1244 15.8196C52.4995 15.9801 52.8392 16.2132 53.1239 16.5056C53.4086 16.7979 53.6326 17.1437 53.7831 17.523C53.9336 17.9023 54.0076 18.3076 54.0007 18.7156L54.0317 18.6847ZM29.3229 53.1181C29.3483 52.6684 29.1943 52.2269 28.8946 51.8905C28.595 51.5542 28.1742 51.3503 27.7245 51.3237H25.8167C25.6008 51.3243 25.3877 51.3717 25.1919 51.4625C24.9961 51.5532 24.8222 51.6853 24.6823 51.8497C24.3701 52.1977 24.2007 52.6507 24.2079 53.1181C24.1853 53.5699 24.3414 54.0125 24.6424 54.3502C24.9434 54.6879 25.3652 54.8936 25.8167 54.9228H27.7761C28.2174 54.8808 28.6252 54.6693 28.9138 54.3327C29.2023 53.9961 29.349 53.5607 29.3229 53.1181V53.1181ZM29.3229 47.6422C29.3369 47.4186 29.3066 47.1945 29.2337 46.9827C29.1609 46.7709 29.0469 46.5756 28.8984 46.4079C28.7499 46.2403 28.5698 46.1036 28.3683 46.0057C28.1669 45.9078 27.9481 45.8506 27.7245 45.8375H25.8167C25.6013 45.8408 25.389 45.8893 25.1936 45.9799C24.9981 46.0705 24.824 46.2012 24.6823 46.3634C24.3712 46.7162 24.2021 47.1719 24.2079 47.6422C24.1854 48.093 24.3418 48.5344 24.6431 48.8704C24.9443 49.2065 25.3661 49.4099 25.8167 49.4366H27.7761C28.2165 49.3971 28.6243 49.1877 28.9131 48.8528C29.2018 48.5179 29.3488 48.0837 29.3229 47.6422V47.6422ZM29.3229 42.6509C29.3484 42.2001 29.1946 41.7575 28.8953 41.4195C28.5959 41.0815 28.1751 40.8755 27.7245 40.8462H25.8167C25.6002 40.8488 25.3867 40.898 25.191 40.9906C24.9952 41.0831 24.8217 41.2168 24.6823 41.3825C24.3701 41.7305 24.2007 42.1835 24.2079 42.6509C24.1853 43.1028 24.3414 43.5453 24.6424 43.883C24.9434 44.2207 25.3652 44.4264 25.8167 44.4556H27.7761C28.2174 44.4137 28.6252 44.2021 28.9138 43.8655C29.2023 43.5289 29.349 43.0935 29.3229 42.6509V42.6509ZM29.3229 37.0203C29.3369 36.7968 29.3066 36.5727 29.2337 36.3609C29.1609 36.1491 29.0469 35.9537 28.8984 35.7861C28.7499 35.6184 28.5698 35.4817 28.3683 35.3838C28.1669 35.2859 27.9481 35.2288 27.7245 35.2156H25.8167C25.6013 35.2189 25.389 35.2674 25.1936 35.358C24.9981 35.4486 24.824 35.5793 24.6823 35.7416C24.3694 36.0932 24.2001 36.5497 24.2079 37.0203C24.1854 37.4711 24.3418 37.9125 24.6431 38.2485C24.9443 38.5846 25.3661 38.7881 25.8167 38.8147H27.7761C28.2165 38.7752 28.6243 38.5659 28.9131 38.2309C29.2018 37.896 29.3488 37.4618 29.3229 37.0203V37.0203ZM36.6036 53.1181C36.6261 52.6674 36.4697 52.2259 36.1684 51.8899C35.8671 51.5538 35.4453 51.3504 34.9948 51.3237H33.0354C32.8196 51.3243 32.6064 51.3717 32.4106 51.4625C32.2148 51.5532 32.041 51.6853 31.9011 51.8497C31.5888 52.1977 31.4194 52.6507 31.4267 53.1181C31.4041 53.5699 31.5601 54.0125 31.8612 54.3502C32.1622 54.6879 32.584 54.8936 33.0354 54.9228H34.9948C35.4462 54.8936 35.8681 54.6879 36.1691 54.3502C36.4701 54.0125 36.6262 53.5699 36.6036 53.1181V53.1181ZM36.6036 47.6422C36.6289 47.1897 36.4738 46.7456 36.1722 46.4073C35.8706 46.069 35.4472 45.8641 34.9948 45.8375H33.0354C32.82 45.8408 32.6078 45.8893 32.4123 45.9799C32.2169 46.0705 32.0427 46.2012 31.9011 46.3634C31.5899 46.7162 31.4209 47.1719 31.4267 47.6422C31.4041 48.093 31.5605 48.5344 31.8618 48.8704C32.1631 49.2065 32.5849 49.4099 33.0354 49.4366H34.9948C35.4453 49.4099 35.8671 49.2065 36.1684 48.8704C36.4697 48.5344 36.6261 48.093 36.6036 47.6422V47.6422ZM36.6036 42.6509C36.6262 42.1991 36.4701 41.7565 36.1691 41.4189C35.8681 41.0812 35.4462 40.8755 34.9948 40.8462H33.0354C32.8189 40.8488 32.6055 40.898 32.4097 40.9906C32.214 41.0831 32.0405 41.2168 31.9011 41.3825C31.5888 41.7305 31.4194 42.1835 31.4267 42.6509C31.4041 43.1028 31.5601 43.5453 31.8612 43.883C32.1622 44.2207 32.584 44.4264 33.0354 44.4556H34.9948C35.4462 44.4264 35.8681 44.2207 36.1691 43.883C36.4701 43.5453 36.6262 43.1028 36.6036 42.6509V42.6509ZM36.6036 37.0203C36.6289 36.5678 36.4738 36.1237 36.1722 35.7854C35.8706 35.4471 35.4472 35.2422 34.9948 35.2156H33.0354C32.82 35.2189 32.6078 35.2674 32.4123 35.358C32.2169 35.4486 32.0427 35.5793 31.9011 35.7416C31.5882 36.0932 31.4189 36.5497 31.4267 37.0203C31.4041 37.4711 31.5605 37.9125 31.8618 38.2485C32.1631 38.5846 32.5849 38.7881 33.0354 38.8147H34.9948C35.4453 38.7881 35.8671 38.5846 36.1684 38.2485C36.4697 37.9125 36.6261 37.4711 36.6036 37.0203V37.0203ZM43.5851 53.1181C43.5976 52.8946 43.5659 52.6708 43.4918 52.4595C43.4177 52.2483 43.3026 52.0537 43.1531 51.8871C43.0037 51.7204 42.8228 51.5848 42.6209 51.4881C42.419 51.3915 42.1999 51.3356 41.9764 51.3237H40.0273C39.8102 51.3256 39.5959 51.3734 39.3986 51.464C39.2013 51.5547 39.0254 51.6861 38.8826 51.8497C38.5776 52.2013 38.4124 52.6527 38.4186 53.1181C38.3959 53.5699 38.552 54.0125 38.853 54.3502C39.1541 54.6879 39.5759 54.8936 40.0273 54.9228H41.9764C42.4288 54.8962 42.8522 54.6913 43.1538 54.353C43.4554 54.0147 43.6105 53.5706 43.5851 53.1181V53.1181ZM43.5851 47.6422C43.6105 47.1897 43.4554 46.7456 43.1538 46.4073C42.8522 46.069 42.4288 45.8641 41.9764 45.8375H40.0273C39.8106 45.8418 39.5971 45.8908 39.4002 45.9813C39.2033 46.0718 39.0271 46.2019 38.8826 46.3634C38.5786 46.7196 38.4137 47.1739 38.4186 47.6422C38.396 48.093 38.5524 48.5344 38.8537 48.8704C39.155 49.2065 39.5768 49.4099 40.0273 49.4366H41.9764C42.1999 49.4247 42.419 49.3688 42.6209 49.2722C42.8228 49.1755 43.0037 49.04 43.1531 48.8733C43.3026 48.7066 43.4177 48.512 43.4918 48.3008C43.5659 48.0895 43.5976 47.8657 43.5851 47.6422V47.6422ZM43.5851 42.6509C43.6105 42.1984 43.4554 41.7544 43.1538 41.4161C42.8522 41.0778 42.4288 40.8728 41.9764 40.8462H40.0273C39.8095 40.85 39.5949 40.8997 39.3977 40.9921C39.2004 41.0845 39.0249 41.2176 38.8826 41.3825C38.5776 41.7341 38.4124 42.1855 38.4186 42.6509C38.3959 43.1028 38.552 43.5453 38.853 43.883C39.1541 44.2207 39.5759 44.4264 40.0273 44.4556H41.9764C42.4288 44.429 42.8522 44.2241 43.1538 43.8858C43.4554 43.5475 43.6105 43.1034 43.5851 42.6509V42.6509ZM43.5851 37.0203C43.6105 36.5678 43.4554 36.1237 43.1538 35.7854C42.8522 35.4471 42.4288 35.2422 41.9764 35.2156H40.0273C39.8106 35.22 39.5971 35.2689 39.4002 35.3594C39.2033 35.4499 39.0271 35.58 38.8826 35.7416C38.5769 36.0968 38.4118 36.5517 38.4186 37.0203C38.396 37.4711 38.5524 37.9125 38.8537 38.2485C39.155 38.5846 39.5768 38.7881 40.0273 38.8147H41.9764C42.1999 38.8028 42.419 38.747 42.6209 38.6503C42.8228 38.5536 43.0037 38.4181 43.1531 38.2514C43.3026 38.0847 43.4177 37.8901 43.4918 37.6789C43.5659 37.4676 43.5976 37.2438 43.5851 37.0203V37.0203ZM50.1645 48.6116C50.1925 48.036 49.9912 47.4728 49.6045 47.0456C49.2178 46.6183 48.6775 46.3619 48.102 46.3325H47.9782C47.6928 46.3457 47.4128 46.4152 47.1544 46.5371C46.896 46.659 46.6643 46.8308 46.4726 47.0427C46.2808 47.2545 46.1329 47.5022 46.0374 47.7715C45.9418 48.0407 45.9005 48.3263 45.9157 48.6116V52.9738C45.9005 53.2591 45.9418 53.5446 46.0374 53.8138C46.1329 54.0831 46.2808 54.3308 46.4726 54.5426C46.6643 54.7545 46.896 54.9263 47.1544 55.0482C47.4128 55.1701 47.6928 55.2396 47.9782 55.2528H48.102C48.6775 55.2235 49.2178 54.967 49.6045 54.5398C49.9912 54.1125 50.1925 53.5493 50.1645 52.9738V48.6116ZM50.8554 42.6509C50.8809 42.2001 50.7271 41.7575 50.4278 41.4195C50.1284 41.0815 49.7076 40.8755 49.257 40.8462H47.2976C47.0798 40.85 46.8653 40.8997 46.668 40.9921C46.4707 41.0845 46.2952 41.2176 46.1529 41.3825C45.8479 41.7341 45.6827 42.1855 45.6889 42.6509C45.6662 43.1028 45.8223 43.5453 46.1233 43.883C46.4244 44.2207 46.8462 44.4264 47.2976 44.4556H49.257C49.7076 44.4264 50.1284 44.2204 50.4278 43.8824C50.7271 43.5444 50.8809 43.1018 50.8554 42.6509V42.6509ZM47.1532 39.1138H49.0404C49.4849 39.0558 49.8932 38.8382 50.189 38.5013C50.4848 38.1645 50.6479 37.7316 50.6479 37.2833C50.6479 36.835 50.4848 36.4021 50.189 36.0652C49.8932 35.7284 49.4849 35.5107 49.0404 35.4528H47.1532C46.9336 35.4544 46.7168 35.5032 46.5176 35.5957C46.3183 35.6882 46.1412 35.8223 45.9982 35.9891C45.6818 36.3434 45.509 36.8031 45.5136 37.2781C45.4882 37.7388 45.6466 38.1908 45.954 38.5349C46.2613 38.879 46.6926 39.0871 47.1532 39.1138V39.1138ZM50.8554 22.6137C50.8808 22.1247 50.7118 21.6454 50.3854 21.2803C50.059 20.9152 49.6015 20.694 49.1126 20.6647H25.0639C24.575 20.694 24.1175 20.9152 23.7911 21.2803C23.4646 21.6454 23.2957 22.1247 23.3211 22.6137V28.2547C23.2957 28.7438 23.4646 29.2231 23.7911 29.5881C24.1175 29.9532 24.575 30.1745 25.0639 30.2038H49.1126C49.6015 30.1745 50.059 29.9532 50.3854 29.5881C50.7118 29.2231 50.8808 28.7438 50.8554 28.2547V22.6137ZM40.5429 24.9547V23.4181L40.3264 22.8406C40.2369 22.8576 40.1547 22.9012 40.0903 22.9655C40.026 23.0299 39.9824 23.1121 39.9654 23.2016V25.2641L40.1098 25.4187L40.5429 24.9547ZM40.5429 25.9859L40.1098 25.5528L39.9654 25.6972V27.7597C39.9819 27.8504 40.025 27.9342 40.0893 28.0003C40.1536 28.0665 40.2361 28.1119 40.3264 28.1309L40.5429 27.5431V25.9859ZM40.6254 27.5534L40.4089 28.1309H42.6879L42.4714 27.5534H40.6254ZM44.1832 23.4284L43.9667 22.8509C43.8765 22.8687 43.7934 22.9122 43.7275 22.9763C43.6616 23.0404 43.6157 23.1222 43.5954 23.2119V25.2744L43.7501 25.4291L44.1832 24.9856V23.4284ZM46.0911 23.4284L46.3179 22.8406H44.0904L44.3276 23.4284H46.0911ZM44.2657 27.5534L44.0492 28.1309H46.3282L46.1014 27.5534H44.2657ZM46.2045 25.7178L46.5242 25.4291L46.2251 25.1403H44.1626L43.8017 25.4703L44.0595 25.7178H46.2045ZM46.2045 25.9859V27.5225L46.4211 28.1103C46.5107 28.0901 46.5926 28.0442 46.6566 27.9783C46.7207 27.9124 46.7643 27.8293 46.782 27.7391V25.6766L46.6376 25.5322L46.2045 25.9859ZM47.9267 22.8922L47.7101 23.4697V25.0062L48.1432 25.4394L48.2979 25.295V23.2325C48.2804 23.145 48.238 23.0644 48.1758 23.0004C48.1136 22.9364 48.0343 22.8916 47.9473 22.8716L47.9267 22.8922ZM47.7101 25.9859V27.5225L47.9267 28.1C48.0169 28.0823 48.1 28.0387 48.1659 27.9746C48.2318 27.9106 48.2777 27.8287 48.2979 27.7391V25.6766L48.1432 25.5219L47.7101 25.9859ZM42.5539 27.5225H40.677L40.4604 28.1H42.7395L42.5539 27.5225ZM40.1923 25.5219L40.0479 25.6663V27.7288C40.0644 27.8195 40.1075 27.9033 40.1718 27.9694C40.2361 28.0355 40.3186 28.081 40.4089 28.1L40.6254 27.5122V25.9756L40.1923 25.5219ZM40.4089 22.82C40.3194 22.837 40.2372 22.8805 40.1728 22.9449C40.1085 23.0093 40.0649 23.0915 40.0479 23.1809V25.2434L40.1923 25.3981L40.6254 24.9547V23.4181L40.4089 22.82ZM46.6892 25.5219L46.2561 25.955V27.4916L46.4726 28.0794C46.5623 28.0591 46.6441 28.0132 46.7082 27.9473C46.7723 27.8814 46.8158 27.7983 46.8336 27.7081V25.6456L46.6892 25.5219ZM46.1839 27.5225H44.3173L44.1007 28.1H46.3798L46.1839 27.5225ZM44.1214 22.7994L44.3586 23.3872H46.1736L46.4004 22.7994H44.1214ZM48.2464 25.5425L47.8132 25.9859V27.5225L48.0298 28.1C48.12 28.0823 48.2031 28.0387 48.269 27.9746C48.3349 27.9106 48.3808 27.8287 48.4011 27.7391V25.6766L48.2464 25.5425ZM48.0298 22.8509L47.8132 23.4284V24.965L48.2464 25.3981L48.4011 25.2537V23.1912C48.37 23.0962 48.309 23.0137 48.2272 22.9561C48.1455 22.8985 48.0473 22.8688 47.9473 22.8716L48.0298 22.8509ZM44.1007 22.8509C44.0105 22.8687 43.9274 22.9122 43.8615 22.9763C43.7956 23.0404 43.7497 23.1222 43.7295 23.2119V25.2744L43.8842 25.4291L44.3173 24.9856V23.4181L44.1007 22.8509ZM46.3592 25.1403H44.2967L43.9357 25.4703L44.1936 25.7178H46.3489L46.6686 25.4291L46.3592 25.1403Z" fill="url(#paint0_linear)"/>
<defs>
<linearGradient id="paint0_linear" x1="31.8284" y1="-14.2576" x2="82.3662" y2="-4.00767" gradientUnits="userSpaceOnUse">
<stop stop-color="#3564AC"/>
<stop offset="1" stop-color="#4497E1"/>
</linearGradient>
</defs>
</svg>
