<svg width="74" height="74" viewBox="0 0 74 74" fill="none" xmlns="http://www.w3.org/2000/svg">
<path d="M20.5458 25.677C19.5024 25.6685 18.4839 25.3564 17.6168 24.7786C16.7415 24.1954 16.0595 23.3676 15.6574 22.3991C15.2554 21.4307 15.1516 20.3655 15.3595 19.3383C15.5673 18.3112 16.0772 17.3688 16.8241 16.6298C17.571 15.8909 18.5214 15.3886 19.5551 15.1858C20.5887 14.9829 21.6598 15.0884 22.6333 15.4892C23.6067 15.89 24.4393 16.5682 25.0253 17.4389C25.6114 18.3096 25.9244 19.3335 25.9244 20.3812L20.5458 25.677ZM20.5458 25.677L20.5458 25.6772C21.2495 25.6829 21.9474 25.5504 22.5995 25.2872C23.2515 25.0239 23.8448 24.6351 24.345 24.1429C24.8452 23.6508 25.2424 23.065 25.5136 22.4193C25.7848 21.7736 25.9244 21.0809 25.9244 20.3812L20.5458 25.677ZM14.1547 14.1704C15.8551 12.4743 18.1638 11.5138 20.5768 11.5C22.9906 11.5106 25.301 12.4699 27.002 14.1666C28.7021 15.8624 29.6547 18.1565 29.6529 20.5462C29.6143 22.1382 29.2701 23.7084 28.6387 25.1726C26.27 29.6973 23.5761 34.0468 20.578 38.1873C17.5995 34.0425 14.9253 29.6903 12.5762 25.1644C11.8827 23.7223 11.5154 22.1475 11.5 20.5501C11.5006 18.16 12.4545 15.8664 14.1547 14.1704Z" fill="url(#paint0_linear)" stroke="url(#paint1_linear)"/>
<path d="M43.4536 33.8627C45.4852 31.8355 48.2437 30.6875 51.1269 30.6705C52.5608 30.669 53.9808 30.9478 55.3058 31.4909C56.6312 32.0342 57.8353 32.8311 58.8495 33.836C59.8637 34.8409 60.668 36.0341 61.2168 37.3471C61.7643 38.6574 62.0467 40.0615 62.0478 41.4797C61.9785 43.3884 61.5447 45.2669 60.7693 47.0153C57.9328 52.4194 54.7103 57.615 51.1264 62.5623C47.5635 57.6138 44.3656 52.4161 41.5578 47.0098C40.7305 45.2834 40.2951 43.3981 40.2822 41.4869C40.2826 38.6306 41.4222 35.8895 43.4536 33.8627ZM47.6611 46.4404C48.4849 46.9864 49.4246 47.3278 50.4014 47.4411L50.36 47.5436L51.0951 47.5487C51.923 47.5545 52.7437 47.3964 53.5094 47.0834C54.275 46.7704 54.9703 46.3088 55.5542 45.7255C56.1382 45.1422 56.5991 44.449 56.9098 43.6862C57.22 42.9245 57.3742 42.1091 57.3631 41.2874C57.3624 40.0631 56.9961 38.8667 56.3108 37.8493C55.6249 36.831 54.6504 36.0379 53.511 35.5698C52.3717 35.1016 51.1182 34.9792 49.909 35.2178C48.6997 35.4564 47.5884 36.0455 46.7158 36.9111C45.8431 37.7768 45.2483 38.8803 45.0073 40.0822C44.7663 41.2841 44.89 42.5299 45.3627 43.6618C45.8353 44.7937 46.6354 45.7605 47.6611 46.4404Z" fill="url(#paint2_linear)" stroke="url(#paint3_linear)"/>
<path d="M20.5361 39.0382C21.5718 38.648 22.6509 38.3826 23.7504 38.2477" stroke="url(#paint4_linear)" stroke-width="2" stroke-miterlimit="10"/>
<path d="M30.3255 38.9327C31.6796 39.4806 32.9151 40.2812 33.9648 41.2912C39.6496 46.7592 18.4512 53.1494 25.3978 62.2539C28.4129 66.2066 37.976 65.6005 44.5374 64.6387" stroke="url(#paint5_linear)" stroke-width="2" stroke-miterlimit="10" stroke-dasharray="5.03 5.03"/>
<path d="M47.8315 64.0851C49.8106 63.7163 51.0724 63.4133 51.0724 63.4133" stroke="url(#paint6_linear)" stroke-width="2" stroke-miterlimit="10"/>
<defs>
<linearGradient id="paint0_linear" x1="17.6569" y1="-7.4355" x2="46.2927" y2="-2.147" gradientUnits="userSpaceOnUse">
<stop stop-color="#3564AC"/>
<stop offset="1" stop-color="#4497E1"/>
</linearGradient>
<linearGradient id="paint1_linear" x1="17.6569" y1="-7.4355" x2="46.2927" y2="-2.147" gradientUnits="userSpaceOnUse">
<stop stop-color="#3564AC"/>
<stop offset="1" stop-color="#4497E1"/>
</linearGradient>
<linearGradient id="paint2_linear" x1="47.6949" y1="8.31305" x2="81.7264" y2="14.614" gradientUnits="userSpaceOnUse">
<stop stop-color="#3564AC"/>
<stop offset="1" stop-color="#4497E1"/>
</linearGradient>
<linearGradient id="paint3_linear" x1="47.6949" y1="8.31305" x2="81.7264" y2="14.614" gradientUnits="userSpaceOnUse">
<stop stop-color="#3564AC"/>
<stop offset="1" stop-color="#4497E1"/>
</linearGradient>
<linearGradient id="paint4_linear" x1="21.6533" y1="37.7279" x2="23.9035" y2="40.2016" gradientUnits="userSpaceOnUse">
<stop stop-color="#3564AC"/>
<stop offset="1" stop-color="#4497E1"/>
</linearGradient>
<linearGradient id="paint5_linear" x1="31.1273" y1="21.561" x2="61.5598" y2="27.9617" gradientUnits="userSpaceOnUse">
<stop stop-color="#3564AC"/>
<stop offset="1" stop-color="#4497E1"/>
</linearGradient>
<linearGradient id="paint6_linear" x1="48.958" y1="62.9716" x2="50.813" y2="65.3911" gradientUnits="userSpaceOnUse">
<stop stop-color="#3564AC"/>
<stop offset="1" stop-color="#4497E1"/>
</linearGradient>
</defs>
</svg>
