<svg width="432" height="279" viewBox="0 0 432 279" fill="none" xmlns="http://www.w3.org/2000/svg">
<path d="M279.34 246.52C279.34 246.52 307.1 276.52 316.1 299.44C325.1 322.36 334.67 359.72 334.67 359.72L310.74 369.51C310.74 369.51 291.13 343.58 286.47 338.24C281.81 332.9 253.53 281.24 252.24 272.67C250.95 264.1 249.46 244.81 258.03 242.67C266.6 240.53 279.34 246.52 279.34 246.52Z" fill="#58AEDD"/>
<path d="M147.48 246.52C147.48 246.52 119.72 276.52 110.72 299.44C101.72 322.36 92.1499 359.72 92.1499 359.72L116.08 369.51C116.08 369.51 135.69 343.58 140.35 338.24C145.01 332.9 173.29 281.24 174.58 272.67C175.87 264.1 177.36 244.81 168.79 242.67C160.22 240.53 147.48 246.52 147.48 246.52Z" fill="#58AEDD"/>
<path d="M179.49 345.9C180.158 323.531 183.598 301.332 189.73 279.81C189.319 278.78 189.319 277.63 189.73 276.6C200.45 246.76 198.81 214.87 196.83 183.75V183.68C196.625 182.985 196.594 182.25 196.74 181.54C196.746 180.777 196.953 180.028 197.34 179.37C196.55 172.63 195.82 165.86 195.4 159.1C192.74 146.02 189.71 133 190.23 119.52C190.253 118.739 190.451 117.974 190.81 117.28C189.51 112.694 188.461 108.041 187.67 103.34C186.67 97.04 196.31 94.34 197.31 100.68C198.74 109.68 201.42 118.43 203.86 127.2C206.39 126.2 209.47 126.98 210.07 130.4C210.96 135.5 211.79 140.62 212.59 145.74C213.052 146.079 213.441 146.507 213.737 146.998C214.032 147.489 214.227 148.033 214.31 148.6C216.22 158.89 218.04 169.21 220.14 179.47C220.839 179.255 221.579 179.207 222.299 179.331C223.02 179.454 223.702 179.745 224.29 180.18C224.39 178.82 224.5 177.47 224.63 176.11C224.713 175.37 224.942 174.653 225.305 174.003C225.668 173.352 226.157 172.781 226.744 172.321C227.331 171.862 228.003 171.525 228.722 171.329C229.441 171.133 230.191 171.082 230.93 171.18C230.93 170.74 230.93 170.31 230.93 169.88C230.934 169.084 231.131 168.301 231.504 167.598C231.877 166.895 232.415 166.293 233.072 165.844C233.729 165.394 234.485 165.111 235.275 165.018C236.066 164.925 236.867 165.025 237.61 165.31C238.512 165.075 239.458 165.075 240.36 165.31V163.85C240.27 159.19 247.63 156.65 249.68 161.33C253.79 170.73 254.19 180.51 254.68 190.33C255.883 196.545 256.552 202.851 256.68 209.18C256.673 210.356 256.239 211.49 255.459 212.371C254.679 213.252 253.607 213.82 252.44 213.97C253.11 220.18 253.53 226.42 253.84 232.65C254.29 241.54 254.66 250.44 255 259.33C255.32 267.85 255.22 276.33 252.66 284.52C252.42 285.308 252.003 286.029 251.44 286.63C252.61 310.63 252.93 334.71 251.15 358.74C251.15 362.99 250.98 367.25 250.7 371.5C254.67 392.473 255.106 413.963 251.99 435.08C251.964 437.927 251.656 440.764 251.07 443.55C252.07 451.43 253.14 459.28 254 467.05C254.113 467.848 253.983 468.662 253.626 469.384C253.269 470.107 252.703 470.705 252 471.1C251.609 471.607 251.127 472.038 250.58 472.37C251.201 473.028 251.65 473.828 251.89 474.7C252.714 475.418 253.392 476.287 253.89 477.26C254.385 478.131 254.608 479.131 254.528 480.13C254.448 481.129 254.07 482.081 253.443 482.862C252.816 483.644 251.968 484.219 251.01 484.512C250.052 484.806 249.027 484.805 248.07 484.51C247.368 484.86 246.585 485.013 245.803 484.953C245.021 484.893 244.27 484.622 243.63 484.17C240.925 482.458 238.33 480.577 235.86 478.54C232.675 476.533 229.718 474.186 227.04 471.54C226.375 471.422 225.74 471.171 225.175 470.802C224.609 470.432 224.125 469.952 223.75 469.39C218.174 461.624 213.081 453.522 208.5 445.13L208.26 444.76C207.193 444.335 206.335 443.51 205.87 442.46C204.397 439.44 202.903 436.423 201.39 433.41L201.33 433.31C200.635 432.916 200.04 432.369 199.59 431.71C194.768 424.521 190.826 416.779 187.85 408.65C184.85 400.79 181.08 392.34 180.69 383.86C180.653 383.155 180.762 382.451 181.01 381.79C180.19 375.5 179.87 369.1 179.48 362.79C178.842 357.178 178.845 351.511 179.49 345.9Z" fill="#5EC4E6"/>
<path d="M138.99 92.36C134.636 90.1537 130.717 87.1793 127.42 83.58C122.14 77.72 117.85 72.01 119.64 67.58C121.43 63.15 127.71 59.15 132.21 56.01C136.71 52.87 152.81 51.22 152.81 51.22C152.81 51.22 139.14 73.65 139.42 81.15C139.662 84.8915 139.517 88.6479 138.99 92.36Z" fill="#58AEDD"/>
<path d="M138.99 61.5799C138.99 61.5799 134.15 60.1499 131.22 60.3599C128.29 60.5699 127.22 61.7899 127.28 64.1499C127.331 66.7717 128.288 69.2948 129.99 71.2899C131.99 73.7899 134.63 75.9999 136.21 76.0799C137.79 76.1599 138.99 74.0099 138.99 74.0099V61.5799Z" fill="#E6F5FD"/>
<path d="M287.58 92.36C291.934 90.1537 295.853 87.1793 299.15 83.58C304.43 77.72 308.72 72.01 306.93 67.58C305.14 63.15 298.86 59.15 294.36 56.01C289.86 52.87 274.18 51.24 274.18 51.24C274.18 51.24 287.43 73.67 287.18 81.17C286.93 84.9038 287.064 88.6535 287.58 92.36Z" fill="#58AEDD"/>
<path d="M287.58 61.5799C287.58 61.5799 292.42 60.1499 295.35 60.3599C298.28 60.5699 299.35 61.7899 299.29 64.1499C299.239 66.7717 298.282 69.2948 296.58 71.2899C294.58 73.7899 291.94 75.9999 290.36 76.0799C288.78 76.1599 287.58 74.0099 287.58 74.0099V61.5799Z" fill="#E6F5FD"/>
<path d="M299.93 453.94C298.439 449.737 298.217 445.188 299.29 440.86C300.36 436.15 308.29 408.94 303.58 380.44C298.87 351.94 294.58 335.22 292.86 326.86C291.14 318.5 290.08 313.58 290.08 313.58C290.08 313.58 279.36 259.36 279.15 248.24C278.94 237.12 275.29 191.88 276.79 176.03C278.29 160.18 287.93 109.17 288.58 92.24C289.23 75.31 291.15 56.03 273.15 43.38C255.15 30.73 229.43 21.74 221.08 20.67L213.86 19.74H212.72L205.5 20.67C197.15 21.74 171.43 30.74 153.43 43.38C135.43 56.02 137.36 75.29 137.99 92.24C138.62 109.19 148.28 160.17 149.78 176.03C151.28 191.89 147.64 237.1 147.42 248.24C147.2 259.38 136.49 313.6 136.49 313.6C136.49 313.6 135.42 318.53 133.71 326.88C132 335.23 127.71 351.96 122.99 380.46C118.27 408.96 126.21 436.17 127.28 440.88C128.353 445.208 128.131 449.757 126.64 453.96C125.14 458.67 119.78 486.74 121.07 513.96C122.36 541.18 139.28 569.17 144.21 575.31C149.14 581.45 151.85 583.03 153.57 584.24C155.29 585.45 154.92 586.81 154.92 586.81C155.887 586.494 156.767 585.956 157.49 585.24C159.21 583.81 160.49 582.88 160.49 582.88L161.57 584.1C162.285 585.182 162.681 586.443 162.71 587.74L163.99 586.67C164.991 585.76 165.902 584.755 166.71 583.67C167.565 584.093 168.379 584.595 169.14 585.17C170.287 585.928 171.301 586.871 172.14 587.96C172.14 587.96 177.71 583.88 179.99 579.6C182.27 575.32 184.07 571.81 184.07 571.81L192.64 573.31C199.29 574.309 205.99 574.94 212.71 575.2H213.85C220.57 574.94 227.27 574.309 233.92 573.31L242.49 571.81C242.49 571.81 244.28 575.31 246.57 579.6C248.86 583.89 254.42 587.96 254.42 587.96C255.259 586.871 256.273 585.928 257.42 585.17C258.181 584.595 258.995 584.093 259.85 583.67C260.658 584.755 261.568 585.76 262.57 586.67L263.85 587.74C263.879 586.443 264.274 585.182 264.99 584.1L266.07 582.88C266.07 582.88 267.35 583.81 269.07 585.24C269.793 585.956 270.673 586.494 271.64 586.81C271.64 586.81 271.29 585.44 272.99 584.24C274.69 583.04 277.42 581.46 282.35 575.31C287.28 569.16 304.21 541.17 305.49 513.96C306.77 486.75 301.43 458.65 299.93 453.94Z" fill="#58AEDD"/>
<path d="M282.58 330.72C271.86 284.86 259.86 258.72 262 235.15C264.14 211.58 265 179.86 269.72 158.44C274.44 137.02 281.72 110.44 274.43 93.29C267.14 76.14 262.86 77.86 254.29 82.15C245.72 86.44 231.15 96.72 231.15 96.72L213.29 107.93L195.43 96.72C195.43 96.72 180.86 86.44 172.29 82.15C163.72 77.86 159.43 76.15 152.15 93.29C144.87 110.43 152.15 137.01 156.86 158.44C161.57 179.87 162.43 211.58 164.58 235.15C166.73 258.72 154.72 284.86 144 330.72C133.28 376.58 148.72 421.15 156.86 440.01C165 458.87 187.43 490.58 192.72 495.01C198.01 499.44 203.58 502.58 209.29 503.58L212.72 503.9V504.01L213.29 503.95L213.86 504.01V503.9L217.29 503.58C223 502.58 228.58 499.44 233.86 495.01C239.14 490.58 261.58 458.86 269.72 440.01C277.86 421.16 293.29 376.58 282.58 330.72Z" fill="#E6F5FD"/>
<path d="M185.99 62.84C185.99 62.84 180.99 58.4 175.22 57.68C169.45 56.96 164.77 57.31 162.88 58.68C160.99 60.05 161.01 60.96 161.63 61.35C162.25 61.74 163.75 61.19 164.41 60.94C164.92 60.76 165.82 59.94 172.48 60.26C181.31 60.71 184.66 64.61 185.48 64.05C186.3 63.49 185.99 62.84 185.99 62.84Z" fill="#515A60"/>
<path d="M240.52 62.84C240.52 62.84 245.52 58.4 251.29 57.68C257.06 56.96 261.74 57.31 263.64 58.68C265.54 60.05 265.5 60.96 264.89 61.35C264.28 61.74 262.76 61.19 262.1 60.94C261.44 60.69 260.69 59.94 254.04 60.26C245.21 60.71 241.86 64.61 241.04 64.05C240.22 63.49 240.52 62.84 240.52 62.84Z" fill="#515A60"/>
<path d="M230.08 94.8699C227.95 93.5399 223.27 90.9499 218.83 90.4699C216.41 90.2099 214.83 90.0599 213.83 89.9899V89.9099H213.26H212.69V89.9899C211.69 90.0599 210.14 90.2099 207.69 90.4699C203.25 90.9499 198.58 93.5399 196.44 94.8699C195.379 95.4881 194.583 96.4749 194.203 97.6423C193.824 98.8096 193.886 100.076 194.38 101.2C195.38 103.7 202.25 109.95 205.11 111.4C207.43 112.58 211.69 112.49 213.23 112.4C214.77 112.48 219.03 112.57 221.35 111.4C224.22 109.95 231.07 103.7 232.08 101.2C232.579 100.083 232.651 98.8216 232.282 97.6551C231.913 96.4886 231.13 95.4977 230.08 94.8699Z" fill="#515A60"/>
<path d="M175.83 89.53C181.497 89.53 186.09 84.9364 186.09 79.27C186.09 73.6036 181.497 69.01 175.83 69.01C170.164 69.01 165.57 73.6036 165.57 79.27C165.57 84.9364 170.164 89.53 175.83 89.53Z" fill="#515A60"/>
<path d="M220.81 104.93C220.697 104.542 220.696 104.13 220.805 103.741C220.915 103.352 221.131 103.002 221.43 102.73C222.48 101.66 223.58 100.94 224.33 101.25C224.502 101.281 224.665 101.348 224.81 101.446C224.955 101.543 225.078 101.67 225.172 101.817C225.266 101.964 225.329 102.129 225.356 102.302C225.383 102.475 225.374 102.651 225.33 102.82C225.284 103.276 225.118 103.711 224.85 104.081C224.581 104.452 224.219 104.745 223.8 104.93C222.995 105.244 222.133 105.384 221.27 105.34C220.85 105.17 220.81 104.93 220.81 104.93Z" fill="#6C7780"/>
<path d="M250.75 89.53C256.416 89.53 261.01 84.9364 261.01 79.27C261.01 73.6036 256.416 69.01 250.75 69.01C245.084 69.01 240.49 73.6036 240.49 79.27C240.49 84.9364 245.084 89.53 250.75 89.53Z" fill="#515A60"/>
<path d="M205.77 104.93C205.883 104.542 205.884 104.13 205.775 103.741C205.665 103.352 205.449 103.002 205.15 102.73C204.1 101.66 203.01 100.94 202.26 101.25C202.089 101.283 201.926 101.35 201.782 101.448C201.638 101.546 201.515 101.672 201.422 101.819C201.328 101.966 201.265 102.131 201.238 102.303C201.21 102.475 201.217 102.651 201.26 102.82C201.306 103.276 201.472 103.711 201.74 104.081C202.009 104.452 202.371 104.745 202.79 104.93C203.595 105.244 204.457 105.384 205.32 105.34C205.73 105.17 205.77 104.93 205.77 104.93Z" fill="#6C7780"/>
<path d="M254.91 78.6299C255.926 78.6299 256.75 77.8062 256.75 76.7899C256.75 75.7737 255.926 74.95 254.91 74.95C253.894 74.95 253.07 75.7737 253.07 76.7899C253.07 77.8062 253.894 78.6299 254.91 78.6299Z" fill="#E6F5FD"/>
<path d="M180.13 78.6299C181.146 78.6299 181.97 77.8062 181.97 76.7899C181.97 75.7737 181.146 74.95 180.13 74.95C179.114 74.95 178.29 75.7737 178.29 76.7899C178.29 77.8062 179.114 78.6299 180.13 78.6299Z" fill="#E6F5FD"/>
<path d="M213.34 0V6C258.57 6 295.25 36.5 295.25 74.1C295.25 74.84 295.25 75.57 295.2 76.29H302.43C302.43 75.57 302.48 74.84 302.48 74.1C302.48 33.17 262.57 0 213.34 0Z" fill="#D6EDF5"/>
<path d="M291.06 55.18C290.132 55.1786 289.213 55.3603 288.355 55.7145C287.497 56.0687 286.718 56.5885 286.061 57.2442C285.405 57.9 284.884 58.6787 284.528 59.5359C284.173 60.3931 283.99 61.312 283.99 62.24V106.83C283.987 107.759 284.168 108.68 284.523 109.539C284.877 110.398 285.398 111.178 286.055 111.835C286.712 112.492 287.492 113.013 288.351 113.367C289.21 113.722 290.131 113.903 291.06 113.9H299.25C301.448 113.904 303.625 113.474 305.656 112.636C307.688 111.797 309.534 110.566 311.089 109.013C312.644 107.46 313.877 105.615 314.718 103.585C315.559 101.554 315.991 99.3777 315.99 97.18V71.93C315.995 69.7297 315.566 67.55 314.727 65.5161C313.887 63.4822 312.655 61.634 311.099 60.0777C309.544 58.5214 307.697 57.2876 305.663 56.4471C303.63 55.6066 301.45 55.176 299.25 55.18H291.06Z" fill="#F18854"/>
<path d="M294.92 113.92V134.75C294.92 146.54 287.68 155.96 278.62 155.96H236.12V161.13H278.62C289.81 161.13 298.89 149.32 298.89 134.75V113.92H294.92Z" fill="#545555"/>
<path d="M230.23 152.5C228.76 152.5 227.57 154.04 227.57 155.96V161.13C227.57 163.04 228.76 164.58 230.23 164.58H242.83C247.06 164.58 250.46 162.76 250.46 160.5V156.58C250.46 154.32 247.06 152.5 242.83 152.5H230.23Z" fill="#545555"/>
<path d="M124.1 74.1C124.1 74.84 124.1 75.57 124.1 76.29H131.33C131.33 75.57 131.33 74.84 131.33 74.1C131.33 36.5 168.01 6 213.24 6V0C163.99 0 124.1 33.17 124.1 74.1Z" fill="#D6EDF5"/>
<path d="M135.52 55.18C136.45 55.1786 137.371 55.3609 138.231 55.7162C139.09 56.0715 139.871 56.593 140.529 57.2507C141.187 57.9084 141.708 58.6894 142.064 59.549C142.419 60.4086 142.601 61.3298 142.6 62.26V106.85C142.601 107.78 142.419 108.7 142.063 109.559C141.708 110.418 141.186 111.199 140.529 111.856C139.871 112.513 139.09 113.033 138.23 113.387C137.371 113.742 136.45 113.923 135.52 113.92H127.33C125.13 113.924 122.952 113.494 120.919 112.654C118.886 111.814 117.039 110.581 115.484 109.026C113.929 107.47 112.696 105.624 111.856 103.591C111.016 101.558 110.586 99.3794 110.59 97.18V71.93C110.585 69.7297 111.014 67.55 111.853 65.5161C112.692 63.4822 113.925 61.634 115.481 60.0777C117.036 58.5214 118.883 57.2876 120.917 56.4471C122.95 55.6066 125.13 55.176 127.33 55.18H135.52Z" fill="#F18854"/>
<path d="M189.46 116.34C186.519 116.283 183.576 116.407 180.65 116.71C177.717 116.99 174.81 117.407 171.93 117.96C166.154 119.061 160.495 120.709 155.03 122.88C152.303 123.979 149.633 125.214 147.03 126.58C146.37 126.91 145.74 127.29 145.1 127.65C144.46 128.01 143.81 128.37 143.18 128.76L141.29 129.92L139.45 131.16C138.83 131.57 138.23 132 137.63 132.45C137.03 132.9 136.43 133.32 135.85 133.77C134.7 134.72 133.51 135.61 132.41 136.63C130.145 138.602 128.001 140.709 125.99 142.94C127.974 140.695 130.091 138.571 132.33 136.58C133.42 135.58 134.6 134.65 135.75 133.69C136.33 133.23 136.94 132.8 137.53 132.35C138.12 131.9 138.72 131.46 139.34 131.05L141.18 129.79L143.06 128.61C143.68 128.21 144.33 127.85 144.97 127.48C145.61 127.11 146.25 126.73 146.9 126.4C149.5 124.99 152.19 123.76 154.9 122.62C160.365 120.407 166.027 118.713 171.81 117.56C174.71 116.98 177.62 116.56 180.56 116.23C183.505 115.908 186.467 115.761 189.43 115.79C189.481 115.821 189.523 115.865 189.552 115.918C189.58 115.971 189.593 116.03 189.59 116.09C189.64 116.32 189.46 116.34 189.46 116.34Z" fill="#515A60"/>
<path d="M189.18 110.58C187.389 109.119 185.394 107.927 183.26 107.04L182.47 106.69L181.66 106.39L180.05 105.79C178.95 105.48 177.86 105.12 176.76 104.85C175.66 104.58 174.54 104.34 173.42 104.15L170.05 103.67C167.804 103.444 165.547 103.337 163.29 103.35H161.6C161.31 103.35 161.03 103.35 160.75 103.35L159.91 103.41L156.54 103.64C155.41 103.64 154.31 103.9 153.19 104.03L149.85 104.48C147.64 104.93 145.44 105.35 143.24 105.83L136.72 107.55L143.22 105.76C145.41 105.26 147.62 104.82 149.82 104.35L153.16 103.86C154.28 103.72 155.39 103.49 156.51 103.44L159.89 103.17L160.73 103.1H161.58H163.28C165.546 103.069 167.812 103.152 170.07 103.35L173.46 103.8C174.59 103.99 175.7 104.25 176.83 104.47C177.96 104.69 179.05 105.09 180.16 105.39L181.79 105.98L182.61 106.28C182.88 106.38 183.14 106.51 183.41 106.62C185.606 107.512 187.66 108.718 189.51 110.2C189.51 110.2 189.62 110.32 189.51 110.5C189.4 110.68 189.18 110.58 189.18 110.58Z" fill="#515A60"/>
<path d="M192.87 119.14C188.983 120.096 185.177 121.36 181.49 122.92C177.778 124.472 174.188 126.3 170.75 128.39C169.03 129.39 167.35 130.55 165.75 131.76C164.107 132.956 162.528 134.238 161.02 135.6C157.96 138.339 155.216 141.411 152.84 144.76C155.184 141.379 157.901 138.273 160.94 135.5C162.436 134.118 164.001 132.813 165.63 131.59C167.25 130.36 168.93 129.23 170.63 128.15C174.056 126.015 177.64 124.143 181.35 122.55C185.041 120.932 188.857 119.615 192.76 118.61C192.76 118.61 192.91 118.61 192.98 118.83C193.05 119.05 192.87 119.14 192.87 119.14Z" fill="#515A60"/>
<path d="M186.86 113.01C184.574 112.65 182.264 112.459 179.95 112.44C177.63 112.37 175.32 112.44 173.01 112.61C168.406 112.945 163.83 113.584 159.31 114.52L155.93 115.27C154.8 115.51 153.7 115.85 152.58 116.13C150.34 116.69 148.15 117.41 145.94 118.13C144.83 118.45 143.75 118.86 142.67 119.25L139.41 120.43C137.26 121.28 135.13 122.18 132.99 123.05C135.12 122.16 137.24 121.23 139.39 120.37L142.63 119.16C143.72 118.75 144.8 118.33 145.9 118C148.1 117.29 150.29 116.54 152.52 116C153.64 115.71 154.74 115.36 155.87 115.11L159.25 114.32C163.779 113.326 168.369 112.631 172.99 112.24C175.31 112.08 177.63 111.96 179.99 112C182.333 111.999 184.673 112.173 186.99 112.52C186.99 112.52 187.14 112.52 187.13 112.82C187.12 113.12 186.86 113.01 186.86 113.01Z" fill="#515A60"/>
<path d="M237.54 116.34C240.482 116.283 243.424 116.407 246.35 116.71C249.277 116.99 252.183 117.407 255.07 117.96C260.846 119.061 266.505 120.709 271.97 122.88C274.697 123.979 277.367 125.214 279.97 126.58C280.63 126.91 281.26 127.29 281.9 127.65C282.54 128.01 283.19 128.37 283.82 128.76L285.71 129.92L287.55 131.16C288.17 131.57 288.77 132 289.37 132.45C289.97 132.9 290.57 133.32 291.15 133.77C292.3 134.72 293.49 135.61 294.59 136.63C296.849 138.603 298.986 140.71 300.99 142.94C299.006 140.695 296.889 138.571 294.65 136.58C293.56 135.58 292.38 134.65 291.23 133.69C290.65 133.23 290.04 132.8 289.45 132.35C288.86 131.9 288.26 131.46 287.64 131.05L285.81 129.79L283.92 128.61C283.3 128.21 282.65 127.85 282.01 127.48C281.37 127.11 280.74 126.73 280.08 126.4C277.48 124.99 274.79 123.76 272.08 122.62C266.615 120.407 260.953 118.713 255.17 117.56C252.27 116.98 249.36 116.56 246.42 116.23C243.475 115.908 240.513 115.761 237.55 115.79C237.499 115.821 237.457 115.865 237.428 115.918C237.4 115.971 237.387 116.03 237.39 116.09C237.36 116.32 237.54 116.34 237.54 116.34Z" fill="#515A60"/>
<path d="M237.82 110.58C239.611 109.119 241.605 107.927 243.74 107.04L244.53 106.69L245.34 106.39L246.95 105.79C248.05 105.48 249.14 105.12 250.24 104.85C251.34 104.58 252.46 104.34 253.58 104.15L256.95 103.67C259.196 103.444 261.453 103.337 263.71 103.35H265.4C265.69 103.35 265.97 103.35 266.25 103.35L267.09 103.41L270.46 103.64C271.59 103.64 272.69 103.9 273.81 104.03L277.15 104.48C279.36 104.93 281.57 105.35 283.76 105.83L290.28 107.55L283.78 105.76C281.59 105.26 279.38 104.82 277.18 104.35L273.84 103.86C272.72 103.72 271.61 103.49 270.49 103.44L267.11 103.17L266.27 103.1H265.42H263.72C261.454 103.069 259.188 103.152 256.93 103.35L253.54 103.8C252.41 103.99 251.3 104.25 250.17 104.47C249.04 104.69 247.95 105.09 246.84 105.39L245.21 105.98L244.39 106.28C244.12 106.38 243.86 106.51 243.59 106.62C241.394 107.512 239.34 108.718 237.49 110.2C237.49 110.2 237.38 110.32 237.54 110.5C237.7 110.68 237.82 110.58 237.82 110.58Z" fill="#515A60"/>
<path d="M234.13 119.14C238.018 120.096 241.823 121.36 245.51 122.92C249.223 124.47 252.813 126.298 256.25 128.39C257.97 129.39 259.65 130.55 261.25 131.76C262.893 132.956 264.472 134.238 265.98 135.6C269.04 138.339 271.784 141.411 274.16 144.76C271.819 141.377 269.102 138.27 266.06 135.5C264.564 134.118 262.999 132.813 261.37 131.59C259.75 130.36 258.07 129.23 256.37 128.15C252.945 126.013 249.361 124.141 245.65 122.55C241.959 120.932 238.143 119.615 234.24 118.61C234.24 118.61 234.09 118.61 234.02 118.83C233.95 119.05 234.13 119.14 234.13 119.14Z" fill="#515A60"/>
<path d="M240.14 113.01C242.426 112.65 244.736 112.459 247.05 112.44C249.37 112.37 251.68 112.44 253.99 112.61C258.594 112.945 263.17 113.584 267.69 114.52L271.07 115.27C272.2 115.51 273.3 115.85 274.42 116.13C276.66 116.69 278.86 117.41 281.06 118.13C282.17 118.45 283.25 118.86 284.33 119.25L287.59 120.43C289.74 121.28 291.87 122.18 294.01 123.05C291.88 122.16 289.76 121.23 287.61 120.37L284.37 119.16C283.28 118.75 282.21 118.33 281.1 118C278.9 117.29 276.71 116.54 274.48 116C273.36 115.71 272.26 115.36 271.13 115.11L267.75 114.32C263.214 113.325 258.618 112.63 253.99 112.24C251.67 112.08 249.35 111.96 246.99 112C244.647 111.999 242.307 112.173 239.99 112.52C239.99 112.52 239.84 112.52 239.85 112.82C239.86 113.12 240.14 113.01 240.14 113.01Z" fill="#515A60"/>
<path d="M213.29 112.07V123.6" stroke="#515A60" stroke-miterlimit="10"/>
<path d="M203.51 138.71C205.004 139.578 206.604 140.25 208.27 140.71C211.576 141.627 215.075 141.589 218.36 140.6C220.015 140.095 221.598 139.38 223.07 138.47C221.754 139.659 220.223 140.585 218.56 141.2C215.191 142.498 211.466 142.537 208.07 141.31C206.401 140.735 204.855 139.853 203.51 138.71Z" fill="#525B61"/>
<path d="M228.65 126.06C228.65 126.06 226.65 128.06 223.51 130.71C220.77 133.06 217.12 135.26 213.08 135.26C209.04 135.26 205.39 133.06 202.65 130.71C199.51 128.05 197.51 126.06 197.51 126.06C202.402 123.846 207.71 122.7 213.08 122.7C218.45 122.7 223.758 123.846 228.65 126.06Z" fill="#515A60"/>
<path d="M222.54 130.75C219.65 130.49 217.28 130.17 215.3 130.68C213.845 131.04 212.325 131.04 210.87 130.68C208.87 130.17 206.52 130.49 203.63 130.75C203.29 130.75 203.08 130.75 202.77 130.81C205.6 133.23 209.04 135.26 213.08 135.26C217.12 135.26 220.65 133.09 223.39 130.81C223.08 130.76 222.89 130.78 222.54 130.75Z" fill="#CA374F"/>
<path d="M244.99 115.8C244.852 115.812 244.717 115.852 244.595 115.919C244.473 115.986 244.367 116.077 244.282 116.187C244.197 116.297 244.137 116.423 244.104 116.558C244.07 116.693 244.066 116.833 244.09 116.97C244.09 116.97 243.34 121.97 240.67 123.67C234.37 127.79 226.54 124.46 214.09 121.81C213.558 121.677 213.002 121.677 212.47 121.81C200.02 124.46 192.19 127.81 185.89 123.67C183.22 121.92 182.46 117.01 182.47 116.97C182.494 116.833 182.489 116.693 182.456 116.558C182.423 116.423 182.362 116.297 182.278 116.187C182.193 116.077 182.086 115.986 181.965 115.919C181.843 115.852 181.708 115.812 181.57 115.8C180.81 115.69 180.45 116.34 180.43 116.93C180.723 119.859 182.083 122.578 184.25 124.57C186.69 126.73 191.07 127.51 195.92 127.02C200.77 126.53 206.55 125.02 213.28 123.56C220.01 124.98 225.85 126.56 230.64 127.02C235.43 127.48 239.87 126.73 242.31 124.57C244.477 122.578 245.837 119.859 246.13 116.93C246.12 116.34 245.76 115.69 244.99 115.8Z" fill="#515A60"/>
<path d="M315.61 71.79C314.61 71.79 313.85 73.16 313.85 74.87V94.24C313.85 95.94 314.63 97.31 315.61 97.31H317.61C319.92 97.31 321.78 94.07 321.78 90.04V79.04C321.78 75.04 319.92 71.76 317.61 71.76L315.61 71.79Z" fill="#545555"/>
<path d="M110.99 71.79C111.99 71.79 112.75 73.16 112.75 74.87V94.24C112.75 95.94 111.97 97.31 110.99 97.31H108.99C106.68 97.31 104.83 94.07 104.83 90.04V79.04C104.83 75.04 106.68 71.76 108.99 71.76L110.99 71.79Z" fill="#545555"/>
</svg>
