<svg width="510" height="391" viewBox="0 0 510 391" fill="none" xmlns="http://www.w3.org/2000/svg">
<path d="M179.983 325.865C179.934 325.778 179.904 325.682 179.897 325.583C179.89 325.483 179.906 325.384 179.943 325.291C181.586 321.102 200.628 272.609 202.875 271.492C205.214 270.345 222.791 257.165 235.823 246.804C248.855 236.443 275.51 229.136 285.032 233.222C294.553 237.308 298.219 248.426 295.426 257.308C294.825 259.343 293.731 261.2 292.239 262.713C290.748 264.226 288.906 265.35 286.876 265.984C286.73 266.024 286.575 266.013 286.436 265.953C286.297 265.893 286.183 265.788 286.112 265.654C286.041 265.521 286.018 265.367 286.046 265.219C286.074 265.071 286.152 264.937 286.267 264.838L287.52 263.904C290.45 261.715 291.324 257.772 291.324 257.772C291.324 257.772 294.11 248.718 286.491 245.211C278.872 241.703 267.018 245.503 244.465 281.887C221.912 318.271 199.646 328.306 195.842 329.796C192.722 330.993 187.636 334.151 185.901 335.251C185.823 335.3 185.737 335.333 185.646 335.346C185.555 335.36 185.463 335.356 185.374 335.333C185.285 335.31 185.202 335.269 185.129 335.212C185.057 335.156 184.997 335.085 184.953 335.005L179.983 325.865Z" fill="#58AEDD"/>
<g style="mix-blend-mode:multiply" opacity="0.5">
<path d="M224.669 308.059L223.043 309.807L221.136 276.053C221.136 276.053 220.458 272.317 221.871 276.013C223.928 281.463 224.669 302.008 224.669 308.059Z" fill="#58AEDD"/>
</g>
<path opacity="0.32" d="M163.825 378.753C230.467 378.753 284.491 373.448 284.491 366.902C284.491 360.357 230.467 355.051 163.825 355.051C97.1824 355.051 43.1582 360.357 43.1582 366.902C43.1582 373.448 97.1824 378.753 163.825 378.753Z" fill="#42515F"/>
<path opacity="0.32" d="M396.809 378.753C428.857 378.753 454.838 373.448 454.838 366.902C454.838 360.357 428.857 355.051 396.809 355.051C364.76 355.051 338.78 360.357 338.78 366.902C338.78 373.448 364.76 378.753 396.809 378.753Z" fill="#42515F"/>
<g style="mix-blend-mode:multiply">
<path d="M96.1538 241.01L95.9699 244.019L95.4987 252.042V252.151L95.1425 258.088L92.9073 296.042C92.9032 296.226 92.8402 296.404 92.7275 296.549C92.6148 296.695 92.4583 296.8 92.281 296.85L88.8334 297.836C88.6659 297.884 88.4876 297.881 88.3223 297.826C88.1569 297.77 88.0125 297.666 87.9082 297.526L82.6276 290.695L82.4093 290.42C82.3982 290.393 82.3827 290.368 82.3633 290.346L74.3189 277.314L70.1013 270.489C70.0149 270.351 69.9673 270.193 69.9634 270.031V256.81C69.9549 256.757 69.9549 256.703 69.9634 256.649C69.9981 256.459 70.0965 256.285 70.2425 256.157C70.3886 256.029 70.5737 255.954 70.7678 255.945L73.8305 255.761C74.0227 255.76 74.2074 255.686 74.3476 255.555L79.2777 251.371C79.3748 251.291 79.4533 251.19 79.5078 251.076C79.5624 250.963 79.5917 250.838 79.5937 250.712V250.472V241.182V238.89C79.5961 238.67 79.6812 238.459 79.8324 238.298C79.9835 238.138 80.1896 238.04 80.4097 238.025C80.4708 238.019 80.5324 238.019 80.5935 238.025C81.5568 238.224 82.5443 238.28 83.524 238.191L83.616 238.156C84.363 237.648 85.0376 237.04 85.6213 236.351C85.7503 236.209 85.925 236.116 86.1155 236.088C86.2408 236.067 86.3693 236.073 86.4918 236.107C86.6142 236.141 86.7277 236.202 86.8242 236.284C86.9207 236.367 86.9978 236.469 87.0501 236.585C87.1024 236.701 87.1285 236.826 87.1268 236.953L87.0176 242.46L86.8625 251.188L86.7878 254.735C86.7806 254.92 86.8352 255.101 86.9429 255.251L88.7069 257.715L88.8736 257.945C88.9622 258.068 89.0825 258.166 89.222 258.228C89.3615 258.289 89.5151 258.312 89.6665 258.294L90.9249 258.162C91.0357 258.156 91.144 258.126 91.2429 258.076C91.3418 258.026 91.4291 257.956 91.4995 257.87C91.5519 257.813 91.5963 257.75 91.6317 257.681L93.0222 254.816C93.0671 254.722 93.0943 254.621 93.1027 254.518L93.344 251.91V251.836L94.1197 243.698L94.384 240.873C94.4026 240.658 94.5006 240.459 94.6589 240.312C94.8172 240.166 95.0244 240.084 95.2402 240.082L95.5735 240.151H95.6022C95.7726 240.219 95.9174 240.338 96.0163 240.492C96.1152 240.646 96.1633 240.828 96.1538 241.01Z" fill="#3F9BD6"/>
</g>
<path d="M86.1501 236.104C85.5614 237.044 84.685 237.769 83.6506 238.173C84.3977 237.665 85.0723 237.057 85.656 236.368C85.785 236.226 85.9597 236.132 86.1501 236.104Z" fill="#E7E8E9"/>
<path d="M118.437 245.079L120.414 245.303C120.471 245.303 120.54 245.245 120.597 245.245C121.678 245.303 122.545 243.606 122.781 242.666C123.051 241.595 122.379 239.841 121.844 239.572C121.31 239.303 119.207 238.426 118.678 238.191C118.665 238.185 118.651 238.183 118.636 238.184C118.622 238.185 118.608 238.19 118.596 238.198C118.584 238.206 118.574 238.217 118.567 238.23C118.561 238.242 118.557 238.257 118.558 238.271L118.368 244.993C118.368 245.013 118.374 245.033 118.387 245.049C118.399 245.064 118.417 245.075 118.437 245.079Z" fill="#E7E8E9"/>
<path d="M136.991 317.555C137.032 317.536 137.069 317.508 137.097 317.472C137.125 317.436 137.144 317.394 137.152 317.349C137.37 316.203 138.835 308.403 139.272 304.884C139.646 301.91 139.875 300.678 139.956 300.3C139.964 300.25 139.985 300.204 140.017 300.165C140.05 300.127 140.092 300.098 140.14 300.082L145.064 298.185C145.117 298.166 145.162 298.132 145.196 298.087C145.229 298.042 145.25 297.989 145.254 297.933L145.828 292.019C145.833 291.958 145.856 291.901 145.895 291.855C145.935 291.808 145.988 291.776 146.047 291.761L147.891 291.274C147.955 291.258 148.011 291.221 148.051 291.169C148.091 291.117 148.111 291.053 148.109 290.987V289.326C148.109 289.256 148.084 289.188 148.039 289.135C147.994 289.081 147.931 289.045 147.862 289.033L139.358 287.612C139.311 287.601 139.262 287.601 139.215 287.612L128.136 291.171C128.073 291.191 128.004 291.191 127.941 291.171L125.97 290.449C125.912 290.427 125.862 290.387 125.827 290.336C125.792 290.285 125.774 290.224 125.775 290.162L126.504 245.274C126.506 245.207 126.485 245.141 126.444 245.088C126.403 245.035 126.346 244.997 126.28 244.981L124.039 244.454H123.97H123.442C123.367 244.453 123.295 244.48 123.241 244.53C123.186 244.58 123.153 244.65 123.149 244.723L121.867 258.391C121.861 258.456 121.833 258.517 121.787 258.563C121.436 258.93 119.839 260.529 118.994 260.632C118.041 260.752 117.926 259.681 117.926 259.681L118.632 235.738C118.635 235.678 118.619 235.618 118.586 235.568C118.553 235.517 118.505 235.479 118.448 235.457L117.937 235.245C117.888 235.224 117.845 235.19 117.813 235.147C117.782 235.103 117.763 235.052 117.759 234.998L117.65 233.784C117.642 233.715 117.611 233.652 117.562 233.604C117.513 233.556 117.448 233.526 117.38 233.52L116.587 233.445C116.512 233.439 116.437 233.46 116.378 233.506C116.318 233.552 116.278 233.618 116.265 233.692L116.087 234.758C116.075 234.826 116.04 234.887 115.987 234.932C115.935 234.977 115.869 235.003 115.8 235.004L112.99 235.05C112.913 235.053 112.838 235.026 112.781 234.975C112.724 234.923 112.69 234.851 112.685 234.775C112.69 234.477 112.645 234.181 112.553 233.898L111.588 233.944C111.523 233.947 111.461 233.971 111.411 234.013C111.362 234.054 111.327 234.11 111.312 234.173L111.174 234.781C111.164 234.824 111.144 234.864 111.116 234.899C111.088 234.934 111.053 234.962 111.012 234.981C110.972 235 110.928 235.01 110.883 235.01C110.839 235.01 110.795 235 110.755 234.981L110.071 234.643C110.009 234.611 109.939 234.601 109.871 234.616C109.803 234.631 109.743 234.669 109.701 234.724C109.659 234.779 109.638 234.848 109.641 234.917C109.645 234.986 109.673 235.051 109.72 235.102L110.295 235.772C110.325 235.808 110.347 235.85 110.359 235.896C110.371 235.942 110.373 235.989 110.364 236.036L108.738 242.872C108.735 242.895 108.735 242.918 108.738 242.941V247.795C108.738 247.866 108.713 247.935 108.669 247.99L101.164 256.873C101.124 256.919 101.1 256.977 101.095 257.039L99.4291 274.174C99.4084 274.235 99.368 274.288 99.3142 274.325C99.2604 274.362 99.196 274.38 99.1309 274.376C99.0659 274.373 99.0036 274.349 98.9537 274.307C98.9038 274.265 98.869 274.208 98.8545 274.145V239.887C98.8541 239.829 98.8365 239.772 98.8037 239.724C98.771 239.676 98.7247 239.639 98.6707 239.617L96.3148 238.655C96.2586 238.638 96.1986 238.638 96.1424 238.655L94.6599 238.953C94.5972 238.965 94.5402 238.997 94.4977 239.045C94.4552 239.093 94.4294 239.153 94.4243 239.216L93.1372 254.626C93.1333 254.673 93.1175 254.719 93.0913 254.758L91.5743 257.251C91.5488 257.288 91.5156 257.32 91.477 257.343C91.4384 257.367 91.3952 257.382 91.3502 257.388L89.6264 257.572C89.5831 257.577 89.5392 257.573 89.4978 257.559C89.4565 257.545 89.4188 257.522 89.3874 257.492C89.356 257.462 89.3318 257.425 89.3165 257.384C89.3011 257.343 89.2951 257.3 89.2989 257.257L90.5228 242.219V228.465C90.5228 228.386 90.4913 228.311 90.4353 228.255C90.3792 228.199 90.3032 228.167 90.224 228.167H81.7831C81.7154 228.167 81.6497 228.191 81.5973 228.234C81.5449 228.277 81.5091 228.336 81.4958 228.402L79.6398 237.296C79.637 237.317 79.637 237.339 79.6398 237.36V241.033L78.0482 255.285C78.0425 255.341 78.0211 255.393 77.9865 255.437C77.9519 255.48 77.9055 255.513 77.8528 255.532L75.336 256.403C75.3018 256.408 75.2669 256.408 75.2326 256.403L72.2102 256.345C72.1552 256.345 72.1013 256.329 72.0551 256.3L70.4404 255.222C70.3956 255.194 70.344 255.177 70.2908 255.175C70.2376 255.173 70.1849 255.186 70.138 255.211C70.0912 255.236 70.0519 255.273 70.0243 255.318C69.9966 255.364 69.9816 255.416 69.9808 255.469V285.841C69.9805 285.911 69.9556 285.979 69.9104 286.032C69.8652 286.086 69.8027 286.121 69.7337 286.134L39.8084 291.326L31.6031 292.265C31.5622 292.27 31.523 292.284 31.4881 292.306L26.4374 295.28C26.3939 295.306 26.3579 295.343 26.3327 295.387C26.3076 295.431 26.2942 295.481 26.2937 295.532V298.397C26.2929 298.456 26.3101 298.514 26.3429 298.563C26.3757 298.612 26.4227 298.65 26.4776 298.672L32.4477 301.142C32.4979 301.163 32.5415 301.197 32.5739 301.24C32.6063 301.283 32.6263 301.335 32.6316 301.389L34.2864 321.91L35.7115 337.32C35.7148 337.356 35.7246 337.391 35.7402 337.423L36.9986 339.928C37.0173 339.971 37.047 340.008 37.0848 340.037L51.8865 350.982C51.9343 351.02 51.9925 351.042 52.0532 351.045L64.5335 351.618C64.5791 351.627 64.6258 351.627 64.6714 351.618L92.2523 339.395L136.991 317.555Z" fill="#3F9BD6"/>
<g style="mix-blend-mode:multiply">
<path d="M121.62 293.222C121.813 293.223 121.997 293.149 122.137 293.017C122.276 292.884 122.358 292.703 122.367 292.512L124.579 245.755C124.587 245.62 124.557 245.486 124.493 245.366C124.429 245.247 124.334 245.148 124.217 245.079C124.108 245.009 123.983 244.968 123.854 244.961C123.724 244.954 123.595 244.981 123.479 245.039C123.363 245.097 123.264 245.184 123.192 245.291C123.12 245.399 123.078 245.523 123.068 245.652L121.919 258.173C121.91 258.278 121.879 258.379 121.828 258.47C121.776 258.561 121.705 258.64 121.62 258.701L119.517 260.259C119.379 260.364 119.209 260.418 119.036 260.411C118.863 260.403 118.697 260.336 118.569 260.219L118.173 259.87C118.031 259.744 117.941 259.571 117.92 259.383L116.058 240.723C116.049 240.602 116.009 240.484 115.943 240.381C115.877 240.278 115.787 240.193 115.68 240.133C115.574 240.073 115.454 240.04 115.331 240.037C115.209 240.034 115.087 240.061 114.978 240.116L109.174 242.706C109.042 242.765 108.93 242.861 108.852 242.982C108.773 243.103 108.732 243.244 108.732 243.388V245.107C108.731 245.227 108.704 245.344 108.651 245.451L101.756 258.833C101.733 258.878 101.704 258.92 101.67 258.959C101.302 259.376 101.002 259.847 100.779 260.357L98.8315 280.231V280.271L98.4408 282.793C98.4164 282.952 98.4439 283.115 98.5195 283.257C98.595 283.4 98.7145 283.514 98.8602 283.583L118.971 293.142C119.073 293.193 119.185 293.218 119.299 293.217L121.62 293.222Z" fill="#3F9BD6"/>
</g>
<g style="mix-blend-mode:multiply">
<path d="M140.203 300.048L132.302 302.701C132.167 302.746 132.023 302.759 131.882 302.738C131.74 302.717 131.606 302.663 131.49 302.58C131.374 302.497 131.279 302.388 131.214 302.262C131.148 302.135 131.113 301.995 131.113 301.853V297.148C131.113 297.009 131.081 296.871 131.019 296.747C130.956 296.623 130.866 296.514 130.754 296.431C130.643 296.347 130.513 296.291 130.376 296.266C130.238 296.241 130.097 296.249 129.964 296.288L127.975 296.861L106.715 302.924C106.527 302.977 106.362 303.09 106.245 303.245C106.128 303.4 106.065 303.59 106.066 303.784V311.75C106.067 311.939 106.008 312.123 105.898 312.276C105.787 312.43 105.631 312.544 105.451 312.604L71.3311 323.887C71.1159 323.957 70.8827 323.944 70.676 323.853L63.2924 320.489C63.1358 320.418 63.003 320.304 62.9102 320.159C62.8175 320.015 62.7686 319.847 62.7695 319.675V311.429C62.7686 311.202 62.6816 310.983 62.526 310.817C62.3704 310.652 62.1577 310.551 61.9306 310.535L53.6735 309.962H51.8348C51.7208 309.961 51.608 309.939 51.5015 309.899L32.7523 302.506C32.6101 302.449 32.4556 302.429 32.3034 302.448C32.1513 302.467 32.0066 302.525 31.8832 302.615C31.7599 302.706 31.6619 302.827 31.5988 302.967C31.5356 303.106 31.5094 303.259 31.5226 303.412L31.695 305.52C31.7089 305.689 31.7702 305.849 31.8719 305.984C31.9736 306.119 32.1115 306.223 32.2696 306.283L52.0129 314.122C52.1775 314.186 52.3196 314.297 52.4218 314.44C52.5239 314.584 52.5815 314.754 52.5875 314.93L52.7254 320.151C52.7316 320.37 52.8181 320.579 52.9685 320.738C53.1189 320.898 53.3227 320.997 53.5414 321.016H61.3387C61.5607 321.039 61.7664 321.143 61.9161 321.308C62.0657 321.473 62.1487 321.688 62.1489 321.91V322.638C62.1461 322.821 62.1997 323.001 62.3025 323.152C62.4052 323.304 62.5522 323.42 62.7235 323.486L70.5151 326.925C70.701 326.99 70.9038 326.99 71.0897 326.925L105.428 314.953C105.589 314.906 105.733 314.815 105.845 314.691C105.957 314.566 106.031 314.413 106.06 314.248L106.169 304.97C106.205 304.769 106.308 304.586 106.462 304.451C106.615 304.316 106.81 304.236 107.014 304.225L128.303 297.996C128.498 297.996 128.148 302.632 128.303 302.747L129.544 303.463C129.668 303.55 129.812 303.605 129.963 303.621C130.114 303.637 130.266 303.614 130.406 303.555L140.203 300.048Z" fill="#3F9BD6"/>
</g>
<path d="M115.754 240.58C115.547 241.573 115.072 242.49 114.38 243.233C114.034 243.464 113.642 243.616 113.231 243.68C112.259 243.84 111.267 243.84 110.295 243.68C110.23 243.686 110.165 243.686 110.1 243.68L95.6483 240.202H95.6196C95.5143 240.157 95.4009 240.133 95.2863 240.133L91.04 239.107C90.6435 239.027 90.3562 239.531 90.3562 239.107V231.319C90.3562 230.746 90.9308 230.901 91.4652 231.044L111.99 236.397C112.034 236.402 112.078 236.402 112.122 236.397C112.814 236.495 113.483 236.714 114.099 237.044C114.701 237.397 115.182 237.924 115.478 238.555C115.773 239.187 115.87 239.893 115.754 240.58Z" fill="#E7E8E9"/>
<path d="M86.5582 235.228C86.4584 235.528 86.3214 235.815 86.1502 236.082C85.9597 236.109 85.785 236.203 85.656 236.345C85.0723 237.034 84.3977 237.642 83.6507 238.15L83.5587 238.185C82.579 238.274 81.5915 238.218 80.6283 238.019C80.5671 238.013 80.5055 238.013 80.4444 238.019C79.0596 237.755 77.4794 237.446 77.1921 237.354C76.652 237.199 73.7445 236.248 72.7792 234.712C71.8139 233.176 72.9516 229.95 73.5549 228.941C74.1582 227.933 76.7095 227.147 76.7095 227.147C76.7095 227.147 83.6047 228.941 84.616 229.291C85.6273 229.64 87.512 232.488 86.5582 235.228Z" fill="#E7E8E9"/>
<path d="M139.789 260.97L140.128 260.288C140.213 260.123 140.249 259.937 140.234 259.752C140.219 259.566 140.152 259.389 140.042 259.239L133.67 250.609C133.594 250.504 133.498 250.415 133.388 250.347C133.277 250.279 133.154 250.234 133.026 250.214C129.309 249.589 100.848 244.844 94.0337 243.675C86.7305 242.426 59.8908 237.491 57.7475 238.443C55.6905 239.354 46.4394 241.526 45.6349 241.715C45.5969 241.72 45.56 241.732 45.5257 241.749C44.8822 241.979 38.9121 244.156 38.0559 245.314C37.1997 246.471 34.6543 250.815 34.8324 251.704C34.976 252.408 36.4528 255.337 37.0676 256.54C37.15 256.698 37.2724 256.831 37.4227 256.927C37.5729 257.022 37.7457 257.077 37.9237 257.085C39.004 257.136 41.2737 257.239 41.8138 257.239C42.5263 257.239 54.0643 248.672 60.0632 248.85C66.062 249.027 102.733 252.775 102.733 252.775C102.733 252.775 131.894 255.721 132.883 256.254C133.595 256.643 136.577 259.623 138.157 261.228C138.27 261.345 138.409 261.433 138.563 261.485C138.716 261.536 138.881 261.55 139.041 261.525C139.201 261.5 139.353 261.436 139.484 261.339C139.614 261.243 139.719 261.116 139.789 260.97Z" fill="#A59886"/>
<path d="M133.934 265.177H137.784C137.85 265.176 137.915 265.162 137.975 265.136C138.035 265.109 138.09 265.07 138.134 265.022C138.59 264.543 138.964 263.993 139.243 263.394C139.336 263.099 139.469 262.817 139.64 262.558C139.693 262.466 139.713 262.359 139.696 262.255C139.68 262.15 139.627 262.055 139.548 261.985L133.003 256.374C132.933 256.312 132.844 256.274 132.75 256.265L86.4545 251.177C86.4545 251.177 60.5514 248.489 58.5231 248.993C54.5807 250.138 50.8116 251.809 47.3183 253.962C43.6754 256.214 42.3021 256.993 41.9343 257.2C41.86 257.239 41.777 257.258 41.693 257.257L37.619 257.091C37.5376 257.089 37.4582 257.065 37.3894 257.022C37.3205 256.978 37.2648 256.917 37.2283 256.844L37.0387 256.477C37.0387 256.477 36.6365 260.116 36.6365 261.01C36.6365 261.904 40.3024 262.793 41.1069 262.793C41.9155 262.711 42.7118 262.536 43.48 262.271L43.5604 262.237L59.0747 253.52C59.1428 253.481 59.2199 253.46 59.2986 253.459C59.3773 253.458 59.4549 253.477 59.5241 253.514C59.5933 253.551 59.6517 253.606 59.6938 253.672C59.7358 253.739 59.7601 253.815 59.7642 253.893L59.8734 255.692C59.8803 255.805 59.9288 255.911 60.0093 255.991C60.0899 256.07 60.197 256.117 60.3101 256.122L98.8085 258.329H98.8659C99.1302 258.329 101.463 258.202 103.819 260.386C106.175 262.569 120.402 276.174 121.706 277.423C121.775 277.487 121.861 277.529 121.953 277.544C122.615 277.627 123.287 277.527 123.895 277.254C124.504 276.981 125.025 276.545 125.401 275.996C127.01 273.945 127.458 272.873 127.01 272.34C126.626 271.936 126.196 271.578 125.729 271.274C125.634 271.212 125.519 271.187 125.407 271.205L125.171 271.24C125.103 271.248 125.034 271.241 124.969 271.22C124.903 271.2 124.843 271.165 124.792 271.119L115.311 262.277L115.277 262.237C115.121 262.059 113.915 260.644 113.415 260.563L113.036 260.5C112.934 260.483 112.841 260.433 112.771 260.357C112.71 260.289 112.67 260.204 112.657 260.112C112.644 260.021 112.658 259.928 112.698 259.846C112.738 259.763 112.802 259.693 112.882 259.647C112.961 259.6 113.053 259.578 113.145 259.584L130.435 260.97C130.501 260.975 130.565 260.995 130.623 261.028C130.68 261.06 130.73 261.105 130.768 261.159L133.549 264.988C133.592 265.048 133.65 265.097 133.718 265.13C133.785 265.163 133.859 265.179 133.934 265.177Z" fill="#E7E8E9"/>
<path d="M120.597 292.873V292.185C120.597 292.05 120.651 291.92 120.747 291.825C120.843 291.729 120.973 291.675 121.109 291.675C121.176 291.676 121.242 291.663 121.304 291.638C121.366 291.613 121.423 291.576 121.47 291.529C121.518 291.483 121.555 291.427 121.581 291.365C121.607 291.304 121.62 291.238 121.62 291.171V289.509C121.62 289.374 121.566 289.244 121.47 289.148C121.375 289.053 121.244 288.999 121.109 288.999H121.023C120.904 288.999 120.79 288.959 120.698 288.885C120.606 288.81 120.542 288.707 120.517 288.592L119.724 284.54C119.703 284.435 119.65 284.34 119.571 284.267C119.493 284.194 119.394 284.147 119.287 284.134L98.9349 281.578C98.8631 281.569 98.7903 281.575 98.7211 281.596C98.652 281.618 98.5882 281.653 98.5339 281.701C98.4796 281.749 98.436 281.807 98.4061 281.873C98.3762 281.939 98.3606 282.01 98.3603 282.082L98.3086 293.681C98.3086 293.922 98.2052 295.016 98.435 295.068C99.1877 295.234 101.762 297.033 104.089 296.85C107.497 296.581 118.017 293.859 120.178 293.371C120.296 293.351 120.402 293.29 120.479 293.199C120.556 293.107 120.598 292.992 120.597 292.873Z" fill="#458AC9"/>
<g style="mix-blend-mode:multiply">
<path d="M120.771 291.887L120.667 293.222C120.667 293.222 106.877 296.374 105.756 296.552C104.636 296.73 103.268 297.475 101.16 297.297C99.0508 297.119 98.2866 297.074 98.2866 297.074V285.039C98.2866 285.039 102.521 285.99 103.355 286.225L104.188 286.466L104.464 294.122L120.771 291.887Z" fill="#458AC9"/>
</g>
<g style="mix-blend-mode:multiply">
<path d="M121 288.69C121 288.69 105.434 290.65 104.773 290.529C104.112 290.409 97.78 288.438 97.78 288.438V292.661L104.48 294.099L121.592 291.778C121.592 291.778 121.655 289.698 121.592 289.286C121.528 288.873 121 288.69 121 288.69Z" fill="#458AC9"/>
</g>
<path d="M67.7628 263.48H56.8511V267.801H67.7628V263.48Z" fill="#458AC9"/>
<path d="M42.0092 285.119C43.779 282.707 56.8512 270.088 58.2819 269.549L58.4026 267.469H66.3321V269.549C66.3321 269.549 77.5599 279.864 80.6455 284.626C83.2427 288.638 82.6164 290.604 82.6164 290.604V301.67C82.6164 301.67 66.154 304.168 64.5451 304.346C62.9362 304.523 50.2318 303.096 50.2318 303.096L40.5727 299.171C40.5727 299.171 40.3888 287.337 42.0092 285.119Z" fill="#E7E8E9"/>
<path d="M133.072 150.448C133.072 150.448 117.121 167.64 111.95 180.769C106.778 193.898 101.274 215.32 101.274 215.32L115.024 220.924C115.024 220.924 126.292 206.065 128.97 202.999C131.647 199.933 147.903 170.334 148.638 165.422C149.374 160.511 150.241 149.457 145.317 148.23C140.393 147.004 133.072 150.448 133.072 150.448Z" fill="#58AEDD"/>
<g style="mix-blend-mode:multiply" opacity="0.5">
<path d="M121.35 212.649L121.775 212.099L126.97 192.637L126.269 191.199L120.448 213.824L121.35 212.649Z" fill="#58AEDD"/>
</g>
<path d="M149.919 343.733C149.781 344.801 149.863 345.885 150.161 346.92C150.649 348.719 152.827 351.051 151.965 354.203C151.103 357.355 149.132 359.607 145.932 360.1C142.731 360.593 135.549 359.98 132.756 361C129.963 362.02 124.999 364.112 123.108 365.298C121.218 366.484 118.799 367.43 116.874 367.344C116.081 367.277 115.283 367.277 114.489 367.344C113.293 368.052 112.028 368.639 110.714 369.097C109.157 369.55 106.612 369.43 105.83 370.043C105.486 370.335 105.114 370.594 104.721 370.817C104.472 370.702 104.263 370.517 104.118 370.285C103.973 370.053 103.899 369.783 103.905 369.51C103.948 368.719 104.085 367.936 104.313 367.178C103.73 366.971 103.093 366.971 102.509 367.178C101.4 367.504 100.044 367.831 99.7566 368.117C99.4693 368.404 98.4868 367.258 98.4868 365.865V363.739C98.4868 363.739 97.7455 362.839 98.1592 361.034C98.573 359.229 100.458 356.289 101.768 355.676C102.396 355.368 103.04 355.094 103.698 354.857C104.04 353.698 104.8 352.706 105.83 352.071C107.474 351.172 111.536 350.759 113.3 350.845C115.064 350.931 117.202 349.206 121.511 349C125.821 348.793 130.291 348.839 132.796 347.034C135.302 345.229 135.733 343.378 135.733 343.378L136.658 342.45L142.691 341.922L149.919 343.733Z" fill="#515A60"/>
<path d="M151.46 207.4C151.842 194.578 153.821 181.854 157.349 169.52C157.116 168.929 157.116 168.271 157.349 167.68C163.515 150.585 162.572 132.31 161.435 114.476V114.43C161.322 114.031 161.304 113.611 161.383 113.204C161.391 112.769 161.51 112.343 161.728 111.966C161.279 108.098 160.86 104.224 160.619 100.344C159.09 92.8486 157.349 85.3872 157.642 77.6622C157.657 77.2161 157.773 76.7791 157.981 76.3843C157.232 73.7546 156.627 71.0858 156.171 68.39C155.597 64.7853 161.136 63.2323 161.716 66.8656C162.538 72.0232 164.078 77.0376 165.474 82.0634C166.934 81.4903 168.703 81.9431 169.048 83.903C169.558 86.8256 170.038 89.754 170.49 92.6881C170.756 92.883 170.981 93.1288 171.151 93.4112C171.32 93.6936 171.432 94.0069 171.479 94.3328C172.582 100.23 173.628 106.138 174.829 112.018C175.232 111.895 175.658 111.868 176.073 111.939C176.488 112.011 176.881 112.179 177.219 112.43C177.276 111.651 177.34 110.872 177.414 110.092C177.463 109.668 177.595 109.258 177.804 108.886C178.013 108.513 178.294 108.186 178.631 107.923C178.968 107.66 179.354 107.467 179.766 107.354C180.179 107.241 180.61 107.212 181.034 107.267C181.034 107.021 181.034 106.774 181.034 106.522C181.038 106.066 181.153 105.618 181.369 105.216C181.584 104.814 181.894 104.47 182.271 104.213C182.649 103.957 183.083 103.795 183.537 103.742C183.991 103.689 184.451 103.746 184.878 103.909C185.396 103.774 185.94 103.774 186.459 103.909V103.078C186.401 100.402 190.636 98.9461 191.814 101.628C194.175 107.015 194.405 112.625 194.687 118.247C195.378 121.811 195.762 125.426 195.836 129.055C195.829 129.729 195.579 130.377 195.132 130.881C194.684 131.386 194.069 131.712 193.4 131.8C193.779 135.359 194.02 138.935 194.204 142.505C194.465 147.594 194.685 152.689 194.865 157.789C195.055 162.671 194.991 167.531 193.52 172.23C193.385 172.68 193.147 173.091 192.825 173.434C193.497 187.187 193.681 200.987 192.659 214.758C192.659 217.199 192.561 219.635 192.4 222.076C194.684 234.081 194.943 246.382 193.164 258.472C193.147 260.101 192.97 261.725 192.636 263.32C193.21 267.841 193.819 272.34 194.319 276.787C194.38 277.244 194.304 277.709 194.099 278.122C193.894 278.535 193.571 278.879 193.17 279.108C192.944 279.397 192.667 279.644 192.354 279.836C192.696 280.23 192.941 280.699 193.066 281.205C193.542 281.615 193.932 282.113 194.216 282.672C194.583 283.333 194.681 284.11 194.489 284.84C194.298 285.571 193.831 286.201 193.187 286.598C192.839 286.787 192.456 286.906 192.062 286.946C191.667 286.986 191.268 286.948 190.889 286.833C190.484 287.032 190.033 287.119 189.584 287.085C189.134 287.05 188.701 286.896 188.332 286.638C186.783 285.651 185.294 284.574 183.873 283.412C182.041 282.264 180.341 280.919 178.805 279.4C178.422 279.335 178.056 279.192 177.731 278.98C177.406 278.768 177.128 278.492 176.914 278.168C173.705 273.72 170.777 269.076 168.146 264.265C168.106 264.197 168.06 264.128 168.014 264.059C167.398 263.816 166.905 263.34 166.641 262.735C165.798 261.005 164.94 259.285 164.066 257.578L164.032 257.52C163.632 257.296 163.289 256.982 163.032 256.603C160.26 252.471 157.997 248.02 156.292 243.348C154.568 238.844 152.402 234.001 152.178 229.136C152.152 228.732 152.214 228.327 152.362 227.95C151.89 224.351 151.701 220.678 151.483 217.062C151.11 213.852 151.103 210.611 151.46 207.4Z" fill="#5EC4E6"/>
<path d="M128.199 64.9687C125.698 63.701 123.446 61.9947 121.551 59.9314C118.512 56.5789 116.052 53.301 117.075 50.7623C118.098 48.2236 121.718 45.937 124.304 44.1319C126.258 42.9024 128.389 41.9786 130.624 41.3926C130.624 41.3926 128.28 54.2465 128.446 58.5446C128.585 60.6887 128.502 62.8414 128.199 64.9687Z" fill="#58AEDD"/>
<path d="M128.199 50.7622C128.199 50.7622 125.418 49.9484 123.729 50.0688C122.04 50.1891 121.431 50.8883 121.471 52.2407C121.501 53.743 122.051 55.1886 123.028 56.3324C124.177 57.7651 125.694 59.0316 126.602 59.0717C127.51 59.1118 128.199 57.8855 128.199 57.8855V50.7622Z" fill="#E6F5FD"/>
<path d="M213.568 64.9686C216.07 63.7025 218.323 61.996 220.216 59.9313C223.256 56.5788 225.721 53.3008 224.693 50.7621C223.664 48.2234 220.073 45.9369 217.47 44.126C215.515 42.8966 213.384 41.9728 211.149 41.3867C211.149 41.3867 213.488 54.2407 213.321 58.5387C213.186 60.6848 213.269 62.8391 213.568 64.9686Z" fill="#58AEDD"/>
<path d="M213.568 50.7622C213.568 50.7622 216.349 49.9484 218.039 50.0688C219.728 50.1891 220.337 50.8883 220.302 52.2407C220.27 53.7435 219.718 55.1889 218.74 56.3324C217.59 57.7651 216.079 59.0316 215.171 59.0717C214.263 59.1118 213.568 57.8855 213.568 57.8855V50.7622Z" fill="#E6F5FD"/>
<path d="M191.848 343.733C191.99 344.8 191.91 345.885 191.613 346.919C191.119 348.719 188.947 351.051 189.808 354.203C190.67 357.355 192.635 359.607 195.842 360.1C199.048 360.593 206.225 359.979 209.012 361C211.798 362.02 216.769 364.111 218.659 365.298C220.55 366.484 222.969 367.429 224.899 367.343C225.691 367.276 226.487 367.276 227.278 367.343C228.476 368.05 229.74 368.638 231.053 369.097C232.616 369.55 235.156 369.429 235.938 370.043C236.284 370.333 236.655 370.592 237.047 370.816C237.298 370.705 237.512 370.522 237.661 370.291C237.81 370.06 237.888 369.79 237.885 369.515C237.842 368.724 237.703 367.941 237.472 367.183C238.057 366.977 238.696 366.977 239.282 367.183C240.391 367.51 241.741 367.836 242.028 368.123C242.316 368.409 243.304 367.263 243.304 365.871V363.745C243.304 363.745 244.039 362.845 243.631 361.04C243.224 359.234 241.333 356.295 240.017 355.681C239.391 355.373 238.749 355.099 238.092 354.862C237.75 353.702 236.988 352.71 235.955 352.077C234.311 351.177 230.249 350.764 228.485 350.85C226.721 350.936 224.589 349.211 220.28 349.005C215.97 348.799 211.494 348.845 208.989 347.04C206.483 345.234 206.052 343.383 206.052 343.383L205.133 342.455L199.1 341.928L191.848 343.733Z" fill="#515A60"/>
<path d="M207.822 149.743C210.273 151.672 212.578 153.779 214.717 156.047C217.429 159.073 228.594 167.153 233.105 169.583C237.615 172.013 248.291 174.712 248.291 174.712L250.096 189.778C250.096 189.778 237.374 192.311 228.962 191.084C223.773 190.318 218.633 189.253 213.568 187.892C213.568 187.892 205.035 176.185 204.788 164.889C204.541 153.594 207.822 149.743 207.822 149.743Z" fill="#58AEDD"/>
<g style="mix-blend-mode:multiply" opacity="0.5">
<path d="M215.769 188.465L214.327 188.139L211.528 170.236C211.528 170.236 211.528 168.368 214.976 183.869C215.16 184.838 215.769 188.465 215.769 188.465Z" fill="#58AEDD"/>
</g>
<path d="M249.607 191.405C249.607 191.405 252.48 194.918 260.525 194.844C268.569 194.769 279.986 193.279 281.67 192.523C283.354 191.766 284.687 190.38 284.606 189.228C284.483 188.436 284.075 187.717 283.457 187.205C283.337 187.092 283.208 186.989 283.072 186.895C284.489 186.81 285.89 186.552 287.244 186.127C288.138 185.681 288.872 184.971 289.347 184.093C289.749 183.52 289.749 181.52 288.927 180.918C288.106 180.317 285.669 179.915 285.669 179.915C285.669 179.915 287.353 178.809 286.968 177.514C286.583 176.219 285.761 175.354 283.796 174.878C281.831 174.402 274.804 174.414 273.631 174.368C272.459 174.322 267.839 173.308 266.817 172.15C266.319 171.5 266.027 170.717 265.978 169.9C265.928 169.083 266.125 168.271 266.541 167.566C267.397 166.11 268.65 164.563 269.207 163.084C269.764 161.606 270.132 157.233 269.161 155.732C268.19 154.23 266.633 152.356 264.915 152.591C263.197 152.826 262.042 153.354 261.766 155.365C261.49 157.377 261.582 159.291 260.812 160.844C260.107 162.356 259.098 163.708 257.847 164.815C256.761 165.675 253.538 166.872 252.193 168.7C250.848 170.528 247.694 175.147 247.487 176.099C247.28 177.05 246.372 180.884 246.642 184.345C247.016 189.073 249.044 190.649 249.044 190.649L249.607 191.405Z" fill="#515A60"/>
<path d="M220.647 269.308C219.791 266.902 219.663 264.297 220.28 261.818C220.894 259.113 225.451 243.52 222.739 227.188C220.027 210.855 217.567 201.279 216.585 196.488C215.602 191.697 214.982 188.872 214.982 188.872C214.982 188.872 208.828 157.806 208.701 151.422C208.575 145.038 206.512 119.124 207.374 110.029C208.236 100.935 213.775 71.7138 214.143 62.0174C214.51 52.3211 215.619 41.2608 205.277 34.023C194.934 26.7851 180.161 21.6217 175.357 21.0028L171.231 20.4756H170.576L166.428 21.0028C161.624 21.6217 146.851 26.7794 136.508 34.023C126.165 41.2666 127.274 52.3211 127.642 62.0232C128.01 71.7253 133.538 100.946 134.399 110.029C135.261 119.112 133.164 145.027 133.043 151.416C132.923 157.806 126.763 188.867 126.763 188.867C126.763 188.867 126.148 191.692 125.166 196.483C124.183 201.273 121.718 210.849 119.006 227.182C116.294 243.514 120.856 259.108 121.471 261.813C122.086 264.292 121.956 266.897 121.097 269.303C120.235 272.002 117.161 288.094 117.897 303.687C118.632 319.28 128.366 335.326 131.199 338.85C134.032 342.375 135.589 343.269 136.571 343.968C137.554 344.667 137.33 345.447 137.33 345.447C137.884 345.262 138.389 344.954 138.807 344.547C139.795 343.727 140.53 343.194 140.53 343.194L141.145 343.888C141.556 344.51 141.785 345.235 141.806 345.979L142.542 345.361C143.117 344.839 143.64 344.263 144.104 343.641C144.591 343.889 145.056 344.177 145.495 344.501C146.154 344.935 146.737 345.476 147.219 346.1C147.219 346.1 150.425 343.767 151.735 341.309C153.045 338.85 154.074 336.85 154.074 336.85L158.998 337.71C162.821 338.284 166.673 338.643 170.536 338.787H171.231C175.079 338.642 178.916 338.282 182.723 337.71L187.648 336.85C187.648 336.85 188.676 338.856 189.986 341.309C191.297 343.762 194.503 346.1 194.503 346.1C194.985 345.476 195.567 344.935 196.227 344.501C196.666 344.175 197.134 343.887 197.623 343.641C198.086 344.262 198.608 344.838 199.18 345.361L199.921 345.979C199.939 345.235 200.166 344.51 200.576 343.888L201.191 343.194C201.191 343.194 201.932 343.727 202.915 344.547C203.334 344.953 203.838 345.26 204.392 345.447C204.392 345.447 204.191 344.667 205.173 343.974C206.156 343.28 207.719 342.375 210.551 338.856C213.384 335.338 223.112 319.286 223.848 303.693C224.583 288.099 221.532 272.008 220.647 269.308Z" fill="#58AEDD"/>
<path d="M210.695 198.7C204.541 172.419 197.646 157.439 198.876 143.926C200.105 130.413 200.599 112.247 203.312 99.966C206.024 87.6851 210.207 72.4586 206.018 62.6362C201.829 52.8138 199.387 53.7937 194.445 56.2464C189.504 58.6992 181.143 64.6018 181.143 64.6018L170.887 71.0259L160.624 64.6018C160.624 64.6018 152.27 58.7049 147.328 56.2464C142.386 53.788 139.939 52.808 135.75 62.6362C131.561 72.4643 135.75 87.6851 138.462 99.966C141.174 112.247 141.662 130.419 142.892 143.926C144.122 157.433 137.232 172.419 131.073 198.7C124.913 224.981 133.785 250.517 138.479 261.32C143.174 272.122 156.045 290.3 159.084 292.838C162.124 295.377 165.319 297.177 168.606 297.75L170.576 297.933V297.996H170.904H171.232V297.933L173.202 297.75C176.483 297.177 179.684 295.377 182.724 292.838C185.763 290.3 198.646 272.128 203.329 261.32C208.012 250.511 216.855 224.975 210.695 198.7Z" fill="#E6F5FD"/>
<path d="M155.212 45.1808C155.212 45.1808 152.339 42.6421 149.023 42.2238C145.708 41.8054 143.019 42.0175 141.927 42.7968C140.835 43.5762 140.858 44.1034 141.209 44.3212C141.559 44.539 142.432 44.2295 142.812 44.092C143.191 43.9544 143.622 43.5189 147.443 43.6966C152.517 43.9544 154.447 46.1951 154.913 45.8685C155.378 45.5418 155.212 45.1808 155.212 45.1808Z" fill="#515A60"/>
<path d="M186.533 45.1808C186.533 45.1808 189.406 42.6421 192.722 42.2238C196.037 41.8054 198.726 42.0175 199.812 42.7968C200.898 43.5762 200.887 44.1264 200.536 44.3269C200.186 44.5275 199.318 44.2352 198.939 44.0977C198.646 43.9888 198.129 43.5246 194.302 43.7023C189.228 43.9602 187.303 46.2009 186.832 45.8742C186.361 45.5476 186.533 45.1808 186.533 45.1808Z" fill="#515A60"/>
<path d="M180.534 63.5358C179.305 62.7736 176.616 61.2951 174.07 61.0143C172.674 60.8653 171.772 60.785 171.197 60.7392V60.6934H170.869H170.542V60.7449C169.967 60.7908 169.077 60.871 167.669 61.02C165.118 61.3008 162.429 62.7793 161.199 63.5415C160.591 63.8967 160.134 64.4626 159.917 65.1315C159.7 65.8004 159.737 66.5256 160.021 67.169C160.596 68.6017 164.537 72.1891 166.186 73.0201C167.52 73.6963 169.967 73.639 170.852 73.5932C171.731 73.639 174.185 73.6963 175.518 73.0201C177.161 72.1891 181.103 68.6017 181.683 67.169C181.972 66.5282 182.014 65.8041 181.802 65.1343C181.59 64.4645 181.139 63.8957 180.534 63.5358Z" fill="#515A60"/>
<path d="M149.356 60.4816C152.612 60.4816 155.252 57.8491 155.252 54.6019C155.252 51.3546 152.612 48.7222 149.356 48.7222C146.1 48.7222 143.461 51.3546 143.461 54.6019C143.461 57.8491 146.1 60.4816 149.356 60.4816Z" fill="#515A60"/>
<path d="M175.208 69.3071C175.143 69.0838 175.142 68.847 175.205 68.6233C175.268 68.3996 175.392 68.1978 175.564 68.0406C176.139 67.4274 176.794 67.0205 177.225 67.1924C177.323 67.212 177.416 67.2511 177.498 67.3075C177.58 67.3638 177.651 67.4361 177.704 67.5202C177.758 67.6042 177.794 67.6982 177.81 67.7965C177.827 67.8948 177.823 67.9954 177.799 68.0922C177.772 68.3545 177.676 68.605 177.521 68.8184C177.365 69.0318 177.156 69.2003 176.914 69.3071C176.454 69.4886 175.96 69.5669 175.466 69.5363C175.254 69.4389 175.208 69.3071 175.208 69.3071Z" fill="#6C7780"/>
<path d="M192.411 60.4816C195.667 60.4816 198.307 57.8491 198.307 54.6019C198.307 51.3546 195.667 48.7222 192.411 48.7222C189.155 48.7222 186.516 51.3546 186.516 54.6019C186.516 57.8491 189.155 60.4816 192.411 60.4816Z" fill="#515A60"/>
<path d="M166.56 69.3071C166.627 69.084 166.629 68.8466 166.566 68.6225C166.502 68.3983 166.377 68.1966 166.204 68.0406C165.6 67.4274 164.974 67.0205 164.543 67.1924C164.447 67.2138 164.356 67.2544 164.276 67.3117C164.196 67.3691 164.129 67.442 164.078 67.526C164.027 67.6101 163.993 67.7036 163.979 67.8009C163.966 67.8982 163.972 67.9973 163.997 68.0922C164.022 68.3544 164.117 68.6053 164.271 68.8189C164.426 69.0325 164.635 69.201 164.876 69.3071C165.336 69.4883 165.831 69.5665 166.324 69.5363C166.543 69.4389 166.56 69.3071 166.56 69.3071Z" fill="#6C7780"/>
<path d="M100.044 215.474C100.044 215.474 93.3154 219.652 91.4249 222.351C89.5345 225.05 87.8164 228.981 88.5519 232.993C89.2874 237.004 92.4132 242.408 93.5624 243.148C94.7116 243.887 97.826 244.213 98.4006 244.213C98.9752 244.213 100.044 243.067 100.044 243.067C100.044 243.067 102.756 243.801 104.313 243.308C105.319 242.973 106.262 242.475 107.106 241.835C107.106 241.835 109.238 242.408 110.226 242.162C111.214 241.915 113.179 240.036 113.674 239.297C114.168 238.557 115.231 234.552 115.064 233.732L114.903 232.913C114.903 232.913 115.972 231.36 116.052 230.54C116.133 229.721 116.052 222.678 115.024 220.918C113.995 219.159 112.111 216.374 107.267 215.147C102.423 213.921 100.044 215.474 100.044 215.474Z" fill="#515A60"/>
<path d="M194.802 54.2354C195.386 54.2354 195.859 53.7633 195.859 53.1809C195.859 52.5986 195.386 52.1265 194.802 52.1265C194.218 52.1265 193.744 52.5986 193.744 53.1809C193.744 53.7633 194.218 54.2354 194.802 54.2354Z" fill="#E6F5FD"/>
<path d="M151.827 54.2354C152.411 54.2354 152.884 53.7633 152.884 53.1809C152.884 52.5986 152.411 52.1265 151.827 52.1265C151.243 52.1265 150.77 52.5986 150.77 53.1809C150.77 53.7633 151.243 54.2354 151.827 54.2354Z" fill="#E6F5FD"/>
<path d="M157.194 75.8398C155.504 75.8073 153.813 75.8781 152.132 76.0519C150.448 76.2181 148.776 76.453 147.115 76.7739C143.797 77.4075 140.546 78.3495 137.405 79.5877C135.838 80.2174 134.304 80.9251 132.808 81.7081C132.429 81.8972 132.067 82.1207 131.693 82.3213C131.32 82.5218 130.952 82.7339 130.596 82.9631L129.51 83.6279L128.452 84.3385C128.09 84.5677 127.746 84.8198 127.406 85.072C127.067 85.3241 126.717 85.5706 126.378 85.8342C125.717 86.3729 125.039 86.8886 124.407 87.4674C123.113 88.6016 121.887 89.811 120.735 91.0892C121.88 89.8033 123.098 88.5845 124.384 87.4388C125.01 86.8657 125.688 86.3327 126.349 85.7883C126.682 85.519 127.027 85.2726 127.372 85.0147C127.717 84.7568 128.05 84.5047 128.406 84.2697L129.464 83.5534L130.55 82.8771C130.906 82.6479 131.274 82.4359 131.647 82.2296C132.021 82.0233 132.377 81.7998 132.756 81.6049C134.25 80.8054 135.784 80.0843 137.353 79.4444C140.502 78.1717 143.765 77.2008 147.098 76.5447C148.757 76.2123 150.433 75.9583 152.126 75.7825C153.818 75.5922 155.52 75.508 157.223 75.5304C157.252 75.548 157.276 75.5733 157.292 75.6036C157.309 75.6339 157.316 75.668 157.315 75.7023C157.292 75.8284 157.194 75.8398 157.194 75.8398Z" fill="#515A60"/>
<path d="M157.033 72.5449C156.003 71.7057 154.855 71.0221 153.626 70.5162C153.476 70.4474 153.327 70.3729 153.172 70.3156L152.712 70.1437L151.787 69.7999C151.155 69.6222 150.529 69.4102 149.891 69.2612C149.253 69.1122 148.615 68.9689 147.977 68.8543L146.041 68.5792C144.748 68.4875 143.449 68.3615 142.151 68.3958H141.18C141.019 68.3958 140.858 68.3958 140.697 68.3958L140.209 68.4302L138.278 68.562C137.629 68.562 136.991 68.711 136.353 68.7855L134.428 69.0491C133.164 69.3013 131.894 69.542 130.636 69.8171L126.889 70.8027L130.624 69.7769C131.883 69.4961 133.153 69.2383 134.417 68.9689L136.336 68.6938C136.979 68.6079 137.611 68.4761 138.261 68.4474L140.197 68.2927L140.686 68.2583C140.846 68.2583 141.007 68.2583 141.174 68.2583H142.145C143.449 68.2394 144.753 68.2891 146.052 68.4073L148 68.6652C148.644 68.7683 149.287 68.9231 149.931 69.0491C150.575 69.1752 151.207 69.3987 151.844 69.5706L152.787 69.9145L153.252 70.0807L153.718 70.2812C154.981 70.7881 156.163 71.4795 157.223 72.3328C157.223 72.3328 157.28 72.3959 157.194 72.499C157.108 72.6022 157.033 72.5449 157.033 72.5449Z" fill="#515A60"/>
<path d="M159.165 77.4444C156.93 77.9909 154.743 78.7173 152.626 79.6163C150.493 80.5024 148.43 81.5484 146.455 82.7452C145.466 83.347 144.501 83.9888 143.582 84.6822C142.639 85.3674 141.734 86.1019 140.869 86.8828C139.108 88.4494 137.532 90.2105 136.169 92.1321C137.514 90.1915 139.076 88.4093 140.823 86.8198C141.682 86.0282 142.581 85.2821 143.518 84.5848C144.449 83.8799 145.409 83.2266 146.391 82.6134C148.358 81.3879 150.415 80.3132 152.545 79.3985C154.668 78.4715 156.863 77.7164 159.107 77.1406C159.107 77.1406 159.194 77.1406 159.234 77.2667C159.274 77.3928 159.165 77.4444 159.165 77.4444Z" fill="#515A60"/>
<path d="M155.717 73.9261C154.402 73.718 153.073 73.6069 151.741 73.5937C150.414 73.5593 149.086 73.5937 147.759 73.6911C145.112 73.8838 142.48 74.2495 139.881 74.7857L137.939 75.2155C137.296 75.353 136.658 75.5479 136.014 75.7141C134.727 76.0293 133.469 76.4419 132.205 76.8602C131.567 77.0493 130.946 77.2843 130.32 77.5078L128.452 78.184C127.217 78.6654 125.993 79.1869 124.763 79.6855C125.987 79.1697 127.205 78.6425 128.435 78.1439L130.303 77.4505C130.923 77.2213 131.544 76.9806 132.182 76.7857C133.44 76.3788 134.698 75.9548 135.985 75.6396C136.629 75.4677 137.261 75.2671 137.91 75.1238L139.847 74.6711C142.449 74.1172 145.084 73.7343 147.736 73.525C149.063 73.4275 150.396 73.3588 151.758 73.3874C153.104 73.3851 154.449 73.4828 155.78 73.6797C155.78 73.6797 155.861 73.7083 155.861 73.8516C155.861 73.9949 155.717 73.9261 155.717 73.9261Z" fill="#515A60"/>
<path d="M184.815 75.8399C186.507 75.8074 188.2 75.8782 189.883 76.0519C191.561 76.2181 193.233 76.4531 194.894 76.774C198.212 77.4067 201.463 78.3488 204.604 79.5878C206.171 80.2174 207.705 80.9251 209.201 81.7081C209.58 81.8972 209.942 82.1207 210.316 82.3213C210.689 82.5219 211.057 82.7339 211.419 82.9631L212.499 83.6279L213.562 84.3385C213.919 84.5677 214.263 84.8199 214.602 85.072C214.941 85.3242 215.292 85.5706 215.631 85.8342C216.292 86.3729 216.975 86.8887 217.608 87.4675C218.901 88.6122 220.127 89.8311 221.279 91.1179C220.136 89.8321 218.92 88.6132 217.636 87.4675C217.004 86.8944 216.326 86.3614 215.671 85.817C215.332 85.5477 214.987 85.3013 214.648 85.0434C214.309 84.7855 213.965 84.5333 213.608 84.2984L212.551 83.5821L211.454 82.8772C211.092 82.6479 210.724 82.4359 210.356 82.2296C209.988 82.0233 209.621 81.7998 209.241 81.605C207.747 80.8064 206.213 80.0852 204.645 79.4445C201.503 78.1743 198.247 77.2034 194.922 76.5447C193.264 76.2124 191.588 75.9583 189.894 75.7826C188.203 75.5921 186.5 75.5079 184.798 75.5304C184.769 75.5493 184.746 75.5749 184.73 75.6049C184.714 75.6349 184.706 75.6683 184.706 75.7023C184.717 75.8284 184.815 75.8399 184.815 75.8399Z" fill="#515A60"/>
<path d="M184.976 72.5449C186.007 71.7069 187.155 71.0234 188.383 70.5162C188.533 70.4475 188.682 70.373 188.837 70.3157L189.297 70.1437L190.228 69.7999C190.854 69.6223 191.48 69.4102 192.118 69.2612C192.756 69.1122 193.394 68.969 194.037 68.8543L195.968 68.5793C197.267 68.4876 198.559 68.3615 199.858 68.3959H200.829C200.99 68.3959 201.157 68.3959 201.318 68.3959L201.8 68.4303L203.737 68.5621C204.386 68.5621 205.018 68.7111 205.662 68.7856L207.581 69.0492C208.845 69.3013 210.115 69.542 211.379 69.8171L215.125 70.8028L211.385 69.777C210.126 69.4962 208.862 69.2383 207.598 68.969L205.673 68.6939C205.035 68.6079 204.397 68.4761 203.748 68.4475L201.812 68.2927L201.323 68.2583C201.162 68.2583 201.002 68.2583 200.841 68.2583H199.864C198.562 68.2393 197.259 68.289 195.962 68.4073L194.014 68.6652C193.365 68.7684 192.722 68.9231 192.078 69.0492C191.434 69.1753 190.802 69.3988 190.165 69.5707L189.228 69.9145L188.757 70.0807L188.297 70.2813C187.032 70.7856 185.85 71.4772 184.792 72.3329C184.792 72.3329 184.729 72.3959 184.792 72.4991C184.855 72.6022 184.976 72.5449 184.976 72.5449Z" fill="#515A60"/>
<path d="M182.862 77.4444C185.096 77.9918 187.283 78.7181 189.401 79.6163C191.532 80.5025 193.593 81.5485 195.566 82.7452C196.554 83.347 197.525 83.9888 198.439 84.6822C199.382 85.3674 200.287 86.1019 201.151 86.8828C202.914 88.4479 204.491 90.2091 205.851 92.1321C204.507 90.1929 202.947 88.4109 201.203 86.8198C200.343 86.0281 199.441 85.2821 198.502 84.5848C197.577 83.8799 196.612 83.2266 195.629 82.6134C193.66 81.389 191.601 80.3143 189.47 79.3985C187.348 78.4714 185.156 77.7164 182.913 77.1406C182.913 77.1406 182.821 77.1406 182.781 77.2667C182.741 77.3928 182.862 77.4444 182.862 77.4444Z" fill="#515A60"/>
<path d="M186.309 73.9261C187.625 73.718 188.954 73.6069 190.285 73.5937C191.619 73.5593 192.946 73.5937 194.267 73.6911C196.915 73.883 199.546 74.2487 202.145 74.7857L204.087 75.2155C204.737 75.353 205.369 75.5479 206.012 75.7141C207.299 76.0293 208.558 76.4419 209.822 76.8602C210.46 77.0493 211.08 77.2843 211.707 77.5078L213.58 78.184C214.815 78.6654 216.033 79.1869 217.263 79.6855C216.039 79.1697 214.821 78.6425 213.591 78.1439L211.724 77.4505C211.103 77.2213 210.483 76.9806 209.851 76.7857C208.587 76.3788 207.328 75.9548 206.041 75.6396C205.403 75.4677 204.765 75.2671 204.122 75.1238L202.18 74.6711C199.578 74.1167 196.943 73.7339 194.29 73.525C192.963 73.4275 191.63 73.3588 190.268 73.3874C188.922 73.3851 187.578 73.4828 186.246 73.6797C186.246 73.6797 186.166 73.7083 186.166 73.8516C186.166 73.9949 186.309 73.9261 186.309 73.9261Z" fill="#515A60"/>
<path d="M165.267 88.6654C166.124 89.1619 167.041 89.547 167.996 89.8115C168.944 90.0703 169.922 90.1995 170.904 90.1955C171.878 90.1797 172.845 90.0293 173.777 89.7485C174.73 89.4594 175.641 89.0491 176.489 88.5278C175.732 89.2083 174.853 89.7392 173.898 90.0923C171.962 90.8362 169.821 90.8586 167.87 90.1554C166.916 89.8259 166.033 89.3205 165.267 88.6654Z" fill="#525B61"/>
<path d="M189.107 77.1465C189.028 77.1533 188.951 77.1764 188.881 77.2146C188.811 77.2527 188.749 77.305 188.701 77.3681C188.652 77.4312 188.617 77.5037 188.598 77.581C188.579 77.6582 188.576 77.7386 188.59 77.817C188.59 77.817 188.159 80.6824 186.625 81.6566C182.999 84.0234 178.506 82.115 171.352 80.5964C171.047 80.52 170.727 80.52 170.421 80.5964C163.267 82.115 158.768 84.0348 155.148 81.6566C153.608 80.6537 153.177 77.8399 153.183 77.817C153.197 77.7386 153.194 77.6582 153.175 77.581C153.156 77.5037 153.121 77.4312 153.073 77.3681C153.024 77.305 152.963 77.2527 152.893 77.2146C152.823 77.1764 152.746 77.1533 152.666 77.1465C152.224 77.0892 152.022 77.4617 152.011 77.7998C152.179 79.4755 152.958 81.0313 154.2 82.1723C155.608 83.4159 158.119 83.8915 160.912 83.5764C163.704 83.2612 167.02 82.4302 170.887 81.5935C174.754 82.4073 178.104 83.3127 180.862 83.5764C183.62 83.84 186.16 83.4159 187.567 82.1723C188.806 81.0284 189.586 79.4745 189.762 77.7998C189.751 77.4617 189.544 77.0892 189.107 77.1465Z" fill="#515A60"/>
<path d="M402.043 322.919H391.574V361.744H402.043V322.919Z" fill="#5A5E59"/>
<path d="M401.239 111.158H392.379V322.919H401.239V111.158Z" fill="#635442"/>
<path d="M437.91 66.2637H355.708C353.185 66.2637 351.139 68.3034 351.139 70.8196V198.351C351.139 200.867 353.185 202.906 355.708 202.906H437.91C440.433 202.906 442.478 200.867 442.478 198.351V70.8196C442.478 68.3034 440.433 66.2637 437.91 66.2637Z" fill="#D2A371"/>
<path opacity="0.32" d="M396.809 365.057C404.105 365.057 410.019 363.849 410.019 362.358C410.019 360.867 404.105 359.659 396.809 359.659C389.513 359.659 383.599 360.867 383.599 362.358C383.599 363.849 389.513 365.057 396.809 365.057Z" fill="#42515F"/>
</svg>
