<svg width="214" height="71" viewBox="0 0 214 71" fill="none" xmlns="http://www.w3.org/2000/svg">
<rect x="5" y="6" width="205" height="59" rx="29.5" fill="white"/>
<path d="M32.7071 31.6581C29.8999 36.5606 31.6921 44.0027 34.79 48.5132C36.339 50.7694 37.8989 52.7937 40.0568 52.7937H40.1794C41.1907 52.7532 41.9203 52.4404 42.6244 52.1386C43.4162 51.7981 44.2355 51.4485 45.5211 51.4485C46.7427 51.4485 47.5236 51.7871 48.2771 52.1165C49.0305 52.4459 49.7876 52.7753 50.9178 52.7533C53.3391 52.7072 54.8258 50.5228 56.1371 48.5961C57.1187 47.143 57.8885 45.5559 58.423 43.8831L58.4321 43.8537C58.4536 43.7895 58.4508 43.7196 58.4241 43.6574C58.3974 43.5952 58.3488 43.5452 58.2877 43.5169H58.2675C57.8415 43.3421 54.1016 41.6766 54.0614 37.1219C54.0248 33.4248 56.8667 31.4686 57.4373 31.1134L57.4629 31.0969C57.4934 31.077 57.5196 31.0512 57.54 31.0209C57.5604 30.9907 57.5746 30.9567 57.5818 30.9208C57.5889 30.885 57.5889 30.8481 57.5817 30.8123C57.5744 30.7764 57.5602 30.7424 57.5397 30.7122C55.5793 27.823 52.5728 27.3887 51.3622 27.3353C51.1793 27.3188 51.0056 27.3096 50.8227 27.3096C49.4018 27.3096 48.0393 27.8488 46.9457 28.2831C46.1905 28.583 45.5376 28.8352 45.0877 28.8352C44.583 28.8352 43.9265 28.572 43.1675 28.2702C42.1507 27.8635 40.9986 27.4034 39.7807 27.4034H39.6947C36.862 27.4421 34.1829 29.0744 32.7071 31.6581Z" fill="url(#paint0_linear)"/>
<path d="M51.3661 19.3743C49.6507 19.4442 47.5915 20.5079 46.3608 21.9507C45.3147 23.1689 44.2943 25.2024 44.5631 27.2525C44.5714 27.3146 44.6006 27.3719 44.6459 27.4148C44.6912 27.4577 44.7498 27.4836 44.8118 27.4881C44.927 27.4973 45.0459 27.5028 45.163 27.5028C46.8418 27.5028 48.6522 26.5679 49.8885 25.0626C51.1905 23.4744 51.8471 21.4372 51.6495 19.6098C51.6397 19.5422 51.6052 19.4807 51.5528 19.4372C51.5005 19.3937 51.4339 19.3713 51.3661 19.3743V19.3743Z" fill="url(#paint1_linear)"/>
<path d="M71.1162 19.231H74.3714C76.9792 19.231 78.7421 20.959 78.7421 23.3697C78.7421 25.7805 76.9792 27.5085 74.3714 27.5085H71.1162V19.231ZM74.3238 26.9601C76.65 26.9601 78.1423 25.4695 78.1423 23.3642C78.1423 21.2589 76.65 19.7702 74.3238 19.7702H71.716V26.9656L74.3238 26.9601Z" fill="url(#paint2_linear)"/>
<path d="M79.9712 24.4224C79.9712 22.5821 81.2751 21.2939 83.038 21.2939C84.8009 21.2939 86.1048 22.5932 86.1048 24.4224C86.1048 26.2517 84.8009 27.5509 83.038 27.5509C81.2751 27.5509 79.9712 26.2553 79.9712 24.4224ZM85.505 24.4224C85.505 22.8747 84.448 21.8221 83.038 21.8221C81.628 21.8221 80.5637 22.8821 80.5637 24.4224C80.5637 25.9627 81.6171 27.0246 83.0307 27.0246C84.4443 27.0246 85.4977 25.9719 85.4977 24.4224H85.505Z" fill="url(#paint3_linear)"/>
<path d="M96.5087 21.3359L94.1807 27.5082H93.632L91.5619 22.1457L89.4808 27.5082H88.9413L86.6133 21.3359H87.1784L89.2229 26.8457L91.3095 21.3359H91.8143L93.8935 26.8347L95.9674 21.3359H96.5087Z" fill="url(#paint4_linear)"/>
<path d="M103.357 23.9032V27.5083H102.77V23.9492C102.77 22.5543 102.03 21.8219 100.784 21.8219C99.3396 21.8219 98.4581 22.7549 98.4581 24.2142V27.5083H97.8711V21.336H98.4417V22.6721C98.8531 21.809 99.7108 21.29 100.874 21.29C102.359 21.29 103.357 22.1752 103.357 23.9032Z" fill="url(#paint5_linear)"/>
<path d="M105.778 18.7358H106.365V27.5084H105.778V18.7358Z" fill="url(#paint6_linear)"/>
<path d="M108.174 24.4224C108.174 22.5821 109.48 21.2939 111.243 21.2939C113.006 21.2939 114.31 22.5932 114.31 24.4224C114.31 26.2517 113.004 27.5509 111.243 27.5509C109.482 27.5509 108.174 26.2553 108.174 24.4224ZM113.71 24.4224C113.71 22.8747 112.653 21.8221 111.243 21.8221C109.833 21.8221 108.774 22.8821 108.774 24.4224C108.774 25.9627 109.831 27.0246 111.243 27.0246C112.655 27.0246 113.71 25.9719 113.71 24.4224Z" fill="url(#paint7_linear)"/>
<path d="M120.537 23.594V27.5083H119.971V26.4041C119.584 27.1126 118.832 27.5506 117.762 27.5506C116.389 27.5506 115.553 26.8403 115.553 25.7895C115.553 24.8546 116.142 24.0615 117.845 24.0615H119.95V23.572C119.95 22.4236 119.326 21.809 118.121 21.809C117.345 21.8013 116.592 22.0787 116.005 22.5892L115.71 22.1641C116.399 21.5861 117.27 21.2759 118.167 21.29C119.69 21.29 120.537 22.0703 120.537 23.594ZM119.95 25.6883V24.5381H117.857C116.588 24.5381 116.142 25.0699 116.142 25.7803C116.142 26.5845 116.764 27.0814 117.845 27.0814C118.88 27.0722 119.597 26.5753 119.95 25.6883Z" fill="url(#paint8_linear)"/>
<path d="M128.42 18.7358V27.5084H127.844V26.0546C127.61 26.5207 127.248 26.9096 126.802 27.1757C126.355 27.4418 125.843 27.5738 125.324 27.5563C123.598 27.5563 122.292 26.2681 122.292 24.4278C122.292 22.5875 123.598 21.2993 125.324 21.2993C125.836 21.2849 126.342 21.4152 126.785 21.6754C127.227 21.9356 127.589 22.3153 127.828 22.7716V18.7358H128.42ZM127.833 24.4223C127.833 22.8746 126.774 21.822 125.364 21.822C123.954 21.822 122.897 22.882 122.897 24.4223C122.897 25.9626 123.954 27.0245 125.364 27.0245C126.774 27.0245 127.833 25.9718 127.833 24.4223V24.4223Z" fill="url(#paint9_linear)"/>
<path d="M133.248 24.4224C133.248 22.5821 134.554 21.2939 136.315 21.2939C138.076 21.2939 139.384 22.5932 139.384 24.4224C139.384 26.2517 138.078 27.5509 136.315 27.5509C134.552 27.5509 133.248 26.2553 133.248 24.4224ZM138.784 24.4224C138.784 22.8747 137.727 21.8221 136.315 21.8221C134.903 21.8221 133.848 22.8821 133.848 24.4224C133.848 25.9627 134.905 27.0246 136.315 27.0246C137.725 27.0246 138.784 25.9719 138.784 24.4224Z" fill="url(#paint10_linear)"/>
<path d="M146.691 23.9032V27.5083H146.104V23.9492C146.104 22.5543 145.373 21.8219 144.118 21.8219C142.672 21.8219 141.79 22.7549 141.79 24.2142V27.5083H141.203V21.336H141.768V22.6721C142.18 21.809 143.037 21.29 144.2 21.29C145.693 21.29 146.691 22.1752 146.691 23.9032Z" fill="url(#paint11_linear)"/>
<path d="M155.175 27.1143C154.824 27.4115 154.376 27.5675 153.917 27.5523C152.836 27.5523 152.249 26.9137 152.249 25.874V21.8456H151.121V21.3359H152.249V19.9888H152.836V21.3359H154.787V21.8456H152.836V25.8261C152.836 26.6193 153.224 27.0573 153.975 27.0573C154.324 27.065 154.664 26.9424 154.928 26.7131L155.175 27.1143Z" fill="url(#paint12_linear)"/>
<path d="M162.294 23.9033V27.5084H161.717V23.9493C161.717 22.5544 160.976 21.822 159.731 21.822C158.286 21.822 157.404 22.755 157.404 24.2143V27.5084H156.817V18.7358H157.404V22.6262C157.827 21.7852 158.674 21.2901 159.813 21.2901C161.296 21.2901 162.294 22.1753 162.294 23.9033Z" fill="url(#paint13_linear)"/>
<path d="M169.909 24.564H164.642C164.701 26.0362 165.771 27.0244 167.239 27.0244C167.61 27.0378 167.978 26.9672 168.318 26.8178C168.658 26.6684 168.96 26.444 169.202 26.1613L169.542 26.5515C168.993 27.214 168.156 27.5563 167.227 27.5563C165.37 27.5563 164.066 26.2552 164.066 24.4278C164.066 22.6004 165.323 21.2993 167.003 21.2993C168.684 21.2993 169.929 22.5746 169.929 24.4075C169.92 24.4462 169.909 24.5051 169.909 24.564ZM164.642 24.1039H169.342C169.26 22.7679 168.298 21.8091 166.992 21.8091C165.687 21.8091 164.739 22.755 164.642 24.1039Z" fill="url(#paint14_linear)"/>
<path d="M79.8141 45.8061H72.7862L71.4019 49.0799H68.71L75.0338 34.9355H77.6032L83.949 49.0799H81.2205L79.8141 45.8061ZM78.951 43.745L76.3011 37.5616L73.6695 43.745H78.951Z" fill="url(#paint15_linear)"/>
<path d="M96.8819 43.6769C96.8819 47.0317 94.5722 49.2143 91.4414 49.2143C90.0753 49.2143 88.8701 48.7487 88.007 47.7605V52.9924H85.4961V38.2904H87.8863V39.7037C88.7293 38.6732 89.9747 38.1689 91.4414 38.1689C94.5722 38.1689 96.8819 40.3515 96.8819 43.6769ZM94.3326 43.6769C94.3326 41.6158 92.9665 40.3037 91.1597 40.3037C89.3529 40.3037 87.9667 41.6158 87.9667 43.6769C87.9667 45.738 89.3529 47.052 91.1597 47.052C92.9665 47.052 94.3326 45.7454 94.3326 43.6769V43.6769Z" fill="url(#paint16_linear)"/>
<path d="M110.656 43.6769C110.656 47.0317 108.348 49.2143 105.215 49.2143C103.849 49.2143 102.644 48.7487 101.781 47.7605V52.9924H99.272V38.2904H101.66V39.7037C102.503 38.6732 103.749 38.1689 105.215 38.1689C108.348 38.1689 110.656 40.3515 110.656 43.6769ZM108.107 43.6769C108.107 41.6158 106.741 40.3037 104.934 40.3037C103.127 40.3037 101.733 41.6231 101.733 43.6769C101.733 45.7306 103.12 47.052 104.926 47.052C106.733 47.052 108.107 45.7454 108.107 43.6769Z" fill="url(#paint17_linear)"/>
<path d="M117.644 47.5858L118.547 45.5449C119.672 46.454 121.458 47.1 123.185 47.1C125.379 47.1 126.294 46.3123 126.294 45.2597C126.294 42.2085 117.942 44.2089 117.942 38.9549C117.942 36.6711 119.748 34.7314 123.611 34.7314C125.297 34.7314 127.065 35.1768 128.289 35.9847L127.466 38.0255C126.292 37.3229 124.956 36.9422 123.591 36.9214C121.422 36.9214 120.538 37.7697 120.538 38.8408C120.538 41.8515 128.872 39.8916 128.872 45.0849C128.872 47.3484 127.043 49.288 123.188 49.288C120.997 49.2825 118.808 48.5961 117.644 47.5858Z" fill="url(#paint18_linear)"/>
<path d="M137.663 48.4949C137.061 48.9789 136.158 49.2218 135.253 49.2218C132.905 49.2218 131.559 47.9686 131.559 45.5854V40.3921H129.792V38.3678H131.559V35.9019H134.069V38.3678H136.941V40.3921H134.069V45.5173C134.069 46.5681 134.591 47.1331 135.554 47.1331C136.06 47.1474 136.555 46.9905 136.961 46.6877L137.663 48.4949Z" fill="url(#paint19_linear)"/>
<path d="M138.491 43.6771C138.491 40.4456 140.902 38.1562 144.195 38.1562C147.527 38.1562 149.917 40.44 149.917 43.6771C149.917 46.9141 147.527 49.2145 144.195 49.2145C140.896 49.2218 138.491 46.9178 138.491 43.6771ZM147.386 43.6771C147.386 41.616 146.022 40.3039 144.195 40.3039C142.368 40.3039 141.022 41.616 141.022 43.6771C141.022 45.7382 142.386 47.0521 144.195 47.0521C146.004 47.0521 147.381 45.7456 147.381 43.6771H147.386Z" fill="url(#paint20_linear)"/>
<path d="M158.525 38.1689V40.5742C158.334 40.536 158.139 40.5156 157.944 40.5135C156.036 40.5135 154.835 41.6434 154.835 43.8462V49.0799H152.32V38.2904H154.71V39.8657C155.433 38.7339 156.739 38.1689 158.525 38.1689Z" fill="url(#paint21_linear)"/>
<path d="M170.593 44.4941H162.181C162.481 46.0694 163.787 47.0797 165.656 47.0797C166.861 47.0797 167.804 46.6951 168.567 45.9075L169.913 47.4643C168.949 48.6164 167.442 49.2218 165.595 49.2218C162.002 49.2218 159.672 46.8975 159.672 43.6844C159.672 40.4713 162.022 38.1636 165.215 38.1636C168.347 38.1636 170.635 40.3719 170.635 43.7396C170.633 43.9476 170.613 44.2512 170.593 44.4941ZM162.161 42.8158H168.245C168.044 41.2608 166.859 40.1897 165.213 40.1897C163.567 40.1897 162.4 41.2405 162.161 42.8158Z" fill="url(#paint22_linear)"/>
<defs>
<linearGradient id="paint0_linear" x1="40.7409" y1="10.5534" x2="79.4873" y2="21.7085" gradientUnits="userSpaceOnUse">
<stop stop-color="#3564AC"/>
<stop offset="1" stop-color="#4497E1"/>
</linearGradient>
<linearGradient id="paint1_linear" x1="47.0097" y1="14.0292" x2="57.4918" y2="16.527" gradientUnits="userSpaceOnUse">
<stop stop-color="#3564AC"/>
<stop offset="1" stop-color="#4497E1"/>
</linearGradient>
<linearGradient id="paint2_linear" x1="73.7667" y1="13.7883" x2="84.8685" y2="16.5535" gradientUnits="userSpaceOnUse">
<stop stop-color="#3564AC"/>
<stop offset="1" stop-color="#4497E1"/>
</linearGradient>
<linearGradient id="paint3_linear" x1="82.1031" y1="17.1799" x2="90.9639" y2="19.5283" gradientUnits="userSpaceOnUse">
<stop stop-color="#3564AC"/>
<stop offset="1" stop-color="#4497E1"/>
</linearGradient>
<linearGradient id="paint4_linear" x1="90.0526" y1="17.2776" x2="102.932" y2="22.8601" gradientUnits="userSpaceOnUse">
<stop stop-color="#3564AC"/>
<stop offset="1" stop-color="#4497E1"/>
</linearGradient>
<linearGradient id="paint5_linear" x1="99.7779" y1="17.2014" x2="107.804" y2="19.1158" gradientUnits="userSpaceOnUse">
<stop stop-color="#3564AC"/>
<stop offset="1" stop-color="#4497E1"/>
</linearGradient>
<linearGradient id="paint6_linear" x1="105.982" y1="12.9677" x2="106.89" y2="12.9841" gradientUnits="userSpaceOnUse">
<stop stop-color="#3564AC"/>
<stop offset="1" stop-color="#4497E1"/>
</linearGradient>
<linearGradient id="paint7_linear" x1="110.307" y1="17.1799" x2="119.17" y2="19.5296" gradientUnits="userSpaceOnUse">
<stop stop-color="#3564AC"/>
<stop offset="1" stop-color="#4497E1"/>
</linearGradient>
<linearGradient id="paint8_linear" x1="117.285" y1="17.1728" x2="124.649" y2="18.7574" gradientUnits="userSpaceOnUse">
<stop stop-color="#3564AC"/>
<stop offset="1" stop-color="#4497E1"/>
</linearGradient>
<linearGradient id="paint9_linear" x1="124.422" y1="12.9352" x2="133.574" y2="14.654" gradientUnits="userSpaceOnUse">
<stop stop-color="#3564AC"/>
<stop offset="1" stop-color="#4497E1"/>
</linearGradient>
<linearGradient id="paint10_linear" x1="135.381" y1="17.1799" x2="144.244" y2="19.5296" gradientUnits="userSpaceOnUse">
<stop stop-color="#3564AC"/>
<stop offset="1" stop-color="#4497E1"/>
</linearGradient>
<linearGradient id="paint11_linear" x1="143.111" y1="17.2014" x2="151.139" y2="19.117" gradientUnits="userSpaceOnUse">
<stop stop-color="#3564AC"/>
<stop offset="1" stop-color="#4497E1"/>
</linearGradient>
<linearGradient id="paint12_linear" x1="152.53" y1="15.015" x2="158.669" y2="15.9046" gradientUnits="userSpaceOnUse">
<stop stop-color="#3564AC"/>
<stop offset="1" stop-color="#4497E1"/>
</linearGradient>
<linearGradient id="paint13_linear" x1="158.721" y1="12.9677" x2="166.955" y2="14.3575" gradientUnits="userSpaceOnUse">
<stop stop-color="#3564AC"/>
<stop offset="1" stop-color="#4497E1"/>
</linearGradient>
<linearGradient id="paint14_linear" x1="166.104" y1="17.1853" x2="174.622" y2="19.3432" gradientUnits="userSpaceOnUse">
<stop stop-color="#3564AC"/>
<stop offset="1" stop-color="#4497E1"/>
</linearGradient>
<linearGradient id="paint15_linear" x1="74.0066" y1="25.6354" x2="95.725" y2="31.9616" gradientUnits="userSpaceOnUse">
<stop stop-color="#3564AC"/>
<stop offset="1" stop-color="#4497E1"/>
</linearGradient>
<linearGradient id="paint16_linear" x1="89.4535" y1="28.4223" x2="106.329" y2="31.9268" gradientUnits="userSpaceOnUse">
<stop stop-color="#3564AC"/>
<stop offset="1" stop-color="#4497E1"/>
</linearGradient>
<linearGradient id="paint17_linear" x1="103.229" y1="28.4223" x2="120.102" y2="31.9257" gradientUnits="userSpaceOnUse">
<stop stop-color="#3564AC"/>
<stop offset="1" stop-color="#4497E1"/>
</linearGradient>
<linearGradient id="paint18_linear" x1="121.546" y1="25.1603" x2="138.183" y2="28.6299" gradientUnits="userSpaceOnUse">
<stop stop-color="#3564AC"/>
<stop offset="1" stop-color="#4497E1"/>
</linearGradient>
<linearGradient id="paint19_linear" x1="132.528" y1="27.1438" x2="144.394" y2="29.0396" gradientUnits="userSpaceOnUse">
<stop stop-color="#3564AC"/>
<stop offset="1" stop-color="#4497E1"/>
</linearGradient>
<linearGradient id="paint20_linear" x1="142.463" y1="30.8853" x2="158.85" y2="35.463" gradientUnits="userSpaceOnUse">
<stop stop-color="#3564AC"/>
<stop offset="1" stop-color="#4497E1"/>
</linearGradient>
<linearGradient id="paint21_linear" x1="154.477" y1="30.9948" x2="163.849" y2="32.4357" gradientUnits="userSpaceOnUse">
<stop stop-color="#3564AC"/>
<stop offset="1" stop-color="#4497E1"/>
</linearGradient>
<linearGradient id="paint22_linear" x1="163.482" y1="30.8926" x2="179.297" y2="35.1315" gradientUnits="userSpaceOnUse">
<stop stop-color="#3564AC"/>
<stop offset="1" stop-color="#4497E1"/>
</linearGradient>
</defs>
</svg>
