<svg width="77" height="55" viewBox="0 0 77 55" fill="none" xmlns="http://www.w3.org/2000/svg">
<g filter="url(#filter0_d)">
<path d="M61.9719 6H12.3922C9.41416 6 7 8.44865 7 11.4692V39.1037C7 42.1243 9.41416 44.573 12.3922 44.573H61.9719C64.9499 44.573 67.3641 42.1243 67.3641 39.1037V11.4692C67.3641 8.44865 64.9499 6 61.9719 6Z" fill="url(#paint0_radial)"/>
</g>
<path d="M15.2256 21.2206H17.0959L16.1662 18.8132L15.2256 21.2206Z" fill="white"/>
<path d="M38.4132 19.1571C38.1959 19.0789 37.9648 19.0486 37.7351 19.0684H36.0288V20.4551H37.7351C37.9648 20.4748 38.1959 20.4445 38.4132 20.3663C38.5006 20.2953 38.5694 20.2034 38.6133 20.0989C38.6572 19.9944 38.6749 19.8804 38.6647 19.7673C38.706 19.6521 38.703 19.5254 38.6564 19.4124C38.6098 19.2994 38.523 19.2082 38.4132 19.1571Z" fill="white"/>
<path d="M56.5801 16.5724V17.6041L56.077 16.5724H52.0848V17.6041L51.5707 16.5724H46.102C45.2812 16.5527 44.4677 16.7314 43.7285 17.0938V16.5724H39.9441V17.0938C39.4706 16.7213 38.8798 16.536 38.2816 16.5724H24.6535L23.7238 18.7245L22.7832 16.5724H18.4082V17.6041L17.9051 16.5724H14.2957L12.6004 20.6216L10.6426 25.0591H15.0176L15.5316 23.6724H16.7238L17.227 25.0591H22.1488V24.0717L22.5754 25.1035H25.0363L25.4629 24.0717V25.1035H37.1879V22.8847H37.3629C37.527 22.8847 37.527 22.8847 37.527 23.1399V25.0369H43.641V24.5155C44.3547 24.8727 45.1422 25.0514 45.9379 25.0369H48.4863L48.9895 23.6613H50.1816L50.6848 25.0369H55.6176V23.7167L56.3723 25.0147H60.3754V16.5724H56.5801ZM27.8801 23.8055H26.4363V19.0685L24.402 23.8055H23.1223L21.0879 19.0685V23.8055H18.2004L17.6098 22.5186H14.7223L14.2191 23.8942H12.6004L15.1488 17.7816H17.2707L19.6879 23.5503V17.7816H21.9848L23.8004 21.9639L25.5066 17.826H27.8801V23.8055ZM33.6551 19.0685H30.3738V20.1778H33.6551V21.387H30.3738V22.5963H33.6551V23.8831H28.8973V17.7816H33.6551V19.0685ZM40.0207 21.5645C40.2012 21.9047 40.2881 22.2879 40.2723 22.6739V23.8831H38.8285V23.0733C38.8507 22.6867 38.7634 22.3018 38.577 21.9639C38.3254 21.6977 38.0738 21.6977 37.5598 21.6977H36.0285V23.9164H34.5848V17.7816H37.8113C38.3923 17.7108 38.9814 17.7989 39.5176 18.0367C39.7453 18.1797 39.9293 18.384 40.049 18.627C40.1688 18.8699 40.2196 19.1418 40.1957 19.4124C40.2087 19.7581 40.1185 20.0997 39.9371 20.3926C39.7556 20.6855 39.4912 20.9161 39.1785 21.0542C39.5065 21.1268 39.8022 21.306 40.0207 21.5645ZM42.5691 23.7833H41.1254V17.6928H42.5691V23.7833ZM59.3035 23.7833H57.2582L54.5457 19.2238V23.7833H51.6582L51.1441 22.4964H48.1254L47.6223 23.872H46.0473C45.6531 23.9179 45.2538 23.8698 44.8812 23.7315C44.5086 23.5932 44.173 23.3686 43.9011 23.0756C43.6292 22.7826 43.4285 22.4292 43.315 22.0436C43.2015 21.658 43.1783 21.2508 43.2473 20.8545C43.2024 19.984 43.4749 19.1271 44.0129 18.4472C44.2969 18.1843 44.6335 17.9867 44.9997 17.868C45.3659 17.7493 45.7531 17.7122 46.1348 17.7594H47.491V19.0463H46.1348C45.7408 19.0198 45.3512 19.1423 45.041 19.3902C44.7155 19.8034 44.5589 20.3276 44.6035 20.8545C44.5688 21.1136 44.5889 21.3772 44.6625 21.6278C44.736 21.8784 44.8613 22.1102 45.0301 22.3078C45.1664 22.4348 45.3271 22.5319 45.5022 22.5929C45.6772 22.654 45.8628 22.6778 46.0473 22.6628H46.6488L48.5957 17.9258H50.7176L53.102 23.6945V17.9258H55.2238L57.6848 22.1414V17.9258H59.1285V23.8609L59.3035 23.7833Z" fill="white"/>
<path d="M48.6831 21.2206H50.6409L49.7003 18.8132L48.6831 21.2206Z" fill="white"/>
<path d="M34.2456 33.6234V28.72L32.0581 31.1273L34.2456 33.6234Z" fill="white"/>
<path d="M25.1567 29.319V30.4283H28.2958V31.6376H25.1567V32.9244H28.6349L30.2536 31.1161L28.7224 29.3079L25.1567 29.319Z" fill="white"/>
<path d="M37.4832 29.3189H35.6895V30.8387H37.5598C38.0738 30.8387 38.4129 30.5725 38.4129 30.0622C38.3908 29.8343 38.2805 29.6246 38.1062 29.4791C37.932 29.3335 37.7079 29.264 37.4832 29.2856V29.3189Z" fill="white"/>
<path d="M63.7115 30.8389V26.9117H60.1568C59.5226 26.8708 58.8936 27.0508 58.374 27.422V26.9117H54.4584C53.8527 26.8832 53.2554 27.063 52.7631 27.422V26.9117H45.9381V27.422C45.3795 27.0649 44.7276 26.887 44.0678 26.9117H39.4303V27.422C38.8521 27.0444 38.1695 26.8655 37.4834 26.9117H32.3865L31.1943 28.1985L30.1006 26.9117H22.4443V35.3429H29.9146L31.1068 34.056L32.2006 35.3429H36.7834V33.3682H37.385C38.0585 33.4152 38.7347 33.3285 39.3756 33.1131V35.4317H43.2037V33.2129H43.3678C43.6193 33.2129 43.6193 33.2129 43.6193 33.4792V35.4539H55.1365C55.8254 35.4925 56.5092 35.3143 57.0943 34.9435V35.4539H60.7475C61.4505 35.4999 62.1529 35.3544 62.7818 35.0323C63.2101 34.7584 63.5605 34.3759 63.7983 33.9225C64.0362 33.4692 64.1533 32.9608 64.1381 32.4475C64.1371 31.8826 63.99 31.328 63.7115 30.8389ZM37.3959 32.159H35.6896V34.2335H32.9771L31.2818 32.2478L29.5318 34.2335H23.8881V28.1098H29.5318L31.2381 30.0956L33.0209 28.1098H37.5162C38.61 28.1098 39.9006 28.4537 39.9006 30.0956C39.9006 31.7375 38.6209 32.159 37.3522 32.159H37.3959ZM45.9381 31.8151C46.124 32.1532 46.2112 32.538 46.1897 32.9245V34.167H44.6912V33.3904C44.7379 32.9704 44.6496 32.5463 44.4397 32.1812C44.2756 31.926 43.9256 31.926 43.4225 31.926H41.8912V34.1448H40.4693V28.0321H43.7506C44.3279 27.9715 44.9109 28.0592 45.4459 28.2873C45.6856 28.4234 45.8837 28.6237 46.0188 28.8663C46.1538 29.1089 46.2205 29.3845 46.2115 29.6629C46.223 30.0083 46.1322 30.3493 45.9509 30.6419C45.7696 30.9346 45.5061 31.1654 45.1943 31.3048C45.4967 31.3875 45.7651 31.5664 45.96 31.8151H45.9381ZM51.7896 29.319H48.5084V30.4284H51.735V31.6376H48.4318V32.8357H51.7131V34.167H47.0318V28.0321H51.735L51.7896 29.319ZM55.3115 34.167H52.5881V32.8468H55.3115C55.416 32.8647 55.523 32.8591 55.6251 32.8304C55.7272 32.8016 55.8218 32.7504 55.9022 32.6804C56.0119 32.5636 56.0744 32.4091 56.0772 32.2478C56.0714 32.087 56.0093 31.9337 55.9022 31.8151C55.759 31.6933 55.5743 31.6335 55.3881 31.6487C54.0318 31.56 52.424 31.6487 52.424 29.7517C52.424 28.8864 52.9272 27.9434 54.4584 27.9434H57.2584V29.4078H54.6881C54.4834 29.3866 54.2768 29.417 54.0865 29.4965C53.9225 29.5742 53.9225 29.7517 53.9225 29.9292C53.9225 30.1067 54.0865 30.2731 54.2615 30.3507C54.4192 30.4228 54.5923 30.4533 54.7647 30.4395H55.5303C55.8207 30.4125 56.1136 30.4448 56.3916 30.5343C56.6696 30.6239 56.9271 30.7689 57.149 30.9609C57.4487 31.3179 57.598 31.7801 57.5647 32.2478C57.5647 33.5457 56.81 34.1448 55.3772 34.1448L55.3115 34.167ZM62.6068 33.5679C62.1111 33.9936 61.4723 34.2082 60.824 34.167H58.1115V32.8468H60.824C60.9302 32.8642 61.0388 32.8583 61.1425 32.8296C61.2463 32.8009 61.3428 32.75 61.4256 32.6804C61.5272 32.5593 61.5851 32.4067 61.5897 32.2478C61.5826 32.0893 61.525 31.9375 61.4256 31.8151C61.2813 31.6953 61.0975 31.6358 60.9115 31.6487C59.5553 31.56 57.9693 31.6487 57.9693 29.7295C57.9693 28.8642 58.4834 27.9212 60.0147 27.9212H62.7818V29.3856H60.2334C60.0288 29.3653 59.8223 29.3957 59.6318 29.4743C59.4678 29.552 59.4678 29.7295 59.4678 29.907C59.4678 30.0845 59.5553 30.2509 59.8068 30.3285C59.9686 30.3997 60.145 30.4302 60.3209 30.4173H61.0756C61.3663 30.3858 61.6603 30.4158 61.9389 30.5056C62.2176 30.5953 62.4748 30.7428 62.6943 30.9387C62.7053 30.9371 62.7164 30.9379 62.727 30.9411C62.7376 30.9443 62.7474 30.9497 62.7557 30.9571C62.764 30.9645 62.7706 30.9736 62.7752 30.9838C62.7797 30.9941 62.782 31.0052 62.7818 31.0164C63.0182 31.3729 63.1369 31.7963 63.1209 32.2256C63.1283 32.4662 63.0865 32.7058 62.998 32.9292C62.9095 33.1526 62.7763 33.355 62.6068 33.5235V33.5679Z" fill="white"/>
<path d="M44.3519 29.4966C44.1349 29.4177 43.9035 29.3874 43.6738 29.4078H41.9785V30.8389H43.6738C43.9035 30.8593 44.1349 30.829 44.3519 30.7501C44.4418 30.6812 44.5123 30.5897 44.5564 30.4846C44.6005 30.3795 44.6168 30.2645 44.6035 30.1511C44.647 30.0377 44.645 29.9115 44.598 29.7996C44.551 29.6876 44.4627 29.5988 44.3519 29.552V29.4966Z" fill="white"/>
<path d="M38.4132 19.1571C38.1959 19.0789 37.9648 19.0486 37.7351 19.0684H36.0288V20.4551H37.7351C37.9648 20.4748 38.1959 20.4445 38.4132 20.3663C38.5006 20.2953 38.5694 20.2034 38.6133 20.0989C38.6572 19.9944 38.6749 19.8804 38.6647 19.7673C38.706 19.6521 38.703 19.5254 38.6564 19.4124C38.6098 19.2994 38.523 19.2082 38.4132 19.1571Z" fill="white"/>
<path d="M48.6831 21.2206H50.6409L49.7003 18.8132L48.6831 21.2206Z" fill="white"/>
<path d="M34.2456 33.6234V28.72L32.0581 31.1273L34.2456 33.6234Z" fill="white"/>
<path d="M37.4832 29.3189H35.6895V30.8387H37.5598C38.0738 30.8387 38.4129 30.5725 38.4129 30.0622C38.3908 29.8343 38.2805 29.6246 38.1062 29.4791C37.932 29.3335 37.7079 29.264 37.4832 29.2856V29.3189Z" fill="white"/>
<path d="M44.3519 29.4966C44.1349 29.4177 43.9035 29.3874 43.6738 29.4078H41.9785V30.8389H43.6738C43.9035 30.8593 44.1349 30.829 44.3519 30.7501C44.4418 30.6812 44.5123 30.5897 44.5564 30.4846C44.6005 30.3795 44.6168 30.2645 44.6035 30.1511C44.647 30.0377 44.645 29.9115 44.598 29.7996C44.551 29.6876 44.4627 29.5988 44.3519 29.552V29.4966Z" fill="white"/>
<path d="M36.8818 33.9672L35.6896 32.6804V34.1669H32.8897L31.1943 32.1812L29.324 34.1669H23.724V28.1097H29.4115L31.1943 30.0955L32.0365 29.0638L29.9146 26.9116L22.4443 26.9117V35.3429H29.9146L31.1943 34.056L32.2881 35.3429H36.8709L36.8818 33.9672Z" fill="white"/>
<path d="M28.0551 25.0146L26.9613 23.8054H26.4473V23.2951L25.1566 21.9638L24.3035 23.7721H23.1223L21.0879 19.0351V23.7721H18.2004L17.6098 22.5186H14.7223L14.1316 23.8054H12.6004L15.1488 17.7816H17.2707L19.6879 23.5503V17.7816L20.9676 17.7815L19.6879 16.5723H18.452V17.604L18.0254 16.5723L14.2957 16.5724L12.6004 20.6216L10.6426 25.0591H15.0176L15.5316 23.761H16.7129L17.3035 25.059H22.0613V24.0273L22.4879 25.059H24.9488L25.3754 24.0273V25.059L28.0551 25.0146Z" fill="white"/>
<path d="M24.1395 21.0541L22.7832 19.6785L23.8004 21.8972L24.1395 21.0541Z" fill="white"/>
<path d="M62.7818 34.9214C63.1643 34.6596 63.4845 34.3147 63.7191 33.9117C63.9537 33.5087 64.0968 33.0578 64.1381 32.5917L62.9568 31.3935C63.0564 31.6675 63.1118 31.9559 63.1209 32.2478C63.1283 32.4884 63.0865 32.728 62.998 32.9514C62.9095 33.1748 62.7763 33.3772 62.6068 33.5457C62.1111 33.9714 61.4723 34.186 60.824 34.1448H58.1115V32.8468H60.824C60.9302 32.8642 61.0388 32.8583 61.1425 32.8296C61.2463 32.8009 61.3428 32.75 61.4256 32.6804C61.5272 32.5593 61.5851 32.4067 61.5897 32.2478C61.5826 32.0893 61.525 31.9375 61.4256 31.8151C61.2813 31.6953 61.0975 31.6358 60.9115 31.6487C59.5553 31.56 57.9693 31.6487 57.9693 29.7295C57.9679 29.4916 58.013 29.2558 58.1021 29.0357C58.1912 28.8157 58.3224 28.6158 58.4883 28.4476C58.6541 28.2793 58.8512 28.1462 59.0682 28.0558C59.2851 27.9655 59.5176 27.9197 59.7522 27.9212L58.8225 26.9671C58.6475 27.0559 58.5709 27.1446 58.4834 27.1446V26.6343H54.5459C53.9369 26.6059 53.3361 26.7856 52.8397 27.1446V26.6343H45.9381V27.1446C45.3795 26.7875 44.7276 26.6097 44.0678 26.6343H39.4303V27.1446C38.8521 26.7671 38.1695 26.5882 37.4834 26.6343H32.3865L31.1943 27.9212L30.1006 26.6343H29.1709L31.7193 29.2303L32.9881 27.8546H37.4943C38.5881 27.8546 39.8678 28.1985 39.8678 29.8404C39.8678 31.4823 38.6646 31.9482 37.3959 31.9482H35.6896V33.2351L36.9693 34.5331V33.1907H37.3959C38.0658 33.2362 38.7381 33.1496 39.3756 32.9356V35.2764H43.2037V33.0576H43.3678C43.6193 33.0576 43.6193 33.0576 43.6193 33.3128V35.2764H55.1365C55.8265 35.3117 56.5104 35.1296 57.0943 34.755V35.2764H60.7475C61.4443 35.3758 62.1545 35.2558 62.7818 34.9325V34.9214ZM45.9381 31.8151C46.124 32.1532 46.2112 32.538 46.1897 32.9245V34.167H44.6912V33.3904C44.7379 32.9704 44.6496 32.5463 44.4397 32.1812C44.2756 31.926 43.9256 31.926 43.4225 31.926H41.8912V34.1448H40.4693V28.0321H43.7506C44.3279 27.9715 44.9109 28.0592 45.4459 28.2873C45.6856 28.4234 45.8837 28.6237 46.0188 28.8663C46.1538 29.1089 46.2205 29.3845 46.2115 29.6629C46.223 30.0083 46.1322 30.3493 45.9509 30.6419C45.7696 30.9346 45.5061 31.1654 45.1943 31.3048C45.4967 31.3875 45.7651 31.5664 45.96 31.8151H45.9381ZM51.7896 29.319H48.5084V30.4284H51.735V31.6376H48.4318V32.8357H51.7131V34.167H47.0318V28.0321H51.735L51.7896 29.319ZM55.3115 34.167H52.5881V32.8468H55.3115C55.416 32.8647 55.523 32.8591 55.6251 32.8304C55.7272 32.8016 55.8218 32.7504 55.9022 32.6804C56.0119 32.5636 56.0744 32.4091 56.0772 32.2478C56.0714 32.087 56.0093 31.9337 55.9022 31.8151C55.759 31.6933 55.5743 31.6335 55.3881 31.6487C54.0318 31.56 52.424 31.6487 52.424 29.7517C52.424 28.8864 52.9272 27.9434 54.4584 27.9434H57.2584V29.4078H54.6881C54.4834 29.3866 54.2768 29.417 54.0865 29.4965C53.9225 29.5742 53.9225 29.7517 53.9225 29.9292C53.9225 30.1067 54.0865 30.2731 54.2615 30.3507C54.4192 30.4228 54.5923 30.4533 54.7647 30.4395H55.5303C55.8207 30.4125 56.1136 30.4448 56.3916 30.5343C56.6696 30.6239 56.9271 30.7689 57.149 30.9609C57.4487 31.3179 57.598 31.7801 57.5647 32.2478C57.5647 33.5457 56.81 34.1448 55.3772 34.1448L55.3115 34.167Z" fill="white"/>
<path d="M59.3804 29.9291C59.3804 30.1842 59.4679 30.273 59.7194 30.3506C59.8812 30.4218 60.0576 30.4523 60.2335 30.4394H60.9991C61.4075 30.425 61.8132 30.5126 62.1804 30.6945L60.9116 29.4077H60.1569C59.9558 29.3865 59.7527 29.417 59.5663 29.4964C59.4546 29.612 59.3919 29.7673 59.3913 29.9291H59.3804Z" fill="white"/>
<path d="M56.4053 24.7595L56.5803 25.0147H56.6678L56.4053 24.7595Z" fill="white"/>
<path d="M51.7349 20.0225L53.1896 23.5503V21.4868L51.7349 20.0225Z" fill="white"/>
<path d="M37.1881 22.8625H37.3631C37.5272 22.8625 37.5272 22.8625 37.5272 23.1177V25.0147H43.6412V24.4933C44.3549 24.8505 45.1424 25.0293 45.9381 25.0147H48.4865L48.9897 23.6391H50.1818L50.685 25.0147H55.6178V24.1827L54.4256 22.9846V23.9275H51.5709L51.1443 22.5519H48.1256L47.6225 23.9275H46.0475C45.6478 23.9757 45.2426 23.9273 44.865 23.7861C44.4874 23.6449 44.1481 23.415 43.875 23.1152C43.6018 22.8154 43.4026 22.4543 43.2935 22.0613C43.1844 21.6684 43.1685 21.2548 43.2473 20.8545C43.2024 19.984 43.4749 19.1271 44.0129 18.4472C44.2969 18.1843 44.6335 17.9867 44.9997 17.868C45.3659 17.7493 45.7531 17.7122 46.1348 17.7594H47.491V19.0463H46.1348C45.7408 19.0198 45.3512 19.1423 45.041 19.3902C44.7155 19.8034 44.5589 20.3276 44.6035 20.8545C44.5688 21.1136 44.5889 21.3772 44.6625 21.6278C44.736 21.8784 44.8613 22.1102 45.0301 22.3078C45.1664 22.4348 45.3271 22.5319 45.5022 22.5929C45.6772 22.654 45.8628 22.6778 46.0473 22.6628H46.6488L48.5957 17.9258L49.449 17.9258L48.2568 16.7166H46.0693C45.2481 16.6912 44.4332 16.8702 43.6959 17.238V16.7166H39.9443V17.238C39.4811 16.841 38.8877 16.6351 38.2818 16.6611H24.6537L23.724 18.8133L22.7834 16.6611H19.0537L20.2459 17.8704H21.9412L23.385 21.0543L23.8881 21.5646L25.4193 17.7816H27.7928V23.8943H26.349V19.1572L24.9053 22.6074L27.3443 25.1035L37.1879 25.1035L37.1881 22.8625ZM41.0928 17.7816H42.5365V23.8943H41.1256L41.0928 17.7816ZM33.6225 19.0685H30.3412V20.1779H33.6225V21.3871H30.3412V22.5963H33.6225V23.8832L28.8973 23.8831V17.7816H33.6551L33.6225 19.0685ZM35.9959 23.8055H34.585V17.6929H37.8115C38.3925 17.6221 38.9816 17.7102 39.5178 17.948C39.7463 18.0928 39.9308 18.2991 40.0505 18.5439C40.1703 18.7888 40.2206 19.0626 40.1959 19.3347C40.2097 19.6792 40.1197 20.0197 39.938 20.311C39.7563 20.6023 39.4915 20.8306 39.1787 20.9655C39.3204 21.0021 39.4533 21.067 39.5698 21.1566C39.6863 21.2461 39.7839 21.3585 39.8568 21.4869C40.0344 21.8282 40.1211 22.2106 40.1084 22.5963V23.7944H38.6646V23.0733C38.7046 22.6537 38.6168 22.2316 38.4131 21.8641C38.3256 21.6866 38.074 21.6866 37.56 21.6866H36.0287L35.9959 23.8055Z" fill="white"/>
<defs>
<filter id="filter0_d" x="0" y="0" width="76.3641" height="54.573" filterUnits="userSpaceOnUse" color-interpolation-filters="sRGB">
<feFlood flood-opacity="0" result="BackgroundImageFix"/>
<feColorMatrix in="SourceAlpha" type="matrix" values="0 0 0 0 0 0 0 0 0 0 0 0 0 0 0 0 0 0 127 0"/>
<feOffset dx="1" dy="2"/>
<feGaussianBlur stdDeviation="4"/>
<feColorMatrix type="matrix" values="0 0 0 0 0.207843 0 0 0 0 0.392157 0 0 0 0 0.67451 0 0 0 0.25 0"/>
<feBlend mode="multiply" in2="BackgroundImageFix" result="effect1_dropShadow"/>
<feBlend mode="normal" in="SourceGraphic" in2="effect1_dropShadow" result="shape"/>
</filter>
<radialGradient id="paint0_radial" cx="0" cy="0" r="1" gradientUnits="userSpaceOnUse" gradientTransform="translate(37.1875 25.292) scale(39.7578 40.3258)">
<stop offset="0.07" stop-color="#98D3F5"/>
<stop offset="0.16" stop-color="#89CEF3"/>
<stop offset="0.25" stop-color="#70C6EF"/>
<stop offset="0.35" stop-color="#4EBBEA"/>
<stop offset="0.45" stop-color="#23ADE3"/>
<stop offset="0.5" stop-color="#0DA6E0"/>
<stop offset="1" stop-color="#2E77BC"/>
</radialGradient>
</defs>
</svg>
