<svg width="1440" height="502" viewBox="0 0 1440 502" fill="none" xmlns="http://www.w3.org/2000/svg">
<path d="M2604.8 192.136C2599.87 257.236 2641.5 401.5 2541 477C2440.5 552.5 2258.27 499 2131.87 533.136C2005.47 567.272 1830 569.836 1775.47 591.836C1720.94 613.836 1389.1 661.172 1076.94 657.836C764.77 654.5 515.27 565.5 369.87 584.436C224.471 603.372 -228.929 626.036 -333.596 613.836C-795.196 560.036 -787.23 613.836 -929.73 552.5C-1072.23 491.164 -1087.73 457.5 -1087.73 457.5C-1087.73 457.5 -1219.73 301.603 -1145.73 211C-1104.22 160.169 -1162.17 114.2 -1113.5 99C-1054.7 80.7 -1091 63.5 -1051 69C-985.5 90.5 -744.73 89 -599.73 49.0352C-454.729 9.07033 -339.5 93.1935 -197.5 86.5C-5.83337 77.4653 48.8445 49.7582 181.5 36C355.396 17.9645 410.5 42.5 473 52.6359C574.514 69.0988 596.239 75.7198 773.5 95.5C915 111.29 1027.5 87 1152 67C1278.12 46.7396 1479.03 64.3993 1548.5 79.5C1623.56 95.8162 1715.47 55.1359 1760.27 52.6359C1849.6 47.6359 1859.34 41.2359 1919.47 26.0359C2010.14 3.03589 2376.54 -18.6641 2513.47 26.1359C2583.6 49.0359 2610.14 123.736 2604.8 192.136Z" fill="url(#paint0_linear)"/>
<defs>
<linearGradient id="paint0_linear" x1="204.479" y1="838.335" x2="2345.88" y2="-209.332" gradientUnits="userSpaceOnUse">
<stop offset="0.01" stop-color="#3564AC"/>
<stop offset="0.14" stop-color="#3870B8"/>
<stop offset="0.45" stop-color="#3F85CF"/>
<stop offset="0.74" stop-color="#4393DC"/>
<stop offset="1" stop-color="#4497E1"/>
</linearGradient>
</defs>
</svg>
