<svg width="1440" height="533" viewBox="0 0 1440 533" fill="none" xmlns="http://www.w3.org/2000/svg">
<path opacity="0.69" d="M-1203.73 256.5C-1197.73 191.97 -1095.73 130.5 -1095.73 130.5C-1095.73 130.5 -1139.18 77.3993 -1076.5 76.5002C-1055.54 76.1996 -1048.73 59.0003 -906.23 54.5003C-763.73 50.0002 -743.23 64.0002 -539.73 77.0002C-336.23 90.0002 -341.393 58.129 -214.397 46.0364C-73.3414 32.6052 11.3065 15.5002 153 15.5002C296 15.5002 426 50.5002 561.5 86.5002C746.5 135.652 704.023 93.7325 1039 32.5002C1132 15.5002 1470 48.0002 1470 48.0002L1845.6 17.0352C1845.6 17.0352 1911.67 8.2517 1954.27 7.03492C2050.36 4.29036 2129.36 -31.3272 2198.8 35.1365C2281.81 114.577 2241.42 222.641 2198.8 329.336C2136.19 486.094 2005.84 525.428 1845.6 578.5C1702.71 625.827 1545.77 584 1460.8 600.837C1375.84 617.673 1218.77 659 844.77 665.5C470.77 672 360.271 600.837 38.7705 635C-282.729 669.164 -706.597 679 -794.73 635C-1208.7 566.664 -1037.23 445.573 -1029.73 410.037C-1022.23 374.5 -1212.12 346.734 -1203.73 256.5Z" fill="#E2EAFD"/>
<path d="M-1066 112.5C-985 51.0005 -483.197 108.036 -388.53 84.0364C-348.13 73.7364 -309.533 99.3697 -183 75.0364C-115.533 62.062 -57.2267 48.5936 82.137 38.0364C221.501 27.4792 263.001 38.5005 367.001 50.5005C401.001 54.4005 662.001 103.9 716.001 102.5C770.001 101.1 1045 60.5371 1169 56.0005C1223.67 54.0005 1422.03 79.4646 1438.5 82.5005C1454.97 85.5364 1582 119.5 1582 119.5C1582 119.5 1760.94 48.0364 1839.47 48.0364C1886.14 61.0364 2250.14 82.0364 2334.14 102.036C2418.14 122.036 2663.47 220.036 2642.14 325.036C2620.8 430.037 2442.14 595.037 2298.14 551.037C2154.14 507.037 1734.14 472.037 1447.47 558.037C1160.8 644.037 1228.99 676.69 1075.47 689.037C888.058 704.108 795.24 585.677 607.47 576.037C354.373 563.043 224.757 696.496 -28.5299 705.037C-218.215 711.433 -512.53 661.037 -512.53 661.037C-512.53 661.037 -913.531 659.058 -991.23 474.001C-1046.82 341.603 -1147 174 -1066 112.5Z" fill="#B3D359"/>
<path d="M2604.8 223.136C2599.87 288.236 2641.5 432.5 2541 508C2440.5 583.5 2258.27 530 2131.87 564.136C2005.47 598.272 1830 600.836 1775.47 622.836C1720.94 644.836 1389.1 692.172 1076.94 688.836C764.77 685.5 515.27 596.5 369.87 615.436C224.471 634.372 -228.93 657.036 -333.596 644.836C-795.196 591.036 -787.23 644.836 -929.73 583.5C-1072.23 522.165 -1087.73 488.5 -1087.73 488.5C-1087.73 488.5 -1219.73 332.604 -1145.73 242C-1104.22 191.17 -1162.17 145.2 -1113.5 130C-1054.7 111.7 -1091 94.5005 -1051 100C-985.5 121.5 -744.73 120 -599.73 80.0357C-454.729 40.0708 -339.5 124.194 -197.5 117.5C-5.83362 108.466 48.8442 80.7587 181.5 67.0005C355.396 48.965 410.5 73.5005 473 83.6364C574.514 100.099 596.239 106.72 773.5 126.5C915 142.29 1027.5 118 1152 98.0005C1278.12 77.7401 1479.03 95.3997 1548.5 110.5C1623.56 126.817 1715.47 86.1364 1760.27 83.6364C1849.6 78.6364 1859.34 72.2364 1919.47 57.0364C2010.14 34.0364 2376.54 12.3364 2513.47 57.1364C2583.6 80.0364 2610.14 154.736 2604.8 223.136Z" fill="url(#paint0_linear)"/>
<path opacity="0.23" d="M2604.8 223.137C2629.27 318 2556.5 525.5 2556.5 525.5C2556.5 525.5 2361.77 585.9 2183.5 564C2015.23 543.3 1892.8 586.036 1775.47 622.836C1718.4 640.736 1350.94 689.924 1076.94 688.836C799.328 687.734 476.404 586.136 369.87 615.436C263.337 644.736 -229.063 657.536 -333.597 644.836C-799.197 588.036 -889.73 533 -889.73 533C-889.73 533 -992.364 454.907 -977.73 391.5C-965.917 340.32 -878.23 301 -878.23 301C-878.23 301 -813.73 301 -765.23 308.5C-716.73 316 -576.73 308.5 -451.23 280C-325.73 251.5 -291.23 222.5 -129.463 252.036C32.3035 281.573 -15.8633 317.336 70.0034 321.036C155.87 324.736 303.604 216.536 392.804 221.036C540.67 228.536 630.137 291.036 819.47 300.036C982.004 307.736 1205.07 268.536 1280.8 249.036C1378.14 224.036 1456.8 232.036 1547.47 256.036C1615.07 273.936 1716.27 304.636 1811.47 297.036C1936.8 287.036 1994.67 222.636 2116.8 198.037C2295.47 162.037 2580.34 128.273 2604.8 223.137Z" fill="#3564AC"/>
<defs>
<linearGradient id="paint0_linear" x1="204.479" y1="869.336" x2="2345.88" y2="-178.331" gradientUnits="userSpaceOnUse">
<stop offset="0.01" stop-color="#3564AC"/>
<stop offset="0.14" stop-color="#3870B8"/>
<stop offset="0.45" stop-color="#3F85CF"/>
<stop offset="0.74" stop-color="#4393DC"/>
<stop offset="1" stop-color="#4497E1"/>
</linearGradient>
</defs>
</svg>
