<svg width="218" height="71" viewBox="0 0 218 71" fill="none" xmlns="http://www.w3.org/2000/svg">
<rect x="7.5" y="7.5" width="202" height="56" rx="28" stroke="white" stroke-width="3"/>
<path d="M64.9498 36.9012C64.9511 37.1174 64.8952 37.33 64.7878 37.5173C64.6805 37.7045 64.5256 37.8596 64.339 37.9667L57.3897 42.0006L52.5124 37.2582L57.8487 32.0687L64.3353 35.8357C64.5226 35.9423 64.6783 36.0973 64.7863 36.2845C64.8943 36.4718 64.9507 36.6847 64.9498 36.9012V36.9012ZM56.746 31.4282L49.6139 27.2821L33.9689 19.2143L51.6383 36.4025L56.746 31.4282ZM34.2286 55.0482L49.6395 46.5056L56.2925 42.641L51.6383 38.114L34.2286 55.0482ZM32.9247 19.9099L32.9082 54.6213L50.7587 37.2582L32.9247 19.9099ZM71.5113 42.0761C71.5113 44.8365 73.5376 46.8608 76.396 46.8608C77.3678 46.8804 78.3273 46.639 79.1757 46.1615V41.9289H81.553V47.3485C80.1431 48.4931 78.1753 49.0765 76.2643 49.0765C72.0746 49.0765 68.9858 46.1431 68.9858 42.0834C68.9858 38.0238 72.0746 35.0904 76.3009 35.0904C78.5594 35.0904 80.4503 35.8486 81.7249 37.2987L80.1412 38.8538C79.6613 38.3489 79.0823 37.95 78.441 37.6823C77.7998 37.4146 77.1102 37.284 76.4161 37.2987C73.5321 37.2969 71.5059 39.2605 71.5059 42.0761H71.5113ZM94.753 43.6882C94.7475 46.8056 92.4506 49.0139 89.2466 49.0139C86.081 49.0139 83.7603 46.8056 83.7603 43.6918C83.7603 40.5781 86.0774 38.3882 89.2466 38.3882C92.4506 38.3845 94.7475 40.5799 94.7475 43.6882H94.753ZM92.3207 43.6882C92.3207 41.7062 91.0077 40.4438 89.2521 40.4438C87.4965 40.4438 86.1889 41.7062 86.1889 43.6882C86.1889 45.6701 87.502 46.9326 89.2393 46.9326C90.9766 46.9326 92.3152 45.6701 92.3152 43.6882H92.3207ZM107.205 43.6882C107.199 46.8056 104.903 49.0139 101.697 49.0139C98.5312 49.0139 96.2105 46.8056 96.2105 43.6918C96.2105 40.5781 98.5275 38.3882 101.697 38.3882C104.903 38.3845 107.199 40.5799 107.199 43.6882H107.205ZM104.773 43.6882C104.773 41.7062 103.46 40.4438 101.702 40.4438C99.9448 40.4438 98.6519 41.7062 98.6519 43.6882C98.6519 45.6701 99.9649 46.9326 101.702 46.9326C103.44 46.9326 104.767 45.6701 104.767 43.6882H104.773ZM117.455 38.5023H119.747V47.3025C119.747 51.0695 117.797 52.7791 114.187 52.7791C112.256 52.7791 110.347 52.2749 109.167 51.3069L110.248 49.4814C111.162 50.2396 112.625 50.7235 114.052 50.7235C116.33 50.7235 117.333 49.6746 117.333 47.5767V47.0338C116.484 47.965 115.268 48.4122 113.878 48.4122C110.925 48.4122 108.666 46.3879 108.666 43.3808C108.666 40.3738 110.925 38.3882 113.878 38.3882C115.326 38.3882 116.599 38.8556 117.45 39.8843L117.455 38.5023ZM117.378 43.3772C117.378 41.6289 116.065 40.4438 114.251 40.4438C112.437 40.4438 111.104 41.6289 111.104 43.3772C111.104 45.1254 112.417 46.3492 114.251 46.3492C116.085 46.3492 117.373 45.1493 117.373 43.3772H117.378ZM122.918 48.8759H125.324V34.461H122.912L122.918 48.8759ZM138.188 43.7471C138.188 43.9403 138.168 44.2329 138.147 44.4648H130.053C130.344 45.9812 131.599 46.9528 133.395 46.9528C134.552 46.9528 135.459 46.5848 136.193 45.8247L137.485 47.3209C136.56 48.425 135.108 49.0102 133.336 49.0102C129.88 49.0102 127.641 46.778 127.641 43.6882C127.641 40.5983 129.896 38.3845 132.968 38.3845C135.98 38.3845 138.182 40.5026 138.182 43.7471H138.188ZM135.889 42.8527C135.706 41.3565 134.558 40.3278 132.974 40.3278C131.39 40.3278 130.273 41.3381 130.048 42.8527H135.889ZM157.375 40.1143C157.375 43.1048 155.18 44.9506 151.622 44.9506H148.566V48.8759H146.057V35.2763H151.616C155.169 35.2763 157.369 37.1037 157.369 40.1143H157.375ZM154.846 40.1143C154.846 38.4047 153.706 37.4147 151.506 37.4147H148.58V42.814H151.506C153.701 42.814 154.84 41.824 154.84 40.1143H154.846ZM159.846 48.8759H162.258V34.461H159.84L159.846 48.8759ZM174.053 42.803V48.8759H171.775V47.6116C171.197 48.506 170.076 49.0102 168.532 49.0102C166.177 49.0102 164.692 47.7092 164.692 45.9039C164.692 44.174 165.851 42.814 168.978 42.814H171.643V42.6595C171.643 41.2406 170.793 40.4051 169.083 40.4051C167.923 40.4051 166.727 40.7934 165.954 41.4357L165.008 39.6672C166.105 38.8133 167.711 38.379 169.372 38.379C172.323 38.3845 174.048 39.8125 174.048 42.7956L174.053 42.803ZM171.641 44.4335H169.145C167.499 44.4335 167.06 45.0555 167.06 45.8137C167.06 46.6878 167.792 47.2509 169.028 47.2509C170.205 47.2509 171.222 46.6989 171.636 45.6389L171.641 44.4335ZM184.285 38.5096L181.023 46.1817L177.773 38.5023H175.264L179.763 48.9146L179.589 49.3213C179.124 50.3518 178.623 50.7604 177.773 50.7604C177.112 50.7553 176.477 50.4982 175.997 50.0408L175.032 51.8277C175.688 52.4295 176.769 52.7791 177.793 52.7791C179.51 52.7791 180.823 52.0614 181.769 49.7114L186.587 38.5023L184.285 38.5096ZM70.0191 19.2309H73.2743C75.8821 19.2309 77.645 20.9589 77.645 23.3697C77.645 25.7804 75.8821 27.5084 73.2743 27.5084H70.0191V19.2309ZM73.2267 26.96C75.5529 26.96 77.0452 25.4694 77.0452 23.3641C77.0452 21.2589 75.5529 19.7701 73.2267 19.7701H70.6189V26.9656L73.2267 26.96ZM78.8739 24.4223C78.8739 22.582 80.1778 21.2938 81.9407 21.2938C83.7036 21.2938 85.0075 22.5931 85.0075 24.4223C85.0075 26.2515 83.7036 27.5508 81.9407 27.5508C80.1778 27.5508 78.8739 26.2552 78.8739 24.4223ZM84.4077 24.4223C84.4077 22.8746 83.3507 21.822 81.9407 21.822C80.5308 21.822 79.4664 22.882 79.4664 24.4223C79.4664 25.9626 80.5198 27.0245 81.9334 27.0245C83.347 27.0245 84.4004 25.9718 84.4004 24.4223H84.4077ZM95.4113 21.3362L93.0833 27.5084H92.5347L90.4645 22.1459L88.3834 27.5084H87.8439L85.5159 21.3362H86.081L88.1256 26.8459L90.2122 21.3362H90.7169L92.7962 26.8349L94.87 21.3362H95.4113ZM102.26 23.9033V27.5084H101.673V23.9493C101.673 22.5544 100.932 21.822 99.6869 21.822C98.2422 21.822 97.3608 22.755 97.3608 24.2143V27.5084H96.7737V21.3362H97.3443V22.6722C97.7558 21.8091 98.6135 21.2901 99.7766 21.2901C101.261 21.2901 102.26 22.1753 102.26 23.9033ZM104.681 18.7358H105.268V27.5084H104.681V18.7358ZM107.077 24.4223C107.077 22.582 108.383 21.2938 110.146 21.2938C111.909 21.2938 113.212 22.5931 113.212 24.4223C113.212 26.2515 111.907 27.5508 110.146 27.5508C108.384 27.5508 107.077 26.2552 107.077 24.4223ZM112.613 24.4223C112.613 22.8746 111.556 21.822 110.146 21.822C108.736 21.822 107.677 22.882 107.677 24.4223C107.677 25.9626 108.736 27.0245 110.146 27.0245C111.556 27.0245 112.613 25.9718 112.613 24.4223ZM119.439 23.5942V27.5084H118.874V26.4043C118.487 27.1128 117.735 27.5508 116.665 27.5508C115.292 27.5508 114.456 26.8404 114.456 25.7896C114.456 24.8548 115.045 24.0616 116.747 24.0616H118.852V23.5721C118.852 22.4238 118.229 21.8091 117.024 21.8091C116.247 21.8014 115.495 22.0789 114.908 22.5894L114.613 22.1643C115.301 21.5863 116.173 21.2761 117.069 21.2901C118.593 21.2901 119.439 22.0704 119.439 23.5942ZM118.852 25.6884V24.5382H116.76C115.491 24.5382 115.045 25.0701 115.045 25.7804C115.045 26.5846 115.667 27.0815 116.747 27.0815C117.782 27.0723 118.499 26.5754 118.852 25.6884ZM127.323 18.7358V27.5084H126.747V26.0546C126.513 26.5207 126.151 26.9096 125.705 27.1757C125.258 27.4418 124.746 27.5738 124.227 27.5563C122.501 27.5563 121.195 26.2681 121.195 24.4278C121.195 22.5875 122.501 21.2993 124.227 21.2993C124.739 21.2849 125.245 21.4152 125.688 21.6754C126.13 21.9356 126.492 22.3153 126.731 22.7716V18.7358H127.323ZM126.736 24.4223C126.736 22.8746 125.677 21.822 124.267 21.822C122.857 21.822 121.8 22.882 121.8 24.4223C121.8 25.9626 122.857 27.0245 124.267 27.0245C125.677 27.0245 126.736 25.9718 126.736 24.4223ZM132.151 24.4223C132.151 22.582 133.457 21.2938 135.218 21.2938C136.979 21.2938 138.286 22.5931 138.286 24.4223C138.286 26.2515 136.981 27.5508 135.218 27.5508C133.455 27.5508 132.151 26.2552 132.151 24.4223ZM137.687 24.4223C137.687 22.8746 136.63 21.822 135.218 21.822C133.806 21.822 132.751 22.882 132.751 24.4223C132.751 25.9626 133.808 27.0245 135.218 27.0245C136.628 27.0245 137.687 25.9718 137.687 24.4223ZM145.594 23.9033V27.5084H145.007V23.9493C145.007 22.5544 144.276 21.822 143.021 21.822C141.575 21.822 140.693 22.755 140.693 24.2143V27.5084H140.106V21.3362H140.671V22.6722C141.083 21.8091 141.94 21.2901 143.103 21.2901C144.596 21.2901 145.594 22.1753 145.594 23.9033V23.9033ZM154.078 27.1146C153.726 27.4118 153.278 27.5678 152.82 27.5526C151.739 27.5526 151.152 26.914 151.152 25.8743V21.8459H150.023V21.3362H151.152V19.9891H151.739V21.3362H153.69V21.8459H151.739V25.8264C151.739 26.6196 152.126 27.0576 152.878 27.0576C153.227 27.0653 153.566 26.9427 153.831 26.7134L154.078 27.1146ZM161.197 23.8997V27.5084H160.619V23.9493C160.619 22.5544 159.879 21.822 158.633 21.822C157.188 21.822 156.307 22.755 156.307 24.2143V27.5084H155.72V18.7358H156.307V22.6262C156.729 21.7852 157.576 21.2901 158.715 21.2901C160.199 21.2901 161.197 22.1753 161.197 23.9033V23.8997ZM168.812 24.5603H163.545C163.604 26.0325 164.674 27.0208 166.142 27.0208C166.512 27.0341 166.881 26.9635 167.221 26.8141C167.56 26.6647 167.862 26.4404 168.104 26.1577L168.444 26.5478C167.896 27.2103 167.058 27.5526 166.129 27.5526C164.273 27.5526 162.969 26.2515 162.969 24.4241C162.969 22.5967 164.225 21.2957 165.906 21.2957C167.587 21.2957 168.832 22.571 168.832 24.4039C168.823 24.4462 168.812 24.5051 168.812 24.564V24.5603ZM163.545 24.1039H168.245C168.163 22.7679 167.201 21.8091 165.895 21.8091C164.589 21.8091 163.642 22.755 163.545 24.1039Z" fill="white"/>
</svg>
