<svg width="286" height="93" viewBox="0 0 286 93" fill="none" xmlns="http://www.w3.org/2000/svg">
<path d="M85.2095 48.3353C85.2112 48.6185 85.1379 48.897 84.9971 49.1423C84.8563 49.3875 84.653 49.5907 84.4082 49.731L75.2913 55.0149L68.8927 48.803L75.8935 42.0054L84.4034 46.9397C84.6491 47.0793 84.8533 47.2823 84.995 47.5276C85.1367 47.7729 85.2107 48.0517 85.2095 48.3353V48.3353ZM74.4468 41.1665L65.0899 35.7356L44.5649 25.168L67.7458 47.6821L74.4468 41.1665ZM44.9056 72.1053L65.1235 60.9158L73.8518 55.8537L67.7458 49.9239L44.9056 72.1053ZM43.1949 26.0792L43.1733 71.5461L66.5918 48.803L43.1949 26.0792ZM93.8178 55.1137C93.8178 58.7294 96.4761 61.381 100.226 61.381C101.501 61.4067 102.76 61.0905 103.873 60.465V54.9208H106.992V62.0198C105.142 63.5191 102.56 64.2832 100.053 64.2832C94.5568 64.2832 90.5045 60.4409 90.5045 55.1233C90.5045 49.8058 94.5568 45.9634 100.101 45.9634C103.064 45.9634 105.545 46.9565 107.217 48.856L105.14 50.8929C104.51 50.2316 103.75 49.7091 102.909 49.3584C102.068 49.0078 101.163 48.8367 100.252 48.856C96.4689 48.8536 93.8106 51.4256 93.8106 55.1137H93.8178ZM124.309 57.2253C124.302 61.3087 121.289 64.2013 117.085 64.2013C112.932 64.2013 109.888 61.3087 109.888 57.2301C109.888 53.1515 112.927 50.283 117.085 50.283C121.289 50.2782 124.302 53.1539 124.302 57.2253H124.309ZM121.118 57.2253C121.118 54.6292 119.396 52.9756 117.092 52.9756C114.789 52.9756 113.074 54.6292 113.074 57.2253C113.074 59.8214 114.796 61.475 117.076 61.475C119.355 61.475 121.111 59.8214 121.111 57.2253H121.118ZM140.645 57.2253C140.638 61.3087 137.625 64.2013 133.419 64.2013C129.266 64.2013 126.221 61.3087 126.221 57.2301C126.221 53.1515 129.261 50.283 133.419 50.283C137.625 50.2782 140.638 53.1539 140.638 57.2253H140.645ZM137.454 57.2253C137.454 54.6292 135.732 52.9756 133.426 52.9756C131.12 52.9756 129.424 54.6292 129.424 57.2253C129.424 59.8214 131.147 61.475 133.426 61.475C135.705 61.475 137.447 59.8214 137.447 57.2253H137.454ZM154.093 50.4325H157.099V61.9595C157.099 66.8938 154.541 69.1332 149.805 69.1332C147.272 69.1332 144.767 68.4727 143.22 67.2048L144.637 64.8136C145.837 65.8067 147.756 66.4406 149.628 66.4406C152.617 66.4406 153.932 65.0667 153.932 62.3187V61.6076C152.819 62.8273 151.223 63.4131 149.4 63.4131C145.525 63.4131 142.562 60.7615 142.562 56.8227C142.562 52.884 145.525 50.283 149.4 50.283C151.3 50.283 152.97 50.8953 154.085 52.2428L154.093 50.4325ZM153.992 56.8179C153.992 54.5279 152.269 52.9756 149.889 52.9756C147.509 52.9756 145.76 54.5279 145.76 56.8179C145.76 59.1079 147.483 60.7109 149.889 60.7109C152.296 60.7109 153.985 59.1392 153.985 56.8179H153.992ZM161.259 64.0205H164.416V45.139H161.252L161.259 64.0205ZM181.292 57.3024C181.292 57.5555 181.266 57.9388 181.239 58.2425H170.621C171.002 60.2288 172.648 61.5015 175.004 61.5015C176.523 61.5015 177.713 61.0194 178.675 60.0239L180.371 61.9836C179.157 63.4299 177.252 64.1965 174.927 64.1965C170.393 64.1965 167.456 61.2725 167.456 57.2253C167.456 53.1781 170.414 50.2782 174.445 50.2782C178.396 50.2782 181.285 53.0527 181.285 57.3024H181.292ZM178.276 56.1309C178.037 54.1712 176.53 52.8237 174.452 52.8237C172.374 52.8237 170.909 54.1471 170.613 56.1309H178.276ZM206.465 52.5441C206.465 56.4612 203.586 58.8789 198.917 58.8789H194.908V64.0205H191.616V46.2069H198.91C203.571 46.2069 206.457 48.6005 206.457 52.5441H206.465ZM203.146 52.5441C203.146 50.3047 201.652 49.0079 198.766 49.0079H194.927V56.0803H198.766C201.645 56.0803 203.139 54.7834 203.139 52.5441H203.146ZM209.706 64.0205H212.87V45.139H209.699L209.706 64.0205ZM228.345 56.0658V64.0205H225.356V62.3645C224.598 63.536 223.127 64.1965 221.102 64.1965C218.012 64.1965 216.064 62.4922 216.064 60.1275C216.064 57.8617 217.585 56.0803 221.687 56.0803H225.183V55.8778C225.183 54.0193 224.067 52.9249 221.824 52.9249C220.303 52.9249 218.734 53.4336 217.719 54.2748L216.479 51.9583C217.918 50.8399 220.025 50.271 222.203 50.271C226.076 50.2782 228.338 52.1488 228.338 56.0562L228.345 56.0658ZM225.181 58.2015H221.906C219.746 58.2015 219.171 59.0163 219.171 60.0094C219.171 61.1544 220.13 61.892 221.752 61.892C223.297 61.892 224.631 61.1689 225.173 59.7804L225.181 58.2015ZM241.769 50.4421L237.488 60.4915L233.225 50.4325H229.933L235.835 64.0711L235.608 64.6038C234.998 65.9537 234.341 66.4889 233.225 66.4889C232.358 66.4823 231.525 66.1455 230.896 65.5463L229.629 67.8869C230.49 68.6752 231.908 69.1332 233.252 69.1332C235.504 69.1332 237.227 68.1931 238.467 65.1149L244.789 50.4325L241.769 50.4421ZM91.8601 25.1897H96.1307C99.5519 25.1897 101.865 27.4531 101.865 30.6109C101.865 33.7687 99.5519 36.0321 96.1307 36.0321H91.8601V25.1897ZM96.0683 35.3138C99.12 35.3138 101.078 33.3613 101.078 30.6037C101.078 27.8461 99.12 25.896 96.0683 25.896H92.647V35.321L96.0683 35.3138ZM103.477 31.9897C103.477 29.5792 105.188 27.8919 107.5 27.8919C109.813 27.8919 111.524 29.5937 111.524 31.9897C111.524 34.3858 109.813 36.0876 107.5 36.0876C105.188 36.0876 103.477 34.3906 103.477 31.9897ZM110.737 31.9897C110.737 29.9625 109.35 28.5837 107.5 28.5837C105.651 28.5837 104.254 29.9721 104.254 31.9897C104.254 34.0073 105.636 35.3982 107.491 35.3982C109.345 35.3982 110.727 34.0194 110.727 31.9897H110.737ZM125.173 27.9473L122.119 36.0321H121.399L118.683 29.0079L115.953 36.0321H115.245L112.191 27.9473H112.932L115.614 35.1644L118.352 27.9473H119.014L121.742 35.1499L124.463 27.9473H125.173ZM134.158 31.31V36.0321H133.388V31.3702C133.388 29.5431 132.416 28.5837 130.782 28.5837C128.887 28.5837 127.73 29.8058 127.73 31.7173V36.0321H126.96V27.9473H127.709V29.6973C128.249 28.5668 129.374 27.887 130.9 27.887C132.848 27.887 134.158 29.0465 134.158 31.31ZM137.334 24.5413H138.104V36.0321H137.334V24.5413ZM140.477 31.9897C140.477 29.5792 142.19 27.8919 144.503 27.8919C146.816 27.8919 148.527 29.5937 148.527 31.9897C148.527 34.3858 146.814 36.0876 144.503 36.0876C142.193 36.0876 140.477 34.3906 140.477 31.9897ZM147.74 31.9897C147.74 29.9625 146.353 28.5837 144.503 28.5837C142.653 28.5837 141.264 29.9721 141.264 31.9897C141.264 34.0073 142.653 35.3982 144.503 35.3982C146.353 35.3982 147.74 34.0194 147.74 31.9897ZM156.696 30.905V36.0321H155.954V34.5858C155.446 35.5139 154.46 36.0876 153.056 36.0876C151.254 36.0876 150.158 35.1571 150.158 33.7807C150.158 32.5562 150.931 31.5173 153.164 31.5173H155.926V30.8761C155.926 29.3719 155.108 28.5668 153.526 28.5668C152.508 28.5568 151.521 28.9202 150.751 29.5889L150.364 29.032C151.267 28.2749 152.411 27.8686 153.586 27.887C155.585 27.887 156.696 28.9091 156.696 30.905ZM155.926 33.6481V32.1416H153.181C151.516 32.1416 150.931 32.8382 150.931 33.7687C150.931 34.8221 151.746 35.4729 153.164 35.4729C154.522 35.4608 155.463 34.81 155.926 33.6481ZM167.039 24.5413V36.0321H166.283V34.1278C165.976 34.7383 165.502 35.2478 164.916 35.5963C164.33 35.9448 163.657 36.1178 162.977 36.0948C160.712 36.0948 158.999 34.4075 158.999 31.9969C158.999 29.5864 160.712 27.8991 162.977 27.8991C163.649 27.8802 164.313 28.0508 164.893 28.3916C165.474 28.7325 165.948 29.2299 166.261 29.8275V24.5413H167.039ZM166.269 31.9897C166.269 29.9625 164.879 28.5837 163.03 28.5837C161.18 28.5837 159.793 29.9721 159.793 31.9897C159.793 34.0073 161.18 35.3982 163.03 35.3982C164.879 35.3982 166.269 34.0194 166.269 31.9897ZM173.373 31.9897C173.373 29.5792 175.086 27.8919 177.396 27.8919C179.706 27.8919 181.422 29.5937 181.422 31.9897C181.422 34.3858 179.709 36.0876 177.396 36.0876C175.083 36.0876 173.373 34.3906 173.373 31.9897ZM180.635 31.9897C180.635 29.9625 179.248 28.5837 177.396 28.5837C175.544 28.5837 174.159 29.9721 174.159 31.9897C174.159 34.0073 175.546 35.3982 177.396 35.3982C179.246 35.3982 180.635 34.0194 180.635 31.9897ZM191.009 31.31V36.0321H190.239V31.3702C190.239 29.5431 189.279 28.5837 187.633 28.5837C185.736 28.5837 184.579 29.8058 184.579 31.7173V36.0321H183.809V27.9473H184.55V29.6973C185.09 28.5668 186.215 27.887 187.741 27.887C189.699 27.887 191.009 29.0465 191.009 31.31V31.31ZM202.139 35.5163C201.678 35.9056 201.09 36.1099 200.488 36.09C199.07 36.09 198.3 35.2535 198.3 33.8916V28.615H196.82V27.9473H198.3V26.1828H199.07V27.9473H201.63V28.615H199.07V33.8289C199.07 34.8679 199.579 35.4416 200.565 35.4416C201.023 35.4517 201.468 35.2911 201.815 34.9908L202.139 35.5163ZM211.479 31.3051V36.0321H210.721V31.3702C210.721 29.5431 209.749 28.5837 208.115 28.5837C206.22 28.5837 205.063 29.8058 205.063 31.7173V36.0321H204.293V24.5413H205.063V29.6371C205.618 28.5355 206.728 27.887 208.223 27.887C210.169 27.887 211.479 29.0465 211.479 31.31V31.3051ZM221.469 32.1705H214.559C214.636 34.0989 216.04 35.3933 217.966 35.3933C218.452 35.4109 218.936 35.3183 219.382 35.1226C219.827 34.927 220.223 34.6331 220.541 34.2628L220.987 34.7739C220.267 35.6416 219.168 36.09 217.949 36.09C215.514 36.09 213.804 34.3858 213.804 31.9921C213.804 29.5985 215.452 27.8943 217.657 27.8943C219.862 27.8943 221.495 29.5647 221.495 31.9656C221.483 32.0211 221.469 32.0982 221.469 32.1753V32.1705ZM214.559 31.5727H220.725C220.617 29.8227 219.355 28.5668 217.642 28.5668C215.929 28.5668 214.687 29.8058 214.559 31.5727Z" fill="white"/>
</svg>
