<svg width="123" height="52" viewBox="0 0 123 52" fill="none" xmlns="http://www.w3.org/2000/svg">
<path d="M8.61663 20.5942C8.61663 19.2497 9.70648 18.7326 11.5115 18.7326C14.0999 18.7326 17.3695 19.5255 19.9579 20.9389V12.8375C17.1311 11.6999 14.3383 11.2517 11.5115 11.2517C4.59781 11.2517 0 14.906 0 21.0079C0 30.5227 12.942 29.0059 12.942 33.1083C12.942 34.6941 11.5797 35.2112 9.67242 35.2112C6.84562 35.2112 3.23549 34.0391 0.374636 32.4533V40.6581C3.54201 42.0371 6.74345 42.6231 9.67242 42.6231C16.7565 42.6231 21.6267 39.0723 21.6267 32.9014C21.5927 22.6282 8.61663 24.4553 8.61663 20.5942ZM31.6397 4.3569L23.3296 6.14955L23.2956 33.7633C23.2956 38.8654 27.076 42.6231 32.1165 42.6231C34.9093 42.6231 36.9527 42.106 38.0767 41.4855V34.4872C36.9868 34.9354 31.6057 36.5212 31.6057 31.419V19.1807H38.0767V11.8378H31.6057L31.6397 4.3569ZM48.6686 14.3889L48.1237 11.8378H40.7672V42.0026H49.2817V21.5595C51.2911 18.905 54.6969 19.3876 55.7527 19.7668V11.8378C54.6628 11.4241 50.678 10.6657 48.6686 14.3889ZM57.8302 11.8378H66.3787V42.0026H57.8302V11.8378ZM57.8302 9.21774L66.3787 7.35615V0.35791L57.8302 2.18504V9.21774ZM84.1569 11.2517C80.8192 11.2517 78.6736 12.8375 77.4816 13.9407L77.0388 11.8033H69.5461V52.0001L78.0605 50.1729L78.0946 40.4168C79.3207 41.3131 81.1257 42.5886 84.1228 42.5886C90.2192 42.5886 95.7706 37.6244 95.7706 26.6961C95.7366 16.6986 90.117 11.2517 84.1569 11.2517ZM82.1134 35.0043C80.104 35.0043 78.912 34.2804 78.0946 33.3841L78.0605 20.5942C78.946 19.5944 80.1721 18.905 82.1134 18.905C85.2127 18.905 87.3583 22.4213 87.3583 26.9374C87.3583 31.5569 85.2467 35.0043 82.1134 35.0043ZM122.608 27.0408C122.608 18.2155 118.385 11.2517 110.313 11.2517C102.208 11.2517 97.3032 18.2155 97.3032 26.9719C97.3032 37.3486 103.093 42.5886 111.403 42.5886C115.456 42.5886 118.521 41.6578 120.837 40.3478V33.453C118.521 34.6251 115.865 35.3491 112.493 35.3491C109.189 35.3491 106.26 34.177 105.886 30.109H122.54C122.54 29.6609 122.608 27.8682 122.608 27.0408ZM105.784 23.7658C105.784 19.8702 108.134 18.25 110.279 18.25C112.357 18.25 114.571 19.8702 114.571 23.7658H105.784Z" fill="#C8C8C8"/>
</svg>
