<svg width="83" height="83" viewBox="0 0 83 83" fill="none" xmlns="http://www.w3.org/2000/svg">
<path d="M44.0159 14.538L46.6097 13.2411C46.9 13.1017 47.2253 13.0519 47.544 13.0981C47.8628 13.1443 48.1605 13.2844 48.3993 13.5005L50.5781 15.4717C50.753 15.627 50.9596 15.7422 51.1836 15.8094C51.4076 15.8766 51.6435 15.8941 51.875 15.8608L54.7281 15.368C55.0444 15.3162 55.369 15.3602 55.6601 15.4942C55.9513 15.6283 56.1958 15.8462 56.3622 16.1202L57.8536 18.5972C57.9843 18.8043 58.1589 18.9802 58.3651 19.1124C58.5713 19.2446 58.8039 19.3299 59.0467 19.3624L61.9128 19.6866C62.22 19.7367 62.506 19.8749 62.7362 20.0844C62.9664 20.2938 63.1309 20.5656 63.2097 20.8667L63.9489 23.655C64.0071 23.8926 64.121 24.1129 64.2811 24.2977C64.4412 24.4826 64.6429 24.6268 64.8697 24.7185L67.4634 25.8467C67.7565 25.9764 68.0049 26.1894 68.1778 26.4592C68.3508 26.729 68.4406 27.0437 68.4361 27.3641L68.3582 30.2561C68.3496 30.5026 68.3977 30.7477 68.4989 30.9726C68.6001 31.1974 68.7516 31.396 68.9418 31.553L71.3281 33.3686C71.576 33.572 71.7568 33.8453 71.8471 34.153C71.9373 34.4607 71.9327 34.7884 71.8339 35.0935L70.952 37.8428C70.8767 38.0737 70.855 38.3187 70.8887 38.5592C70.9225 38.7996 71.0106 39.0293 71.1465 39.2305L72.7806 41.6167C72.9574 41.8841 73.0517 42.1975 73.0517 42.5181C73.0517 42.8386 72.9574 43.152 72.7806 43.4194L71.1465 45.8056C71.0104 46.0092 70.9222 46.241 70.8885 46.4836C70.8548 46.7262 70.8765 46.9733 70.952 47.2063L71.8339 49.9556C71.9327 50.2607 71.9373 50.5884 71.8471 50.8961C71.7568 51.2038 71.576 51.4771 71.3281 51.6805L69.0975 53.5091C68.9057 53.6647 68.7531 53.8631 68.6518 54.0883C68.5504 54.3134 68.5032 54.5592 68.5139 54.806L68.5917 57.685C68.5997 58.0061 68.5113 58.3223 68.3379 58.5928C68.1645 58.8632 67.9142 59.0755 67.619 59.2024L65.0253 60.3306C64.8002 60.4249 64.5999 60.5699 64.4402 60.7544C64.2805 60.9389 64.1656 61.1578 64.1045 61.3941L63.3653 64.1953C63.2865 64.4964 63.122 64.7682 62.8918 64.9777C62.6616 65.1872 62.3756 65.3254 62.0684 65.3755L59.2023 65.6997C58.9587 65.7295 58.725 65.8137 58.5185 65.9462C58.3119 66.0786 58.1379 66.2559 58.0092 66.4649L56.5178 68.9419C56.3522 69.216 56.1074 69.4334 55.8156 69.5654C55.5238 69.6974 55.1989 69.7377 54.8837 69.6811L51.875 69.1753C51.6426 69.1437 51.4061 69.1633 51.182 69.2328C50.958 69.3022 50.7519 69.4198 50.5781 69.5774L48.4512 71.5227C48.2151 71.7436 47.9171 71.8869 47.5971 71.9332C47.2771 71.9796 46.9506 71.9268 46.6615 71.782L44.0678 70.4852C43.8503 70.3767 43.6105 70.3202 43.3675 70.3202C43.1244 70.3202 42.8847 70.3767 42.6672 70.4852L40.0734 71.782C39.7843 71.9268 39.4578 71.9796 39.1379 71.9332C38.8179 71.8869 38.5198 71.7436 38.2837 71.5227L36.1568 69.5774C35.9831 69.4198 35.7769 69.3022 35.5529 69.2328C35.3289 69.1633 35.0924 69.1437 34.86 69.1753L32.0068 69.6681C31.6917 69.7248 31.3667 69.6844 31.075 69.5524C30.7832 69.4204 30.5383 69.203 30.3728 68.9289L28.8814 66.4519C28.754 66.2445 28.582 66.0682 28.3778 65.9358C28.1737 65.8035 27.9425 65.7184 27.7012 65.6867L24.8222 65.3625C24.515 65.3124 24.2289 65.1742 23.9987 64.9647C23.7685 64.7553 23.6041 64.4835 23.5253 64.1824L22.7861 61.3811C22.725 61.1449 22.6101 60.9259 22.4504 60.7414C22.2906 60.557 22.0904 60.4119 21.8653 60.3177L19.2067 59.1894C18.9116 59.0625 18.6612 58.8502 18.4878 58.5798C18.3145 58.3093 18.2261 57.9932 18.234 57.6721L18.1562 54.793C18.1669 54.5463 18.1197 54.3005 18.0183 54.0753C17.917 53.8501 17.7644 53.6517 17.5726 53.4961L15.342 51.6675C15.0941 51.4641 14.9133 51.1908 14.823 50.8831C14.7328 50.5754 14.7374 50.2477 14.8362 49.9427L15.7181 47.1933C15.7972 46.965 15.8243 46.7219 15.7973 46.4819C15.7704 46.2418 15.6902 46.0107 15.5625 45.8056L13.8765 43.4194C13.6997 43.152 13.6055 42.8386 13.6055 42.5181C13.6055 42.1975 13.6997 41.8841 13.8765 41.6167L15.5625 39.2305C15.6984 39.0293 15.7865 38.7996 15.8203 38.5592C15.854 38.3187 15.8323 38.0737 15.757 37.8428L14.8751 35.0935C14.7763 34.7884 14.7717 34.4607 14.8619 34.153C14.9522 33.8453 15.133 33.572 15.3809 33.3686L17.6115 31.54C17.8017 31.3831 17.9533 31.1845 18.0545 30.9596C18.1557 30.7347 18.2038 30.4896 18.1951 30.2431L18.1173 27.3511C18.1128 27.0307 18.2026 26.716 18.3755 26.4462C18.5485 26.1764 18.7969 25.9634 19.09 25.8338L21.7486 24.7055C21.9753 24.6139 22.1771 24.4697 22.3372 24.2848C22.4973 24.0999 22.6111 23.8796 22.6693 23.642L23.3437 20.8667C23.4225 20.5656 23.587 20.2938 23.8172 20.0844C24.0474 19.8749 24.3334 19.7367 24.6406 19.6866L27.5197 19.3624C27.7601 19.3281 27.9902 19.242 28.1941 19.1098C28.3979 18.9777 28.5704 18.8028 28.6998 18.5972L30.1912 16.1202C30.3576 15.8462 30.6021 15.6283 30.8932 15.4942C31.1844 15.3602 31.509 15.3162 31.8253 15.368L34.6784 15.8608C34.9099 15.8941 35.1458 15.8766 35.3698 15.8094C35.5938 15.7422 35.8004 15.627 35.9753 15.4717L38.1022 13.5135C38.341 13.2973 38.6387 13.1572 38.9575 13.111C39.2762 13.0648 39.6015 13.1146 39.8918 13.2541L42.4856 14.551C42.723 14.6717 42.986 14.7336 43.2523 14.7313C43.5187 14.7291 43.7806 14.6628 44.0159 14.538Z" fill="url(#paint0_linear)"/>
<path d="M68.1635 42.5376C68.1728 43.5432 68.1165 44.5482 67.9949 45.5464C67.8815 46.6426 67.6952 47.7301 67.4373 48.8016C67.3206 49.2555 67.1909 49.7094 67.0482 50.0984C66.7921 50.9235 66.489 51.7332 66.1404 52.5236C65.3955 54.2234 64.4601 55.8332 63.3521 57.322C62.4292 58.5822 61.3821 59.7466 60.2267 60.7977C55.6744 65.0139 49.7061 67.3691 43.5013 67.3979C37.2966 67.4268 31.3067 65.1271 26.7154 60.9533C25.5753 59.9192 24.5333 58.7817 23.6029 57.5555C21.8527 55.2143 20.5351 52.5791 19.7123 49.7742C19.3023 48.4453 19.0115 47.0825 18.8434 45.702C18.7149 44.6867 18.6456 43.6648 18.6359 42.6414C18.6135 36.0685 21.2032 29.7559 25.8351 25.0923C30.4671 20.4287 36.7619 17.7962 43.3349 17.7738C49.9078 17.7515 56.2204 20.3411 60.884 24.9731C65.5476 29.605 68.1801 35.8999 68.2024 42.4728L68.1635 42.5376Z" fill="url(#paint1_linear)"/>
<path d="M66.9841 42.6023C66.9851 43.5598 66.9332 44.5166 66.8284 45.4684C66.7015 46.5174 66.5065 47.5571 66.2449 48.5809C66.1281 49.0088 66.0114 49.4368 65.8688 49.8777C65.6256 50.6639 65.3354 51.4348 64.9998 52.1862C64.3063 53.7989 63.4364 55.3298 62.4061 56.7512C61.5161 57.9473 60.5176 59.0587 59.4233 60.0712C55.0801 64.0715 49.3966 66.3008 43.4919 66.32C37.5872 66.3392 31.8892 64.1469 27.5202 60.1749C26.4383 59.1861 25.4486 58.1009 24.5633 56.9327C22.0825 53.6533 20.5041 49.7811 19.9853 45.7018C19.8447 44.7393 19.7625 43.7692 19.7389 42.7968C19.6548 39.6489 20.2007 36.5159 21.3446 33.5819C22.4885 30.648 24.2074 27.9723 26.4001 25.7121C28.5929 23.4519 31.2153 21.6529 34.1132 20.4206C37.0112 19.1883 40.1262 18.5478 43.2752 18.5365C46.4242 18.5253 49.5438 19.1436 52.4504 20.3552C55.3571 21.5667 57.9923 23.347 60.2011 25.5915C62.4099 27.836 64.1478 30.4993 65.3126 33.425C66.4775 36.3507 67.0457 39.4798 66.9841 42.6282V42.6023Z" fill="#292C2B"/>
<path d="M47.9416 58.5899C56.7293 56.0534 61.7969 46.8734 59.2605 38.0857C56.724 29.298 47.544 24.2303 38.7563 26.7667C29.9686 29.3032 24.9009 38.4832 27.4374 47.2709C29.9738 56.0586 39.1538 61.1263 47.9416 58.5899Z" fill="url(#paint2_linear)"/>
<path style="mix-blend-mode:multiply" d="M47.9416 58.5899C56.7293 56.0534 61.7969 46.8734 59.2605 38.0857C56.724 29.298 47.544 24.2303 38.7563 26.7667C29.9686 29.3032 24.9009 38.4832 27.4374 47.2709C29.9738 56.0586 39.1538 61.1263 47.9416 58.5899Z" fill="url(#paint3_radial)"/>
<path d="M29.9971 38.3098C30.4384 38.3636 30.8838 38.2475 31.2426 37.985C31.6015 37.7224 31.847 37.3332 31.9294 36.8962H33.1096V48.0883H31.3458V39.5548H30.0489L29.9971 38.3098Z" fill="black"/>
<path d="M35.0801 39.5807C35.0278 39.2113 35.0597 38.8349 35.1733 38.4795C35.2869 38.1242 35.4794 37.799 35.7362 37.5285C35.9931 37.2579 36.3078 37.0488 36.6567 36.9169C37.0057 36.785 37.38 36.7336 37.7516 36.7665C38.1227 36.736 38.4958 36.7892 38.8436 36.9219C39.1915 37.0547 39.5051 37.2638 39.7614 37.5338C40.0177 37.8038 40.2102 38.1279 40.3247 38.4821C40.4393 38.8364 40.4729 39.2118 40.4232 39.5807V45.3907C40.4729 45.7597 40.4393 46.1351 40.3247 46.4894C40.2102 46.8436 40.0177 47.1676 39.7614 47.4376C39.5051 47.7077 39.1915 47.9168 38.8436 48.0495C38.4958 48.1823 38.1227 48.2354 37.7516 48.205C37.38 48.2379 37.0057 48.1865 36.6567 48.0546C36.3078 47.9227 35.9931 47.7136 35.7362 47.443C35.4794 47.1724 35.2869 46.8473 35.1733 46.492C35.0597 46.1366 35.0278 45.7602 35.0801 45.3907V39.5807ZM36.8309 45.5204C36.8309 46.3115 37.181 46.6228 37.7516 46.6228C38.3223 46.6228 38.6594 46.3115 38.6594 45.5204V39.477C38.6594 38.6729 38.3093 38.3747 37.7516 38.3747C37.194 38.3747 36.8309 38.6729 36.8309 39.477V45.5204Z" fill="black"/>
<path d="M41.3965 39.5807C41.3965 39.2299 41.4656 38.8825 41.5998 38.5584C41.7341 38.2343 41.9309 37.9397 42.179 37.6917C42.427 37.4436 42.7216 37.2468 43.0457 37.1125C43.3698 36.9783 43.7172 36.9092 44.068 36.9092C44.4189 36.9092 44.7663 36.9783 45.0904 37.1125C45.4145 37.2468 45.7091 37.4436 45.9571 37.6917C46.2052 37.9397 46.402 38.2343 46.5362 38.5584C46.6705 38.8825 46.7396 39.2299 46.7396 39.5807V45.3907C46.7396 46.0993 46.4581 46.7788 45.9571 47.2798C45.4561 47.7808 44.7766 48.0623 44.068 48.0623C43.3595 48.0623 42.68 47.7808 42.179 47.2798C41.678 46.7788 41.3965 46.0993 41.3965 45.3907V39.5807ZM43.1473 45.5204C43.1473 46.3115 43.5104 46.6228 44.068 46.6228C44.6257 46.6228 44.9759 46.3115 44.9759 45.5204V39.477C44.9759 38.6729 44.6257 38.3747 44.068 38.3747C43.5104 38.3747 43.1473 38.6729 43.1473 39.477V45.5204Z" fill="black"/>
<path d="M47.751 38.6081C47.751 38.385 47.7949 38.1641 47.8803 37.958C47.9657 37.7519 48.0908 37.5646 48.2486 37.4068C48.4063 37.249 48.5936 37.1239 48.7997 37.0385C49.0059 36.9532 49.2268 36.9092 49.4499 36.9092C49.673 36.9092 49.8939 36.9532 50.1 37.0385C50.3061 37.1239 50.4934 37.249 50.6512 37.4068C50.8089 37.5646 50.9341 37.7519 51.0195 37.958C51.1048 38.1641 51.1488 38.385 51.1488 38.6081V42.2912C51.1488 42.5143 51.1048 42.7353 51.0195 42.9414C50.9341 43.1475 50.8089 43.3348 50.6512 43.4925C50.4934 43.6503 50.3061 43.7755 50.1 43.8608C49.8939 43.9462 49.673 43.9902 49.4499 43.9902C49.2268 43.9902 49.0059 43.9462 48.7997 43.8608C48.5936 43.7755 48.4063 43.6503 48.2486 43.4925C48.0908 43.3348 47.9657 43.1475 47.8803 42.9414C47.7949 42.7353 47.751 42.5143 47.751 42.2912V38.6081ZM48.8793 42.3691C48.8793 42.8619 49.0868 43.0694 49.4499 43.0694C49.813 43.0694 50.0335 42.8619 50.0335 42.3691V38.4784C50.0335 37.9856 49.8 37.7781 49.4499 37.7781C49.0997 37.7781 48.8793 37.9856 48.8793 38.4784V42.3691ZM53.8593 36.8962H54.9097L50.4874 48.0883H49.4499L53.8593 36.8962ZM53.3016 42.7062C53.3016 42.4831 53.3455 42.2622 53.4309 42.0561C53.5163 41.85 53.6414 41.6627 53.7992 41.5049C53.957 41.3472 54.1442 41.222 54.3504 41.1367C54.5565 41.0513 54.7774 41.0073 55.0005 41.0073C55.2236 41.0073 55.4445 41.0513 55.6507 41.1367C55.8568 41.222 56.0441 41.3472 56.2018 41.5049C56.3596 41.6627 56.4847 41.85 56.5701 42.0561C56.6555 42.2622 56.6994 42.4831 56.6994 42.7062V46.3764C56.6994 46.5995 56.6555 46.8204 56.5701 47.0265C56.4847 47.2327 56.3596 47.42 56.2018 47.5777C56.0441 47.7355 55.8568 47.8606 55.6507 47.946C55.4445 48.0314 55.2236 48.0753 55.0005 48.0753C54.7774 48.0753 54.5565 48.0314 54.3504 47.946C54.1442 47.8606 53.957 47.7355 53.7992 47.5777C53.6414 47.42 53.5163 47.2327 53.4309 47.0265C53.3455 46.8204 53.3016 46.5995 53.3016 46.3764V42.7062ZM54.4299 46.4672C54.4299 46.96 54.6374 47.1675 55.0005 47.1675C55.3636 47.1675 55.5711 46.96 55.5711 46.4672V42.5766C55.5711 42.0708 55.3507 41.8633 55.0005 41.8633C54.6504 41.8633 54.4299 42.0708 54.4299 42.5766V46.4672Z" fill="black"/>
<path d="M29.9971 38.3098C30.4384 38.3636 30.8838 38.2475 31.2426 37.985C31.6015 37.7224 31.847 37.3332 31.9294 36.8962H33.1096V48.0883H31.3458V39.5548H30.0489L29.9971 38.3098Z" fill="#282A2C"/>
<path d="M35.0801 39.5807C35.0278 39.2113 35.0597 38.8349 35.1733 38.4795C35.2869 38.1242 35.4794 37.799 35.7362 37.5285C35.9931 37.2579 36.3078 37.0488 36.6567 36.9169C37.0057 36.785 37.38 36.7336 37.7516 36.7665C38.1227 36.736 38.4958 36.7892 38.8436 36.9219C39.1915 37.0547 39.5051 37.2638 39.7614 37.5338C40.0177 37.8038 40.2102 38.1279 40.3247 38.4821C40.4393 38.8364 40.4729 39.2118 40.4232 39.5807V45.3907C40.4729 45.7597 40.4393 46.1351 40.3247 46.4894C40.2102 46.8436 40.0177 47.1676 39.7614 47.4376C39.5051 47.7077 39.1915 47.9168 38.8436 48.0495C38.4958 48.1823 38.1227 48.2354 37.7516 48.205C37.38 48.2379 37.0057 48.1865 36.6567 48.0546C36.3078 47.9227 35.9931 47.7136 35.7362 47.443C35.4794 47.1724 35.2869 46.8473 35.1733 46.492C35.0597 46.1366 35.0278 45.7602 35.0801 45.3907V39.5807ZM36.8309 45.5204C36.8309 46.3115 37.181 46.6228 37.7516 46.6228C38.3223 46.6228 38.6594 46.3115 38.6594 45.5204V39.477C38.6594 38.6729 38.3093 38.3747 37.7516 38.3747C37.194 38.3747 36.8309 38.6729 36.8309 39.477V45.5204Z" fill="#282A2C"/>
<path d="M41.3965 39.5807C41.3965 39.2299 41.4656 38.8825 41.5998 38.5584C41.7341 38.2343 41.9309 37.9397 42.179 37.6917C42.427 37.4436 42.7216 37.2468 43.0457 37.1125C43.3698 36.9783 43.7172 36.9092 44.068 36.9092C44.4189 36.9092 44.7663 36.9783 45.0904 37.1125C45.4145 37.2468 45.7091 37.4436 45.9571 37.6917C46.2052 37.9397 46.402 38.2343 46.5362 38.5584C46.6705 38.8825 46.7396 39.2299 46.7396 39.5807V45.3907C46.7396 46.0993 46.4581 46.7788 45.9571 47.2798C45.4561 47.7808 44.7766 48.0623 44.068 48.0623C43.3595 48.0623 42.68 47.7808 42.179 47.2798C41.678 46.7788 41.3965 46.0993 41.3965 45.3907V39.5807ZM43.1473 45.5204C43.1473 46.3115 43.5104 46.6228 44.068 46.6228C44.6257 46.6228 44.9759 46.3115 44.9759 45.5204V39.477C44.9759 38.6729 44.6257 38.3747 44.068 38.3747C43.5104 38.3747 43.1473 38.6729 43.1473 39.477V45.5204Z" fill="#282A2C"/>
<path d="M47.751 38.6081C47.751 38.385 47.7949 38.1641 47.8803 37.958C47.9657 37.7519 48.0908 37.5646 48.2486 37.4068C48.4063 37.249 48.5936 37.1239 48.7997 37.0385C49.0059 36.9532 49.2268 36.9092 49.4499 36.9092C49.673 36.9092 49.8939 36.9532 50.1 37.0385C50.3061 37.1239 50.4934 37.249 50.6512 37.4068C50.8089 37.5646 50.9341 37.7519 51.0195 37.958C51.1048 38.1641 51.1488 38.385 51.1488 38.6081V42.2912C51.1488 42.5143 51.1048 42.7353 51.0195 42.9414C50.9341 43.1475 50.8089 43.3348 50.6512 43.4925C50.4934 43.6503 50.3061 43.7755 50.1 43.8608C49.8939 43.9462 49.673 43.9902 49.4499 43.9902C49.2268 43.9902 49.0059 43.9462 48.7997 43.8608C48.5936 43.7755 48.4063 43.6503 48.2486 43.4925C48.0908 43.3348 47.9657 43.1475 47.8803 42.9414C47.7949 42.7353 47.751 42.5143 47.751 42.2912V38.6081ZM48.8793 42.3691C48.8793 42.8619 49.0868 43.0694 49.4499 43.0694C49.813 43.0694 50.0335 42.8619 50.0335 42.3691V38.4784C50.0335 37.9856 49.8 37.7781 49.4499 37.7781C49.0997 37.7781 48.8793 37.9856 48.8793 38.4784V42.3691ZM53.8593 36.8962H54.9097L50.4874 48.0883H49.4499L53.8593 36.8962ZM53.3016 42.7062C53.3016 42.4831 53.3455 42.2622 53.4309 42.0561C53.5163 41.85 53.6414 41.6627 53.7992 41.5049C53.957 41.3472 54.1442 41.222 54.3504 41.1367C54.5565 41.0513 54.7774 41.0073 55.0005 41.0073C55.2236 41.0073 55.4445 41.0513 55.6507 41.1367C55.8568 41.222 56.0441 41.3472 56.2018 41.5049C56.3596 41.6627 56.4847 41.85 56.5701 42.0561C56.6555 42.2622 56.6994 42.4831 56.6994 42.7062V46.3764C56.6994 46.5995 56.6555 46.8204 56.5701 47.0265C56.4847 47.2327 56.3596 47.42 56.2018 47.5777C56.0441 47.7355 55.8568 47.8606 55.6507 47.946C55.4445 48.0314 55.2236 48.0753 55.0005 48.0753C54.7774 48.0753 54.5565 48.0314 54.3504 47.946C54.1442 47.8606 53.957 47.7355 53.7992 47.5777C53.6414 47.42 53.5163 47.2327 53.4309 47.0265C53.3455 46.8204 53.3016 46.5995 53.3016 46.3764V42.7062ZM54.4299 46.4672C54.4299 46.96 54.6374 47.1675 55.0005 47.1675C55.3636 47.1675 55.5711 46.96 55.5711 46.4672V42.5766C55.5711 42.0708 55.3507 41.8633 55.0005 41.8633C54.6504 41.8633 54.4299 42.0708 54.4299 42.5766V46.4672Z" fill="#282A2C"/>
<path d="M29.1147 31.0213C29.4095 30.9358 29.6745 30.7696 29.8798 30.5415C30.23 30.1654 30.23 29.7763 29.9447 29.517C29.6594 29.2576 29.387 29.2835 28.8942 29.517C28.4014 29.7504 27.8178 29.906 27.4287 29.517C27.3211 29.4104 27.2368 29.2827 27.1813 29.1418C27.1258 29.0008 27.1003 28.8499 27.1064 28.6986C27.1125 28.5473 27.15 28.3989 27.2167 28.2629C27.2834 28.1269 27.3777 28.0063 27.4936 27.9088C27.6795 27.6857 27.9211 27.5157 28.1939 27.416L28.4014 27.7791C28.162 27.8623 27.9478 28.0052 27.7789 28.1941C27.4287 28.5832 27.5195 28.9334 27.7141 29.102C27.9086 29.2705 28.2717 29.2965 28.7645 29.102C29.2573 28.9074 29.8409 28.7648 30.2559 29.102C30.3703 29.2175 30.4593 29.3557 30.5172 29.5077C30.5751 29.6597 30.6006 29.8221 30.592 29.9845C30.5835 30.1468 30.5411 30.3057 30.4676 30.4507C30.3941 30.5958 30.2911 30.7239 30.1651 30.8268C29.9391 31.0788 29.6539 31.2705 29.3351 31.3845L29.1147 31.0213Z" fill="white"/>
<path d="M31.2289 28.0385L31.6569 29.2316L31.2549 29.5428L29.958 25.7559L30.4249 25.3928L33.7189 27.5716L33.3039 27.8958L32.2924 27.2344L31.2289 28.0385ZM31.9811 26.975L31.0085 26.3395C30.788 26.1969 30.6064 26.0542 30.4249 25.9245C30.5312 26.1383 30.6222 26.3593 30.6972 26.5859L31.0863 27.6753L31.9811 26.975Z" fill="white"/>
<path d="M32.8243 24.2514L31.8257 24.8221L31.6182 24.4589L34.0563 23.0713L34.2638 23.4344L33.2522 24.005L34.9252 26.9489L34.4972 27.2343L32.8243 24.2514Z" fill="white"/>
<path d="M35.3787 22.5266L36.8442 26.0411L36.3903 26.2227L34.9248 22.7211L35.3787 22.5266Z" fill="white"/>
<path d="M37.4017 25.1593C37.7028 25.244 38.0214 25.244 38.3225 25.1593C38.8024 25.0296 39.0099 24.6924 38.9061 24.3293C38.8024 23.9661 38.5689 23.8364 38.0242 23.7846C37.4795 23.7327 36.9089 23.5382 36.7274 23.0194C36.6975 22.8743 36.6977 22.7246 36.7277 22.5794C36.7577 22.4343 36.817 22.2969 36.902 22.1755C36.987 22.0541 37.0958 21.9513 37.2219 21.8734C37.348 21.7955 37.4886 21.7442 37.6352 21.7225C37.9165 21.6553 38.2098 21.6553 38.4911 21.7225V22.0468C38.2447 21.9813 37.9854 21.9813 37.7389 22.0468C37.2331 22.1894 37.1294 22.5396 37.2072 22.786C37.285 23.0324 37.5703 23.2399 38.128 23.2918C38.6856 23.3436 39.2044 23.5771 39.36 24.1218C39.5156 24.6664 39.2303 25.2889 38.3614 25.5224C38.0346 25.6124 37.6896 25.6124 37.3628 25.5224L37.4017 25.1593Z" fill="white"/>
<path d="M39.9697 21.2687L42.0058 21.0872V21.5022L40.4496 21.6448L40.5663 22.9417L41.9929 22.812V23.214L40.5533 23.3437L40.7089 25.0556H40.2161L39.9697 21.2687Z" fill="white"/>
<path d="M43.2764 23.7069L42.8095 24.8871H42.3037L43.8081 21.1521H44.4047L45.494 25.0427H44.9623L44.6251 23.8237L43.2764 23.7069ZM44.5732 23.3957L44.262 22.2804C44.1944 22.0507 44.1424 21.8168 44.1064 21.5801C44.0286 21.8005 43.9637 22.034 43.8729 22.2544L43.445 23.3309L44.5732 23.3957Z" fill="white"/>
<path d="M48.5553 25.5614C48.218 25.6368 47.8681 25.6368 47.5308 25.5614C47.2783 25.5225 47.0371 25.4296 46.8238 25.2891C46.6104 25.1485 46.4299 24.9636 46.2945 24.747C46.1591 24.5303 46.072 24.287 46.0392 24.0337C46.0063 23.7803 46.0285 23.5229 46.1042 23.2789C46.1476 23.0165 46.2455 22.7661 46.3915 22.5438C46.5375 22.3215 46.7284 22.1322 46.9519 21.988C47.1754 21.8439 47.4266 21.7481 47.6894 21.7069C47.9521 21.6657 48.2206 21.6798 48.4775 21.7485C48.7626 21.7937 49.0359 21.8951 49.2816 22.0468L49.0741 22.41C48.8643 22.2511 48.6198 22.1445 48.3608 22.0987C48.1621 22.0428 47.9536 22.031 47.7499 22.0642C47.5463 22.0974 47.3523 22.1749 47.1818 22.2911C47.0112 22.4072 46.8681 22.5594 46.7626 22.7367C46.6571 22.9141 46.5918 23.1124 46.5711 23.3178C46.5062 23.5087 46.4841 23.7115 46.5063 23.9119C46.5286 24.1123 46.5946 24.3054 46.6998 24.4774C46.805 24.6494 46.9468 24.7962 47.115 24.9073C47.2833 25.0185 47.4739 25.0912 47.6734 25.1204C47.9427 25.1783 48.2212 25.1783 48.4905 25.1204L48.5553 25.5614Z" fill="white"/>
<path d="M51.1226 23.0585L50.0462 22.6305L50.2018 22.2415L52.7956 23.266L52.64 23.655L51.5636 23.24L50.2667 26.3785L49.7998 26.1969L51.1226 23.0585Z" fill="white"/>
<path d="M54.0278 23.9014L52.2641 27.2343L51.875 27.0528L53.6258 23.6809L54.0278 23.9014Z" fill="white"/>
<path d="M56.8286 27.9736C56.708 28.1941 56.5423 28.3868 56.3423 28.539C56.1423 28.6913 55.9125 28.7997 55.6678 28.8572C55.4231 28.9147 55.169 28.92 54.9221 28.8728C54.6752 28.8255 54.4411 28.7268 54.2349 28.5831C54.0364 28.4379 53.8707 28.2526 53.7486 28.0391C53.6265 27.8256 53.5507 27.5888 53.5263 27.3441C53.5018 27.0994 53.5292 26.8523 53.6066 26.6189C53.684 26.3854 53.8097 26.1709 53.9755 25.9893C54.0972 25.7698 54.2638 25.5784 54.4643 25.4275C54.6648 25.2765 54.8948 25.1694 55.1395 25.1132C55.3841 25.0569 55.6378 25.0527 55.8841 25.1009C56.1304 25.1491 56.3638 25.2485 56.5692 25.3928C56.7691 25.5354 56.9363 25.719 57.0595 25.9314C57.1827 26.1438 57.2591 26.3801 57.2837 26.6244C57.3082 26.8687 57.2803 27.1155 57.2018 27.3481C57.1234 27.5808 56.9961 27.794 56.8286 27.9736ZM54.3905 26.3136C54.2656 26.4465 54.1685 26.603 54.1048 26.7739C54.041 26.9449 54.0119 27.1267 54.0192 27.309C54.0264 27.4913 54.0698 27.6703 54.147 27.8356C54.2241 28.0009 54.3333 28.1492 54.4683 28.2718C55.1038 28.7257 55.8819 28.3886 56.3877 27.6882C56.5117 27.5544 56.6079 27.3972 56.6706 27.2259C56.7332 27.0545 56.7611 26.8724 56.7527 26.6901C56.7442 26.5078 56.6996 26.329 56.6213 26.1642C56.5431 25.9993 56.4328 25.8517 56.2969 25.73C55.6485 25.2501 54.8833 25.6262 54.3905 26.3136Z" fill="white"/>
<path d="M56.1025 29.9578L58.9038 27.364L59.2669 27.766L58.6704 29.9578C58.556 30.4005 58.4086 30.834 58.2294 31.2546C58.5818 30.868 58.954 30.5001 59.3447 30.1523L60.5119 29.0759L60.8232 29.4131L58.0219 32.0068L57.6847 31.6437L58.2943 29.439C58.4123 28.9705 58.564 28.511 58.7482 28.0643C58.411 28.4145 58.0738 28.7257 57.6069 29.1537L56.4138 30.256L56.1025 29.9578Z" fill="white"/>
<path d="M29.1147 31.0213C29.4095 30.9358 29.6745 30.7696 29.8798 30.5415C30.23 30.1654 30.23 29.7763 29.9447 29.517C29.6594 29.2576 29.387 29.2835 28.8942 29.517C28.4014 29.7504 27.8178 29.906 27.4287 29.517C27.3211 29.4104 27.2368 29.2827 27.1813 29.1418C27.1258 29.0008 27.1003 28.8499 27.1064 28.6986C27.1125 28.5473 27.15 28.3989 27.2167 28.2629C27.2834 28.1269 27.3777 28.0063 27.4936 27.9088C27.6795 27.6857 27.9211 27.5157 28.1939 27.416L28.4014 27.7791C28.162 27.8623 27.9478 28.0052 27.7789 28.1941C27.4287 28.5832 27.5195 28.9334 27.7141 29.102C27.9086 29.2705 28.2717 29.2965 28.7645 29.102C29.2573 28.9074 29.8409 28.7648 30.2559 29.102C30.3703 29.2175 30.4593 29.3557 30.5172 29.5077C30.5751 29.6597 30.6006 29.8221 30.592 29.9845C30.5835 30.1468 30.5411 30.3057 30.4676 30.4507C30.3941 30.5958 30.2911 30.7239 30.1651 30.8268C29.9391 31.0788 29.6539 31.2705 29.3351 31.3845L29.1147 31.0213Z" fill="white"/>
<path d="M31.2289 28.0385L31.6569 29.2316L31.2549 29.5428L29.958 25.7559L30.4249 25.3928L33.7189 27.5716L33.3039 27.8958L32.2924 27.2344L31.2289 28.0385ZM31.9811 26.975L31.0085 26.3395C30.788 26.1969 30.6064 26.0542 30.4249 25.9245C30.5312 26.1383 30.6222 26.3593 30.6972 26.5859L31.0863 27.6753L31.9811 26.975Z" fill="white"/>
<path d="M32.8243 24.2514L31.8257 24.8221L31.6182 24.4589L34.0563 23.0713L34.2638 23.4344L33.2522 24.005L34.9252 26.9489L34.4972 27.2343L32.8243 24.2514Z" fill="white"/>
<path d="M35.3787 22.5266L36.8442 26.0411L36.3903 26.2227L34.9248 22.7211L35.3787 22.5266Z" fill="white"/>
<path d="M37.4017 25.1593C37.7028 25.244 38.0214 25.244 38.3225 25.1593C38.8024 25.0296 39.0099 24.6924 38.9061 24.3293C38.8024 23.9661 38.5689 23.8364 38.0242 23.7846C37.4795 23.7327 36.9089 23.5382 36.7274 23.0194C36.6975 22.8743 36.6977 22.7246 36.7277 22.5794C36.7577 22.4343 36.817 22.2969 36.902 22.1755C36.987 22.0541 37.0958 21.9513 37.2219 21.8734C37.348 21.7955 37.4886 21.7442 37.6352 21.7225C37.9165 21.6553 38.2098 21.6553 38.4911 21.7225V22.0468C38.2447 21.9813 37.9854 21.9813 37.7389 22.0468C37.2331 22.1894 37.1294 22.5396 37.2072 22.786C37.285 23.0324 37.5703 23.2399 38.128 23.2918C38.6856 23.3436 39.2044 23.5771 39.36 24.1218C39.5156 24.6664 39.2303 25.2889 38.3614 25.5224C38.0346 25.6124 37.6896 25.6124 37.3628 25.5224L37.4017 25.1593Z" fill="white"/>
<path d="M39.9697 21.2687L42.0058 21.0872V21.5022L40.4496 21.6448L40.5663 22.9417L41.9929 22.812V23.214L40.5533 23.3437L40.7089 25.0556H40.2161L39.9697 21.2687Z" fill="white"/>
<path d="M43.2764 23.7069L42.8095 24.8871H42.3037L43.8081 21.1521H44.4047L45.494 25.0427H44.9623L44.6251 23.8237L43.2764 23.7069ZM44.5732 23.3957L44.262 22.2804C44.1944 22.0507 44.1424 21.8168 44.1064 21.5801C44.0286 21.8005 43.9637 22.034 43.8729 22.2544L43.445 23.3309L44.5732 23.3957Z" fill="white"/>
<path d="M48.5553 25.5614C48.218 25.6368 47.8681 25.6368 47.5308 25.5614C47.2783 25.5225 47.0371 25.4296 46.8238 25.2891C46.6104 25.1485 46.4299 24.9636 46.2945 24.747C46.1591 24.5303 46.072 24.287 46.0392 24.0337C46.0063 23.7803 46.0285 23.5229 46.1042 23.2789C46.1476 23.0165 46.2455 22.7661 46.3915 22.5438C46.5375 22.3215 46.7284 22.1322 46.9519 21.988C47.1754 21.8439 47.4266 21.7481 47.6894 21.7069C47.9521 21.6657 48.2206 21.6798 48.4775 21.7485C48.7626 21.7937 49.0359 21.8951 49.2816 22.0468L49.0741 22.41C48.8643 22.2511 48.6198 22.1445 48.3608 22.0987C48.1621 22.0428 47.9536 22.031 47.7499 22.0642C47.5463 22.0974 47.3523 22.1749 47.1818 22.2911C47.0112 22.4072 46.8681 22.5594 46.7626 22.7367C46.6571 22.9141 46.5918 23.1124 46.5711 23.3178C46.5062 23.5087 46.4841 23.7115 46.5063 23.9119C46.5286 24.1123 46.5946 24.3054 46.6998 24.4774C46.805 24.6494 46.9468 24.7962 47.115 24.9073C47.2833 25.0185 47.4739 25.0912 47.6734 25.1204C47.9427 25.1783 48.2212 25.1783 48.4905 25.1204L48.5553 25.5614Z" fill="white"/>
<path d="M51.1226 23.0585L50.0462 22.6305L50.2018 22.2415L52.7956 23.266L52.64 23.655L51.5636 23.24L50.2667 26.3785L49.7998 26.1969L51.1226 23.0585Z" fill="white"/>
<path d="M54.0278 23.9014L52.2641 27.2343L51.875 27.0528L53.6258 23.6809L54.0278 23.9014Z" fill="white"/>
<path d="M56.8286 27.9736C56.708 28.1941 56.5423 28.3868 56.3423 28.539C56.1423 28.6913 55.9125 28.7997 55.6678 28.8572C55.4231 28.9147 55.169 28.92 54.9221 28.8728C54.6752 28.8255 54.4411 28.7268 54.2349 28.5831C54.0364 28.4379 53.8707 28.2526 53.7486 28.0391C53.6265 27.8256 53.5507 27.5888 53.5263 27.3441C53.5018 27.0994 53.5292 26.8523 53.6066 26.6189C53.684 26.3854 53.8097 26.1709 53.9755 25.9893C54.0972 25.7698 54.2638 25.5784 54.4643 25.4275C54.6648 25.2765 54.8948 25.1694 55.1395 25.1132C55.3841 25.0569 55.6378 25.0527 55.8841 25.1009C56.1304 25.1491 56.3638 25.2485 56.5692 25.3928C56.7691 25.5354 56.9363 25.719 57.0595 25.9314C57.1827 26.1438 57.2591 26.3801 57.2837 26.6244C57.3082 26.8687 57.2803 27.1155 57.2018 27.3481C57.1234 27.5808 56.9961 27.794 56.8286 27.9736ZM54.3905 26.3136C54.2656 26.4465 54.1685 26.603 54.1048 26.7739C54.041 26.9449 54.0119 27.1267 54.0192 27.309C54.0264 27.4913 54.0698 27.6703 54.147 27.8356C54.2241 28.0009 54.3333 28.1492 54.4683 28.2718C55.1038 28.7257 55.8819 28.3886 56.3877 27.6882C56.5117 27.5544 56.6079 27.3972 56.6706 27.2259C56.7332 27.0545 56.7611 26.8724 56.7527 26.6901C56.7442 26.5078 56.6996 26.329 56.6213 26.1642C56.5431 25.9993 56.4328 25.8517 56.2969 25.73C55.6485 25.2501 54.8833 25.6262 54.3905 26.3136Z" fill="white"/>
<path d="M56.1025 29.9578L58.9038 27.364L59.2669 27.766L58.6704 29.9578C58.556 30.4005 58.4086 30.834 58.2294 31.2546C58.5818 30.868 58.954 30.5001 59.3447 30.1523L60.5119 29.0759L60.8232 29.4131L58.0219 32.0068L57.6847 31.6437L58.2943 29.439C58.4123 28.9705 58.564 28.511 58.7482 28.0643C58.411 28.4145 58.0738 28.7257 57.6069 29.1537L56.4138 30.256L56.1025 29.9578Z" fill="white"/>
<path d="M29.5692 59.5526C29.2041 59.3962 28.8669 59.1816 28.5706 58.9172C28.3742 58.7578 28.2112 58.5612 28.091 58.3386C27.9708 58.1161 27.8958 57.8719 27.8703 57.6203C27.8671 57.3606 27.9159 57.1028 28.0139 56.8623C28.1119 56.6217 28.2571 56.4032 28.4409 56.2197C28.6186 56.0182 28.8371 55.8568 29.0819 55.7463C29.3268 55.6358 29.5923 55.5786 29.861 55.5786C30.1296 55.5786 30.3952 55.6358 30.64 55.7463C30.8848 55.8568 31.1034 56.0182 31.2811 56.2197C31.5216 56.4361 31.7195 56.6956 31.8646 56.9848L31.5015 57.2053C31.3875 56.9369 31.2147 56.6976 30.9957 56.505C30.8554 56.3542 30.684 56.2357 30.4935 56.1574C30.303 56.0792 30.0977 56.0432 29.8919 56.0518C29.6862 56.0604 29.4847 56.1135 29.3013 56.2074C29.118 56.3013 28.9572 56.4338 28.83 56.5958C28.6768 56.726 28.5538 56.888 28.4695 57.0705C28.3851 57.253 28.3414 57.4517 28.3414 57.6527C28.3414 57.8538 28.3851 58.0524 28.4695 58.2349C28.5538 58.4174 28.6768 58.5794 28.83 58.7097C28.9849 58.8698 29.17 58.9976 29.3746 59.0858L30.1528 58.2558L29.5821 57.724L29.8545 57.4387L30.7753 58.2817L29.5692 59.5526Z" fill="white"/>
<path d="M32.967 57.5294L31.7609 59.4358C31.294 60.1491 31.4237 60.6549 31.8517 60.9272C32.2796 61.1996 32.8373 61.1088 33.2912 60.4085L34.4973 58.5021L34.9123 58.7744L33.7192 60.6419C33.6402 60.8371 33.5182 61.012 33.3623 61.1535C33.2064 61.295 33.0206 61.3996 32.8187 61.4594C32.6168 61.5193 32.404 61.5328 32.1962 61.499C31.9883 61.4653 31.7908 61.3851 31.6182 61.2644C30.9698 60.8494 30.7104 60.1491 31.3459 59.1635L32.552 57.27L32.967 57.5294Z" fill="white"/>
<path d="M35.0156 61.6664L34.1856 62.6132L33.7188 62.4186L36.3125 59.4229L36.8572 59.6563L36.5589 63.6636L36.0791 63.4561L36.1698 62.1593L35.0156 61.6664ZM36.3125 61.8091L36.3903 60.6549C36.3903 60.3955 36.3903 60.1621 36.4811 59.9416C36.3384 60.1361 36.1828 60.3177 36.0272 60.4993L35.262 61.3682L36.3125 61.8091Z" fill="white"/>
<path d="M38.5431 60.3308C38.8584 60.3468 39.1712 60.3946 39.4769 60.4735C39.8638 60.529 40.2156 60.7281 40.4625 61.0311C40.5388 61.1439 40.5899 61.2717 40.6122 61.406C40.6346 61.5403 40.6278 61.6779 40.5922 61.8092C40.5434 62.0223 40.4252 62.213 40.2562 62.3515C40.0871 62.49 39.8769 62.5684 39.6584 62.5744C39.7895 62.675 39.892 62.8081 39.9557 62.9605C40.0194 63.1129 40.0421 63.2794 40.0216 63.4433C39.9887 63.8057 39.9887 64.1703 40.0216 64.5327L39.5287 64.416C39.5025 64.1009 39.5025 63.7843 39.5287 63.4692C39.5287 62.9375 39.3991 62.6911 38.9711 62.5744L38.5172 62.4577L38.1281 64.0658L37.6094 63.975L38.5431 60.3308ZM38.608 62.1205L39.0878 62.2372C39.6066 62.3669 39.9956 62.1724 40.0994 61.7444C40.2031 61.3164 39.9178 60.9792 39.412 60.8496C39.2565 60.8014 39.095 60.7752 38.9322 60.7717L38.608 62.1205Z" fill="white"/>
<path d="M41.9021 63.5469L41.4611 64.727H40.9424L42.4208 60.9531H43.0174L44.0938 64.8438H43.575L43.2249 63.6247L41.9021 63.5469ZM43.199 63.2227L42.7969 62.1462C42.7969 61.8869 42.6802 61.6664 42.6413 61.433C42.5752 61.6659 42.4972 61.8953 42.4079 62.1203L41.9929 63.1967L43.199 63.2227Z" fill="white"/>
<path d="M45.3131 64.8438L44.7295 61.0829L45.2612 60.9532L46.7526 62.6651C47.0719 63.0128 47.3625 63.3857 47.6215 63.7804C47.4992 63.2757 47.404 62.7649 47.3362 62.2501L47.0898 60.6808L47.5437 60.603L48.1273 64.364L47.6475 64.4418L46.1561 62.7169C45.834 62.3558 45.5351 61.9746 45.2612 61.5757C45.365 62.0555 45.4428 62.4965 45.5465 63.119L45.7929 64.7271L45.3131 64.8438Z" fill="white"/>
<path d="M49.1125 60.5381L47.9842 60.9531L47.8545 60.5641L50.5779 59.6562L50.7076 60.0453L49.6053 60.4084L50.6428 63.5469L50.1629 63.7025L49.1125 60.5381Z" fill="white"/>
<path d="M53.5474 60.4086L52.2506 61.057L52.8601 62.3539L54.3385 61.6406L54.5201 62.0037L52.6007 62.9375L50.9277 59.5267L52.7823 58.6189L52.9638 58.995L51.5113 59.6564L52.0431 60.7328L53.3399 60.0844L53.5474 60.4086Z" fill="white"/>
<path d="M56.0772 58.8003L54.7803 59.6303L55.5455 60.7586L56.9202 59.8508L57.1406 60.188L55.3639 61.3811L53.25 58.2167L55.0267 57.0625L55.2602 57.4127L53.9633 58.2686L54.6247 59.2672L55.9216 58.4502L56.0772 58.8003Z" fill="white"/>
<path d="M55.584 56.7382C55.7951 56.4636 56.0294 56.2076 56.2843 55.973C56.6613 55.5608 57.1801 55.3061 57.7368 55.2598C57.9854 55.269 58.2293 55.3303 58.4527 55.4398C58.6761 55.5493 58.874 55.7044 59.0337 55.8952C59.2323 56.0783 59.3903 56.301 59.4975 56.549C59.6048 56.797 59.6588 57.0646 59.6562 57.3348C59.589 57.9436 59.2865 58.5021 58.8132 58.891C58.5961 59.0953 58.3666 59.2858 58.1259 59.4616L55.584 56.7382ZM58.1777 58.8521C58.311 58.7583 58.4368 58.6543 58.5538 58.5409C58.7292 58.4094 58.8728 58.2403 58.9741 58.0461C59.0754 57.8518 59.1319 57.6372 59.1394 57.4182C59.1469 57.1992 59.1051 56.9814 59.0172 56.7806C58.9294 56.5799 58.7976 56.4014 58.6316 56.2584C58.5121 56.0871 58.353 55.9473 58.1679 55.8507C57.9827 55.7542 57.777 55.7038 57.5682 55.7038C57.3594 55.7038 57.1537 55.7542 56.9685 55.8507C56.7834 55.9473 56.6243 56.0871 56.5048 56.2584C56.3595 56.3861 56.229 56.5296 56.1157 56.6863L58.1777 58.8521Z" fill="white"/>
<path d="M29.5692 59.5526C29.2041 59.3962 28.8669 59.1816 28.5706 58.9172C28.3742 58.7578 28.2112 58.5612 28.091 58.3386C27.9708 58.1161 27.8958 57.8719 27.8703 57.6203C27.8671 57.3606 27.9159 57.1028 28.0139 56.8623C28.1119 56.6217 28.2571 56.4032 28.4409 56.2197C28.6186 56.0182 28.8371 55.8568 29.0819 55.7463C29.3268 55.6358 29.5923 55.5786 29.861 55.5786C30.1296 55.5786 30.3952 55.6358 30.64 55.7463C30.8848 55.8568 31.1034 56.0182 31.2811 56.2197C31.5216 56.4361 31.7195 56.6956 31.8646 56.9848L31.5015 57.2053C31.3875 56.9369 31.2147 56.6976 30.9957 56.505C30.8554 56.3542 30.684 56.2357 30.4935 56.1574C30.303 56.0792 30.0977 56.0432 29.8919 56.0518C29.6862 56.0604 29.4847 56.1135 29.3013 56.2074C29.118 56.3013 28.9572 56.4338 28.83 56.5958C28.6768 56.726 28.5538 56.888 28.4695 57.0705C28.3851 57.253 28.3414 57.4517 28.3414 57.6527C28.3414 57.8538 28.3851 58.0524 28.4695 58.2349C28.5538 58.4174 28.6768 58.5794 28.83 58.7097C28.9849 58.8698 29.17 58.9976 29.3746 59.0858L30.1528 58.2558L29.5821 57.724L29.8545 57.4387L30.7753 58.2817L29.5692 59.5526Z" fill="white"/>
<path d="M32.967 57.5294L31.7609 59.4358C31.294 60.1491 31.4237 60.6549 31.8517 60.9272C32.2796 61.1996 32.8373 61.1088 33.2912 60.4085L34.4973 58.5021L34.9123 58.7744L33.7192 60.6419C33.6402 60.8371 33.5182 61.012 33.3623 61.1535C33.2064 61.295 33.0206 61.3996 32.8187 61.4594C32.6168 61.5193 32.404 61.5328 32.1962 61.499C31.9883 61.4653 31.7908 61.3851 31.6182 61.2644C30.9698 60.8494 30.7104 60.1491 31.3459 59.1635L32.552 57.27L32.967 57.5294Z" fill="white"/>
<path d="M35.0156 61.6664L34.1856 62.6132L33.7188 62.4186L36.3125 59.4229L36.8572 59.6563L36.5589 63.6636L36.0791 63.4561L36.1698 62.1593L35.0156 61.6664ZM36.3125 61.8091L36.3903 60.6549C36.3903 60.3955 36.3903 60.1621 36.4811 59.9416C36.3384 60.1361 36.1828 60.3177 36.0272 60.4993L35.262 61.3682L36.3125 61.8091Z" fill="white"/>
<path d="M38.5431 60.3308C38.8584 60.3468 39.1712 60.3946 39.4769 60.4735C39.8638 60.529 40.2156 60.7281 40.4625 61.0311C40.5388 61.1439 40.5899 61.2717 40.6122 61.406C40.6346 61.5403 40.6278 61.6779 40.5922 61.8092C40.5434 62.0223 40.4252 62.213 40.2562 62.3515C40.0871 62.49 39.8769 62.5684 39.6584 62.5744C39.7895 62.675 39.892 62.8081 39.9557 62.9605C40.0194 63.1129 40.0421 63.2794 40.0216 63.4433C39.9887 63.8057 39.9887 64.1703 40.0216 64.5327L39.5287 64.416C39.5025 64.1009 39.5025 63.7843 39.5287 63.4692C39.5287 62.9375 39.3991 62.6911 38.9711 62.5744L38.5172 62.4577L38.1281 64.0658L37.6094 63.975L38.5431 60.3308ZM38.608 62.1205L39.0878 62.2372C39.6066 62.3669 39.9956 62.1724 40.0994 61.7444C40.2031 61.3164 39.9178 60.9792 39.412 60.8496C39.2565 60.8014 39.095 60.7752 38.9322 60.7717L38.608 62.1205Z" fill="white"/>
<path d="M41.9021 63.5469L41.4611 64.727H40.9424L42.4208 60.9531H43.0174L44.0938 64.8438H43.575L43.2249 63.6247L41.9021 63.5469ZM43.199 63.2227L42.7969 62.1462C42.7969 61.8869 42.6802 61.6664 42.6413 61.433C42.5752 61.6659 42.4972 61.8953 42.4079 62.1203L41.9929 63.1967L43.199 63.2227Z" fill="white"/>
<path d="M45.3131 64.8438L44.7295 61.0829L45.2612 60.9532L46.7526 62.6651C47.0719 63.0128 47.3625 63.3857 47.6215 63.7804C47.4992 63.2757 47.404 62.7649 47.3362 62.2501L47.0898 60.6808L47.5437 60.603L48.1273 64.364L47.6475 64.4418L46.1561 62.7169C45.834 62.3558 45.5351 61.9746 45.2612 61.5757C45.365 62.0555 45.4428 62.4965 45.5465 63.119L45.7929 64.7271L45.3131 64.8438Z" fill="white"/>
<path d="M49.1125 60.5381L47.9842 60.9531L47.8545 60.5641L50.5779 59.6562L50.7076 60.0453L49.6053 60.4084L50.6428 63.5469L50.1629 63.7025L49.1125 60.5381Z" fill="white"/>
<path d="M53.5474 60.4086L52.2506 61.057L52.8601 62.3539L54.3385 61.6406L54.5201 62.0037L52.6007 62.9375L50.9277 59.5267L52.7823 58.6189L52.9638 58.995L51.5113 59.6564L52.0431 60.7328L53.3399 60.0844L53.5474 60.4086Z" fill="white"/>
<path d="M56.0772 58.8003L54.7803 59.6303L55.5455 60.7586L56.9202 59.8508L57.1406 60.188L55.3639 61.3811L53.25 58.2167L55.0267 57.0625L55.2602 57.4127L53.9633 58.2686L54.6247 59.2672L55.9216 58.4502L56.0772 58.8003Z" fill="white"/>
<path d="M55.584 56.7382C55.7951 56.4636 56.0294 56.2076 56.2843 55.973C56.6613 55.5608 57.1801 55.3061 57.7368 55.2598C57.9854 55.269 58.2293 55.3303 58.4527 55.4398C58.6761 55.5493 58.874 55.7044 59.0337 55.8952C59.2323 56.0783 59.3903 56.301 59.4975 56.549C59.6048 56.797 59.6588 57.0646 59.6562 57.3348C59.589 57.9436 59.2865 58.5021 58.8132 58.891C58.5961 59.0953 58.3666 59.2858 58.1259 59.4616L55.584 56.7382ZM58.1777 58.8521C58.311 58.7583 58.4368 58.6543 58.5538 58.5409C58.7292 58.4094 58.8728 58.2403 58.9741 58.0461C59.0754 57.8518 59.1319 57.6372 59.1394 57.4182C59.1469 57.1992 59.1051 56.9814 59.0172 56.7806C58.9294 56.5799 58.7976 56.4014 58.6316 56.2584C58.5121 56.0871 58.353 55.9473 58.1679 55.8507C57.9827 55.7542 57.777 55.7038 57.5682 55.7038C57.3594 55.7038 57.1537 55.7542 56.9685 55.8507C56.7834 55.9473 56.6243 56.0871 56.5048 56.2584C56.3595 56.3861 56.229 56.5296 56.1157 56.6863L58.1777 58.8521Z" fill="white"/>
<path d="M62.6517 36.2607L62.1848 35.0935L61.7179 36.2607L60.46 36.3515L61.4196 37.1555L61.1214 38.3746L62.1848 37.7002L63.2482 38.3746L62.937 37.1555L63.8967 36.3515L62.6517 36.2607Z" fill="url(#paint4_linear)"/>
<path d="M62.3929 48.3344L61.926 47.1672L61.4462 48.3344L60.2012 48.4252L61.1609 49.2293L60.8626 50.4483L61.926 49.774L62.9894 50.4483L62.6782 49.2293L63.6379 48.4252L62.3929 48.3344Z" fill="url(#paint5_linear)"/>
<path d="M63.7935 42.0318L63.2099 40.5923L62.6393 42.0318L61.083 42.1356L62.2761 43.1342L61.9 44.6385L63.2099 43.8215L64.5327 44.6385L64.1436 43.1342L65.3368 42.1356L63.7935 42.0318Z" fill="url(#paint6_linear)"/>
<path d="M24.0959 36.2607L24.5627 35.0935L25.0296 36.2607L26.2876 36.3515L25.3279 37.1555L25.6262 38.3746L24.5627 37.7002L23.4993 38.3746L23.8105 37.1555L22.8379 36.3515L24.0959 36.2607Z" fill="url(#paint7_linear)"/>
<path d="M24.3554 48.3344L24.8222 47.1672L25.3021 48.3344L26.5471 48.4252L25.5874 49.2293L25.8857 50.4483L24.8222 49.774L23.7588 50.4483L24.07 49.2293L23.1104 48.4252L24.3554 48.3344Z" fill="url(#paint8_linear)"/>
<path d="M22.9544 42.0318L23.538 40.5923L24.1086 42.0318L25.6649 42.1356L24.4718 43.1342L24.8479 44.6385L23.538 43.8215L22.2152 44.6385L22.6043 43.1342L21.4111 42.1356L22.9544 42.0318Z" fill="url(#paint9_linear)"/>
<path d="M44.5879 57.6458C52.9414 56.9796 59.1732 49.6676 58.507 41.3141C57.8407 32.9605 50.5287 26.7287 42.1752 27.395C33.8217 28.0612 27.5899 35.3732 28.2561 43.7267C28.9224 52.0803 36.2343 58.312 44.5879 57.6458Z" stroke="url(#paint10_linear)" stroke-miterlimit="10"/>
<defs>
<linearGradient id="paint0_linear" x1="61.6275" y1="13.0985" x2="27.1695" y2="68.4621" gradientUnits="userSpaceOnUse">
<stop stop-color="#FFF5A8"/>
<stop offset="0.31" stop-color="#BD8100"/>
<stop offset="0.76" stop-color="#E0BE58"/>
<stop offset="1" stop-color="#F1DC83"/>
</linearGradient>
<linearGradient id="paint1_linear" x1="24.3681" y1="78.7334" x2="56.349" y2="18.0008" gradientUnits="userSpaceOnUse">
<stop stop-color="#FFF5A8"/>
<stop offset="0.31" stop-color="#BD8100"/>
<stop offset="0.39" stop-color="#CA9922"/>
<stop offset="0.56" stop-color="#E7CA6A"/>
<stop offset="0.68" stop-color="#F8E997"/>
<stop offset="0.75" stop-color="#FFF5A8"/>
<stop offset="0.99" stop-color="#FBC01B"/>
</linearGradient>
<linearGradient id="paint2_linear" x1="63.8296" y1="30.1754" x2="21.9794" y2="55.7368" gradientUnits="userSpaceOnUse">
<stop offset="0.01" stop-color="#FBC01B"/>
<stop offset="0.25" stop-color="#FFF5A8"/>
<stop offset="0.32" stop-color="#F8E997"/>
<stop offset="0.44" stop-color="#E7CA6A"/>
<stop offset="0.61" stop-color="#CA9922"/>
<stop offset="0.69" stop-color="#BD8100"/>
<stop offset="1" stop-color="#FFF5A8"/>
</linearGradient>
<radialGradient id="paint3_radial" cx="0" cy="0" r="1" gradientUnits="userSpaceOnUse" gradientTransform="translate(43.3519 42.6773) scale(16.7297)">
<stop offset="0.89" stop-color="white" stop-opacity="0"/>
<stop offset="0.9" stop-color="#F8F7F4" stop-opacity="0.05"/>
<stop offset="0.92" stop-color="#C9BFAA" stop-opacity="0.39"/>
<stop offset="0.94" stop-color="#A49370" stop-opacity="0.66"/>
<stop offset="0.96" stop-color="#8A7446" stop-opacity="0.85"/>
<stop offset="0.98" stop-color="#7A612D" stop-opacity="0.96"/>
<stop offset="1" stop-color="#755B25"/>
</radialGradient>
<linearGradient id="paint4_linear" x1="220.68" y1="128.047" x2="229.821" y2="128.047" gradientUnits="userSpaceOnUse">
<stop stop-color="#FFF5A8"/>
<stop offset="0.31" stop-color="#BD8100"/>
<stop offset="0.39" stop-color="#CA9922"/>
<stop offset="0.56" stop-color="#E7CA6A"/>
<stop offset="0.68" stop-color="#F8E997"/>
<stop offset="0.75" stop-color="#FFF5A8"/>
<stop offset="0.99" stop-color="#FBC01B"/>
</linearGradient>
<linearGradient id="paint5_linear" x1="219.733" y1="170.635" x2="228.841" y2="170.635" gradientUnits="userSpaceOnUse">
<stop stop-color="#FFF5A8"/>
<stop offset="0.31" stop-color="#BD8100"/>
<stop offset="0.39" stop-color="#CA9922"/>
<stop offset="0.56" stop-color="#E7CA6A"/>
<stop offset="0.68" stop-color="#F8E997"/>
<stop offset="0.75" stop-color="#FFF5A8"/>
<stop offset="0.99" stop-color="#FBC01B"/>
</linearGradient>
<linearGradient id="paint6_linear" x1="261.435" y1="173.552" x2="275.387" y2="173.552" gradientUnits="userSpaceOnUse">
<stop stop-color="#FFF5A8"/>
<stop offset="0.31" stop-color="#BD8100"/>
<stop offset="0.39" stop-color="#CA9922"/>
<stop offset="0.56" stop-color="#E7CA6A"/>
<stop offset="0.68" stop-color="#F8E997"/>
<stop offset="0.75" stop-color="#FFF5A8"/>
<stop offset="0.99" stop-color="#FBC01B"/>
</linearGradient>
<linearGradient id="paint7_linear" x1="83.6213" y1="128.047" x2="92.763" y2="128.047" gradientUnits="userSpaceOnUse">
<stop stop-color="#FFF5A8"/>
<stop offset="0.31" stop-color="#BD8100"/>
<stop offset="0.39" stop-color="#CA9922"/>
<stop offset="0.56" stop-color="#E7CA6A"/>
<stop offset="0.68" stop-color="#F8E997"/>
<stop offset="0.75" stop-color="#FFF5A8"/>
<stop offset="0.99" stop-color="#FBC01B"/>
</linearGradient>
<linearGradient id="paint8_linear" x1="84.3526" y1="170.635" x2="93.4599" y2="170.635" gradientUnits="userSpaceOnUse">
<stop stop-color="#FFF5A8"/>
<stop offset="0.31" stop-color="#BD8100"/>
<stop offset="0.39" stop-color="#CA9922"/>
<stop offset="0.56" stop-color="#E7CA6A"/>
<stop offset="0.68" stop-color="#F8E997"/>
<stop offset="0.75" stop-color="#FFF5A8"/>
<stop offset="0.99" stop-color="#FBC01B"/>
</linearGradient>
<linearGradient id="paint9_linear" x1="91.6406" y1="173.552" x2="105.593" y2="173.552" gradientUnits="userSpaceOnUse">
<stop stop-color="#FFF5A8"/>
<stop offset="0.31" stop-color="#BD8100"/>
<stop offset="0.39" stop-color="#CA9922"/>
<stop offset="0.56" stop-color="#E7CA6A"/>
<stop offset="0.68" stop-color="#F8E997"/>
<stop offset="0.75" stop-color="#FFF5A8"/>
<stop offset="0.99" stop-color="#FBC01B"/>
</linearGradient>
<linearGradient id="paint10_linear" x1="846.357" y1="1336.22" x2="1239.96" y2="708.642" gradientUnits="userSpaceOnUse">
<stop stop-color="#FFF5A8"/>
<stop offset="0.31" stop-color="#BD8100"/>
<stop offset="0.76" stop-color="#E0BE58"/>
<stop offset="1" stop-color="#F1DC83"/>
</linearGradient>
</defs>
</svg>
