<svg width="48" height="48" viewBox="0 0 48 48" fill="none" xmlns="http://www.w3.org/2000/svg">
<circle cx="24" cy="24" r="24" fill="white"/>
<path d="M31.0952 14.0023C30.6962 13.9832 30.3005 14.0842 29.9594 14.2921C29.6182 14.4999 29.3471 14.8052 29.181 15.1686C29.0149 15.532 28.9615 15.9368 29.0275 16.3308C29.0936 16.7248 29.2762 17.09 29.5517 17.3793C29.8273 17.6686 30.1831 17.8688 30.5735 17.954C30.9638 18.0392 31.3707 18.0055 31.7417 17.8574C32.1128 17.7092 32.4309 17.4533 32.6552 17.1227C32.8794 16.792 32.9995 16.4018 33 16.0023C33.0006 15.4879 32.803 14.9931 32.4483 14.6207C32.0936 14.2482 31.609 14.0268 31.0952 14.0023Z" fill="url(#paint0_linear)"/>
<path d="M23.9195 16.0005C22.5386 16.0175 21.1932 16.4718 20.0527 17.3062C18.9122 18.1405 18.0275 19.3177 17.51 20.6896C16.9925 22.0615 16.8653 23.5667 17.1445 25.0158C17.4236 26.4649 18.0965 27.7932 19.0786 28.8335C20.0607 29.8738 21.3081 30.5796 22.6637 30.8621C24.0193 31.1445 25.4226 30.9911 26.697 30.421C27.9714 29.8509 29.06 28.8896 29.8256 27.6582C30.5913 26.4267 30.9999 24.9802 31 23.5005C31.0001 22.5083 30.8164 21.5259 30.4596 20.6103C30.1028 19.6947 29.5799 18.8641 28.9214 18.1665C28.2628 17.4689 27.4816 16.9183 26.623 16.5465C25.7645 16.1747 24.8455 15.9891 23.9195 16.0005ZM23.9195 28.3281C23.0284 28.3281 22.1572 28.0449 21.4163 27.5145C20.6753 26.984 20.0978 26.2301 19.7568 25.3479C19.4157 24.4658 19.3265 23.4951 19.5004 22.5587C19.6742 21.6222 20.1034 20.762 20.7335 20.0869C21.3636 19.4117 22.1665 18.9519 23.0405 18.7657C23.9145 18.5794 24.8205 18.675 25.6438 19.0404C26.4671 19.4058 27.1708 20.0245 27.6659 20.8184C28.161 21.6123 28.4253 22.5457 28.4253 23.5005C28.4253 24.7808 27.9506 26.0088 27.1056 26.9141C26.2606 27.8195 25.1145 28.3281 23.9195 28.3281Z" fill="url(#paint1_linear)"/>
<path d="M29.3164 38H17.6836C15.3872 37.9786 13.1909 37.0569 11.567 35.433C9.9431 33.8091 9.02136 31.6128 9 29.3164V17.6836C9.02136 15.3872 9.9431 13.1909 11.567 11.567C13.1909 9.9431 15.3872 9.02136 17.6836 9H29.3164C31.6128 9.02136 33.8091 9.9431 35.433 11.567C37.0569 13.1909 37.9786 15.3872 38 17.6836V29.3164C37.9786 31.6128 37.0569 33.8091 35.433 35.433C33.8091 37.0569 31.6128 37.9786 29.3164 38ZM17.6836 11.7034C16.0976 11.7034 14.5765 12.3334 13.455 13.455C12.3334 14.5765 11.7034 16.0976 11.7034 17.6836V29.3164C11.7034 30.9024 12.3334 32.4235 13.455 33.545C14.5765 34.6666 16.0976 35.2966 17.6836 35.2966H29.3164C30.9024 35.2966 32.4235 34.6666 33.545 33.545C34.6666 32.4235 35.2966 30.9024 35.2966 29.3164V17.6836C35.2966 16.0976 34.6666 14.5765 33.545 13.455C32.4235 12.3334 30.9024 11.7034 29.3164 11.7034H17.6836Z" fill="url(#paint2_linear)"/>
<defs>
<linearGradient id="paint0_linear" x1="30.7992" y1="18.4846" x2="33.2724" y2="15.1774" gradientUnits="userSpaceOnUse">
<stop offset="0.318117" stop-color="#3564AC"/>
<stop offset="1" stop-color="#3C7DE1"/>
</linearGradient>
<linearGradient id="paint1_linear" x1="23.2971" y1="32.8174" x2="32.7334" y2="21.0403" gradientUnits="userSpaceOnUse">
<stop offset="0.318117" stop-color="#3564AC"/>
<stop offset="1" stop-color="#3C7DE1"/>
</linearGradient>
<linearGradient id="paint2_linear" x1="22.044" y1="41.5136" x2="39.9749" y2="17.5364" gradientUnits="userSpaceOnUse">
<stop offset="0.318117" stop-color="#3564AC"/>
<stop offset="1" stop-color="#3C7DE1"/>
</linearGradient>
</defs>
</svg>
