<svg width="198" height="54" viewBox="0 0 198 54" fill="none" xmlns="http://www.w3.org/2000/svg">
<g filter="url(#filter0_d)">
<path d="M16.3986 32.3224C18.9353 33.6431 21.6443 34.2707 24.4584 33.8741C28.7981 33.2659 33.0627 33.4566 37.2498 34.78C39.6169 35.5273 41.9248 36.4638 44.2406 37.4241C40.3559 36.3553 36.4739 36.1716 32.6906 37.662C30.7575 38.426 28.994 39.6534 27.0964 40.5357C24.7675 41.6198 22.4438 42.811 20.0031 43.5054C16.1421 44.6062 9.98382 42.8541 7.14991 40.1377L12.3838 31.2718L7.01183 28.4134L12.435 19.2886L7 16.3885L13.0163 6.30768C13.2472 6.40622 13.4702 6.52443 13.683 6.66115C17.3375 9.56126 21.472 10.4032 25.9129 9.81871C29.9408 9.2899 33.8833 9.72547 37.7377 10.9779C40.018 11.7183 42.2456 12.6478 44.4733 13.5663C40.4401 12.4224 36.4108 12.2067 32.4683 13.7862C30.6128 14.5293 28.8927 15.6537 27.1109 16.6028C24.7228 17.8761 22.3873 19.3081 19.673 19.6727C18.5342 19.8258 17.3809 19.8411 15.8594 19.9441C16.438 20.3407 16.7181 20.6092 17.0429 20.7456C19.6467 21.8269 22.3031 22.2764 25.1278 21.8923C29.3267 21.3106 33.4967 21.614 37.5536 22.9625C39.8154 23.7167 42.0405 24.5906 44.2603 25.5119C40.3796 24.4584 36.5134 24.2706 32.7116 25.7151C31.1415 26.3134 29.7081 27.2876 28.1734 27.9987C25.4776 29.2428 22.7818 30.5147 20.0202 31.5612C18.9169 31.9787 17.6216 31.8312 16.4144 31.9397L16.3986 32.3224Z" fill="#1F60AB"/>
</g>
<path d="M88.9872 18.533V42.0901H83.681V23.3145C80.9194 23.4634 78.2709 23.3632 75.7079 23.8127C72.9042 24.304 71.075 27.0955 70.8501 30.4284C70.6226 33.824 72.0218 36.6309 74.7545 37.7066C76.201 38.2771 77.8106 38.4121 79.2559 38.7238C77.261 39.4266 74.6532 39.5004 73.763 42.5522C71.1329 41.5599 69.0025 39.9846 67.2338 37.1945V42.1542H49.8201V7.26788H55.0605V36.9662H66.9655C66.5973 35.7402 66.1344 34.5754 65.9017 33.3592C64.5998 26.5918 68.2608 20.2697 74.7124 19.2009C79.3611 18.4328 84.1597 18.7194 88.9872 18.533Z" fill="#27211F"/>
<path d="M120.869 6.07236C123.499 18.0611 126.13 30.0513 128.783 42.1513H123.728C122.271 35.1195 120.806 28.0445 119.473 21.6042L109.331 43.7531C105.858 36.0547 102.523 28.6485 99.1883 21.2535C97.7773 28.1837 96.3518 35.1863 94.925 42.1917H89.916C92.5185 30.0847 95.1012 18.0555 97.6853 6.03201L97.9483 6C101.746 14.6716 105.55 23.3553 109.361 32.051L120.6 6.0501L120.869 6.07236Z" fill="#27211F"/>
<path d="M196.608 34.3848C194.874 40.4466 188.296 43.9465 182.195 42.2181C177.284 40.8265 172.4 34.7549 174.11 27.2472C175.293 22.0551 180.531 16.8881 187.955 18.4425C190.929 19.0551 193.558 20.8747 195.281 23.5122C197.003 26.1496 197.683 29.3957 197.173 32.5562H179.288C179.791 35.0152 181.036 36.5918 183.092 37.4032C188.82 39.4335 191.038 34.3806 191.038 34.3806C191.63 34.4056 195.918 34.3848 196.608 34.3848ZM191.764 28.213C191.09 24.9051 188.396 22.808 185.067 22.943C182.339 23.0543 179.757 25.42 179.388 28.213H191.764Z" fill="#27211F"/>
<path d="M151.49 30.4451C151.481 37.1846 146.064 42.7482 139.574 42.6828C133.063 42.6174 127.809 37.1164 127.823 30.388C127.837 23.6596 133.14 18.2143 139.673 18.2366C146.206 18.2588 151.49 23.7459 151.49 30.4451ZM146.265 30.4743C146.265 26.2703 143.397 22.9736 139.711 22.9597C136.025 22.9457 133.069 26.2341 133.036 30.3852C133.002 34.5948 135.963 37.9736 139.683 37.9695C143.369 37.9597 146.256 34.6741 146.261 30.4743H146.265Z" fill="#27211F"/>
<path d="M154.158 24.1773H150.438V19.5599H154.12V11.0349H158.986V19.4945H162.536V24.1272H159.03V42.1597H154.157L154.158 24.1773Z" fill="#27211F"/>
<path d="M166.341 24.1759H162.843V19.5586H166.294V11.0378H171.171V19.4946H174.938V24.1216H171.215V42.161H166.339L166.341 24.1759Z" fill="#27211F"/>
<path d="M197.352 13.0139C197.352 14.0966 196.458 15.0359 195.412 15.0512C194.9 15.0512 194.41 14.8361 194.048 14.4533C193.686 14.0704 193.483 13.5511 193.483 13.0097C193.483 12.4683 193.686 11.949 194.048 11.5662C194.41 11.1833 194.9 10.9683 195.412 10.9683C196.464 10.9864 197.351 11.9312 197.352 13.0139ZM195.412 11.3064C194.989 11.3084 194.583 11.4855 194.282 11.8C193.981 12.1144 193.808 12.5412 193.801 12.9888C193.793 13.4365 193.951 13.8695 194.242 14.1951C194.532 14.5208 194.931 14.7132 195.354 14.7311C195.777 14.7292 196.183 14.552 196.484 14.2376C196.785 13.9231 196.958 13.4964 196.966 13.0487C196.973 12.601 196.815 12.168 196.525 11.8424C196.234 11.5167 195.835 11.3244 195.412 11.3064Z" fill="#27211F"/>
<path d="M194.648 12.1566H194.943V14.0862H194.648V12.1566ZM194.78 13.0128H195.493C195.545 13.0139 195.596 13.001 195.641 12.9752C195.684 12.9517 195.719 12.9153 195.741 12.8708C195.766 12.8224 195.778 12.7682 195.777 12.7135C195.778 12.6587 195.766 12.6045 195.741 12.5561C195.719 12.5116 195.685 12.4748 195.643 12.4503C195.597 12.425 195.545 12.4126 195.493 12.4141H194.78V12.1566H195.482C195.592 12.154 195.701 12.1773 195.801 12.2248C195.888 12.2667 195.962 12.335 196.014 12.4211C196.053 12.4858 196.079 12.5587 196.09 12.6349C196.1 12.7111 196.095 12.7888 196.075 12.8627C196.054 12.9366 196.019 13.0051 195.972 13.0634C195.924 13.1217 195.865 13.1686 195.799 13.2008C195.7 13.2486 195.592 13.2724 195.482 13.2704H194.78V13.0128ZM195.349 13.2105L195.641 13.1492L196.177 14.0862H195.828L195.349 13.2105Z" fill="#27211F"/>
<defs>
<filter id="filter0_d" x="0" y="0.307678" width="53.4733" height="53.5313" filterUnits="userSpaceOnUse" color-interpolation-filters="sRGB">
<feFlood flood-opacity="0" result="BackgroundImageFix"/>
<feColorMatrix in="SourceAlpha" type="matrix" values="0 0 0 0 0 0 0 0 0 0 0 0 0 0 0 0 0 0 127 0"/>
<feOffset dx="1" dy="2"/>
<feGaussianBlur stdDeviation="4"/>
<feColorMatrix type="matrix" values="0 0 0 0 1 0 0 0 0 1 0 0 0 0 1 0 0 0 1 0"/>
<feBlend mode="multiply" in2="BackgroundImageFix" result="effect1_dropShadow"/>
<feBlend mode="normal" in="SourceGraphic" in2="effect1_dropShadow" result="shape"/>
</filter>
</defs>
</svg>
