<svg width="24" height="30" viewBox="0 0 24 30" fill="none" xmlns="http://www.w3.org/2000/svg">
<path d="M20.4167 11.2118H19.4796V7.47451C19.4796 3.35232 16.117 0 11.9823 0C7.84751 0 4.48498 3.35232 4.48498 7.47451V11.2118H3.54781C1.99837 11.2118 0.736328 12.4687 0.736328 14.0147V27.0951C0.736328 28.6411 1.99837 29.898 3.54781 29.898H20.4167C21.9662 29.898 23.2282 28.6411 23.2282 27.0951V14.0147C23.2282 12.4687 21.9662 11.2118 20.4167 11.2118ZM6.98408 7.47451C6.98408 4.72638 9.22577 2.4915 11.9823 2.4915C14.7388 2.4915 16.9805 4.72638 16.9805 7.47451V11.2118H6.98408V7.47451ZM13.2318 20.8314V23.6693C13.2318 24.3569 12.6733 24.915 11.9823 24.915C11.2913 24.915 10.7327 24.3569 10.7327 23.6693V20.8314C9.98924 20.3992 9.48317 19.6044 9.48317 18.6863C9.48317 17.3122 10.604 16.1948 11.9823 16.1948C13.3605 16.1948 14.4814 17.3122 14.4814 18.6863C14.4814 19.6044 13.9753 20.3992 13.2318 20.8314Z" fill="white"/>
</svg>
