<svg width="558" height="148" viewBox="0 0 558 148" fill="none" xmlns="http://www.w3.org/2000/svg">
<g clip-path="url(#clip0)">
<path d="M565.785 52.8346H536.105V59.442H565.785V52.8346Z" fill="#3564AC"/>
<path fill-rule="evenodd" clip-rule="evenodd" d="M536.105 78.0973H565.785V71.442H541.063V68.6001H565.785V62.2831H536.105V78.0973Z" fill="#3564AC"/>
<path fill-rule="evenodd" clip-rule="evenodd" d="M532.684 71.4418H511C509.885 71.4418 509.1 71.1373 508.645 70.5283C508.189 69.9194 507.961 68.9383 507.961 67.585V63.2353C507.9 62.2448 508.145 61.2594 508.664 60.4128C509.149 59.7555 509.919 59.422 511.038 59.422H532.684V52.8346H508.664C507.963 52.8381 507.272 52.9948 506.639 53.2937C505.953 53.604 505.336 54.0458 504.821 54.5938C504.257 55.1958 503.813 55.8994 503.513 56.6672C503.173 57.5334 503.008 58.4582 503.028 59.3882V71.5868C503.016 72.5256 503.18 73.4584 503.513 74.3367C503.793 75.0881 504.219 75.7765 504.768 76.3618C505.279 76.8987 505.89 77.332 506.566 77.6377C507.233 77.9525 507.96 78.1175 508.698 78.121H532.718L532.684 71.4418Z" fill="#3564AC"/>
<path d="M499.583 52.8346H494.592V59.442H499.583V52.8346Z" fill="#3564AC"/>
<path d="M499.583 62.2831H494.592V78.0973H499.583V62.2831Z" fill="#3564AC"/>
<path fill-rule="evenodd" clip-rule="evenodd" d="M468.053 52.8346H462.257L474.793 78.0974H479.435L491.937 52.8346H486.142L477.1 70.8187L468.053 52.8346Z" fill="#3564AC"/>
<path fill-rule="evenodd" clip-rule="evenodd" d="M435.547 78.0977V68.6005H449.023L454.785 78.0977H460.27L454.838 68.6005H455.08C455.748 68.5982 456.408 68.4583 457.019 68.1897C457.647 67.9151 458.211 67.5136 458.676 67.0104C459.162 66.4791 459.553 65.8674 459.829 65.2027C460.127 64.4759 460.275 63.6969 460.265 62.9118V59.3449C460.274 58.4142 460.109 57.49 459.781 56.619C459.506 55.8581 459.079 55.1609 458.526 54.5697C458.01 54.0291 457.392 53.5955 456.708 53.2937C456.045 52.9908 455.325 52.8341 454.596 52.8346H430.609V59.4367H455.323V62.2883H430.609V78.1025L435.547 78.0977Z" fill="#3564AC"/>
<path d="M427.169 52.8346H397.489V59.442H427.169V52.8346Z" fill="#3564AC"/>
<path fill-rule="evenodd" clip-rule="evenodd" d="M397.489 78.0973H427.169V71.442H402.446V68.6001H427.169V62.2831H397.489V78.0973Z" fill="#3564AC"/>
<path fill-rule="evenodd" clip-rule="evenodd" d="M389.111 68.6007V71.5006H364.398V78.1077H388.423C389.154 78.0995 389.874 77.9347 390.536 77.6243C391.217 77.3213 391.833 76.8878 392.348 76.3484C392.897 75.7621 393.325 75.074 393.608 74.3232C393.938 73.4442 394.102 72.5118 394.092 71.5731V68.0062C394.102 67.2211 393.954 66.4421 393.656 65.7152C393.381 65.0496 392.991 64.4377 392.503 63.9076C392.039 63.4033 391.475 63.0016 390.846 62.7283C390.235 62.4587 389.575 62.3188 388.907 62.3175H369.345V59.4175H394.058V52.8347H370.038C369.304 52.8312 368.578 52.9879 367.911 53.2938C367.235 53.5995 366.624 54.0328 366.113 54.5698C365.56 55.1619 365.131 55.8588 364.853 56.6191C364.527 57.4908 364.363 58.4145 364.369 59.345V62.912C364.359 63.697 364.507 64.4761 364.805 65.2029C365.081 65.8676 365.471 66.4793 365.958 67.0106C366.422 67.5148 366.986 67.9166 367.615 68.1899C368.226 68.4595 368.886 68.5994 369.554 68.6007H389.111Z" fill="#3564AC"/>
<path fill-rule="evenodd" clip-rule="evenodd" d="M316.833 71.4422V52.8346H311.875V78.0974H341.555V71.4422H316.833Z" fill="#3564AC"/>
<path fill-rule="evenodd" clip-rule="evenodd" d="M308.454 59.3882C308.474 58.4582 308.309 57.5334 307.97 56.6672C307.669 55.8994 307.225 55.1958 306.661 54.5938C306.147 54.0458 305.529 53.604 304.844 53.2937C304.212 52.9954 303.522 52.8387 302.823 52.8346H284.429C283.73 52.8387 283.04 52.9954 282.408 53.2937C281.723 53.604 281.106 54.0458 280.591 54.5938C280.027 55.1958 279.583 55.8994 279.283 56.6672C278.935 57.5318 278.762 58.4566 278.774 59.3882V71.5868C278.764 72.5254 278.928 73.4577 279.259 74.3367C279.542 75.0875 279.97 75.7755 280.519 76.3618C281.03 76.8987 281.64 77.332 282.316 77.6377C282.981 77.9519 283.708 78.1169 284.444 78.121H302.814C303.543 78.1133 304.262 77.9485 304.922 77.6377C305.606 77.336 306.223 76.9024 306.739 76.3618C307.287 75.7755 307.716 75.0875 307.999 74.3367C308.329 73.4577 308.493 72.5254 308.483 71.5868V59.3882H308.454ZM301.898 55.3719C302.493 55.3259 303.089 55.4594 303.607 55.7549C304.126 56.0505 304.543 56.4946 304.805 57.0297C305.372 58.1316 305.653 59.712 305.653 61.7612V69.0542C305.653 71.2146 305.377 72.8288 304.829 73.9114C304.566 74.4344 304.153 74.8673 303.642 75.1549C303.131 75.4424 302.546 75.5715 301.961 75.5257H285.287C283.93 75.5257 282.97 75.0134 282.418 73.9888C281.866 72.9642 281.589 71.3209 281.589 69.0542V61.7612C281.589 59.712 281.875 58.1316 282.442 57.0297C282.704 56.4942 283.121 56.0497 283.64 55.7541C284.158 55.4584 284.754 55.3253 285.35 55.3719H301.898Z" fill="#3564AC"/>
<path fill-rule="evenodd" clip-rule="evenodd" d="M275.115 64.8604C275.116 66.894 274.688 68.9051 273.858 70.7629C273.029 72.6207 271.817 74.2837 270.301 75.6438C268.785 77.004 266.999 78.0308 265.06 78.6577C263.12 79.2847 261.07 79.4976 259.042 79.2827C259.493 77.8569 260.142 75.9333 260.85 74.2223C262.187 70.9985 261.867 71.8685 266.228 70.2542C270.59 68.6399 269.708 62.8159 268.215 60.3365C266.723 57.857 267.101 64.8604 263.99 64.8604C260.879 64.8604 258.398 60.3365 260.598 58.4805C262.798 56.6245 261.891 53.7681 256.808 56.494C251.725 59.22 252.932 63.3137 254.444 67.0305C255.897 70.6457 252.505 76.4214 252.297 76.7501C250.245 75.3253 248.596 73.3968 247.51 71.1508C246.423 68.9049 245.936 66.4174 246.095 63.9287C246.254 61.44 247.053 59.0343 248.417 56.9439C249.78 54.8534 251.661 53.149 253.877 51.9953C256.094 50.8416 258.571 50.2776 261.07 50.3578C263.569 50.4379 266.005 51.1596 268.142 52.4529C270.28 53.7463 272.047 55.5677 273.273 57.7411C274.498 59.9146 275.141 62.3666 275.14 64.8604H275.115Z" fill="#ECDB13"/>
<path fill-rule="evenodd" clip-rule="evenodd" d="M217.534 78.0977V68.6005H237.048C237.716 68.5991 238.376 68.4592 238.986 68.1897C239.616 67.918 240.181 67.5161 240.643 67.0104C241.132 66.4803 241.522 65.8683 241.797 65.2027C242.094 64.4759 242.243 63.6969 242.233 62.9118V59.3449C242.241 58.4142 242.077 57.49 241.748 56.619C241.47 55.8587 241.042 55.1618 240.488 54.5697C239.974 54.0303 239.358 53.5968 238.676 53.2937C238.013 52.9913 237.292 52.8347 236.563 52.8346H212.553V59.4367H237.266V62.2883H212.553V78.1025L217.534 78.0977Z" fill="#3564AC"/>
<path d="M288.97 99.0226L290.884 98.8535C290.94 99.5229 291.156 100.169 291.514 100.738C291.906 101.272 292.442 101.685 293.06 101.927C293.803 102.239 294.603 102.394 295.41 102.381C296.11 102.393 296.806 102.277 297.464 102.038C297.99 101.851 298.45 101.515 298.787 101.072C299.067 100.692 299.218 100.233 299.218 99.762C299.222 99.32 299.077 98.8895 298.807 98.5394C298.435 98.1211 297.958 97.8092 297.426 97.6357C296.529 97.3416 295.619 97.0932 294.697 96.8914C293.677 96.6812 292.684 96.357 291.737 95.9249C291.073 95.6059 290.508 95.1152 290.099 94.5041C289.736 93.9356 289.547 93.2739 289.556 92.6C289.557 91.8294 289.787 91.0762 290.215 90.435C290.688 89.7377 291.365 89.2028 292.153 88.903C293.037 88.5554 293.98 88.3815 294.93 88.3908C295.96 88.3688 296.983 88.5546 297.939 88.9369C298.755 89.2597 299.454 89.8206 299.945 90.5461C300.415 91.267 300.675 92.1033 300.696 92.9625L298.758 93.1074C298.736 92.69 298.631 92.2812 298.447 91.9052C298.264 91.5291 298.007 91.1936 297.692 90.9183C296.914 90.3724 295.971 90.1112 295.022 90.1789C293.791 90.1789 292.9 90.4012 292.338 90.8506C292.079 91.0361 291.868 91.2798 291.721 91.5619C291.575 91.844 291.497 92.1567 291.494 92.4744C291.488 92.7298 291.538 92.9835 291.641 93.2174C291.744 93.4513 291.897 93.6597 292.09 93.8275C292.483 94.1851 293.5 94.5476 295.153 94.9197C296.31 95.1412 297.445 95.4647 298.545 95.8862C299.337 96.2118 300.022 96.7526 300.522 97.4472C300.953 98.09 301.176 98.8489 301.162 99.6219C301.16 100.441 300.916 101.241 300.459 101.922C299.967 102.665 299.268 103.248 298.448 103.599C297.518 104.012 296.51 104.218 295.492 104.203C294.3 104.239 293.112 104.032 292.003 103.594C291.101 103.223 290.331 102.59 289.794 101.777C289.262 100.956 288.976 100 288.97 99.0226Z" fill="#3564AC"/>
<path d="M315.239 96.479C315.239 93.9432 315.922 91.9551 317.289 90.5148C317.968 89.803 318.791 89.2429 319.703 88.8714C320.615 88.4998 321.595 88.3252 322.58 88.3592C323.93 88.3316 325.261 88.6761 326.428 89.3548C327.554 90.0187 328.458 91.001 329.025 92.1774C329.637 93.4578 329.944 94.8623 329.921 96.2808C329.946 97.7251 329.622 99.1542 328.976 100.447C328.394 101.624 327.464 102.594 326.311 103.226C325.173 103.862 323.89 104.195 322.585 104.193C321.22 104.215 319.877 103.853 318.708 103.149C317.589 102.467 316.692 101.477 316.126 100.297C315.54 99.1093 315.236 97.8028 315.239 96.479ZM317.332 96.5128C317.332 98.3559 317.828 99.8059 318.82 100.863C319.305 101.368 319.889 101.769 320.534 102.044C321.179 102.318 321.874 102.46 322.575 102.46C323.277 102.46 323.971 102.318 324.617 102.044C325.262 101.769 325.845 101.368 326.331 100.863C327.319 99.7898 327.813 98.2689 327.813 96.3002C327.837 95.18 327.621 94.0678 327.179 93.0377C326.792 92.1506 326.147 91.3997 325.328 90.8821C324.51 90.3687 323.561 90.1019 322.595 90.1137C321.911 90.1002 321.231 90.2213 320.594 90.4701C319.957 90.7189 319.376 91.0905 318.883 91.5636C317.846 92.5593 317.329 94.209 317.332 96.5128Z" fill="#3564AC"/>
<path d="M344.531 103.932V88.6349H354.877V90.4377H346.562V95.155H353.758V96.9626H346.562V103.913L344.531 103.932Z" fill="#3564AC"/>
<path d="M372.946 103.932V90.4377H367.882V88.6349H380.04V90.4377H374.967V103.932H372.946Z" fill="#3564AC"/>
<path d="M396.317 103.932L392.247 88.6358H394.33L396.69 98.6595C396.937 99.7131 397.175 100.757 397.335 101.791C397.727 100.158 397.955 99.2153 398.028 98.964L400.935 88.6358H403.358L405.558 96.3686C406.076 98.146 406.474 99.956 406.75 101.786C406.944 100.82 407.199 99.7099 407.515 98.4565L409.938 88.6309H411.978L407.772 103.928H405.834L402.573 92.2557C402.301 91.2891 402.142 90.685 402.088 90.4626C401.928 91.1634 401.778 91.7627 401.638 92.2557L398.386 103.913L396.317 103.932Z" fill="#3564AC"/>
<path d="M422.9 103.932L428.792 88.6349H430.978L437.277 103.932H434.961L433.173 99.2971H426.733L425.047 103.932H422.9ZM427.329 97.649H432.548L430.944 93.4102C430.459 92.1213 430.097 91.0644 429.858 90.2395C429.659 91.2264 429.382 92.1961 429.03 93.1395L427.329 97.649Z" fill="#3564AC"/>
<path d="M449.634 103.931V88.6344H456.418C457.473 88.5886 458.527 88.7277 459.534 89.0452C460.251 89.3218 460.852 89.833 461.24 90.4951C461.665 91.1889 461.886 91.9876 461.879 92.8006C461.903 93.8187 461.524 94.8052 460.823 95.5458C460.115 96.2901 459.03 96.7638 457.557 96.9668C457.999 97.1621 458.411 97.4175 458.783 97.7256C459.427 98.3319 459.993 99.0154 460.469 99.7604L463.134 103.927H460.581L458.55 100.741C457.959 99.8232 457.475 99.1208 457.097 98.6342C456.809 98.2403 456.461 97.8945 456.065 97.6096C455.781 97.4239 455.468 97.2867 455.139 97.2036C454.766 97.1447 454.388 97.1204 454.01 97.1311H451.655V103.927L449.634 103.931ZM451.66 95.3815H456.021C456.757 95.4101 457.493 95.3136 458.197 95.0963C458.685 94.9309 459.105 94.6078 459.389 94.178C459.656 93.7701 459.798 93.2928 459.796 92.8054C459.805 92.4682 459.739 92.1332 459.603 91.8246C459.466 91.5161 459.262 91.2419 459.006 91.0219C458.478 90.5386 457.649 90.3211 456.51 90.3211H451.665L451.66 95.3815Z" fill="#3564AC"/>
<path d="M477.022 103.932V88.6349H488.114V90.4377H479.067V95.1212H487.552V96.9191H479.067V102.125H488.483V103.932H477.022Z" fill="#3564AC"/>
<path d="M519.62 95.0281H503.765V97.5187H519.62V95.0281Z" fill="#3564AC"/>
<path d="M273.138 95.0281H257.283V97.5187H273.138V95.0281Z" fill="#3564AC"/>
<path fill-rule="evenodd" clip-rule="evenodd" d="M39.1725 0.00012207H133.604C138.225 0.0127834 142.653 1.84919 145.92 5.10805C149.187 8.3669 151.028 12.7832 151.041 17.3919V111.581C151.028 116.19 149.187 120.606 145.92 123.865C142.653 127.124 138.225 128.96 133.604 128.973H39.1725C34.5519 128.96 30.1242 127.124 26.8569 123.865C23.5897 120.606 21.7485 116.19 21.7358 111.581V17.3919C21.7485 12.7832 23.5897 8.3669 26.8569 5.10805C30.1242 1.84919 34.5519 0.0127834 39.1725 0.00012207ZM46.7821 10.3968C42.9074 10.4082 39.1947 11.9485 36.4549 14.6813C33.715 17.4141 32.1708 21.1172 32.1593 24.9819V103.991C32.1708 107.856 33.715 111.559 36.4549 114.292C39.1947 117.024 42.9074 118.565 46.7821 118.576H125.995C129.87 118.565 133.582 117.024 136.322 114.292C139.062 111.559 140.606 107.856 140.618 103.991V24.9819C140.606 21.1172 139.062 17.4141 136.322 14.6813C133.582 11.9485 129.87 10.4082 125.995 10.3968H46.7821Z" fill="#BBBCBE"/>
<path fill-rule="evenodd" clip-rule="evenodd" d="M23.0251 56.1916C-9.54888 101.232 105.821 51.8736 170.787 75.2864L155.981 90.2649C68.0044 61.968 -21.8868 103.348 23.0251 48.3905V56.1916Z" fill="#91BD40"/>
<path fill-rule="evenodd" clip-rule="evenodd" d="M17.7917 79.1288C53.9204 100.728 114.913 73.6258 170.806 105.554L153.393 116.944C82.353 87.0354 8.66214 96.0838 17.7917 79.1288Z" fill="#ECDB13"/>
<path fill-rule="evenodd" clip-rule="evenodd" d="M12.6879 77.0342C-14.3497 107.773 190.527 104.309 91.8575 148.721C91.5977 109.37 -34.5858 97.9423 12.6879 77.0342Z" fill="#3564AC"/>
<path fill-rule="evenodd" clip-rule="evenodd" d="M130.549 52.2095V55.5677L124.527 55.6829L119.087 63.2294H129.736C130.582 63.2272 131.418 63.0474 132.19 62.7016C132.983 62.3504 133.699 61.8466 134.296 61.2192C134.926 60.5368 135.416 59.7382 135.739 58.8684C136.12 57.8501 136.306 56.7696 136.288 55.6829V51.533C136.3 50.6218 136.127 49.7175 135.778 48.8752C135.461 48.1035 135.01 47.3937 134.446 46.7787C133.907 46.1923 133.252 45.7249 132.522 45.4066C131.808 45.091 131.036 44.9276 130.256 44.9269H107.624V41.5686H130.949L136.302 33.8926H108.433C107.581 33.8901 106.739 34.0717 105.965 34.4251C105.18 34.7804 104.471 35.2838 103.877 35.9076C103.237 36.6 102.745 37.4165 102.434 38.3063C102.058 39.3159 101.872 40.3861 101.886 41.4631V44.4519C104.921 45.6561 106.35 49.2494 106.35 52.2047H130.564L130.549 52.2095Z" fill="#3564AC"/>
<path fill-rule="evenodd" clip-rule="evenodd" d="M42.9868 63.2253V52.1905H65.6279C66.4099 52.1894 67.1831 52.026 67.8983 51.7107C68.6277 51.3907 69.2828 50.9235 69.8223 50.3386C69.9806 50.1672 70.1299 49.9879 70.2697 49.8012C69.9096 49.3201 69.6107 48.7964 69.3798 48.2419C69.0434 47.3968 68.8798 46.4931 68.8988 45.584V41.4579C68.8849 40.3809 69.0708 39.3106 69.4472 38.301C69.6551 37.7226 69.933 37.1716 70.2745 36.6602C70.0907 36.3952 69.8865 36.145 69.6636 35.9117C69.0658 35.2843 68.3499 34.7805 67.5568 34.4292C66.7879 34.0802 65.9532 33.8987 65.1084 33.8967H44.3336L37.2339 41.5731H65.9117V44.8691H37.2339V63.2157L42.9868 63.2253Z" fill="#91BD40"/>
<path fill-rule="evenodd" clip-rule="evenodd" d="M99.1352 52.2096V55.5681H76.292L70.4766 63.2447H98.3463C99.1906 63.2424 100.025 63.0626 100.795 62.7169C101.588 62.3656 102.304 61.8618 102.902 61.2344C103.533 60.5529 104.023 59.7541 104.345 58.8834C104.721 57.8641 104.906 56.7839 104.888 55.6976V51.5331C104.899 50.6224 104.728 49.7186 104.383 48.8751C104.065 48.1031 103.612 47.3933 103.046 46.7785C102.513 46.1977 101.865 45.7336 101.143 45.4157C100.421 45.0977 99.6407 44.9328 98.8514 44.9313H76.2295V41.5728L97.9904 41.4577L102.695 33.9059H77.0424C76.1893 33.9032 75.3459 34.0849 74.57 34.4384C73.7854 34.7948 73.0767 35.298 72.4824 35.9209C71.8449 36.6159 71.3541 37.4317 71.0393 38.3199C70.663 39.3295 70.4771 40.3998 70.491 41.4768V45.6174C70.4812 46.5285 70.6545 47.4323 71.0009 48.2754C71.3192 49.0474 71.7719 49.7572 72.3381 50.372C72.8763 50.9585 73.5317 51.4259 74.2621 51.7442C74.9755 52.0599 75.7472 52.2233 76.5277 52.224L99.1352 52.2096Z" fill="#ECDB13"/>
<path fill-rule="evenodd" clip-rule="evenodd" d="M118.732 55.674H123.003L117.673 63.2242H113.287L118.732 55.674Z" fill="#ECDB13"/>
<path fill-rule="evenodd" clip-rule="evenodd" d="M114.854 55.674H117.514L112.185 63.2242H109.414L114.854 55.674Z" fill="#91BD40"/>
</g>
<defs>
<clipPath id="clip0">
<rect width="558" height="148" fill="white"/>
</clipPath>
</defs>
</svg>
