<svg width="76" height="55" viewBox="0 0 76 55" fill="none" xmlns="http://www.w3.org/2000/svg">
<g filter="url(#filter0_d)">
<path d="M61.6362 6.79199H12.3224C9.38292 6.79199 7 9.17492 7 12.1144V39.237C7 42.1764 9.38292 44.5594 12.3224 44.5594H61.6362C64.5756 44.5594 66.9586 42.1764 66.9586 39.237V12.1144C66.9586 9.17492 64.5756 6.79199 61.6362 6.79199Z" fill="#003473"/>
</g>
<path fill-rule="evenodd" clip-rule="evenodd" d="M46.6461 39.5956L47.4064 39.487H48.1668L48.8185 39.3783L49.5788 39.2697L50.2305 39.0525L50.8823 38.9439L51.534 38.7266L52.1857 38.4008L52.8374 38.1835L53.4892 37.8576L54.0323 37.5318L54.5754 37.0973L55.1185 36.7714L55.6616 36.337L56.2047 35.9025L56.7478 35.3594L57.1823 34.9249L57.6167 34.3818L58.0512 33.8387L58.3771 33.2956L58.8116 32.7525L59.1374 32.1008L59.4633 31.5577L59.7892 30.9059L60.0064 30.2542L60.2236 29.6025L60.4409 28.9508L60.5495 28.1904L60.6581 27.5387L60.7667 26.7783L60.8754 26.1266V25.3663V24.6059L60.7667 23.9542L60.6581 23.1939L60.5495 22.5421L60.4409 21.8904L60.2236 21.2387L60.0064 20.587L59.7892 19.9353L59.4633 19.2835L59.1374 18.6318L58.8116 18.0887L58.3771 17.5456L58.0512 16.8939L57.6167 16.4594L57.1823 15.9163L56.7478 15.3732L56.2047 14.9387L55.6616 14.5042L55.1185 14.0697L54.5754 13.6353L54.0323 13.3094L53.4892 12.9835L52.8374 12.6577L52.1857 12.3318L51.534 12.1146L50.8823 11.8973L50.2305 11.6801L49.5788 11.5715L48.8185 11.4628L48.1668 11.3542L47.4064 11.2456H46.6461H45.9943L45.234 11.3542L44.5823 11.4628L43.8219 11.5715L43.1702 11.6801L42.5185 11.8973L41.8668 12.1146L41.215 12.3318L40.5633 12.6577L39.9116 12.9835L39.3685 13.3094L38.8254 13.6353L38.2823 14.0697L37.7392 14.5042L37.1961 14.9387L36.653 15.3732L36.2185 15.9163L35.784 16.4594L35.3495 16.8939L35.0237 17.5456L34.5892 18.0887L34.2633 18.6318L33.9375 19.2835L33.7202 19.9353L33.3944 20.587L33.1771 21.2387L33.0685 21.8904L32.8513 22.5421L32.7426 23.1939L32.634 23.9542V24.6059L32.5254 25.3663L32.634 26.1266V26.7783L32.7426 27.5387L32.8513 28.1904L33.0685 28.9508L33.1771 29.6025L33.3944 30.2542L33.7202 30.9059L33.9375 31.5577L34.2633 32.1008L34.5892 32.7525L35.0237 33.2956L35.3495 33.8387L35.784 34.3818L36.2185 34.9249L36.653 35.3594L37.1961 35.9025L37.7392 36.337L38.2823 36.7714L38.8254 37.0973L39.3685 37.5318L39.9116 37.8576L40.5633 38.1835L41.215 38.4008L41.8668 38.7266L42.5185 38.9439L43.1702 39.0525L43.8219 39.2697L44.5823 39.3783L45.234 39.487H45.9943L46.6461 39.5956Z" fill="#F9B41D"/>
<path fill-rule="evenodd" clip-rule="evenodd" d="M27.7457 39.5956L28.506 39.487H29.2664L29.9181 39.3783L30.5698 39.2697L31.3302 39.0525L31.9819 38.9439L32.6336 38.7266L33.2853 38.4008L33.937 38.1835L34.4802 37.8576L35.1319 37.5318L35.675 37.0973L36.2181 36.7714L36.7612 36.337L37.3043 35.9025L37.7388 35.3594L38.1733 34.9249L38.6077 34.3818L39.0422 33.8387L39.4767 33.2956L39.8026 32.7525L40.1284 32.1008L40.4543 31.5577L40.7801 30.9059L40.9974 30.2542L41.2146 29.6025L41.4319 28.9508L41.5405 28.1904L41.7577 27.5387V26.7783L41.8664 26.1266V25.3663V24.6059L41.7577 23.9542V23.1939L41.5405 22.5421L41.4319 21.8904L41.2146 21.2387L40.9974 20.587L40.7801 19.9353L40.4543 19.2835L40.1284 18.6318L39.8026 18.0887L39.4767 17.5456L39.0422 16.8939L38.6077 16.4594L38.1733 15.9163L37.7388 15.3732L37.3043 14.9387L36.7612 14.5042L36.2181 14.0697L35.675 13.6353L35.1319 13.3094L34.4802 12.9835L33.937 12.6577L33.2853 12.3318L32.6336 12.1146L31.9819 11.8973L31.3302 11.6801L30.5698 11.5715L29.9181 11.4628L29.2664 11.3542L28.506 11.2456H27.7457H26.9853L26.3336 11.3542L25.5733 11.4628L24.9215 11.5715L24.2698 11.6801L23.5095 11.8973L22.8577 12.1146L22.206 12.3318L21.6629 12.6577L21.0112 12.9835L20.4681 13.3094L19.8164 13.6353L19.2733 14.0697L18.7302 14.5042L18.2957 14.9387L17.7526 15.3732L17.3181 15.9163L16.8836 16.4594L16.4491 16.8939L16.0147 17.5456L15.6888 18.0887L15.3629 18.6318L15.0371 19.2835L14.7112 19.9353L14.494 20.587L14.2767 21.2387L14.0595 21.8904L13.8422 22.5421L13.7336 23.1939L13.625 23.9542V24.6059V25.3663V26.1266V26.7783L13.7336 27.5387L13.8422 28.1904L14.0595 28.9508L14.2767 29.6025L14.494 30.2542L14.7112 30.9059L15.0371 31.5577L15.3629 32.1008L15.6888 32.7525L16.0147 33.2956L16.4491 33.8387L16.8836 34.3818L17.3181 34.9249L17.7526 35.3594L18.2957 35.9025L18.7302 36.337L19.2733 36.7714L19.8164 37.0973L20.4681 37.5318L21.0112 37.8576L21.6629 38.1835L22.206 38.4008L22.8577 38.7266L23.5095 38.9439L24.2698 39.0525L24.9215 39.2697L25.5733 39.3783L26.3336 39.487H26.9853L27.7457 39.5956Z" fill="#E30520"/>
<path fill-rule="evenodd" clip-rule="evenodd" d="M35.5674 16.6766H43.0622V15.9163H36.2191L35.5674 16.6766Z" fill="#F9B41D"/>
<path fill-rule="evenodd" clip-rule="evenodd" d="M34.4805 18.4146H43.0615V17.6543H34.915L34.4805 18.4146Z" fill="#F9B41D"/>
<path fill-rule="evenodd" clip-rule="evenodd" d="M33.6113 20.1524H43.0613V19.2834H33.9372L33.6113 20.1524Z" fill="#F9B41D"/>
<path fill-rule="evenodd" clip-rule="evenodd" d="M33.0693 21.7816H43.0624V21.0212H33.2866L33.0693 21.7816Z" fill="#F9B41D"/>
<path fill-rule="evenodd" clip-rule="evenodd" d="M33.394 30.037H43.0612V29.2766H33.1768L33.394 30.037Z" fill="#F9B41D"/>
<path fill-rule="evenodd" clip-rule="evenodd" d="M34.0456 31.7747H43.0611V31.0144H33.7197L34.0456 31.7747Z" fill="#F9B41D"/>
<path fill-rule="evenodd" clip-rule="evenodd" d="M35.132 33.5128H43.0613V32.7524H34.5889L35.132 33.5128Z" fill="#F9B41D"/>
<path fill-rule="evenodd" clip-rule="evenodd" d="M36.4359 35.1422H43.0618V34.3818H35.7842L36.4359 35.1422Z" fill="#F9B41D"/>
<path fill-rule="evenodd" clip-rule="evenodd" d="M32.7422 23.5199H43.0611V22.7595H32.8508L32.7422 23.5199Z" fill="#F9B41D"/>
<path fill-rule="evenodd" clip-rule="evenodd" d="M39.043 28.4075H42.9533V27.5386H39.1516L39.043 28.4075Z" fill="#F9B41D"/>
<path fill-rule="evenodd" clip-rule="evenodd" d="M39.3691 26.6698H42.9536V25.9094H39.4778L39.3691 26.6698Z" fill="#F9B41D"/>
<path fill-rule="evenodd" clip-rule="evenodd" d="M32.416 25.9094H33.5022V26.6698H32.5246L32.416 25.9094Z" fill="#F9B41D"/>
<path fill-rule="evenodd" clip-rule="evenodd" d="M30.4621 24.9319H30.3535H30.2449H30.1362H30.0276L29.919 24.8233H29.8104H29.7018H29.5931H29.4845H29.3759L29.1587 24.9319H29.05H28.9414H28.8328V25.0405H28.7242L28.6155 25.1491V25.2577V25.3664V25.475V25.5836H28.7242L28.8328 25.6922L28.9414 25.8008H29.05L29.1587 25.9095H29.3759L29.4845 26.0181H29.7018L29.8104 26.1267H29.919L30.1362 26.2353L30.2449 26.344L30.3535 26.5612V26.6698L30.4621 26.8871V27.2129V27.5388L30.3535 27.756V27.8646L30.2449 28.0819L30.1362 28.2991L30.0276 28.4077L29.919 28.5164L29.8104 28.625L29.7018 28.7336H29.4845L29.3759 28.8422H29.1587L29.05 28.9508H28.8328H28.7242H28.5069H28.3983H28.1811H27.9638H27.8552H27.638H27.5293H27.4207H27.3121H27.2035H27.0949H26.9862L26.8776 28.8422H26.769H26.6604H26.5518V28.7336L26.6604 27.756H26.769H26.8776H26.9862H27.0949V27.8646H27.2035H27.3121H27.5293H27.638H27.7466L27.8552 27.9733H27.9638H28.1811H28.2897H28.3983L28.5069 27.8646H28.6155L28.7242 27.756H28.8328V27.6474H28.9414V27.5388V27.4302V27.3215V27.2129L28.8328 27.1043L28.7242 26.9957H28.6155L28.3983 26.8871L28.1811 26.7784H28.0724L27.8552 26.6698L27.638 26.5612L27.5293 26.4526L27.3121 26.2353L27.2035 26.1267L27.0949 25.9095V25.5836V25.2577V25.1491L27.2035 24.9319V24.8233L27.3121 24.606V24.4974L27.4207 24.3888L27.5293 24.2802L27.638 24.1715L27.7466 24.0629L27.9638 23.9543H28.0724L28.2897 23.8457H28.5069L28.7242 23.7371H29.05H29.2673H29.4845H29.5931H29.8104H29.919H30.0276H30.1362L30.2449 23.8457H30.3535H30.4621H30.5707H30.6793H30.788L30.4621 24.9319Z" fill="white"/>
<path d="M30.4621 24.9319H30.3535H30.2449H30.1362H30.0276L29.919 24.8233H29.8104H29.7018H29.5931H29.4845H29.3759L29.1587 24.9319H29.05H28.9414H28.8328V25.0405H28.7242L28.6155 25.1491V25.2577V25.3664V25.475V25.5836H28.7242L28.8328 25.6922L28.9414 25.8008H29.05L29.1587 25.9095H29.3759L29.4845 26.0181H29.7018L29.8104 26.1267H29.919L30.1362 26.2353L30.2449 26.344L30.3535 26.5612V26.6698L30.4621 26.8871V27.2129V27.5388L30.3535 27.756V27.8646L30.2449 28.0819L30.1362 28.2991L30.0276 28.4077L29.919 28.5164L29.8104 28.625L29.7018 28.7336H29.4845L29.3759 28.8422H29.1587L29.05 28.9508H28.8328H28.7242H28.5069H28.3983H28.1811H27.9638H27.8552H27.638H27.5293H27.4207H27.3121H27.2035H27.0949H26.9862L26.8776 28.8422H26.769H26.6604H26.5518V28.7336L26.6604 27.756H26.769H26.8776H26.9862H27.0949V27.8646H27.2035H27.3121H27.5293H27.638H27.7466L27.8552 27.9733H27.9638H28.1811H28.2897H28.3983L28.5069 27.8646H28.6155L28.7242 27.756H28.8328V27.6474H28.9414V27.5388V27.4302V27.3215V27.2129L28.8328 27.1043L28.7242 26.9957H28.6155L28.3983 26.8871L28.1811 26.7784H28.0724L27.8552 26.6698L27.638 26.5612L27.5293 26.4526L27.3121 26.2353L27.2035 26.1267L27.0949 25.9095V25.5836V25.2577V25.1491L27.2035 24.9319V24.8233L27.3121 24.606V24.4974L27.4207 24.3888L27.5293 24.2802L27.638 24.1715L27.7466 24.0629L27.9638 23.9543H28.0724L28.2897 23.8457H28.5069L28.7242 23.7371H29.05H29.2673H29.4845H29.5931H29.8104H29.919H30.0276H30.1362L30.2449 23.8457H30.3535H30.4621H30.5707H30.6793H30.788L30.4621 24.9319Z" stroke="white" stroke-width="0.12" stroke-miterlimit="2.61"/>
<path fill-rule="evenodd" clip-rule="evenodd" d="M31.6563 22.6506H32.9597L32.7425 23.8455H33.6115L33.3942 24.9317H32.5253L32.0908 27.5386V27.6472V27.7558H32.1994V27.8644H32.308L32.4166 27.973H32.5253H32.6339H32.7425H32.8511L32.9597 27.8644H33.0684H33.177L32.9597 28.7334H32.8511V28.842H32.7425H32.6339L32.5253 28.9506H32.4166H32.308H32.1994H31.7649H31.6563H31.4391H31.3304L31.1132 28.842H31.0046V28.7334H30.896L30.7873 28.6248V28.5161L30.6787 28.4075V28.2989V28.1903V28.0817V27.973V27.8644L31.6563 22.6506Z" fill="white"/>
<path d="M31.6563 22.6506H32.9597L32.7425 23.8455H33.6115L33.3942 24.9317H32.5253L32.0908 27.5386V27.6472V27.7558H32.1994V27.8644H32.308L32.4166 27.973H32.5253H32.6339H32.7425H32.8511L32.9597 27.8644H33.0684H33.177L32.9597 28.7334H32.8511V28.842H32.7425H32.6339L32.5253 28.9506H32.4166H32.308H32.1994H31.7649H31.6563H31.4391H31.3304L31.1132 28.842H31.0046V28.7334H30.896L30.7873 28.6248V28.5161L30.6787 28.4075V28.2989V28.1903V28.0817V27.973V27.8644L31.6563 22.6506Z" stroke="white" stroke-width="0.12" stroke-miterlimit="2.61"/>
<path fill-rule="evenodd" clip-rule="evenodd" d="M34.5888 26.7784V26.8871V26.9957V27.1043L34.6974 27.2129V27.3215L34.8061 27.4302L34.9147 27.5388L35.0233 27.6474L35.1319 27.756H35.2405L35.3492 27.8646H35.4578H35.5664H35.675H35.8923H36.0009H36.1095H36.2181H36.3268H36.4354H36.6526H36.7612H36.8699L36.9785 27.756H37.0871L37.3043 27.6474H37.413L37.5216 27.5388L37.3043 28.7336H37.1957L37.0871 28.8422H36.9785H36.8699L36.7612 28.9508H36.6526H36.544H36.4354H36.3268H36.2181H36.1095H36.0009H35.7837H35.5664H35.3492H35.1319L34.8061 28.8422L34.5888 28.7336H34.3716L34.1543 28.5164L33.9371 28.4077L33.8285 28.2991L33.6112 28.0819L33.5026 27.8646L33.394 27.5388L33.2854 27.3215V26.9957L33.1768 26.6698L33.2854 26.2353V26.1267V25.9095V25.6922L33.394 25.5836L33.5026 25.3664V25.1491L33.6112 24.9319L33.8285 24.7146L33.9371 24.4974L34.1543 24.3888L34.3716 24.1715L34.5888 24.0629L34.8061 23.9543L35.1319 23.8457L35.4578 23.7371H35.8923H36.1095H36.2181L36.4354 23.8457H36.6526L36.8699 23.9543L37.0871 24.0629L37.1957 24.1715L37.413 24.2802L37.5216 24.3888L37.6302 24.606L37.7388 24.8233V25.0405L37.8474 25.3664V25.6922V26.0181L37.7388 26.4526V26.7784H34.263L34.4802 25.8008H36.544V25.6922V25.5836V25.475V25.3664L36.4354 25.2577V25.1491L36.3268 25.0405L36.2181 24.9319H36.1095L36.0009 24.8233H35.8923H35.7837H35.675H35.5664H35.4578V24.9319H35.3492H35.2405V25.0405H35.1319V25.1491L35.0233 25.2577H34.9147V25.3664V25.475L34.8061 25.5836V25.6922L34.5888 26.7784Z" fill="white"/>
<path d="M34.5888 26.7784V26.8871V26.9957V27.1043L34.6974 27.2129V27.3215L34.8061 27.4302L34.9147 27.5388L35.0233 27.6474L35.1319 27.756H35.2405L35.3492 27.8646H35.4578H35.5664H35.675H35.8923H36.0009H36.1095H36.2181H36.3268H36.4354H36.6526H36.7612H36.8699L36.9785 27.756H37.0871L37.3043 27.6474H37.413L37.5216 27.5388L37.3043 28.7336H37.1957L37.0871 28.8422H36.9785H36.8699L36.7612 28.9508H36.6526H36.544H36.4354H36.3268H36.2181H36.1095H36.0009H35.7837H35.5664H35.3492H35.1319L34.8061 28.8422L34.5888 28.7336H34.3716L34.1543 28.5164L33.9371 28.4077L33.8285 28.2991L33.6112 28.0819L33.5026 27.8646L33.394 27.5388L33.2854 27.3215V26.9957L33.1768 26.6698L33.2854 26.2353V26.1267V25.9095V25.6922L33.394 25.5836L33.5026 25.3664V25.1491L33.6112 24.9319L33.8285 24.7146L33.9371 24.4974L34.1543 24.3888L34.3716 24.1715L34.5888 24.0629L34.8061 23.9543L35.1319 23.8457L35.4578 23.7371H35.8923H36.1095H36.2181L36.4354 23.8457H36.6526L36.8699 23.9543L37.0871 24.0629L37.1957 24.1715L37.413 24.2802L37.5216 24.3888L37.6302 24.606L37.7388 24.8233V25.0405L37.8474 25.3664V25.6922V26.0181L37.7388 26.4526V26.7784H34.263L34.4802 25.8008H36.544V25.6922V25.5836V25.475V25.3664L36.4354 25.2577V25.1491L36.3268 25.0405L36.2181 24.9319H36.1095L36.0009 24.8233H35.8923H35.7837H35.675H35.5664H35.4578V24.9319H35.3492H35.2405V25.0405H35.1319V25.1491L35.0233 25.2577H34.9147V25.3664V25.475L34.8061 25.5836V25.6922L34.5888 26.7784Z" stroke="white" stroke-width="0.12" stroke-miterlimit="2.61"/>
<path fill-rule="evenodd" clip-rule="evenodd" d="M45.9934 24.1715L45.8848 24.0629H45.7762L45.6675 23.9543H45.5589H45.4503V23.8457H45.3417H45.2331H45.1244H45.0158H44.9072H44.7986H44.6899H44.5813H44.4727H44.3641H44.1468H44.0382H43.9296L43.821 23.9543H43.7124L43.4951 24.0629L43.3865 24.1715L43.2779 24.2801L43.1693 24.4974L43.0606 24.606L42.952 24.8232L42.8434 25.1491L42.7348 25.3664L42.6262 25.6922V25.8008V26.0181V26.1267V26.3439V26.4526V26.6698L42.7348 26.7784V26.887L42.8434 27.1043L42.952 27.2129L43.0606 27.3215L43.1693 27.4301L43.2779 27.5388H43.3865L43.6037 27.6474H43.7124H43.821H43.9296V27.756H44.0382H44.1468H44.2555H44.3641H44.4727L44.6899 27.6474H44.7986H44.9072H45.0158L45.1244 27.5388H45.2331L45.3417 27.4301L45.4503 27.3215L45.2331 28.625H45.1244V28.7336H45.0158H44.9072V28.8422H44.7986H44.6899L44.5813 28.9508H44.4727H44.2555H44.0382H43.821H43.6037H43.3865H43.1693L42.952 28.8422H42.7348L42.5175 28.7336L42.3003 28.625L42.0831 28.4077L41.8658 28.2991L41.6486 28.0819L41.54 27.8646L41.4313 27.6474L41.3227 27.3215L41.2141 27.1043L41.1055 26.7784V26.4526V26.0181L41.2141 25.6922V25.475V25.2577L41.3227 25.0405V24.9319L41.4313 24.7146V24.606L41.54 24.3888L41.6486 24.2801V24.0629L41.7572 23.9543L41.8658 23.8457V23.737L41.9744 23.6284L42.0831 23.5198L42.1917 23.4112L42.3003 23.3026L42.4089 23.1939L42.5175 23.0853L42.6262 22.9767H42.7348L42.8434 22.8681L42.952 22.7595H43.1693L43.2779 22.6508H43.3865H43.6037L43.7124 22.5422H43.9296H44.0382H44.2555H44.3641L44.5813 22.4336L44.6899 22.5422H44.9072H45.0158H45.1244H45.3417H45.4503L45.5589 22.6508H45.6675H45.7762H45.8848L45.9934 22.7595H46.102H46.2106V22.8681L45.9934 24.1715Z" fill="white"/>
<path d="M45.9934 24.1715L45.8848 24.0629H45.7762L45.6675 23.9543H45.5589H45.4503V23.8457H45.3417H45.2331H45.1244H45.0158H44.9072H44.7986H44.6899H44.5813H44.4727H44.3641H44.1468H44.0382H43.9296L43.821 23.9543H43.7124L43.4951 24.0629L43.3865 24.1715L43.2779 24.2801L43.1693 24.4974L43.0606 24.606L42.952 24.8232L42.8434 25.1491L42.7348 25.3664L42.6262 25.6922V25.8008V26.0181V26.1267V26.3439V26.4526V26.6698L42.7348 26.7784V26.887L42.8434 27.1043L42.952 27.2129L43.0606 27.3215L43.1693 27.4301L43.2779 27.5388H43.3865L43.6037 27.6474H43.7124H43.821H43.9296V27.756H44.0382H44.1468H44.2555H44.3641H44.4727L44.6899 27.6474H44.7986H44.9072H45.0158L45.1244 27.5388H45.2331L45.3417 27.4301L45.4503 27.3215L45.2331 28.625H45.1244V28.7336H45.0158H44.9072V28.8422H44.7986H44.6899L44.5813 28.9508H44.4727H44.2555H44.0382H43.821H43.6037H43.3865H43.1693L42.952 28.8422H42.7348L42.5175 28.7336L42.3003 28.625L42.0831 28.4077L41.8658 28.2991L41.6486 28.0819L41.54 27.8646L41.4313 27.6474L41.3227 27.3215L41.2141 27.1043L41.1055 26.7784V26.4526V26.0181L41.2141 25.6922V25.475V25.2577L41.3227 25.0405V24.9319L41.4313 24.7146V24.606L41.54 24.3888L41.6486 24.2801V24.0629L41.7572 23.9543L41.8658 23.8457V23.737L41.9744 23.6284L42.0831 23.5198L42.1917 23.4112L42.3003 23.3026L42.4089 23.1939L42.5175 23.0853L42.6262 22.9767H42.7348L42.8434 22.8681L42.952 22.7595H43.1693L43.2779 22.6508H43.3865H43.6037L43.7124 22.5422H43.9296H44.0382H44.2555H44.3641L44.5813 22.4336L44.6899 22.5422H44.9072H45.0158H45.1244H45.3417H45.4503L45.5589 22.6508H45.6675H45.7762H45.8848L45.9934 22.7595H46.102H46.2106V22.8681L45.9934 24.1715Z" stroke="white" stroke-width="0.12" stroke-miterlimit="2.61"/>
<path fill-rule="evenodd" clip-rule="evenodd" d="M57.7247 28.9509H56.4213L56.5299 28.4078L56.4213 28.5164H56.3126V28.625L56.204 28.7337H56.0954L55.9868 28.8423H55.8782V28.9509H55.7695H55.6609H55.5523H55.4437L55.3351 29.0595H55.2264H55.1178H54.792L54.5747 28.9509L54.3575 28.8423L54.2489 28.7337L54.0316 28.625L53.923 28.5164L53.7057 28.2992L53.5971 28.0819L53.4885 27.8647V27.6474L53.3799 27.4302V27.213V26.8871V26.6699V26.4526V26.2354L53.4885 25.9095L53.5971 25.6923L53.7057 25.3664L53.8144 25.1492L53.923 24.9319L54.0316 24.8233L54.2489 24.6061L54.3575 24.4975L54.5747 24.2802L54.6833 24.1716L54.9006 24.063L55.1178 23.9543H55.2264L55.4437 23.8457H55.6609H55.8782H55.9868H56.0954H56.204L56.3126 23.9543H56.4213L56.5299 24.063H56.6385H56.7471L56.8557 24.1716V24.2802H56.9644V24.3888H57.073V24.4975H57.1816V24.6061L57.5075 22.7595H58.8109L57.7247 28.9509Z" fill="white"/>
<path d="M57.7247 28.9509H56.4213L56.5299 28.4078L56.4213 28.5164H56.3126V28.625L56.204 28.7337H56.0954L55.9868 28.8423H55.8782V28.9509H55.7695H55.6609H55.5523H55.4437L55.3351 29.0595H55.2264H55.1178H54.792L54.5747 28.9509L54.3575 28.8423L54.2489 28.7337L54.0316 28.625L53.923 28.5164L53.7057 28.2992L53.5971 28.0819L53.4885 27.8647V27.6474L53.3799 27.4302V27.213V26.8871V26.6699V26.4526V26.2354L53.4885 25.9095L53.5971 25.6923L53.7057 25.3664L53.8144 25.1492L53.923 24.9319L54.0316 24.8233L54.2489 24.6061L54.3575 24.4975L54.5747 24.2802L54.6833 24.1716L54.9006 24.063L55.1178 23.9543H55.2264L55.4437 23.8457H55.6609H55.8782H55.9868H56.0954H56.204L56.3126 23.9543H56.4213L56.5299 24.063H56.6385H56.7471L56.8557 24.1716V24.2802H56.9644V24.3888H57.073V24.4975H57.1816V24.6061L57.5075 22.7595H58.8109L57.7247 28.9509Z" stroke="white" stroke-width="0.12" stroke-miterlimit="2.61"/>
<path fill-rule="evenodd" clip-rule="evenodd" d="M55.5531 27.7558H55.6617H55.879H55.9876L56.0962 27.6472L56.2048 27.5386L56.3134 27.4299H56.4221L56.5307 27.3213V27.2127L56.6393 27.1041V26.9955L56.7479 26.8868V26.6696V26.561L56.8565 26.4524V26.3437V26.2351V26.0179V25.9092V25.8006V25.692L56.7479 25.5834V25.4748V25.3661L56.6393 25.2575L56.5307 25.1489L56.4221 25.0403H56.3134H56.2048H56.0962H55.9876H55.879H55.7703L55.6617 25.1489H55.5531L55.4445 25.2575V25.3661L55.3359 25.4748L55.2272 25.5834V25.692L55.1186 25.8006V25.9092L55.01 26.0179V26.1265L54.9014 26.2351V26.4524V26.6696V26.8868V27.1041L55.01 27.3213L55.1186 27.5386L55.2272 27.6472L55.3359 27.7558H55.5531Z" fill="#F9B41D"/>
<path fill-rule="evenodd" clip-rule="evenodd" d="M26.2247 27.8646L26.1161 28.9508H24.9213V28.7336V28.625V28.4077H25.0299H24.9213L24.8126 28.5164L24.704 28.625H24.5954L24.4868 28.7336L24.3782 28.8422H24.2695L24.1609 28.9508H24.0523H23.8351L23.7264 29.0595H23.6178H23.5092H23.2919H23.1833H23.0747L22.8575 28.9508H22.7488L22.6402 28.8422L22.5316 28.7336H22.423L22.3144 28.625L22.2057 28.5164L22.0971 28.4077V28.2991V28.1905L21.9885 28.0819V27.9733V27.8646V27.756L21.8799 27.6474V27.5388L21.9885 27.4302V27.2129V27.1043L22.0971 26.8871L22.2057 26.7784V26.5612L22.3144 26.4526L22.423 26.344L22.5316 26.2353L22.7488 26.1267L22.8575 26.0181H22.9661L23.1833 25.9095H23.2919L23.5092 25.8008H23.6178H23.7264H23.8351H23.9437L24.0523 25.6922H24.1609H24.2695H24.3782H24.4868H24.5954H24.704H24.8126H24.9213H25.0299H25.1385H25.2471L25.3557 25.5836V25.475V25.3664V25.2577H25.2471V25.1491L25.1385 25.0405H25.0299L24.9213 24.9319H24.8126H24.704H24.5954H24.4868H24.2695H24.1609H23.9437H23.8351H23.7264H23.5092H23.4006L23.2919 25.0405H23.0747H22.9661H22.8575V25.1491H22.7488L23.0747 24.0629L23.1833 23.9543H23.2919H23.4006L23.5092 23.8457H23.6178H23.7264H23.8351H23.9437H24.0523H24.2695L24.3782 23.7371H24.4868H24.704H24.8126L25.0299 23.8457H25.1385H25.3557H25.4644H25.573L25.7902 23.9543H25.8988L26.0075 24.0629H26.2247L26.3333 24.1715L26.4419 24.2802L26.5506 24.3888L26.6592 24.606V24.7146L26.7678 24.8233V25.0405V25.1491V25.3664L26.2247 27.8646Z" fill="white"/>
<path d="M26.2247 27.8646L26.1161 28.9508H24.9213V28.7336V28.625V28.4077H25.0299H24.9213L24.8126 28.5164L24.704 28.625H24.5954L24.4868 28.7336L24.3782 28.8422H24.2695L24.1609 28.9508H24.0523H23.8351L23.7264 29.0595H23.6178H23.5092H23.2919H23.1833H23.0747L22.8575 28.9508H22.7488L22.6402 28.8422L22.5316 28.7336H22.423L22.3144 28.625L22.2057 28.5164L22.0971 28.4077V28.2991V28.1905L21.9885 28.0819V27.9733V27.8646V27.756L21.8799 27.6474V27.5388L21.9885 27.4302V27.2129V27.1043L22.0971 26.8871L22.2057 26.7784V26.5612L22.3144 26.4526L22.423 26.344L22.5316 26.2353L22.7488 26.1267L22.8575 26.0181H22.9661L23.1833 25.9095H23.2919L23.5092 25.8008H23.6178H23.7264H23.8351H23.9437L24.0523 25.6922H24.1609H24.2695H24.3782H24.4868H24.5954H24.704H24.8126H24.9213H25.0299H25.1385H25.2471L25.3557 25.5836V25.475V25.3664V25.2577H25.2471V25.1491L25.1385 25.0405H25.0299L24.9213 24.9319H24.8126H24.704H24.5954H24.4868H24.2695H24.1609H23.9437H23.8351H23.7264H23.5092H23.4006L23.2919 25.0405H23.0747H22.9661H22.8575V25.1491H22.7488L23.0747 24.0629L23.1833 23.9543H23.2919H23.4006L23.5092 23.8457H23.6178H23.7264H23.8351H23.9437H24.0523H24.2695L24.3782 23.7371H24.4868H24.704H24.8126L25.0299 23.8457H25.1385H25.3557H25.4644H25.573L25.7902 23.9543H25.8988L26.0075 24.0629H26.2247L26.3333 24.1715L26.4419 24.2802L26.5506 24.3888L26.6592 24.606V24.7146L26.7678 24.8233V25.0405V25.1491V25.3664L26.2247 27.8646Z" stroke="white" stroke-width="0.12" stroke-miterlimit="2.61"/>
<path fill-rule="evenodd" clip-rule="evenodd" d="M25.1393 26.6699V26.5613H25.0307H24.9221H24.8134H24.7048H24.5962H24.4876H24.379L24.2703 26.6699H24.1617H24.0531L23.9445 26.7785H23.8358V26.8871H23.7272L23.6186 26.9958L23.51 27.1044V27.213L23.4014 27.3216V27.5389V27.6475L23.51 27.7561L23.6186 27.8647H23.7272H23.8358H24.0531H24.1617H24.2703H24.379L24.4876 27.7561H24.5962L24.7048 27.6475H24.8134V27.5389H24.9221V27.4302V27.3216H25.0307V27.213V27.1044V26.8871L25.1393 26.7785V26.6699Z" fill="#E30520"/>
<path fill-rule="evenodd" clip-rule="evenodd" d="M16.2331 28.9506H14.9297L16.0159 22.6506H18.2969L18.5142 26.4524L20.0349 22.6506H22.4245L21.3383 28.9506H20.0349L20.7952 24.2799L18.84 28.9506H17.428L17.3193 28.7334V28.2989V27.5386L17.2107 26.6696V25.8006L17.1021 25.0403V24.4972V24.2799H16.9935L16.2331 28.9506Z" fill="white"/>
<path d="M16.2331 28.9506H14.9297L16.0159 22.6506H18.2969L18.5142 26.4524L20.0349 22.6506H22.4245L21.3383 28.9506H20.0349L20.7952 24.2799L18.84 28.9506H17.428L17.3193 28.7334V28.2989V27.5386L17.2107 26.6696V25.8006L17.1021 25.0403V24.4972V24.2799H16.9935L16.2331 28.9506Z" stroke="white" stroke-width="0.12" stroke-miterlimit="2.61"/>
<path fill-rule="evenodd" clip-rule="evenodd" d="M49.9051 27.8646L49.7965 28.9508H48.6017V28.7336V28.625V28.5164V28.4077L48.4931 28.5164L48.3845 28.625L48.2758 28.7336H48.1672L48.0586 28.8422H47.95L47.8414 28.9508H47.7327H47.5155L47.4069 29.0595H47.2983H47.1896H46.9724H46.8638H46.7552L46.5379 28.9508H46.4293L46.3207 28.8422L46.212 28.7336H46.1034L45.9948 28.625L45.8862 28.5164V28.4077L45.7776 28.2991V28.1905L45.6689 28.0819V27.9733V27.8646V27.756V27.6474V27.5388V27.4302V27.2129V27.1043L45.7776 26.8871L45.8862 26.7784V26.5612L45.9948 26.4526L46.1034 26.344L46.3207 26.2353L46.4293 26.1267L46.5379 26.0181H46.6465L46.8638 25.9095H46.9724L47.1896 25.8008H47.2983H47.4069H47.5155H47.6241L47.7327 25.6922H47.8414H47.95H48.0586H48.1672H48.2758H48.3845H48.4931H48.6017H48.7103H48.8189H48.9276L49.0362 25.5836V25.475V25.3664V25.2577H48.9276V25.1491L48.8189 25.0405H48.7103L48.6017 24.9319H48.4931H48.3845H48.2758H48.1672H47.95H47.8414H47.7327H47.5155H47.4069H47.1896H47.081L46.9724 25.0405H46.8638H46.7552H46.6465L46.5379 25.1491H46.4293L46.7552 24.0629L46.8638 23.9543H46.9724H47.081L47.1896 23.8457H47.2983H47.4069H47.5155H47.6241H47.8414H47.95L48.0586 23.7371H48.1672H48.3845H48.4931L48.7103 23.8457H48.8189H48.9276H49.1448H49.2534L49.4707 23.9543H49.5793L49.6879 24.0629H49.9051L50.0138 24.1715L50.1224 24.2802L50.231 24.3888L50.3396 24.606V24.7146L50.4483 24.8233V25.0405V25.1491V25.3664L49.9051 27.8646Z" fill="white"/>
<path fill-rule="evenodd" clip-rule="evenodd" d="M49.7961 28.9507L50.0134 27.8645H49.9047L49.6875 28.9507H49.7961Z" fill="white"/>
<path fill-rule="evenodd" clip-rule="evenodd" d="M48.6008 28.4077L48.4922 28.5163V28.625V28.7336V28.9508H48.6008V28.7336V28.625V28.5163V28.4077Z" fill="white"/>
<path fill-rule="evenodd" clip-rule="evenodd" d="M46.7549 29.0594H46.8635H46.9721H47.1894H47.298H47.4066H47.5152L47.7325 28.9508H47.8411L47.9497 28.8422H48.0583L48.1669 28.7336H48.2756L48.3842 28.625H48.4928V28.5163L48.6014 28.4077H48.4928L48.3842 28.5163V28.625H48.2756L48.1669 28.7336H48.0583L47.9497 28.8422H47.8411L47.7325 28.9508H47.5152H47.4066H47.298L47.1894 29.0594H46.9721L46.8635 28.9508H46.7549V29.0594Z" fill="white"/>
<path fill-rule="evenodd" clip-rule="evenodd" d="M45.5605 27.5386V27.6472V27.7558L45.6692 27.8644V27.9731V28.0817V28.1903L45.7778 28.2989V28.4075L45.8864 28.5162L45.995 28.6248L46.1036 28.7334L46.2123 28.842H46.3209L46.4295 28.9506H46.5381L46.7554 29.0593V28.9506H46.5381L46.4295 28.842H46.3209L46.2123 28.7334H46.1036L45.995 28.6248L45.8864 28.5162V28.4075L45.7778 28.2989V28.1903V28.0817L45.6692 27.9731V27.8644V27.7558V27.6472V27.5386H45.5605Z" fill="white"/>
<path fill-rule="evenodd" clip-rule="evenodd" d="M47.2985 25.8005H47.1899H46.9726L46.864 25.9092H46.6468L46.5381 26.0178L46.4295 26.1264L46.2123 26.235L46.1036 26.3436L45.995 26.4523L45.8864 26.5609L45.7778 26.7781V26.8867L45.6692 27.104V27.2126L45.5605 27.4298V27.5385H45.6692V27.4298V27.2126L45.7778 27.104V26.8867L45.8864 26.7781L45.995 26.6695L46.1036 26.4523L46.2123 26.3436L46.3209 26.235L46.4295 26.1264H46.5381L46.6468 26.0178L46.864 25.9092H46.9726L47.1899 25.8005H47.2985Z" fill="white"/>
<path fill-rule="evenodd" clip-rule="evenodd" d="M48.2754 25.6921H48.1668H48.0582H47.9496H47.841H47.7323H47.6237H47.5151H47.4065V25.8008H47.2979H47.4065H47.5151H47.6237H47.7323H47.841L47.9496 25.6921H48.0582H48.1668H48.2754Z" fill="white"/>
<path fill-rule="evenodd" clip-rule="evenodd" d="M48.9271 25.6921H48.8185H48.7099H48.6013H48.4926H48.384H48.2754H48.384H48.4926H48.6013H48.7099H48.8185H48.9271H49.0357H48.9271L49.0357 25.8008V25.6921H48.9271Z" fill="white"/>
<path fill-rule="evenodd" clip-rule="evenodd" d="M49.0354 25.3662H48.9268V25.4748V25.5835V25.6921H49.0354V25.5835V25.4748V25.3662Z" fill="white"/>
<path fill-rule="evenodd" clip-rule="evenodd" d="M48.3838 24.9316H48.4924H48.601L48.7096 25.0402H48.8183V25.1489L48.9269 25.2575L49.0355 25.3661V25.2575V25.1489H48.9269L48.8183 25.0402L48.7096 24.9316H48.601H48.4924L48.3838 24.823V24.9316Z" fill="white"/>
<path fill-rule="evenodd" clip-rule="evenodd" d="M46.3193 25.1489H46.428H46.5366H46.6452L46.7538 25.0402H46.8624H46.9711H47.0797H47.1883L47.4055 24.9316H47.5142H47.7314H47.84H47.9486H48.1659H48.2745H48.3831L48.2745 24.823H48.1659H47.9486H47.84L47.7314 24.9316H47.5142H47.4055H47.1883H47.0797H46.9711L46.8624 25.0402H46.7538H46.6452H46.5366L46.428 25.1489H46.3193Z" fill="white"/>
<path fill-rule="evenodd" clip-rule="evenodd" d="M46.7538 23.9543V24.063L46.3193 25.1492H46.428L46.7538 24.063V23.9543V24.063V23.9543Z" fill="white"/>
<path fill-rule="evenodd" clip-rule="evenodd" d="M48.8187 23.7371H48.7101H48.4928H48.3842H48.1669H48.0583H47.9497H47.8411H47.6238H47.5152L47.4066 23.8457H47.298H47.1894H47.0807L46.9721 23.9543H46.8635H46.7549V24.0629L46.8635 23.9543H46.9721H47.0807H47.1894L47.298 23.8457H47.4066H47.5152H47.6238H47.8411H47.9497H48.0583H48.1669H48.3842H48.4928H48.7101H48.8187V23.7371Z" fill="white"/>
<path fill-rule="evenodd" clip-rule="evenodd" d="M50.4477 25.3664L50.5563 25.1491V25.0405L50.4477 24.8233V24.7146L50.339 24.4974L50.2304 24.3888L50.1218 24.2802L50.0132 24.1715L49.9046 24.0629L49.6873 23.9543H49.5787L49.4701 23.8457H49.2528H49.1442L48.927 23.7371H48.8184V23.8457H48.927H49.1442H49.2528L49.3615 23.9543H49.5787L49.6873 24.0629L49.7959 24.1715L50.0132 24.2802L50.1218 24.3888L50.2304 24.4974L50.339 24.606V24.7146L50.4477 24.8233V25.0405V25.1491V25.3664Z" fill="white"/>
<path fill-rule="evenodd" clip-rule="evenodd" d="M50.0139 27.8645L50.4484 25.3662L49.9053 27.8645H50.0139Z" fill="white"/>
<path fill-rule="evenodd" clip-rule="evenodd" d="M48.818 26.6699V26.5613H48.7094H48.6008H48.4921H48.3835H48.2749H48.1663L48.0577 26.6699H47.949H47.8404H47.7318L47.6232 26.7785H47.5146V26.8871H47.4059H47.2973V26.9958L47.1887 27.1044V27.213L47.0801 27.3216V27.5389L47.1887 27.6475V27.7561L47.2973 27.8647H47.4059H47.5146H47.7318H47.8404H47.949H48.0577L48.1663 27.7561H48.2749L48.3835 27.6475L48.4921 27.5389L48.6008 27.4302L48.7094 27.3216V27.213V26.9958L48.818 26.8871V26.7785V26.6699Z" fill="#F9B41D"/>
<path fill-rule="evenodd" clip-rule="evenodd" d="M58.5947 28.2989V28.1903L58.7033 28.0817V27.9731L58.812 27.8645L58.9206 27.7558H59.0292L59.1378 27.6472H59.2464H59.4637L59.5723 27.7558H59.6809L59.7896 27.8645V27.9731L59.8982 28.0817V28.1903L60.0068 28.2989H59.7896V28.1903V28.0817L59.6809 27.9731L59.5723 27.8645H59.4637L59.3551 27.7558H59.2464H59.1378L59.0292 27.8645L58.9206 27.9731H58.812V28.0817V28.1903V28.2989H58.5947Z" fill="white"/>
<path fill-rule="evenodd" clip-rule="evenodd" d="M59.0283 28.2988V27.9729H59.3542L59.4628 28.0815H59.5714V28.1901V28.2988H59.4628H59.3542H59.4628V28.1901V28.0815H59.3542H59.1369V28.2988H59.0283Z" fill="white"/>
<path fill-rule="evenodd" clip-rule="evenodd" d="M58.5947 28.2988V28.5161L58.7033 28.6247V28.7333L58.812 28.8419H58.9206L59.0292 28.9505H59.1378L59.2464 29.0592L59.4637 28.9505H59.5723L59.6809 28.8419H59.7896V28.7333L59.8982 28.6247V28.5161L60.0068 28.2988H59.7896V28.4074V28.5161L59.6809 28.6247V28.7333L59.5723 28.8419H59.4637H59.3551H59.2464H59.1378H59.0292L58.9206 28.7333L58.812 28.6247V28.5161V28.4074V28.2988H58.5947Z" fill="white"/>
<path fill-rule="evenodd" clip-rule="evenodd" d="M59.0283 28.2988V28.6247H59.1369V28.4074H59.2456L59.4628 28.6247H59.5714L59.3542 28.4074H59.4628V28.2988H59.3542H59.2456H59.1369H59.0283Z" fill="white"/>
<path d="M58.5947 28.299H60.0068V28.5162H58.5947V28.299ZM59.1378 28.6248H59.0292V27.9731H59.3551L59.5723 28.1904H59.4637L59.2464 27.9731H59.1378V28.1904V28.6248ZM59.2464 27.8645H59.1378V28.0817H59.2464V27.8645Z" stroke="white" stroke-width="0.12" stroke-miterlimit="2.61"/>
<path fill-rule="evenodd" clip-rule="evenodd" d="M50.3398 28.9509H51.6433L52.1864 26.2354V26.1267V26.0181V25.9095L52.295 25.8009V25.6923L52.4036 25.5836V25.475H52.5123L52.6209 25.3664V25.2578H52.7295L52.9467 25.1492H53.0554L53.164 25.0405H53.3812H53.5985H53.7071L53.9243 23.8457H53.7071H53.5985H53.4898H53.3812L53.2726 23.9543H53.164L53.0554 24.0629H52.9467V24.1716H52.8381L52.7295 24.2802V24.3888L52.6209 24.4974H52.5123V24.606L52.4036 24.7147L52.5123 23.8457H51.2088L50.3398 28.9509Z" fill="white"/>
<path d="M50.3398 28.9509H51.6433L52.1864 26.2354V26.1267V26.0181V25.9095L52.295 25.8009V25.6923L52.4036 25.5836V25.475H52.5123L52.6209 25.3664V25.2578H52.7295L52.9467 25.1492H53.0554L53.164 25.0405H53.3812H53.5985H53.7071L53.9243 23.8457H53.7071H53.5985H53.4898H53.3812L53.2726 23.9543H53.164L53.0554 24.0629H52.9467V24.1716H52.8381L52.7295 24.2802V24.3888L52.6209 24.4974H52.5123V24.606L52.4036 24.7147L52.5123 23.8457H51.2088L50.3398 28.9509Z" stroke="white" stroke-width="0.12" stroke-miterlimit="2.61"/>
<path fill-rule="evenodd" clip-rule="evenodd" d="M37.6299 28.9509H39.042L39.4764 26.2354V26.1267L39.5851 26.0181V25.9095V25.8009H39.6937V25.6923V25.5836L39.8023 25.475H39.9109L40.0195 25.3664L40.1282 25.2578H40.2368L40.3454 25.1492H40.454H40.6713H40.7799H40.8885H40.9971V25.0405V24.9319L41.1057 24.7147V24.606V24.4974L41.2144 24.3888V24.2802L41.323 24.1716V24.0629V23.9543H41.4316V23.8457H41.323H41.2144H41.1057H40.9971H40.8885H40.7799L40.6713 23.9543H40.5626L40.454 24.0629H40.3454L40.2368 24.1716L40.1282 24.2802L40.0195 24.3888L39.9109 24.4974L39.8023 24.606V24.7147L39.9109 23.8457H38.6075L37.6299 28.9509Z" fill="white"/>
<path d="M37.6299 28.9509H39.042L39.4764 26.2354V26.1267L39.5851 26.0181V25.9095V25.8009H39.6937V25.6923V25.5836L39.8023 25.475H39.9109L40.0195 25.3664L40.1282 25.2578H40.2368L40.3454 25.1492H40.454H40.6713H40.7799H40.8885H40.9971V25.0405V24.9319L41.1057 24.7147V24.606V24.4974L41.2144 24.3888V24.2802L41.323 24.1716V24.0629V23.9543H41.4316V23.8457H41.323H41.2144H41.1057H40.9971H40.8885H40.7799L40.6713 23.9543H40.5626L40.454 24.0629H40.3454L40.2368 24.1716L40.1282 24.2802L40.0195 24.3888L39.9109 24.4974L39.8023 24.606V24.7147L39.9109 23.8457H38.6075L37.6299 28.9509Z" stroke="white" stroke-width="0.12" stroke-miterlimit="2.61"/>
<path fill-rule="evenodd" clip-rule="evenodd" d="M58.5947 33.9474L58.7033 33.8388V33.7302L58.812 33.6215L58.9206 33.5129H59.0292H59.1378L59.2464 33.4043L59.4637 33.5129H59.5723H59.6809L59.7896 33.6215V33.7302L59.8982 33.8388V33.9474H59.7896V33.8388H59.6809V33.7302L59.5723 33.6215H59.4637L59.3551 33.5129H59.2464H59.1378L59.0292 33.6215L58.9206 33.7302L58.812 33.8388V33.9474H58.5947Z" fill="#F9B41D"/>
<path fill-rule="evenodd" clip-rule="evenodd" d="M59.0283 33.9472V33.8386H59.3542H59.4628H59.5714V33.9472H59.4628V33.8386H59.3542H59.1369V33.9472H59.0283Z" fill="#F9B41D"/>
<path fill-rule="evenodd" clip-rule="evenodd" d="M58.5947 34.0556V33.947H58.812V34.0556H58.5947Z" fill="#F9B41D"/>
<path fill-rule="evenodd" clip-rule="evenodd" d="M59.0283 34.0556V33.947H59.1369V34.0556H59.2456H59.3542H59.4628V33.947H59.5714V34.0556H59.4628H59.0283Z" fill="#F9B41D"/>
<path fill-rule="evenodd" clip-rule="evenodd" d="M59.7891 34.0556V33.947H59.8977L60.0063 34.0556H59.7891Z" fill="#F9B41D"/>
<path fill-rule="evenodd" clip-rule="evenodd" d="M58.5947 34.0559V34.2732L58.7033 34.3818V34.4904L58.812 34.599L58.9206 34.7076H59.0292H59.1378L59.2464 34.8163L59.4637 34.7076H59.5723H59.6809L59.7896 34.599V34.4904L59.8982 34.3818V34.2732L60.0068 34.0559H59.7896V34.1645V34.2732L59.6809 34.3818V34.4904L59.5723 34.599H59.4637H59.3551H59.2464H59.1378H59.0292L58.9206 34.4904L58.812 34.3818V34.2732V34.1645V34.0559H58.5947Z" fill="#F9B41D"/>
<path fill-rule="evenodd" clip-rule="evenodd" d="M59.0283 34.0559V34.3818H59.1369V34.1645H59.2456L59.4628 34.3818H59.5714L59.3542 34.1645H59.4628V34.0559H59.0283Z" fill="#F9B41D"/>
<defs>
<filter id="filter0_d" x="0" y="0.791992" width="75.9586" height="53.7674" filterUnits="userSpaceOnUse" color-interpolation-filters="sRGB">
<feFlood flood-opacity="0" result="BackgroundImageFix"/>
<feColorMatrix in="SourceAlpha" type="matrix" values="0 0 0 0 0 0 0 0 0 0 0 0 0 0 0 0 0 0 127 0"/>
<feOffset dx="1" dy="2"/>
<feGaussianBlur stdDeviation="4"/>
<feColorMatrix type="matrix" values="0 0 0 0 0.207843 0 0 0 0 0.392157 0 0 0 0 0.67451 0 0 0 0.25 0"/>
<feBlend mode="multiply" in2="BackgroundImageFix" result="effect1_dropShadow"/>
<feBlend mode="normal" in="SourceGraphic" in2="effect1_dropShadow" result="shape"/>
</filter>
</defs>
</svg>
