<svg width="15" height="14" viewBox="0 0 15 14" fill="none" xmlns="http://www.w3.org/2000/svg">
<path d="M0.9375 5.62617H12.0563L8.65312 1.53867C8.49399 1.34722 8.41744 1.1004 8.44029 0.852495C8.46315 0.604596 8.58355 0.375929 8.775 0.216799C8.96645 0.0576691 9.21328 -0.018889 9.46118 0.00396703C9.70908 0.026823 9.93775 0.147221 10.0969 0.338674L14.7844 5.96367C14.8159 6.00841 14.8441 6.05542 14.8688 6.1043C14.8688 6.15117 14.8687 6.1793 14.9344 6.22617C14.9769 6.33367 14.9991 6.44809 15 6.56367C14.9991 6.67926 14.9769 6.79368 14.9344 6.90117C14.9344 6.94805 14.9344 6.97617 14.8688 7.02305C14.8441 7.07193 14.8159 7.11893 14.7844 7.16367L10.0969 12.7887C10.0087 12.8945 9.89835 12.9796 9.77358 13.0379C9.64882 13.0963 9.51273 13.1264 9.375 13.1262C9.15595 13.1266 8.94367 13.0503 8.775 12.9105C8.68007 12.8318 8.6016 12.7352 8.54408 12.6261C8.48656 12.517 8.45113 12.3977 8.43981 12.2749C8.42849 12.1521 8.4415 12.0283 8.47811 11.9105C8.51471 11.7928 8.57419 11.6834 8.65312 11.5887L12.0563 7.50117H0.9375C0.68886 7.50117 0.450402 7.4024 0.274587 7.22659C0.0987711 7.05077 0 6.81231 0 6.56367C0 6.31503 0.0987711 6.07658 0.274587 5.90076C0.450402 5.72495 0.68886 5.62617 0.9375 5.62617Z" fill="white"/>
</svg>
