<svg width="21" height="24" viewBox="0 0 21 24" fill="none" xmlns="http://www.w3.org/2000/svg">
<path d="M15.6737 23.59H5.7467C4.42289 23.5885 3.15374 23.0619 2.21766 22.1258C1.28158 21.1897 0.754995 19.9206 0.753418 18.5967V10.8506C0.753417 9.52574 1.2793 8.25507 2.21556 7.3177C3.15181 6.38033 4.42185 5.85293 5.7467 5.85135H15.6737C16.9985 5.85293 18.2686 6.38033 19.2048 7.3177C20.1411 8.25507 20.667 9.52574 20.667 10.8506V18.5967C20.6654 19.9206 20.1388 21.1897 19.2027 22.1258C18.2667 23.0619 16.9975 23.5885 15.6737 23.59ZM5.7467 7.79384C4.92859 7.79542 4.14443 8.12111 3.56593 8.69961C2.98743 9.27811 2.66174 10.0623 2.66016 10.8804V18.6265C2.66331 19.4436 2.9897 20.2263 3.56803 20.8035C4.14635 21.3807 4.92962 21.7056 5.7467 21.7071H15.6737C16.4908 21.7056 17.274 21.3807 17.8524 20.8035C18.4307 20.2263 18.7571 19.4436 18.7602 18.6265V10.8804C18.7587 10.0623 18.433 9.27811 17.8545 8.69961C17.276 8.12111 16.4918 7.79542 15.6737 7.79384H5.7467Z" fill="#C8C8C8"/>
<path d="M10.7878 17.6373C12.3345 17.6373 13.5884 16.3835 13.5884 14.8368C13.5884 13.2901 12.3345 12.0363 10.7878 12.0363C9.24115 12.0363 7.9873 13.2901 7.9873 14.8368C7.9873 16.3835 9.24115 17.6373 10.7878 17.6373Z" fill="#C8C8C8"/>
<path d="M17.1814 6.55443H15.2687C15.2256 5.34981 14.7167 4.20891 13.8493 3.37195C12.9818 2.535 11.8235 2.06728 10.6181 2.06728C9.41266 2.06728 8.25429 2.535 7.38683 3.37195C6.51938 4.20891 6.01052 5.34981 5.96739 6.55443H4.05469C4.05469 4.81609 4.74524 3.14894 5.97444 1.91975C7.20363 0.690555 8.87078 0 10.6091 0C12.3475 0 14.0146 0.690555 15.2438 1.91975C16.473 3.14894 17.1636 4.81609 17.1636 6.55443H17.1814Z" fill="#C8C8C8"/>
</svg>
