<svg width="79" height="23" viewBox="0 0 79 23" fill="none" xmlns="http://www.w3.org/2000/svg">
<path d="M35.2695 18V3.78125H40.25C41.9753 3.78125 43.2839 4.11328 44.1758 4.77734C45.0677 5.4349 45.5137 6.40169 45.5137 7.67773C45.5137 8.37435 45.3346 8.98958 44.9766 9.52344C44.6185 10.0508 44.1204 10.4382 43.4824 10.6855C44.2116 10.8678 44.7845 11.2357 45.2012 11.7891C45.6243 12.3424 45.8359 13.0195 45.8359 13.8203C45.8359 15.1875 45.3997 16.2227 44.5273 16.9258C43.6549 17.6289 42.4115 17.987 40.7969 18H35.2695ZM38.1992 11.8086V15.6465H40.709C41.3991 15.6465 41.9362 15.4837 42.3203 15.1582C42.7109 14.8262 42.9062 14.3704 42.9062 13.791C42.9062 12.4889 42.2324 11.8281 40.8848 11.8086H38.1992ZM38.1992 9.73828H40.3672C41.8451 9.71224 42.584 9.12305 42.584 7.9707C42.584 7.32617 42.3952 6.86393 42.0176 6.58398C41.6465 6.29753 41.0573 6.1543 40.25 6.1543H38.1992V9.73828ZM53.9805 18C53.8503 17.7461 53.7559 17.4303 53.6973 17.0527C53.0137 17.8145 52.125 18.1953 51.0312 18.1953C49.9961 18.1953 49.1367 17.8958 48.4531 17.2969C47.776 16.6979 47.4375 15.9427 47.4375 15.0312C47.4375 13.9115 47.8509 13.0521 48.6777 12.4531C49.5111 11.8542 50.7122 11.5514 52.2812 11.5449H53.5801V10.9395C53.5801 10.4512 53.4531 10.0605 53.1992 9.76758C52.9518 9.47461 52.5579 9.32812 52.0176 9.32812C51.5423 9.32812 51.168 9.44206 50.8945 9.66992C50.6276 9.89779 50.4941 10.2103 50.4941 10.6074H47.6719C47.6719 9.99544 47.8607 9.42904 48.2383 8.9082C48.6159 8.38737 49.1497 7.98047 49.8398 7.6875C50.5299 7.38802 51.3047 7.23828 52.1641 7.23828C53.4661 7.23828 54.498 7.56706 55.2598 8.22461C56.028 8.87565 56.4121 9.79362 56.4121 10.9785V15.5586C56.4186 16.5612 56.5586 17.3197 56.832 17.834V18H53.9805ZM51.6465 16.0371C52.0632 16.0371 52.4473 15.946 52.7988 15.7637C53.1504 15.5749 53.4108 15.3242 53.5801 15.0117V13.1953H52.5254C51.1126 13.1953 50.3607 13.6836 50.2695 14.6602L50.2598 14.8262C50.2598 15.1777 50.3835 15.4674 50.6309 15.6953C50.8783 15.9232 51.2168 16.0371 51.6465 16.0371ZM62.9746 15.9199C63.4954 15.9199 63.9186 15.7767 64.2441 15.4902C64.5697 15.2038 64.7389 14.8229 64.752 14.3477H67.3984C67.3919 15.0638 67.1966 15.7214 66.8125 16.3203C66.4284 16.9128 65.901 17.375 65.2305 17.707C64.5664 18.0326 63.8307 18.1953 63.0234 18.1953C61.513 18.1953 60.3216 17.7168 59.4492 16.7598C58.5768 15.7962 58.1406 14.4681 58.1406 12.7754V12.5898C58.1406 10.9622 58.5736 9.66341 59.4395 8.69336C60.3053 7.72331 61.4935 7.23828 63.0039 7.23828C64.3255 7.23828 65.3835 7.61589 66.1777 8.37109C66.9785 9.11979 67.3854 10.1191 67.3984 11.3691H64.752C64.7389 10.8223 64.5697 10.3796 64.2441 10.041C63.9186 9.69596 63.4889 9.52344 62.9551 9.52344C62.2975 9.52344 61.7995 9.76432 61.4609 10.2461C61.1289 10.7214 60.9629 11.4961 60.9629 12.5703V12.8633C60.9629 13.9505 61.1289 14.7318 61.4609 15.207C61.793 15.6823 62.2975 15.9199 62.9746 15.9199ZM72.8477 13.7617L71.832 14.7773V18H69.0098V3H71.832V11.3105L72.3789 10.6074L75.084 7.43359H78.4727L74.6543 11.8379L78.8047 18H75.5625L72.8477 13.7617Z" fill="#3564AC"/>
<line y1="-1" x2="23" y2="-1" transform="matrix(-1 0 0 1 26.2402 13)" stroke="#858383" stroke-width="2"/>
<line y1="-1" x2="8.42494" y2="-1" transform="matrix(0.669318 -0.742976 -0.72868 -0.684854 2 11.2595)" stroke="#858383" stroke-width="2"/>
<line y1="-1" x2="9.12333" y2="-1" transform="matrix(0.699574 0.71456 0.699574 -0.71456 2.23584 11)" stroke="#858383" stroke-width="2"/>
</svg>
