<svg width="239" height="49" viewBox="0 0 239 49" fill="none" xmlns="http://www.w3.org/2000/svg">
<path d="M20.3907 43.1661C9.12207 43.1921 0.106522 33.6969 0.000858433 21.6884C-0.101554 9.84622 8.97252 0.124099 20.2444 0.00112187C31.3114 -0.120123 40.4912 9.602 40.5188 21.4788C40.5448 33.5358 31.6366 43.1384 20.3907 43.1661ZM14.5516 26.843C14.02 26.8153 13.5193 26.8015 13.0202 26.7564C10.681 26.5469 8.88148 24.6069 8.63114 22.04C8.40681 19.7121 9.85359 17.2647 12.0108 16.7087C13.2966 16.3779 14.6686 16.4333 16.1121 16.3051V17.9211C16.1121 22.7709 16.0959 27.6311 16.1268 32.4861C16.1414 34.575 17.2517 35.7771 19.126 35.8429C19.1941 35.7089 19.2408 35.5637 19.2642 35.4133C19.2739 28.2339 19.2853 21.0562 19.2414 13.8785C19.2414 13.5996 18.7033 13.0973 18.4026 13.0852C16.6144 13.0142 14.8182 12.9709 13.0381 13.0852C11.0935 13.2116 9.25751 14.0834 7.86905 15.5396C6.48059 16.9958 5.63343 18.938 5.48399 21.0077C5.1865 25.1162 7.86224 28.9752 11.6743 29.9487C14.5239 30.6727 15.0018 30.2189 14.654 27.1115C14.6273 27.019 14.593 26.9292 14.5516 26.843ZM21.3791 7.41959V30.1097C23.6012 30.1097 25.7942 30.3314 27.9237 30.0335C29.4129 29.7899 30.8268 29.1738 32.0495 28.2356C34.8634 26.0861 35.8111 22.0556 34.5838 18.6382C33.3418 15.1741 30.1475 12.8825 26.763 13.0835C26.4379 13.1025 25.908 13.4455 25.8738 13.6984C25.7617 14.5401 25.8316 15.4096 25.8316 16.3328C26.4428 16.3744 26.9028 16.3883 27.3612 16.4368C30.5913 16.7832 32.6509 19.8732 31.7325 23.0862C30.8758 26.0619 28.3854 27.4475 24.4628 26.5382V25.0677C24.4628 20.2941 24.4124 15.5205 24.4888 10.7486C24.5165 9.06679 22.9981 7.05932 21.3791 7.41959Z" fill="#C8C8C8"/>
<path d="M140.005 22.8718C140.28 22.8007 140.374 22.8077 140.417 22.7609C144.547 18.1831 152.857 20.6564 154.059 28.5339C155.006 34.7503 151.038 40.208 145.484 40.2236C143.244 40.2236 141.447 39.2259 139.906 37.2289C139.856 38.1451 139.818 38.8587 139.776 39.6364H135.27V10.7629H140.005V22.8718ZM139.901 30.427C139.924 33.4824 141.994 35.838 144.625 35.7964C147.257 35.7549 149.227 33.3906 149.229 30.2885C149.231 27.1863 147.243 24.8428 144.593 24.829C141.998 24.8238 139.874 27.3543 139.901 30.427Z" fill="#C8C8C8"/>
<path d="M60.2734 37.4817C57.3977 40.3067 54.3773 41.0082 51.0985 39.4338C47.7807 37.8402 46.3307 34.8125 46.1323 31.0729C45.83 25.3483 49.2047 20.9211 54.0522 20.5366C56.198 20.3634 58.0333 21.0666 59.6085 22.6012L60.4067 23.3911V21.1394H65.0396V48.8338H60.2734V37.4817ZM60.4148 30.368C60.4148 27.3437 58.3405 24.8703 55.7835 24.8356C53.1012 24.801 51.0562 27.2017 51.0839 30.3541C51.1099 33.4476 53.1175 35.7946 55.7445 35.8033C58.3714 35.8119 60.418 33.4199 60.4099 30.368H60.4148Z" fill="#C8C8C8"/>
<path d="M217.554 39.7089C215.414 39.7089 213.552 39.7522 211.702 39.6725C211.335 39.6569 210.889 39.2481 210.641 38.8965C208.7 36.1979 206.796 33.4682 204.681 30.4648V39.6309H199.839V10.8403H204.595V28.8903C205.471 27.8147 206.118 27.0248 206.762 26.2281C207.957 24.7506 209.109 23.2316 210.366 21.8165C210.789 21.3819 211.341 21.118 211.927 21.0699C213.585 20.9747 215.249 21.0353 217.198 21.0353L210.046 29.5017L217.554 39.7089Z" fill="#C8C8C8"/>
<path d="M116.057 10.8198H120.72V28.778C121.11 28.4004 121.334 28.2255 121.511 28.0072C123.164 25.9668 124.829 23.9351 126.448 21.8635C126.91 21.2712 127.376 20.9871 128.124 21.0148C129.781 21.0789 131.44 21.0356 133.385 21.0356L126.232 29.502L133.749 39.7023C131.577 39.7023 129.621 39.7352 127.671 39.6676C127.381 39.6572 127.053 39.2242 126.833 38.9159C124.883 36.1809 122.961 33.4321 120.819 30.3837V39.6382H116.057V10.8198Z" fill="#C8C8C8"/>
<path d="M187.164 40.2649C181.65 40.2805 177.636 36.0993 177.613 30.3212C177.591 24.6591 181.624 20.5091 187.143 20.5161C192.662 20.523 196.659 24.673 196.636 30.3559C196.613 36.0387 192.601 40.2493 187.164 40.2649ZM187.089 35.8032C189.768 35.8239 191.641 33.6225 191.714 30.394C191.776 27.2001 189.805 24.8219 187.107 24.8358C184.434 24.8514 182.542 27.1256 182.555 30.3126C182.558 33.5376 184.415 35.7824 187.089 35.8032Z" fill="#C8C8C8"/>
<path d="M165.901 40.265C160.374 40.265 156.383 36.0837 156.388 30.2986C156.388 24.6 160.392 20.4967 165.919 20.5158C171.384 20.5331 175.374 24.6364 175.388 30.2518C175.403 36.0214 171.386 40.265 165.901 40.265ZM161.32 30.5463C161.337 30.9534 161.381 31.3586 161.454 31.7587C161.889 33.7004 162.856 35.2021 164.778 35.6646C166.478 36.0751 168.029 35.6957 169.217 34.2165C170.833 32.19 170.937 28.634 169.313 26.6144C168.71 25.8703 167.921 25.3243 167.038 25.04C163.892 24.1358 161.327 26.5521 161.32 30.5463Z" fill="#C8C8C8"/>
<path d="M80.7961 21.0943H85.5803V39.6067H81.0546V37.2545L80.7864 37.0554C80.5068 37.4208 80.2532 37.814 79.9443 38.1483C78.1399 40.1038 75.9811 40.6962 73.5281 39.8942C71.1222 39.1096 69.573 37.239 69.4348 34.6842C69.1942 30.1963 69.3682 25.6774 69.3682 21.1064H74.0158C74.0158 24.141 74.0044 27.1133 74.0239 30.0855C74.0227 31.0376 74.0737 31.989 74.1767 32.9348C74.323 34.1992 74.8269 35.2921 76.0656 35.6593C76.6852 35.8646 77.3472 35.8758 77.9726 35.6916C78.598 35.5073 79.1606 35.1354 79.5932 34.6201C80.4726 33.6397 80.8108 32.4359 80.8059 31.097C80.8059 28.1958 80.8059 25.2928 80.8059 22.3916L80.7961 21.0943Z" fill="#C8C8C8"/>
<path d="M217.538 37.2028L220.282 34.3397C221.485 34.958 222.581 35.7011 223.779 36.0717C224.533 36.3056 225.495 36.1531 226.256 35.857C226.713 35.6837 227.217 34.8957 227.232 34.3726C227.246 33.8495 226.757 33.148 226.303 32.8708C225.578 32.4292 224.699 32.275 223.886 32.0048C222.997 31.7034 222.074 31.4852 221.227 31.0851C218.219 29.6648 217.41 25.8161 219.508 23.0898C222.221 19.5615 229.408 19.6689 232.025 23.2145L229.667 25.9979C228.384 25.4298 227.293 24.7855 226.126 24.4893C225.435 24.3161 224.572 24.5239 223.884 24.8201C223.48 24.9933 223.033 25.6706 223.033 26.1226C223.033 26.5747 223.494 27.1844 223.904 27.394C224.699 27.8028 225.604 27.9604 226.453 28.26C227.412 28.5943 228.404 28.8819 229.303 29.3391C230.993 30.193 232.118 31.5683 232.193 33.6572C232.273 35.8864 231.515 37.712 229.709 38.9505C226.284 41.294 220.412 40.492 217.538 37.2028Z" fill="#C8C8C8"/>
<path d="M113.384 23.1989L110.356 26.4085C110.062 26.1798 109.767 25.92 109.447 25.7156C106.928 24.0615 103.987 25.0228 103.073 27.9968C102.677 29.3324 102.614 30.7548 102.89 32.1243C103.649 35.6456 107.02 36.9013 109.85 34.8869C110.073 34.7276 110.281 34.5405 110.551 34.3327C111.294 35.1727 112.014 35.9816 112.723 36.794C112.981 37.0919 113.232 37.3985 113.477 37.6912C110.601 41.1328 103.789 41.0774 100.329 37.6444C96.7107 34.0556 96.5628 27.323 100.016 23.4813C103.468 19.6395 109.912 19.4802 113.384 23.1989Z" fill="#C8C8C8"/>
<path d="M94.3849 21.1118V39.6589H89.7031V21.1118H94.3849Z" fill="#C8C8C8"/>
<path d="M79.3141 15.5586H77.3715C77.313 15.2122 77.2544 14.8658 77.191 14.4951C77.0838 14.5355 76.9834 14.594 76.8935 14.6683C75.858 15.8894 74.5884 16.1631 73.1839 15.6071C71.7794 15.0511 71.2332 13.7625 71.2007 12.2607C71.1503 10.2775 71.1877 8.29083 71.1877 6.19849H73.4261C73.4261 7.6465 73.4261 9.12223 73.4261 10.598C73.4261 11.0518 73.4261 11.5108 73.4651 11.9628C73.5578 12.9397 73.8602 13.7538 74.9493 13.8491C75.9686 13.9374 76.8643 13.2896 77.0236 12.117C77.1829 10.9444 77.1309 9.72499 77.1569 8.52639C77.1715 7.78333 77.1569 7.04027 77.1569 6.19849H79.3108L79.3141 15.5586Z" fill="#C8C8C8"/>
<path d="M61.3106 15.5241H59.0445C59.0445 14.0657 59.0445 12.6679 59.0445 11.2684C59.06 10.7299 59.047 10.1909 59.0055 9.65404C58.9031 8.73083 58.591 7.92194 57.575 7.83014C56.559 7.73833 55.7982 8.24757 55.5283 9.27991C55.3333 10.0212 55.3349 10.8301 55.317 11.6113C55.2845 12.8861 55.3073 14.1627 55.3073 15.512H53.1777V6.17771H55.1285C55.1772 6.52413 55.226 6.85843 55.291 7.32956C56.4452 5.86766 57.7912 5.4433 59.329 6.09976C60.901 6.77009 61.2684 8.25277 61.2944 9.86536C61.3334 11.7222 61.3106 13.579 61.3106 15.5241Z" fill="#C8C8C8"/>
<path d="M64.903 8.26323L62.4548 8.14546V6.16229H69.5359V8.18183H67.2016V15.4962H64.903V8.26323Z" fill="#C8C8C8"/>
<path d="M85.4944 8.15403V6.15869H92.6324V8.14537L90.207 8.25795V15.5066H88.0189V8.27354L85.4944 8.15403Z" fill="#C8C8C8"/>
<path d="M48.6404 6.15533H50.7537V15.479H48.6404V6.15533Z" fill="#C8C8C8"/>
<path d="M83.8409 6.17084V15.4961H81.7439V6.17776L83.8409 6.17084Z" fill="#C8C8C8"/>
<path d="M238.511 37.5959C238.496 38.1582 238.278 38.6925 237.903 39.0887C237.528 39.4848 237.025 39.7125 236.497 39.7247C235.966 39.7247 235.457 39.4998 235.081 39.0996C234.706 38.6994 234.495 38.1567 234.495 37.5907C234.495 37.0247 234.706 36.482 235.081 36.0818C235.457 35.6816 235.966 35.4567 236.497 35.4567C237.026 35.4715 237.529 35.7015 237.904 36.0993C238.278 36.4971 238.496 37.0326 238.511 37.5959ZM236.501 35.8101C236.055 35.8016 235.624 35.9821 235.303 36.312C234.982 36.6419 234.798 37.094 234.79 37.569C234.782 38.0441 234.951 38.503 235.261 38.8449C235.57 39.1868 235.995 39.3836 236.44 39.3921C236.886 39.4006 237.317 39.2201 237.638 38.8902C237.959 38.5603 238.143 38.1081 238.151 37.6331C238.159 37.1581 237.99 36.6992 237.68 36.3573C237.371 36.0154 236.946 35.8186 236.501 35.8101Z" fill="#C8C8C8"/>
<path d="M66.1144 5.04946C66.7288 5.04946 67.2268 4.51879 67.2268 3.86417C67.2268 3.20956 66.7288 2.67889 66.1144 2.67889C65.5 2.67889 65.002 3.20956 65.002 3.86417C65.002 4.51879 65.5 5.04946 66.1144 5.04946Z" fill="#C8C8C8"/>
<path d="M89.1039 5.04946C89.7183 5.04946 90.2163 4.51879 90.2163 3.86417C90.2163 3.20956 89.7183 2.67889 89.1039 2.67889C88.4895 2.67889 87.9915 3.20956 87.9915 3.86417C87.9915 4.51879 88.4895 5.04946 89.1039 5.04946Z" fill="#C8C8C8"/>
<path d="M235.99 36.7005H236.207V38.5736H235.99V36.7005ZM236.085 37.5305H236.609C236.647 37.5315 236.685 37.5194 236.717 37.4958C236.75 37.4692 236.775 37.4339 236.791 37.3936C236.808 37.3449 236.817 37.2932 236.817 37.2411C236.817 37.189 236.808 37.1372 236.791 37.0886C236.776 37.0475 236.75 37.0116 236.717 36.9847C236.685 36.9616 236.647 36.9496 236.609 36.95H236.085V36.7005H236.6C236.682 36.6981 236.763 36.7209 236.833 36.7663C236.904 36.8105 236.961 36.8771 236.996 36.9569C237.032 37.0463 237.051 37.1428 237.051 37.2402C237.051 37.3377 237.032 37.4342 236.996 37.5236C236.96 37.6027 236.903 37.6689 236.833 37.7142C236.763 37.7599 236.682 37.7833 236.6 37.7817H236.085V37.5305ZM236.503 37.7228L236.717 37.6639L237.109 38.5736H236.854L236.503 37.7228Z" fill="#C8C8C8"/>
</svg>
