<svg width="135" height="48" viewBox="0 0 135 48" fill="none" xmlns="http://www.w3.org/2000/svg">
<g clip-path="url(#clip0)">
<rect width="135" height="48" fill="white"/>
<path d="M3 7.96457C3 4.47411 5.82958 1.64453 9.32004 1.64453H130.516C134.007 1.64453 136.836 4.47411 136.836 7.96457V40.6801C136.836 44.1705 134.007 47.0001 130.516 47.0001H9.32003C5.82957 47.0001 3 44.1705 3 40.6801V7.96457Z" fill="#EFF1F2"/>
<path d="M3 7.96457C3 4.47411 5.82958 1.64453 9.32004 1.64453H40.5485V47.0001H9.32004C5.82958 47.0001 3 44.1705 3 40.6801V7.96457Z" fill="#C8C8C8"/>
<path d="M30.4167 19.8377H29.4796V16.1005C29.4796 11.9783 26.117 8.62598 21.9823 8.62598C17.8475 8.62598 14.485 11.9783 14.485 16.1005V19.8377H13.5478C11.9984 19.8377 10.7363 21.0947 10.7363 22.6407V35.7211C10.7363 37.267 11.9984 38.524 13.5478 38.524H30.4167C31.9662 38.524 33.2282 37.267 33.2282 35.7211V22.6407C33.2282 21.0947 31.9662 19.8377 30.4167 19.8377ZM16.9841 16.1005C16.9841 13.3524 19.2258 11.1175 21.9823 11.1175C24.7388 11.1175 26.9805 13.3524 26.9805 16.1005V19.8377H16.9841V16.1005ZM23.2318 29.4574V32.2952C23.2318 32.9829 22.6733 33.541 21.9823 33.541C21.2913 33.541 20.7327 32.9829 20.7327 32.2952V29.4574C19.9892 29.0252 19.4832 28.2304 19.4832 27.3122C19.4832 25.9382 20.604 24.8207 21.9823 24.8207C23.3605 24.8207 24.4814 25.9382 24.4814 27.3122C24.4814 28.2304 23.9753 29.0252 23.2318 29.4574Z" fill="#474747"/>
<path d="M51.5017 21.281C51.5017 20.9133 51.3721 20.6321 51.1128 20.4375C50.8536 20.2385 50.3869 20.0309 49.7128 19.8146C49.0388 19.594 48.5051 19.3777 48.1119 19.1658C47.0403 18.5862 46.5046 17.8054 46.5046 16.8235C46.5046 16.3131 46.6471 15.8589 46.9323 15.461C47.2218 15.0587 47.6345 14.7451 48.1703 14.5202C48.7104 14.2952 49.3153 14.1828 49.9851 14.1828C50.6591 14.1828 51.2597 14.3061 51.7869 14.5526C52.314 14.7948 52.7224 15.1387 53.0119 15.5842C53.3057 16.0298 53.4526 16.5359 53.4526 17.1025H51.5082C51.5082 16.67 51.3721 16.3347 51.0999 16.0968C50.8276 15.8546 50.4452 15.7335 49.9527 15.7335C49.4774 15.7335 49.1079 15.8351 48.8443 16.0384C48.5808 16.2374 48.449 16.5013 48.449 16.83C48.449 17.1371 48.6024 17.3945 48.9092 17.6021C49.2203 17.8097 49.6761 18.0044 50.2767 18.1861C51.3829 18.5191 52.1887 18.9322 52.6943 19.4253C53.1998 19.9184 53.4526 20.5326 53.4526 21.268C53.4526 22.0855 53.1437 22.7279 52.5258 23.195C51.9079 23.6578 51.0761 23.8893 50.0304 23.8893C49.3045 23.8893 48.6434 23.7573 48.0471 23.4935C47.4508 23.2253 46.995 22.8598 46.6796 22.3969C46.3684 21.9341 46.2129 21.3978 46.2129 20.7879H48.1638C48.1638 21.8303 48.786 22.3515 50.0304 22.3515C50.4928 22.3515 50.8536 22.2585 51.1128 22.0725C51.3721 21.8822 51.5017 21.6184 51.5017 21.281Z" fill="#474747"/>
<path d="M58.7155 23.7595C58.6291 23.5908 58.5664 23.381 58.5275 23.1301C58.0738 23.6362 57.484 23.8893 56.7581 23.8893C56.0711 23.8893 55.5007 23.6903 55.047 23.2923C54.5977 22.8944 54.373 22.3926 54.373 21.787C54.373 21.0431 54.6473 20.4721 55.1961 20.0741C55.7492 19.6762 56.5464 19.4751 57.5877 19.4707H58.4498V19.0685C58.4498 18.744 58.3655 18.4845 58.197 18.2899C58.0328 18.0952 57.7714 17.9979 57.4127 17.9979C57.0973 17.9979 56.8489 18.0736 56.6674 18.225C56.4902 18.3764 56.4016 18.584 56.4016 18.8479H54.5285C54.5285 18.4413 54.6538 18.0649 54.9044 17.7189C55.1551 17.3729 55.5094 17.1025 55.9674 16.9079C56.4254 16.7089 56.9396 16.6094 57.51 16.6094C58.3742 16.6094 59.059 16.8278 59.5646 17.2647C60.0744 17.6973 60.3294 18.3072 60.3294 19.0944V22.1374C60.3337 22.8035 60.4266 23.3075 60.6081 23.6492V23.7595H58.7155ZM57.1665 22.4553C57.443 22.4553 57.6979 22.3948 57.9313 22.2737C58.1646 22.1482 58.3374 21.9817 58.4498 21.7741V20.5673H57.7498C56.8121 20.5673 56.3131 20.8917 56.2526 21.5405L56.2461 21.6508C56.2461 21.8844 56.3282 22.0769 56.4924 22.2283C56.6566 22.3796 56.8813 22.4553 57.1665 22.4553Z" fill="#474747"/>
<path d="M62.2803 23.7595V18.1147H61.2368V16.7392H62.2803V16.1422C62.2803 15.355 62.505 14.7451 62.9543 14.3125C63.408 13.8757 64.0411 13.6572 64.8534 13.6572C65.1126 13.6572 65.4302 13.7005 65.8062 13.787L65.7867 15.2404C65.6312 15.2014 65.441 15.182 65.2163 15.182C64.512 15.182 64.1599 15.5129 64.1599 16.1747V16.7392H65.5534V18.1147H64.1599V23.7595H62.2803Z" fill="#474747"/>
<path d="M69.5978 23.8893C68.5694 23.8893 67.7311 23.5735 67.083 22.942C66.4392 22.3104 66.1173 21.4691 66.1173 20.418V20.2363C66.1173 19.5313 66.2534 18.9019 66.5256 18.3483C66.7978 17.7903 67.1824 17.362 67.6793 17.0636C68.1805 16.7608 68.7509 16.6094 69.3904 16.6094C70.3496 16.6094 71.1036 16.9122 71.6524 17.5178C72.2055 18.1233 72.482 18.9819 72.482 20.0936V20.8592H68.0163C68.0768 21.3177 68.2583 21.6854 68.5608 21.9622C68.8675 22.2391 69.2543 22.3775 69.7209 22.3775C70.4425 22.3775 71.0064 22.1158 71.4126 21.5924L72.3329 22.624C72.0521 23.022 71.6718 23.3334 71.1922 23.5584C70.7126 23.779 70.1811 23.8893 69.5978 23.8893ZM69.3839 18.1277C69.0123 18.1277 68.7098 18.2531 68.4765 18.504C68.2475 18.7549 68.1006 19.1139 68.0358 19.581H70.6413V19.4318C70.6326 19.0166 70.5203 18.6965 70.3042 18.4715C70.0882 18.2423 69.7814 18.1277 69.3839 18.1277Z" fill="#474747"/>
<path d="M76.5977 21.2161C76.5977 20.7792 76.7187 20.3748 76.9606 20.0028C77.2069 19.6308 77.6563 19.2177 78.3088 18.7635C78.0279 18.3872 77.8075 18.0347 77.6477 17.7059C77.4878 17.3729 77.4079 17.0268 77.4079 16.6678C77.4079 15.9325 77.639 15.3355 78.1014 14.877C78.568 14.4142 79.1946 14.1828 79.981 14.1828C80.6853 14.1828 81.2621 14.3926 81.7115 14.8121C82.1652 15.2317 82.3921 15.7551 82.3921 16.3823C82.3921 17.1349 82.0118 17.7989 81.2513 18.3742L80.5254 18.8998L82.1522 20.7943C82.4072 20.2926 82.5346 19.7389 82.5346 19.1333H84.1291C84.1291 20.3618 83.846 21.3567 83.28 22.118L84.6929 23.7595H82.5671L82.0809 23.2015C81.3853 23.66 80.5859 23.8893 79.6828 23.8893C78.7495 23.8893 78.002 23.6449 77.4403 23.1561C76.8785 22.663 76.5977 22.0163 76.5977 21.2161ZM79.7736 22.384C80.2229 22.384 80.6486 22.2585 81.0504 22.0077L79.1902 19.8535L79.0541 19.9509C78.6696 20.2796 78.4773 20.6667 78.4773 21.1123C78.4773 21.4886 78.5961 21.7957 78.8338 22.0336C79.0757 22.2672 79.389 22.384 79.7736 22.384ZM79.0865 16.6418C79.0865 16.9663 79.2767 17.375 79.6569 17.8681L80.156 17.5372C80.4109 17.3729 80.5859 17.2128 80.681 17.0571C80.7803 16.9014 80.83 16.7154 80.83 16.4991C80.83 16.2828 80.7501 16.0947 80.5902 15.9346C80.4304 15.7746 80.2251 15.6945 79.9745 15.6945C79.7066 15.6945 79.4905 15.7811 79.3264 15.9541C79.1665 16.1271 79.0865 16.3564 79.0865 16.6418Z" fill="#474747"/>
<path d="M93.8901 21.281C93.8901 20.9133 93.7604 20.6321 93.5012 20.4375C93.2419 20.2385 92.7753 20.0309 92.1012 19.8146C91.4271 19.594 90.8935 19.3777 90.5003 19.1658C89.4287 18.5862 88.8929 17.8054 88.8929 16.8235C88.8929 16.3131 89.0355 15.8589 89.3207 15.461C89.6102 15.0587 90.0228 14.7451 90.5586 14.5202C91.0987 14.2952 91.7037 14.1828 92.3734 14.1828C93.0475 14.1828 93.6481 14.3061 94.1752 14.5526C94.7024 14.7948 95.1107 15.1387 95.4002 15.5842C95.694 16.0298 95.841 16.5359 95.841 17.1025H93.8965C93.8965 16.67 93.7604 16.3347 93.4882 16.0968C93.216 15.8546 92.8336 15.7335 92.341 15.7335C91.8657 15.7335 91.4963 15.8351 91.2327 16.0384C90.9691 16.2374 90.8373 16.5013 90.8373 16.83C90.8373 17.1371 90.9907 17.3945 91.2975 17.6021C91.6086 17.8097 92.0645 18.0044 92.6651 18.1861C93.7712 18.5191 94.5771 18.9322 95.0826 19.4253C95.5882 19.9184 95.841 20.5326 95.841 21.268C95.841 22.0855 95.532 22.7279 94.9141 23.195C94.2962 23.6578 93.4644 23.8893 92.4188 23.8893C91.6929 23.8893 91.0318 23.7573 90.4355 23.4935C89.8392 23.2253 89.3833 22.8598 89.0679 22.3969C88.7568 21.9341 88.6012 21.3978 88.6012 20.7879H90.5521C90.5521 21.8303 91.1743 22.3515 92.4188 22.3515C92.8811 22.3515 93.2419 22.2585 93.5012 22.0725C93.7604 21.8822 93.8901 21.6184 93.8901 21.281Z" fill="#474747"/>
<path d="M100.268 23.8893C99.2394 23.8893 98.4011 23.5735 97.753 22.942C97.1091 22.3104 96.7872 21.4691 96.7872 20.418V20.2363C96.7872 19.5313 96.9233 18.9019 97.1956 18.3483C97.4678 17.7903 97.8523 17.362 98.3493 17.0636C98.8505 16.7608 99.4208 16.6094 100.06 16.6094C101.02 16.6094 101.774 16.9122 102.322 17.5178C102.875 18.1233 103.152 18.9819 103.152 20.0936V20.8592H98.6863C98.7468 21.3177 98.9283 21.6854 99.2307 21.9622C99.5375 22.2391 99.9242 22.3775 100.391 22.3775C101.112 22.3775 101.676 22.1158 102.083 21.5924L103.003 22.624C102.722 23.022 102.342 23.3334 101.862 23.5584C101.383 23.779 100.851 23.8893 100.268 23.8893ZM100.054 18.1277C99.6823 18.1277 99.3798 18.2531 99.1465 18.504C98.9175 18.7549 98.7705 19.1139 98.7057 19.581H101.311V19.4318C101.303 19.0166 101.19 18.6965 100.974 18.4715C100.758 18.2423 100.451 18.1277 100.054 18.1277Z" fill="#474747"/>
<path d="M107.138 22.3775C107.484 22.3775 107.765 22.2823 107.981 22.092C108.197 21.9017 108.309 21.6486 108.318 21.3329H110.074C110.07 21.8087 109.94 22.2456 109.685 22.6435C109.43 23.0371 109.08 23.3442 108.635 23.5648C108.194 23.7811 107.706 23.8893 107.17 23.8893C106.168 23.8893 105.377 23.5713 104.798 22.9355C104.219 22.2953 103.93 21.4129 103.93 20.2883V20.165C103.93 19.0836 104.217 18.2207 104.792 17.5762C105.366 16.9316 106.155 16.6094 107.157 16.6094C108.035 16.6094 108.737 16.8603 109.264 17.362C109.795 17.8595 110.065 18.5234 110.074 19.3539H108.318C108.309 18.9906 108.197 18.6965 107.981 18.4715C107.765 18.2423 107.479 18.1277 107.125 18.1277C106.689 18.1277 106.358 18.2877 106.133 18.6078C105.913 18.9236 105.803 19.4383 105.803 20.152V20.3467C105.803 21.069 105.913 21.5881 106.133 21.9038C106.354 22.2196 106.689 22.3775 107.138 22.3775Z" fill="#474747"/>
<path d="M115.343 23.0458C114.881 23.6081 114.242 23.8893 113.425 23.8893C112.673 23.8893 112.098 23.673 111.701 23.2404C111.308 22.8079 111.107 22.1742 111.098 21.3394V16.7392H112.971V21.2745C112.971 22.0055 113.304 22.371 113.969 22.371C114.605 22.371 115.041 22.1504 115.279 21.7092V16.7392H117.158V23.7595H115.395L115.343 23.0458Z" fill="#474747"/>
<path d="M122.512 18.4975C122.257 18.4629 122.032 18.4456 121.838 18.4456C121.129 18.4456 120.665 18.6856 120.444 19.1658V23.7595H118.571V16.7392H120.341L120.392 17.5762C120.768 16.9316 121.289 16.6094 121.955 16.6094C122.162 16.6094 122.356 16.6375 122.538 16.6937L122.512 18.4975Z" fill="#474747"/>
<path d="M126.517 23.8893C125.489 23.8893 124.651 23.5735 124.003 22.942C123.359 22.3104 123.037 21.4691 123.037 20.418V20.2363C123.037 19.5313 123.173 18.9019 123.445 18.3483C123.717 17.7903 124.102 17.362 124.599 17.0636C125.1 16.7608 125.671 16.6094 126.31 16.6094C127.269 16.6094 128.023 16.9122 128.572 17.5178C129.125 18.1233 129.402 18.9819 129.402 20.0936V20.8592H124.936C124.996 21.3177 125.178 21.6854 125.48 21.9622C125.787 22.2391 126.174 22.3775 126.641 22.3775C127.362 22.3775 127.926 22.1158 128.332 21.5924L129.253 22.624C128.972 23.022 128.591 23.3334 128.112 23.5584C127.632 23.779 127.101 23.8893 126.517 23.8893ZM126.304 18.1277C125.932 18.1277 125.629 18.2531 125.396 18.504C125.167 18.7549 125.02 19.1139 124.955 19.581H127.561V19.4318C127.552 19.0166 127.44 18.6965 127.224 18.4715C127.008 18.2423 126.701 18.1277 126.304 18.1277Z" fill="#474747"/>
<path d="M49.1494 31.9268C48.3193 31.688 47.7143 31.3953 47.3346 31.0487C46.9582 30.6989 46.77 30.2682 46.77 29.7569C46.77 29.1782 47.0002 28.7005 47.4606 28.3237C47.9244 27.9435 48.526 27.7534 49.2653 27.7534C49.7694 27.7534 50.2181 27.851 50.6113 28.0461C51.0079 28.2412 51.3137 28.5104 51.5288 28.8535C51.7472 29.1967 51.8564 29.5718 51.8564 29.9789H50.8835C50.8835 29.5348 50.7424 29.1866 50.4601 28.9343C50.1778 28.6786 49.7795 28.5508 49.2653 28.5508C48.7881 28.5508 48.4151 28.6567 48.1462 28.8687C47.8807 29.0773 47.7479 29.3683 47.7479 29.7417C47.7479 30.0411 47.874 30.2951 48.126 30.5037C48.3814 30.709 48.8133 30.8974 49.4216 31.0689C50.0332 31.2405 50.5105 31.4306 50.8533 31.6392C51.1994 31.8444 51.4548 32.085 51.6195 32.3608C51.7875 32.6367 51.8716 32.9614 51.8716 33.3348C51.8716 33.9303 51.6397 34.408 51.1759 34.768C50.7121 35.1246 50.0921 35.3029 49.3157 35.3029C48.8116 35.3029 48.3411 35.207 47.9042 35.0153C47.4673 34.8201 47.1296 34.5543 46.891 34.2179C46.6557 33.8815 46.5381 33.4996 46.5381 33.0724H47.511C47.511 33.5165 47.674 33.868 48 34.1271C48.3294 34.3828 48.7679 34.5106 49.3157 34.5106C49.8266 34.5106 50.2181 34.4063 50.4903 34.1977C50.7625 33.9891 50.8986 33.7049 50.8986 33.3449C50.8986 32.9849 50.7726 32.7073 50.5205 32.5122C50.2685 32.3137 49.8114 32.1186 49.1494 31.9268Z" fill="#474747"/>
<path d="M55.2793 31.9268C54.4492 31.688 53.8443 31.3953 53.4645 31.0487C53.0881 30.6989 52.8999 30.2682 52.8999 29.7569C52.8999 29.1782 53.1301 28.7005 53.5906 28.3237C54.0543 27.9435 54.6559 27.7534 55.3953 27.7534C55.8994 27.7534 56.348 27.851 56.7412 28.0461C57.1378 28.2412 57.4436 28.5104 57.6587 28.8535C57.8772 29.1967 57.9864 29.5718 57.9864 29.9789H57.0135C57.0135 29.5348 56.8723 29.1866 56.59 28.9343C56.3077 28.6786 55.9095 28.5508 55.3953 28.5508C54.9181 28.5508 54.545 28.6567 54.2762 28.8687C54.0107 29.0773 53.8779 29.3683 53.8779 29.7417C53.8779 30.0411 54.0039 30.2951 54.256 30.5037C54.5114 30.709 54.9433 30.8974 55.5516 31.0689C56.1632 31.2405 56.6404 31.4306 56.9832 31.6392C57.3294 31.8444 57.5848 32.085 57.7495 32.3608C57.9175 32.6367 58.0015 32.9614 58.0015 33.3348C58.0015 33.9303 57.7696 34.408 57.3059 34.768C56.8421 35.1246 56.222 35.3029 55.4457 35.3029C54.9416 35.3029 54.4711 35.207 54.0342 35.0153C53.5973 34.8201 53.2595 34.5543 53.0209 34.2179C52.7857 33.8815 52.668 33.4996 52.668 33.0724H53.641C53.641 33.5165 53.804 33.868 54.13 34.1271C54.4593 34.3828 54.8979 34.5106 55.4457 34.5106C55.9565 34.5106 56.348 34.4063 56.6203 34.1977C56.8925 33.9891 57.0286 33.7049 57.0286 33.3449C57.0286 32.9849 56.9026 32.7073 56.6505 32.5122C56.3985 32.3137 55.9414 32.1186 55.2793 31.9268Z" fill="#474747"/>
<path d="M60.2196 34.4097H63.698V35.202H59.2467V27.8543H60.2196V34.4097Z" fill="#474747"/>
<path d="M71.5116 31.8057H68.3307V34.4097H72.0258V35.202H67.3628V27.8543H71.9754V28.6517H68.3307V31.0134H71.5116V31.8057Z" fill="#474747"/>
<path d="M78.8716 35.202H77.8987L74.2036 29.5399V35.202H73.2306V27.8543H74.2036L77.9088 33.5417V27.8543H78.8716V35.202Z" fill="#474747"/>
<path d="M85.9896 32.8705C85.8989 33.6477 85.6116 34.2482 85.1276 34.6721C84.647 35.0926 84.0068 35.3029 83.207 35.3029C82.3399 35.3029 81.6442 34.9917 81.1199 34.3693C80.599 33.7469 80.3386 32.9142 80.3386 31.8713V31.1648C80.3386 30.4819 80.4596 29.8813 80.7015 29.3632C80.9469 28.8451 81.293 28.4481 81.74 28.1723C82.187 27.893 82.7045 27.7534 83.2927 27.7534C84.0723 27.7534 84.6974 27.9721 85.1679 28.4095C85.6384 28.8435 85.9123 29.4457 85.9896 30.2161H85.0167C84.9327 29.6307 84.7495 29.2068 84.4672 28.9444C84.1883 28.682 83.7968 28.5508 83.2927 28.5508C82.6743 28.5508 82.1887 28.7795 81.8358 29.2371C81.4863 29.6946 81.3115 30.3456 81.3115 31.19V31.9016C81.3115 32.6989 81.4779 33.3331 81.8106 33.8041C82.1433 34.2751 82.6087 34.5106 83.207 34.5106C83.7447 34.5106 84.1564 34.3895 84.442 34.1473C84.731 33.9017 84.9226 33.4761 85.0167 32.8705H85.9896Z" fill="#474747"/>
<path d="M90.0074 32.2296H88.2833V35.202H87.3104V27.8543H89.7402C90.5669 27.8543 91.2021 28.0427 91.6457 28.4195C92.0927 28.7964 92.3162 29.3447 92.3162 30.0647C92.3162 30.5222 92.1919 30.9209 91.9432 31.2607C91.6978 31.6005 91.355 31.8545 90.9148 32.0227L92.6388 35.1414V35.202H91.6004L90.0074 32.2296ZM88.2833 31.4373H89.7705C90.251 31.4373 90.6325 31.3128 90.9148 31.0639C91.2004 30.8149 91.3433 30.4819 91.3433 30.0647C91.3433 29.6105 91.2072 29.2623 90.9349 29.0201C90.6661 28.7778 90.2762 28.655 89.7654 28.6517H88.2833V31.4373Z" fill="#474747"/>
<path d="M95.6736 31.5433L97.5892 27.8543H98.6881L96.1575 32.4618V35.202H95.1896V32.4618L92.659 27.8543H93.768L95.6736 31.5433Z" fill="#474747"/>
<path d="M100.604 32.3255V35.202H99.6359V27.8543H102.343C103.146 27.8543 103.775 28.0596 104.228 28.47C104.685 28.8805 104.914 29.4238 104.914 30.1C104.914 30.8132 104.69 31.3633 104.243 31.7502C103.8 32.1337 103.163 32.3255 102.333 32.3255H100.604ZM100.604 31.5332H102.343C102.86 31.5332 103.257 31.4121 103.533 31.1699C103.808 30.9243 103.946 30.571 103.946 30.1101C103.946 29.6727 103.808 29.3229 103.533 29.0604C103.257 28.798 102.879 28.6618 102.398 28.6517H100.604V31.5332Z" fill="#474747"/>
<path d="M111.22 28.6517H108.861V35.202H107.898V28.6517H105.544V27.8543H111.22V28.6517Z" fill="#474747"/>
<path d="M113.348 35.202H112.38V27.8543H113.348V35.202Z" fill="#474747"/>
<path d="M120.768 31.7653C120.768 32.4853 120.647 33.1144 120.405 33.6527C120.163 34.1876 119.82 34.5964 119.377 34.879C118.933 35.1616 118.416 35.3029 117.824 35.3029C117.246 35.3029 116.734 35.1616 116.287 34.879C115.84 34.593 115.492 34.1876 115.243 33.6628C114.998 33.1346 114.872 32.524 114.865 31.8309V31.3011C114.865 30.5946 114.988 29.9705 115.233 29.4288C115.478 28.8872 115.824 28.4734 116.271 28.1874C116.722 27.8981 117.236 27.7534 117.814 27.7534C118.402 27.7534 118.92 27.8964 119.367 28.1824C119.817 28.465 120.163 28.8771 120.405 29.4187C120.647 29.957 120.768 30.5845 120.768 31.3011V31.7653ZM119.805 31.291C119.805 30.4196 119.631 29.7518 119.281 29.2875C118.931 28.8199 118.442 28.5861 117.814 28.5861C117.202 28.5861 116.72 28.8199 116.367 29.2875C116.018 29.7518 115.838 30.3978 115.828 31.2254V31.7653C115.828 32.6098 116.004 33.2742 116.357 33.7587C116.713 34.2398 117.202 34.4803 117.824 34.4803C118.449 34.4803 118.933 34.2532 119.276 33.7991C119.619 33.3415 119.795 32.6872 119.805 31.836V31.291Z" fill="#474747"/>
<path d="M127.861 35.202H126.888L123.193 29.5399V35.202H122.22V27.8543H123.193L126.898 33.5417V27.8543H127.861V35.202Z" fill="#474747"/>
</g>
<defs>
<clipPath id="clip0">
<rect width="135" height="48" fill="white"/>
</clipPath>
</defs>
</svg>
