<svg width="110" height="19" viewBox="0 0 110 19" fill="none" xmlns="http://www.w3.org/2000/svg">
<path d="M19.1215 6.61513L13.1978 5.75805L10.5497 0.413454C10.4774 0.267122 10.3584 0.148663 10.2114 0.0766586C9.84278 -0.104514 9.39483 0.0464631 9.21052 0.413454L6.56247 5.75805L0.638762 6.61513C0.475446 6.63836 0.326129 6.71501 0.211808 6.83115C0.0735997 6.97257 -0.00255918 7.16283 6.56668e-05 7.36013C0.00269051 7.55742 0.0838843 7.74561 0.225806 7.88334L4.51168 12.0433L3.49912 17.9175C3.47538 18.0542 3.49057 18.1947 3.54297 18.3232C3.59537 18.4517 3.68288 18.563 3.79559 18.6445C3.90829 18.726 4.04168 18.7744 4.18062 18.7843C4.31956 18.7941 4.4585 18.765 4.58168 18.7003L9.88011 15.9269L15.1785 18.7003C15.3232 18.7769 15.4912 18.8025 15.6522 18.7746C16.0581 18.7049 16.3311 18.3217 16.2611 17.9175L15.2485 12.0433L19.5344 7.88334C19.6511 7.76953 19.7281 7.62087 19.7514 7.45828C19.8144 7.0518 19.5298 6.67552 19.1215 6.61513Z" fill="#FEA250"/>
<path d="M41.5189 6.61513L35.5952 5.75805L32.9472 0.413454C32.8748 0.267122 32.7559 0.148663 32.6089 0.0766586C32.2402 -0.104514 31.7923 0.0464631 31.608 0.413454L28.9599 5.75805L23.0362 6.61513C22.8729 6.63836 22.7236 6.71501 22.6093 6.83115C22.4711 6.97257 22.3949 7.16283 22.3975 7.36013C22.4002 7.55742 22.4813 7.74561 22.6233 7.88334L26.9091 12.0433L25.8966 17.9175C25.8728 18.0542 25.888 18.1947 25.9404 18.3232C25.9928 18.4517 26.0803 18.563 26.193 18.6445C26.3058 18.726 26.4391 18.7744 26.5781 18.7843C26.717 18.7941 26.856 18.765 26.9791 18.7003L32.2776 15.9269L37.576 18.7003C37.7207 18.7769 37.8886 18.8025 38.0496 18.7746C38.4556 18.7049 38.7286 18.3217 38.6586 17.9175L37.646 12.0433L41.9319 7.88334C42.0485 7.76953 42.1255 7.62087 42.1489 7.45828C42.2119 7.0518 41.9272 6.67552 41.5189 6.61513Z" fill="#FEA250"/>
<path d="M63.9166 6.61513L57.9929 5.75805L55.3449 0.413454C55.2725 0.267122 55.1536 0.148663 55.0066 0.0766586C54.6379 -0.104514 54.19 0.0464631 54.0057 0.413454L51.3576 5.75805L45.4339 6.61513C45.2706 6.63836 45.1213 6.71501 45.007 6.83115C44.8688 6.97257 44.7926 7.16283 44.7952 7.36013C44.7979 7.55742 44.8791 7.74561 45.021 7.88334L49.3068 12.0433L48.2943 17.9175C48.2705 18.0542 48.2857 18.1947 48.3381 18.3232C48.3905 18.4517 48.478 18.563 48.5908 18.6445C48.7035 18.726 48.8368 18.7744 48.9758 18.7843C49.1147 18.7941 49.2537 18.765 49.3768 18.7003L54.6753 15.9269L59.9737 18.7003C60.1184 18.7769 60.2864 18.8025 60.4473 18.7746C60.8533 18.7049 61.1263 18.3217 61.0563 17.9175L60.0437 12.0433L64.3296 7.88334C64.4462 7.76953 64.5232 7.62087 64.5466 7.45828C64.6096 7.0518 64.3249 6.67552 63.9166 6.61513Z" fill="#FEA250"/>
<path d="M86.3143 6.61513L80.3906 5.75805L77.7426 0.413454C77.6703 0.267122 77.5513 0.148663 77.4043 0.0766586C77.0357 -0.104514 76.5877 0.0464631 76.4034 0.413454L73.7553 5.75805L67.8316 6.61513C67.6683 6.63836 67.519 6.71501 67.4047 6.83115C67.2665 6.97257 67.1903 7.16283 67.1929 7.36013C67.1956 7.55742 67.2768 7.74561 67.4187 7.88334L71.7046 12.0433L70.692 17.9175C70.6683 18.0542 70.6834 18.1947 70.7358 18.3232C70.7882 18.4517 70.8758 18.563 70.9885 18.6445C71.1012 18.726 71.2345 18.7744 71.3735 18.7843C71.5124 18.7941 71.6514 18.765 71.7745 18.7003L77.073 15.9269L82.3714 18.7003C82.5161 18.7769 82.6841 18.8025 82.845 18.7746C83.251 18.7049 83.524 18.3217 83.454 17.9175L82.4414 12.0433L86.7273 7.88334C86.8439 7.76953 86.9209 7.62087 86.9443 7.45828C87.0073 7.0518 86.7226 6.67552 86.3143 6.61513Z" fill="#FEA250"/>
<path d="M108.712 6.61513L102.788 5.75805L100.14 0.413454C100.068 0.267122 99.9487 0.148663 99.8017 0.0766586C99.4331 -0.104514 98.9852 0.0464631 98.8008 0.413454L96.1528 5.75805L90.2291 6.61513C90.0658 6.63836 89.9165 6.71501 89.8021 6.83115C89.6639 6.97257 89.5878 7.16283 89.5904 7.36013C89.593 7.55742 89.6742 7.74561 89.8161 7.88334L94.102 12.0433L93.0895 17.9175C93.0657 18.0542 93.0809 18.1947 93.1333 18.3232C93.1857 18.4517 93.2732 18.563 93.3859 18.6445C93.4986 18.726 93.632 18.7744 93.771 18.7843C93.9099 18.7941 94.0488 18.765 94.172 18.7003L99.4704 15.9269L104.769 18.7003C104.914 18.7769 105.082 18.8025 105.242 18.7746C105.648 18.7049 105.921 18.3217 105.851 17.9175L104.839 12.0433L109.125 7.88334C109.241 7.76953 109.318 7.62087 109.342 7.45828C109.405 7.0518 109.12 6.67552 108.712 6.61513Z" fill="#FEA250"/>
</svg>
