<svg width="168" height="64" viewBox="0 0 168 64" fill="none" xmlns="http://www.w3.org/2000/svg">
<rect width="168" height="64" fill="white"/>
<path d="M55.0575 21.5266L40.5985 16.5697C40.1688 16.4198 39.7006 16.4198 39.271 16.5697L24.812 21.5266C23.972 21.8124 23.4102 22.6034 23.4102 23.4971V34.6487C23.4102 48.2593 38.4861 54.8759 39.1278 55.1507C39.3867 55.2589 39.6593 55.3144 39.9347 55.3144C40.2102 55.3144 40.4828 55.2589 40.7417 55.1479C41.3834 54.8731 56.4593 48.2593 56.4593 34.6487V23.4971C56.4593 22.6034 55.8975 21.8124 55.0575 21.5266Z" fill="#6772E5"/>
<path d="M71.1751 34.8901C71.1751 34.0299 71.8752 33.699 73.0348 33.699C74.6976 33.699 76.798 34.2063 78.4608 35.1106V29.9274C76.6449 29.1996 74.8508 28.9129 73.0348 28.9129C68.5933 28.9129 65.6396 31.2508 65.6396 35.1547C65.6396 41.2422 73.9537 40.2718 73.9537 42.8965C73.9537 43.911 73.0786 44.2419 71.8533 44.2419C70.0374 44.2419 67.7182 43.492 65.8803 42.4774V47.7268C67.9151 48.609 69.9717 48.984 71.8533 48.984C76.4042 48.984 79.5329 46.7122 79.5329 42.7641C79.511 36.1914 71.1751 37.3604 71.1751 34.8901ZM85.9654 24.5016L80.6269 25.6485L80.605 43.3155C80.605 46.5798 83.0336 48.984 86.2717 48.984C88.0658 48.984 89.3785 48.6531 90.1005 48.2561V43.7787C89.4004 44.0654 85.9435 45.08 85.9435 41.8157V33.9858H90.1005V29.2878H85.9435L85.9654 24.5016ZM96.905 30.92L96.5549 29.2878H91.829V48.5869H97.2988V35.5076C98.5897 33.8093 100.778 34.1181 101.456 34.3607V29.2878C100.756 29.0231 98.1958 28.5379 96.905 30.92ZM102.79 29.2878H108.282V48.5869H102.79V29.2878ZM102.79 27.6115L108.282 26.4205V21.9431L102.79 23.1121V27.6115ZM119.703 28.9129C117.559 28.9129 116.18 29.9274 115.415 30.6332L115.13 29.2658H110.317V54.9832L115.787 53.8143L115.809 47.5724C116.596 48.1458 117.756 48.9619 119.681 48.9619C123.598 48.9619 127.164 45.7858 127.164 38.794C127.142 32.3977 123.532 28.9129 119.703 28.9129ZM118.39 44.1095C117.099 44.1095 116.334 43.6464 115.809 43.0729L115.787 34.8901C116.356 34.2504 117.143 33.8093 118.39 33.8093C120.381 33.8093 121.76 36.0591 121.76 38.9484C121.76 41.9039 120.403 44.1095 118.39 44.1095ZM144.405 39.0146C144.405 33.3682 141.692 28.9129 136.506 28.9129C131.299 28.9129 128.148 33.3682 128.148 38.9705C128.148 45.6094 131.868 48.9619 137.206 48.9619C139.81 48.9619 141.779 48.3664 143.267 47.5283V43.117C141.779 43.8669 140.073 44.3301 137.906 44.3301C135.784 44.3301 133.903 43.5802 133.662 40.9776H144.361C144.361 40.6908 144.405 39.5439 144.405 39.0146ZM133.596 36.9192C133.596 34.4269 135.106 33.3903 136.484 33.3903C137.819 33.3903 139.241 34.4269 139.241 36.9192H133.596Z" fill="#6772E5"/>
<path d="M83.3357 14.8248V17.3898H82.4688V10.8378H84.8936C85.613 10.8378 86.176 11.0208 86.5824 11.3868C86.9918 11.7528 87.1965 12.2373 87.1965 12.8403C87.1965 13.4763 86.9963 13.9668 86.5959 14.3118C86.1985 14.6538 85.6281 14.8248 84.8845 14.8248H83.3357ZM83.3357 14.1183H84.8936C85.3572 14.1183 85.7124 14.0103 85.9592 13.7943C86.2061 13.5753 86.3295 13.2603 86.3295 12.8493C86.3295 12.4593 86.2061 12.1473 85.9592 11.9133C85.7124 11.6793 85.3737 11.5578 84.9432 11.5488H83.3357V14.1183Z" fill="#474747"/>
<path d="M87.8873 14.9103C87.8873 14.4333 87.9806 14.0043 88.1673 13.6233C88.3569 13.2423 88.6188 12.9483 88.953 12.7413C89.2901 12.5343 89.674 12.4308 90.1044 12.4308C90.7697 12.4308 91.3071 12.6603 91.7165 13.1193C92.1289 13.5783 92.3351 14.1888 92.3351 14.9508V15.0093C92.3351 15.4833 92.2433 15.9093 92.0596 16.2873C91.879 16.6623 91.6186 16.9548 91.2785 17.1648C90.9413 17.3748 90.553 17.4798 90.1135 17.4798C89.4512 17.4798 88.9138 17.2503 88.5014 16.7913C88.092 16.3323 87.8873 15.7248 87.8873 14.9688V14.9103ZM88.7272 15.0093C88.7272 15.5493 88.8521 15.9828 89.102 16.3098C89.3549 16.6368 89.692 16.8003 90.1135 16.8003C90.5379 16.8003 90.8751 16.6353 91.1249 16.3053C91.3748 15.9723 91.4997 15.5073 91.4997 14.9103C91.4997 14.3763 91.3718 13.9443 91.1159 13.6143C90.863 13.2813 90.5259 13.1148 90.1044 13.1148C89.692 13.1148 89.3594 13.2783 89.1065 13.6053C88.8536 13.9323 88.7272 14.4003 88.7272 15.0093Z" fill="#474747"/>
<path d="M97.7085 16.2423L98.6477 12.5208H99.4831L98.0607 17.3898H97.3834L96.1958 13.6998L95.0399 17.3898H94.3625L92.9447 12.5208H93.7755L94.7373 16.1658L95.8752 12.5208H96.548L97.7085 16.2423Z" fill="#474747"/>
<path d="M102.364 17.4798C101.702 17.4798 101.163 17.2638 100.747 16.8318C100.332 16.3968 100.124 15.8163 100.124 15.0903V14.9373C100.124 14.4543 100.216 14.0238 100.4 13.6458C100.586 13.2648 100.845 12.9678 101.176 12.7548C101.511 12.5388 101.872 12.4308 102.26 12.4308C102.895 12.4308 103.389 12.6393 103.741 13.0563C104.093 13.4733 104.269 14.0703 104.269 14.8473V15.1938H100.96C100.972 15.6738 101.112 16.0623 101.38 16.3593C101.651 16.6533 101.994 16.8003 102.409 16.8003C102.704 16.8003 102.954 16.7403 103.159 16.6203C103.363 16.5003 103.543 16.3413 103.696 16.1433L104.206 16.5393C103.797 17.1663 103.183 17.4798 102.364 17.4798ZM102.26 13.1148C101.923 13.1148 101.64 13.2378 101.411 13.4838C101.182 13.7268 101.041 14.0688 100.987 14.5098H103.434V14.4468C103.41 14.0238 103.296 13.6968 103.091 13.4658C102.886 13.2318 102.609 13.1148 102.26 13.1148Z" fill="#474747"/>
<path d="M107.602 13.2678C107.475 13.2468 107.339 13.2363 107.191 13.2363C106.643 13.2363 106.271 13.4688 106.076 13.9338V17.3898H105.24V12.5208H106.053L106.067 13.0833C106.341 12.6483 106.729 12.4308 107.232 12.4308C107.394 12.4308 107.518 12.4518 107.602 12.4938V13.2678Z" fill="#474747"/>
<path d="M110.311 17.4798C109.649 17.4798 109.11 17.2638 108.695 16.8318C108.279 16.3968 108.072 15.8163 108.072 15.0903V14.9373C108.072 14.4543 108.163 14.0238 108.347 13.6458C108.534 13.2648 108.793 12.9678 109.124 12.7548C109.458 12.5388 109.819 12.4308 110.207 12.4308C110.843 12.4308 111.336 12.6393 111.688 13.0563C112.041 13.4733 112.217 14.0703 112.217 14.8473V15.1938H108.907C108.919 15.6738 109.059 16.0623 109.327 16.3593C109.598 16.6533 109.941 16.8003 110.356 16.8003C110.651 16.8003 110.901 16.7403 111.106 16.6203C111.311 16.5003 111.49 16.3413 111.643 16.1433L112.154 16.5393C111.744 17.1663 111.13 17.4798 110.311 17.4798ZM110.207 13.1148C109.87 13.1148 109.587 13.2378 109.358 13.4838C109.13 13.7268 108.988 14.0688 108.934 14.5098H111.381V14.4468C111.357 14.0238 111.243 13.6968 111.038 13.4658C110.833 13.2318 110.557 13.1148 110.207 13.1148Z" fill="#474747"/>
<path d="M112.984 14.9148C112.984 14.1678 113.162 13.5678 113.517 13.1148C113.872 12.6588 114.338 12.4308 114.912 12.4308C115.484 12.4308 115.938 12.6258 116.272 13.0158V10.4778H117.107V17.3898H116.339L116.299 16.8678C115.965 17.2758 115.499 17.4798 114.903 17.4798C114.338 17.4798 113.875 17.2488 113.517 16.7868C113.162 16.3248 112.984 15.7218 112.984 14.9778V14.9148ZM113.82 15.0093C113.82 15.5613 113.934 15.9933 114.163 16.3053C114.392 16.6173 114.708 16.7733 115.111 16.7733C115.641 16.7733 116.028 16.5363 116.272 16.0623V13.8258C116.022 13.3668 115.638 13.1373 115.12 13.1373C114.711 13.1373 114.392 13.2948 114.163 13.6098C113.934 13.9248 113.82 14.3913 113.82 15.0093Z" fill="#474747"/>
<path d="M120.832 17.3898V10.8378H122.982C123.695 10.8378 124.231 10.9848 124.589 11.2788C124.95 11.5728 125.131 12.0078 125.131 12.5838C125.131 12.8898 125.044 13.1613 124.869 13.3983C124.695 13.6323 124.457 13.8138 124.156 13.9428C124.511 14.0418 124.791 14.2308 124.996 14.5098C125.203 14.7858 125.307 15.1158 125.307 15.4998C125.307 16.0878 125.116 16.5498 124.734 16.8858C124.351 17.2218 123.811 17.3898 123.113 17.3898H120.832ZM121.699 14.3253V16.6833H123.131C123.534 16.6833 123.852 16.5798 124.083 16.3728C124.318 16.1628 124.436 15.8748 124.436 15.5088C124.436 14.7198 124.005 14.3253 123.144 14.3253H121.699ZM121.699 13.6323H123.009C123.388 13.6323 123.691 13.5378 123.916 13.3488C124.145 13.1598 124.26 12.9033 124.26 12.5793C124.26 12.2193 124.154 11.9583 123.943 11.7963C123.733 11.6313 123.412 11.5488 122.982 11.5488H121.699V13.6323Z" fill="#474747"/>
<path d="M128.062 16.1703L129.199 12.5208H130.094L128.129 18.1413C127.825 18.9513 127.342 19.3563 126.68 19.3563L126.522 19.3428L126.21 19.2843V18.6093L126.436 18.6273C126.719 18.6273 126.939 18.5703 127.095 18.4563C127.255 18.3423 127.386 18.1338 127.488 17.8308L127.673 17.3358L125.93 12.5208H126.842L128.062 16.1703Z" fill="#474747"/>
<path d="M48.4518 28.3814C47.5885 27.5217 46.3326 27.8423 45.5105 28.8658C44.6883 29.8892 42.966 31.9015 41.3363 33.9225C40.564 34.8802 39.4959 35.9791 39.2492 36.2657C39.0026 36.5523 38.6799 36.8516 38.3004 37.2421C37.921 37.6327 37.5415 37.4374 37.5415 37.4374L34.8852 35.0942C32.7476 32.8835 30.9398 36.7327 33.1186 38.9434C34.2285 40.0896 35.3795 41.6862 36.8594 42.3002C38.3393 42.9143 39.9836 42.1365 41.0524 40.8674C43.5599 37.838 45.9853 34.7677 48.4518 31.7383C49.2739 30.7149 49.3973 29.3639 48.4518 28.3814Z" fill="white"/>
</svg>
