<svg width="24" height="24" viewBox="0 0 24 24" fill="none" xmlns="http://www.w3.org/2000/svg">
<path d="M17.0418 12.8937C17.7006 9.94622 15.8453 7.02272 12.8978 6.36388C9.95033 5.70504 7.02683 7.56035 6.36799 10.5078C5.70914 13.4553 7.56446 16.3788 10.5119 17.0377C13.4594 17.6965 16.3829 15.8412 17.0418 12.8937Z" fill="white"/>
<path d="M11.701 5.33161C11.9758 5.33045 12.2504 5.34805 12.5228 5.3843L11.7273 0L10.9265 5.37903C11.1834 5.34717 11.4421 5.33133 11.701 5.33161Z" fill="white"/>
<path d="M23.4022 11.7223L18.0232 10.9268C18.0551 11.1837 18.0709 11.4423 18.0706 11.7012C18.0709 11.9759 18.0551 12.2503 18.0232 12.5231L23.4022 11.7223Z" fill="white"/>
<path d="M16.7483 7.81857L19.9936 3.4458L15.6208 6.67533C16.0432 7.00757 16.4219 7.39168 16.7483 7.81857Z" fill="white"/>
<path d="M7.81832 6.67502L3.44556 3.42969L6.68562 7.79718C7.01432 7.37683 7.39491 6.99977 7.81832 6.67502Z" fill="white"/>
<path d="M5.33161 11.701C5.3321 11.4299 5.34793 11.159 5.37903 10.8896L0 11.6746L5.37903 12.4702C5.3476 12.215 5.33176 11.9581 5.33161 11.701Z" fill="white"/>
<path d="M15.584 16.7482L19.9568 19.9883L16.7167 15.6313C16.3872 16.0495 16.0067 16.4247 15.584 16.7482Z" fill="white"/>
<path d="M6.65402 15.584L3.40869 19.9567L7.78146 16.7167C7.35962 16.3879 6.98083 16.0074 6.65402 15.584Z" fill="white"/>
<path d="M11.701 18.0706C11.4261 18.0701 11.1515 18.0507 10.8792 18.0127L11.701 23.4023L12.5018 18.0232C12.2359 18.0534 11.9686 18.0692 11.701 18.0706Z" fill="white"/>
</svg>
