<svg width="22" height="25" viewBox="0 0 22 25" fill="none" xmlns="http://www.w3.org/2000/svg">
<path d="M10.8327 11.6185C14.041 11.6185 16.6419 9.01757 16.6419 5.80923C16.6419 2.60088 14.041 0 10.8327 0C7.62432 0 5.02344 2.60088 5.02344 5.80923C5.02344 9.01757 7.62432 11.6185 10.8327 11.6185Z" fill="#C8C8C8"/>
<path d="M10.8327 11.6185C14.041 11.6185 16.6419 9.01757 16.6419 5.80923C16.6419 2.60088 14.041 0 10.8327 0C7.62432 0 5.02344 2.60088 5.02344 5.80923C5.02344 9.01757 7.62432 11.6185 10.8327 11.6185Z" stroke="#858383"/>
<path d="M10.8331 13.4194C7.95995 13.4194 5.20452 14.5608 3.17293 16.5924C1.14134 18.624 0 21.3794 0 24.2525H21.6661C21.6661 21.3794 20.5248 18.624 18.4932 16.5924C16.4616 14.5608 13.7062 13.4194 10.8331 13.4194Z" fill="#C8C8C8"/>
<path d="M10.8331 13.4194C7.95995 13.4194 5.20452 14.5608 3.17293 16.5924C1.14134 18.624 0 21.3794 0 24.2525H21.6661C21.6661 21.3794 20.5248 18.624 18.4932 16.5924C16.4616 14.5608 13.7062 13.4194 10.8331 13.4194Z" stroke="#858383"/>
</svg>
