<svg width="76" height="55" viewBox="0 0 76 55" fill="none" xmlns="http://www.w3.org/2000/svg">
<g filter="url(#filter0_d)">
<path d="M61.6362 6.79199H12.3224C9.38292 6.79199 7 9.17492 7 12.1144V39.2478C7 42.1873 9.38292 44.5702 12.3224 44.5702H61.6362C64.5756 44.5702 66.9586 42.1873 66.9586 39.2478V12.1144C66.9586 9.17492 64.5756 6.79199 61.6362 6.79199Z" fill="white"/>
</g>
<path d="M66.9586 39.0522V39.2695C66.9586 40.6811 66.3978 42.0349 65.3997 43.033C64.4015 44.0311 63.0477 44.5919 61.6362 44.5919H12.3224C10.9108 44.5919 9.55704 44.0311 8.5589 43.033C7.56075 42.0349 7 40.6811 7 39.2695V39.0522H66.9586Z" fill="#F6A723"/>
<path d="M66.9586 12.1144V12.3316H7V12.1144C7 10.7028 7.56075 9.34904 8.5589 8.35089C9.55704 7.35274 10.9108 6.79199 12.3224 6.79199H61.6362C63.0477 6.79199 64.4015 7.35274 65.3997 8.35089C66.3978 9.34904 66.9586 10.7028 66.9586 12.1144Z" fill="#005CA8"/>
<path d="M33.2861 32.8611H29.4844L31.874 18.3059H35.6757L33.2861 32.8611Z" fill="#005CA8"/>
<path d="M26.3345 18.3059L22.75 28.299L22.3155 26.2352L21.0121 19.6093C20.9103 19.2076 20.6682 18.8554 20.3296 18.6164C19.9911 18.3774 19.5782 18.2673 19.1655 18.3059H13.1914V18.6318C14.5744 18.9598 15.895 19.5101 17.1017 20.2611L20.3604 32.8611H24.3793L30.3535 18.3059H26.3345Z" fill="#005CA8"/>
<path d="M56.0966 32.8612H59.5725L56.5311 18.306H53.4897C53.1223 18.2795 52.756 18.3704 52.4436 18.5657C52.1312 18.7609 51.889 19.0504 51.7518 19.3922L46.1035 32.8612H50.1225L50.8828 30.6888H55.6621L56.0966 32.8612ZM51.969 27.756L53.9242 22.325L55.0104 27.756H51.969Z" fill="#005CA8"/>
<path d="M46.4292 21.7817L46.9723 18.7403C45.8546 18.3437 44.6819 18.1238 43.4965 18.0886C41.6499 18.0886 37.1965 18.849 37.1965 22.8679C37.1965 26.8869 42.4103 26.6697 42.4103 28.6248C42.4103 30.58 37.7396 30.2541 36.2189 29.0593L35.6758 32.3179C37.0041 32.9237 38.4524 33.2208 39.912 33.1869C42.5189 33.1869 46.4292 31.7748 46.4292 28.1903C46.4292 24.6059 41.1068 24.0628 41.1068 22.3248C41.1068 20.5869 44.7999 20.9128 46.4292 21.7817Z" fill="#005CA8"/>
<path d="M22.3155 26.2352L21.0121 19.6093C20.9103 19.2076 20.6682 18.8554 20.3296 18.6164C19.9911 18.3774 19.5782 18.2673 19.1655 18.3059H13.1914V18.6318C15.2316 19.1319 17.1278 20.0987 18.7311 21.4559C20.3491 22.6826 21.5909 24.3384 22.3155 26.2352Z" fill="#F6A723"/>
<defs>
<filter id="filter0_d" x="0" y="0.791992" width="75.9586" height="53.7782" filterUnits="userSpaceOnUse" color-interpolation-filters="sRGB">
<feFlood flood-opacity="0" result="BackgroundImageFix"/>
<feColorMatrix in="SourceAlpha" type="matrix" values="0 0 0 0 0 0 0 0 0 0 0 0 0 0 0 0 0 0 127 0"/>
<feOffset dx="1" dy="2"/>
<feGaussianBlur stdDeviation="4"/>
<feColorMatrix type="matrix" values="0 0 0 0 0.207843 0 0 0 0 0.392157 0 0 0 0 0.67451 0 0 0 0.25 0"/>
<feBlend mode="multiply" in2="BackgroundImageFix" result="effect1_dropShadow"/>
<feBlend mode="normal" in="SourceGraphic" in2="effect1_dropShadow" result="shape"/>
</filter>
</defs>
</svg>
