<svg width="74" height="74" viewBox="0 0 74 74" fill="none" xmlns="http://www.w3.org/2000/svg">
<path d="M26.8384 19.8464C29.7031 17.7097 33.2203 16.5317 36.8537 16.5C39.1514 16.5027 41.4217 16.9694 43.5181 17.8687C45.6166 18.7688 47.4925 20.0814 49.0269 21.7191C50.5611 23.3566 51.7199 25.2828 52.4319 27.3722C53.141 29.453 53.3921 31.6521 53.1703 33.8298C52.7487 36.8185 51.7543 39.7076 50.2358 42.3494L50.2284 42.3623L50.2212 42.3755C46.9127 48.4071 42.8687 54.0369 38.1744 59.1447L38.1411 59.181L38.1101 59.2195C37.9695 59.3942 37.7858 59.54 37.5702 59.6419C37.3545 59.7438 37.1148 59.7979 36.8701 59.7979C36.6254 59.7979 36.3857 59.7438 36.17 59.6419C35.9544 59.54 35.7707 59.3942 35.6301 59.2195L35.5941 59.1748L35.5549 59.133C30.2034 53.4331 25.7567 47.002 22.3582 40.0493L22.3534 40.0395L22.3484 40.0298C20.4999 36.3836 20.0208 32.2366 20.9881 28.2926C21.9289 24.9471 23.979 21.979 26.8384 19.8464ZM26.9666 32.2535L26.9648 32.2941L26.9653 32.3347C26.9922 34.8725 28.0431 37.2893 29.8774 39.0754C31.7101 40.8599 34.1805 41.876 36.7615 41.9234L36.7804 41.9238L36.7992 41.9236C39.3955 41.906 41.8894 40.8987 43.7344 39.1054C45.5812 37.3104 46.6277 34.8719 46.6277 32.3188L45.1277 32.3188L46.6263 32.2535C46.5183 29.7762 45.4228 27.4465 43.5863 25.747C41.7514 24.0489 39.318 23.109 36.7964 23.109C34.2749 23.109 31.8415 24.0489 30.0066 25.747C28.17 27.4465 27.0746 29.7762 26.9666 32.2535Z" fill="white" stroke="white" stroke-width="3"/>
</svg>
