<svg width="74" height="74" viewBox="0 0 74 74" fill="none" xmlns="http://www.w3.org/2000/svg">
<path d="M47.3164 46.7484L49.0383 45.2402L50.8789 46.7484H47.3164ZM39.0039 46.7484L40.7614 45.2402L42.5664 46.7484H39.0039Z" fill="white"/>
<path d="M49.062 40.0029L44.9532 43.5654L40.8563 40.0029L29.1001 50.0729C29.5514 50.4754 30.1342 50.6992 30.7388 50.7023H59.1914C59.7964 50.7014 60.3799 50.4773 60.8301 50.0729L49.1095 40.0029H49.062Z" fill="white"/>
<path d="M56.1631 39.0172L57.5762 37.7822V40.2285L56.1631 39.0172Z" fill="white"/>
<path d="M61.5308 29.0781L50.0952 39.0531L61.5308 48.7787V29.0781Z" fill="white"/>
<path d="M32.3062 37.7705L33.743 39.0174L32.3062 40.2286V37.7705Z" fill="white"/>
<path d="M28.3521 29.0781V48.7787L39.8114 39.0531L28.3521 29.0781Z" fill="white"/>
<path d="M39.0396 30.9541H50.8552L44.9533 36.0128L39.0396 30.9541Z" fill="white"/>
<path d="M59.1915 27H30.6915C30.0816 26.9992 29.4949 27.2331 29.0527 27.6531L44.9415 41.2263L60.7827 27.6531C60.3526 27.2442 59.7849 27.0112 59.1915 27Z" fill="white"/>
<path d="M25.8346 33.2344H17.6765C17.2371 33.2344 16.8809 33.5906 16.8809 34.03V34.3388C16.8809 34.7782 17.2371 35.1344 17.6765 35.1344H25.8346C26.274 35.1344 26.6302 34.7782 26.6302 34.3388V34.03C26.6302 33.5906 26.274 33.2344 25.8346 33.2344Z" fill="white"/>
<path d="M20.9537 38.8037H12.7956C12.3562 38.8037 12 39.1599 12 39.5993V39.9081C12 40.3475 12.3562 40.7037 12.7956 40.7037H20.9537C21.3932 40.7037 21.7494 40.3475 21.7494 39.9081V39.5993C21.7494 39.1599 21.3932 38.8037 20.9537 38.8037Z" fill="white"/>
<path d="M25.7511 43.8506H17.593C17.1536 43.8506 16.7974 44.2068 16.7974 44.6462V44.955C16.7974 45.3944 17.1536 45.7506 17.593 45.7506H25.7511C26.1905 45.7506 26.5467 45.3944 26.5467 44.955V44.6462C26.5467 44.2068 26.1905 43.8506 25.7511 43.8506Z" fill="white"/>
</svg>
