<svg width="74" height="74" viewBox="0 0 74 74" fill="none" xmlns="http://www.w3.org/2000/svg">
<path d="M44.6621 17.1992H21.3662C19.5929 17.1992 17.8921 17.9029 16.6373 19.1559C15.3824 20.4088 14.6761 22.1085 14.6733 23.8817V54.3036C14.6747 55.1812 14.8489 56.0499 15.186 56.8601C15.523 57.6703 16.0164 58.4063 16.6379 59.0258C17.2594 59.6454 17.9968 60.1365 18.8081 60.4711C19.6194 60.8056 20.4886 60.9771 21.3662 60.9758H44.6621C46.2495 60.976 47.785 60.4103 48.9928 59.3801C50.2006 58.35 51.0015 56.923 51.2518 55.3555C51.2916 55.1549 51.3158 54.9514 51.324 54.747C51.324 54.5924 51.324 54.448 51.324 54.3036V51.643C51.0831 52.0934 50.7925 52.5154 50.4577 52.9011C50.3451 53.0514 50.221 53.1928 50.0865 53.3239C50.022 53.3973 49.9493 53.463 49.8699 53.5198C49.7114 53.6723 49.5426 53.8135 49.3646 53.9427V54.3036C49.3611 54.9338 49.235 55.5572 48.9933 56.1392L48.8799 56.3764C48.4906 57.1685 47.8872 57.8357 47.1381 58.3023C46.3889 58.7689 45.524 59.0163 44.6415 59.0164H21.3662C20.1143 59.0164 18.9135 58.5206 18.0264 57.6373C17.1393 56.7541 16.6382 55.5554 16.6327 54.3036V23.8817C16.6382 22.6299 17.1393 21.4312 18.0264 20.548C18.9135 19.6648 20.1143 19.1689 21.3662 19.1689H44.6621C45.9112 19.1716 47.1083 19.669 47.9915 20.5523C48.8748 21.4355 49.3722 22.6326 49.3749 23.8817V42.042H49.4265L49.509 42.1039C49.6426 42.2098 49.7669 42.3271 49.8802 42.4545C50.4661 42.9987 50.9575 43.6365 51.3343 44.3417V23.8817C51.3343 22.1112 50.6316 20.413 49.3807 19.1601C48.1297 17.9072 46.4326 17.202 44.6621 17.1992V17.1992Z" fill="white"/>
<path d="M46.9205 38.9385L46.3534 38.8148H46.0543C45.5847 38.729 45.1085 38.6841 44.6312 38.6807C43.5192 38.6777 42.4157 38.8733 41.3724 39.2582C40.6432 39.5377 39.9506 39.9048 39.3099 40.3513C38.8932 40.6393 38.5001 40.96 38.1343 41.3104L37.6909 41.7744C37.6084 41.8776 37.5259 41.9498 37.433 42.0529C37.3402 42.156 37.3093 42.2076 37.2577 42.2901C37.0078 42.6181 36.7804 42.9626 36.5771 43.3213C36.4442 43.5217 36.327 43.732 36.2265 43.9504C36.1879 44.024 36.1534 44.0998 36.1234 44.1773C35.9307 44.565 35.772 44.9687 35.649 45.3838C35.5748 45.6204 35.5162 45.8615 35.4737 46.1057V46.2398C35.3899 46.5832 35.3245 46.9309 35.2777 47.2813C35.2622 47.4873 35.2622 47.6941 35.2777 47.9001C35.2623 48.1267 35.2623 48.3541 35.2777 48.5807C35.2777 48.6838 35.2777 48.7663 35.2777 48.8694C35.2882 49.0321 35.3089 49.194 35.3396 49.3541C35.3396 49.5191 35.3912 49.6841 35.4221 49.8388H37.2062C37.2062 49.6841 37.134 49.5191 37.103 49.3541C37.0721 49.1891 37.0309 48.921 37.0102 48.7044C37.0051 48.6634 37.0051 48.6218 37.0102 48.5807C36.9896 48.3543 36.9896 48.1265 37.0102 47.9001C37.0102 47.6938 37.0102 47.4876 37.0618 47.2813C37.1134 47.0751 37.0618 46.9823 37.1134 46.8379C37.1649 46.6935 37.2165 46.3016 37.2887 46.0335C37.3609 45.7654 37.433 45.5488 37.5259 45.3116C37.7783 44.6559 38.1257 44.0409 38.5571 43.4863L38.7015 43.2491L38.753 43.1563C39.0276 42.8299 39.3352 42.5326 39.6709 42.2694C39.8827 42.0831 40.1067 41.9108 40.3412 41.7538C40.5887 41.5888 40.8465 41.4341 41.1146 41.2898C42.1962 40.71 43.404 40.4054 44.6312 40.4029C45.3667 40.4087 46.097 40.527 46.7968 40.7535C47.728 41.0212 48.602 41.4582 49.3749 42.0426V39.9801C48.6065 39.5258 47.7812 39.1756 46.9205 38.9385ZM46.9205 38.9385L46.3534 38.8148H46.0543C45.5847 38.729 45.1085 38.6841 44.6312 38.6807C43.5192 38.6777 42.4157 38.8733 41.3724 39.2582C40.6432 39.5377 39.9506 39.9048 39.3099 40.3513C38.8932 40.6393 38.5001 40.96 38.1343 41.3104L37.6909 41.7744C37.6084 41.8776 37.5259 41.9498 37.433 42.0529C37.3402 42.156 37.3093 42.2076 37.2577 42.2901C37.0078 42.6181 36.7804 42.9626 36.5771 43.3213C36.4442 43.5217 36.327 43.732 36.2265 43.9504C36.1879 44.024 36.1534 44.0998 36.1234 44.1773C35.9307 44.565 35.772 44.9687 35.649 45.3838C35.5748 45.6204 35.5162 45.8615 35.4737 46.1057V46.2398C35.3899 46.5832 35.3245 46.9309 35.2777 47.2813C35.2622 47.4873 35.2622 47.6941 35.2777 47.9001C35.2623 48.1267 35.2623 48.3541 35.2777 48.5807C35.2777 48.6838 35.2777 48.7663 35.2777 48.8694C35.2882 49.0321 35.3089 49.194 35.3396 49.3541C35.3396 49.5191 35.3912 49.6841 35.4221 49.8388H37.2062C37.2062 49.6841 37.134 49.5191 37.103 49.3541C37.0721 49.1891 37.0309 48.921 37.0102 48.7044C37.0051 48.6634 37.0051 48.6218 37.0102 48.5807C36.9896 48.3543 36.9896 48.1265 37.0102 47.9001C37.0102 47.6938 37.0102 47.4876 37.0618 47.2813C37.1134 47.0751 37.0618 46.9823 37.1134 46.8379C37.1649 46.6935 37.2165 46.3016 37.2887 46.0335C37.3609 45.7654 37.433 45.5488 37.5259 45.3116C37.7783 44.6559 38.1257 44.0409 38.5571 43.4863L38.7015 43.2491L38.753 43.1563C39.0276 42.8299 39.3352 42.5326 39.6709 42.2694C39.8827 42.0831 40.1067 41.9108 40.3412 41.7538C40.5887 41.5888 40.8465 41.4341 41.1146 41.2898C42.1962 40.71 43.404 40.4054 44.6312 40.4029C45.3667 40.4087 46.097 40.527 46.7968 40.7535C47.728 41.0212 48.602 41.4582 49.3749 42.0426V39.9801C48.6065 39.5258 47.7812 39.1756 46.9205 38.9385ZM59.8318 58.986L53.799 53.9638L53.6752 53.871L53.3968 54.201L52.3655 53.3038C53.5181 51.6606 54.107 49.688 54.0438 47.6818C53.9806 45.6757 53.2687 43.744 52.0149 42.1766C51.819 41.9291 51.6024 41.6919 51.3859 41.4651C51.1693 41.2382 50.9218 41.0216 50.6743 40.8154C50.4388 40.6143 50.1908 40.4283 49.9318 40.2585H49.8493C49.713 40.1651 49.5719 40.079 49.4265 40.0007C48.6543 39.5492 47.8255 39.2024 46.9618 38.9694L46.3946 38.8457H46.0955C45.6259 38.7599 45.1498 38.7151 44.6724 38.7116C43.5605 38.7087 42.4569 38.9042 41.4137 39.2891C40.6844 39.5686 39.9919 39.9357 39.3512 40.3823C38.9345 40.6702 38.5413 40.9909 38.1755 41.3413L37.7321 41.8054C37.6496 41.9085 37.5671 41.9807 37.4743 42.0838C37.3815 42.1869 37.3505 42.2385 37.299 42.321C37.0491 42.649 36.8217 42.9935 36.6184 43.3523C36.4855 43.5526 36.3682 43.7629 36.2677 43.9813C36.2291 44.0549 36.1947 44.1307 36.1646 44.2082C35.972 44.596 35.8133 44.9996 35.6902 45.4148C35.6161 45.6513 35.5575 45.8924 35.5149 46.1366V46.2707C35.4183 46.6032 35.3392 46.9406 35.2777 47.2813C35.2622 47.4873 35.2622 47.6941 35.2777 47.9001C35.2623 48.1267 35.2623 48.3541 35.2777 48.5807C35.2777 48.6838 35.2777 48.7663 35.2777 48.8694C35.2882 49.0321 35.3089 49.194 35.3396 49.3541C35.3396 49.5191 35.3912 49.6841 35.4221 49.8388C35.5241 50.3452 35.6689 50.842 35.8552 51.3238C35.9068 51.4373 35.948 51.5816 36.0099 51.6951C36.0718 51.8085 36.1337 51.9529 36.1852 52.0766C36.3956 52.5353 36.6476 52.9737 36.938 53.3863C36.994 53.4764 37.056 53.5625 37.1237 53.6441C37.1624 53.7101 37.2073 53.7722 37.2577 53.8298C37.6633 54.3386 38.1194 54.805 38.619 55.222L38.7943 55.3663C38.8562 55.3663 38.9077 55.4591 38.9799 55.5004C40.5996 56.7386 42.582 57.4091 44.6209 57.4082C45.3583 57.4053 46.0925 57.3118 46.8071 57.1298C47.522 56.9613 48.2143 56.7086 48.8696 56.3769L49.4059 56.0779C50.0386 55.6862 50.6265 55.2262 51.159 54.7063L51.2415 54.7888L51.7984 55.2426L52.2005 55.5829L51.9118 55.9129L52.0459 56.016L58.0684 61.0485C58.1121 61.0884 58.1691 61.1105 58.2282 61.1105C58.2873 61.1105 58.3444 61.0884 58.388 61.0485L59.7802 59.3779C59.8203 59.3659 59.856 59.3426 59.8831 59.3108C59.9102 59.279 59.9275 59.2401 59.9329 59.1986C59.9384 59.1572 59.9317 59.1151 59.9138 59.0774C59.8958 59.0397 59.8674 59.0079 59.8318 58.986V58.986ZM51.9737 50.076C51.8314 50.6231 51.62 51.1499 51.3446 51.6435C51.1038 52.0939 50.8132 52.5159 50.4784 52.9016C50.3657 53.052 50.2416 53.1933 50.1071 53.3244C50.0426 53.3978 49.97 53.4636 49.8905 53.5204C49.732 53.6728 49.5632 53.8141 49.3852 53.9432C48.5074 54.6296 47.4958 55.1249 46.4152 55.3973C45.8292 55.5707 45.2217 55.6609 44.6105 55.6654C43.9125 55.6622 43.2183 55.5615 42.548 55.3663C41.5253 55.0715 40.574 54.5695 39.7534 53.8916V53.8298C39.5855 53.6928 39.427 53.5446 39.279 53.3863C38.8879 52.9892 38.542 52.55 38.2477 52.0766C38.1623 51.9555 38.0865 51.828 38.0209 51.6951V51.6951L37.8249 51.3238C37.5911 50.8494 37.4079 50.3516 37.2784 49.8388C37.2784 49.6841 37.2062 49.5191 37.1752 49.3541C37.1443 49.1891 37.103 48.921 37.0824 48.7044C37.0772 48.6634 37.0772 48.6218 37.0824 48.5807C37.0618 48.3543 37.0618 48.1265 37.0824 47.9001C37.0824 47.6938 37.0824 47.4876 37.134 47.2813C37.1855 47.0751 37.134 46.9823 37.1855 46.8379C37.2371 46.6935 37.2887 46.3016 37.3609 46.0335C37.433 45.7654 37.5052 45.5488 37.598 45.3116C37.8505 44.6559 38.1979 44.0409 38.6293 43.4863L38.7737 43.2491L38.753 43.1563C39.0276 42.8299 39.3352 42.5326 39.6709 42.2694C39.8827 42.0831 40.1067 41.9108 40.3412 41.7538C40.5887 41.5888 40.8465 41.4341 41.1146 41.2898C42.1962 40.71 43.404 40.4054 44.6312 40.4029C45.3667 40.4087 46.097 40.527 46.7968 40.7535C47.728 41.0212 48.602 41.4582 49.3749 42.0426H49.4265L49.509 42.1044C49.6427 42.2103 49.7669 42.3276 49.8802 42.4551C50.4661 42.9993 50.9575 43.637 51.3343 44.3423C51.6056 44.8451 51.8167 45.3782 51.9634 45.9304C52.1002 46.37 52.1901 46.8228 52.2315 47.2813C52.323 48.2208 52.2355 49.1691 51.9737 50.076V50.076ZM46.9205 38.9385L46.3534 38.8148H46.0543C45.5847 38.729 45.1085 38.6841 44.6312 38.6807C43.5192 38.6777 42.4157 38.8733 41.3724 39.2582C40.6432 39.5377 39.9506 39.9048 39.3099 40.3513C38.8932 40.6393 38.5001 40.96 38.1343 41.3104L37.6909 41.7744C37.6084 41.8776 37.5259 41.9498 37.433 42.0529C37.3402 42.156 37.3093 42.2076 37.2577 42.2901C37.0078 42.6181 36.7804 42.9626 36.5771 43.3213C36.4442 43.5217 36.327 43.732 36.2265 43.9504C36.1879 44.024 36.1534 44.0998 36.1234 44.1773C35.9307 44.565 35.772 44.9687 35.649 45.3838C35.5748 45.6204 35.5162 45.8615 35.4737 46.1057V46.2398C35.3899 46.5832 35.3245 46.9309 35.2777 47.2813C35.2622 47.4873 35.2622 47.6941 35.2777 47.9001C35.2623 48.1267 35.2623 48.3541 35.2777 48.5807C35.2777 48.6838 35.2777 48.7663 35.2777 48.8694C35.2882 49.0321 35.3089 49.194 35.3396 49.3541C35.3396 49.5191 35.3912 49.6841 35.4221 49.8388H37.2062C37.2062 49.6841 37.134 49.5191 37.103 49.3541C37.0721 49.1891 37.0309 48.921 37.0102 48.7044C37.0051 48.6634 37.0051 48.6218 37.0102 48.5807C36.9896 48.3543 36.9896 48.1265 37.0102 47.9001C37.0102 47.6938 37.0102 47.4876 37.0618 47.2813C37.1134 47.0751 37.0618 46.9823 37.1134 46.8379C37.1649 46.6935 37.2165 46.3016 37.2887 46.0335C37.3609 45.7654 37.433 45.5488 37.5259 45.3116C37.7783 44.6559 38.1257 44.0409 38.5571 43.4863L38.7015 43.2491L38.753 43.1563C39.0276 42.8299 39.3352 42.5326 39.6709 42.2694C39.8827 42.0831 40.1067 41.9108 40.3412 41.7538C40.5887 41.5888 40.8465 41.4341 41.1146 41.2898C42.1962 40.71 43.404 40.4054 44.6312 40.4029C45.3667 40.4087 46.097 40.527 46.7968 40.7535C47.728 41.0212 48.602 41.4582 49.3749 42.0426V39.9801C48.6065 39.5258 47.7812 39.1756 46.9205 38.9385V38.9385ZM46.9205 38.9385L46.3534 38.8148H46.0543C45.5847 38.729 45.1085 38.6841 44.6312 38.6807C43.5192 38.6777 42.4157 38.8733 41.3724 39.2582C40.6432 39.5377 39.9506 39.9048 39.3099 40.3513C38.8932 40.6393 38.5001 40.96 38.1343 41.3104L37.6909 41.7744C37.6084 41.8776 37.5259 41.9498 37.433 42.0529C37.3402 42.156 37.3093 42.2076 37.2577 42.2901C37.0078 42.6181 36.7804 42.9626 36.5771 43.3213C36.4442 43.5217 36.327 43.732 36.2265 43.9504C36.1879 44.024 36.1534 44.0998 36.1234 44.1773C35.9307 44.565 35.772 44.9687 35.649 45.3838C35.5748 45.6204 35.5162 45.8615 35.4737 46.1057V46.2398C35.3899 46.5832 35.3245 46.9309 35.2777 47.2813C35.2622 47.4873 35.2622 47.6941 35.2777 47.9001C35.2623 48.1267 35.2623 48.3541 35.2777 48.5807C35.2777 48.6838 35.2777 48.7663 35.2777 48.8694C35.2882 49.0321 35.3089 49.194 35.3396 49.3541C35.3396 49.5191 35.3912 49.6841 35.4221 49.8388H37.2062C37.2062 49.6841 37.134 49.5191 37.103 49.3541C37.0721 49.1891 37.0309 48.921 37.0102 48.7044C37.0051 48.6634 37.0051 48.6218 37.0102 48.5807C36.9896 48.3543 36.9896 48.1265 37.0102 47.9001C37.0102 47.6938 37.0102 47.4876 37.0618 47.2813C37.1134 47.0751 37.0618 46.9823 37.1134 46.8379C37.1649 46.6935 37.2165 46.3016 37.2887 46.0335C37.3609 45.7654 37.433 45.5488 37.5259 45.3116C37.7783 44.6559 38.1257 44.0409 38.5571 43.4863L38.7015 43.2491L38.753 43.1563C39.0276 42.8299 39.3352 42.5326 39.6709 42.2694C39.8827 42.0831 40.1067 41.9108 40.3412 41.7538C40.5887 41.5888 40.8465 41.4341 41.1146 41.2898C42.1962 40.71 43.404 40.4054 44.6312 40.4029C45.3667 40.4087 46.097 40.527 46.7968 40.7535C47.728 41.0212 48.602 41.4582 49.3749 42.0426V39.9801C48.6065 39.5258 47.7812 39.1756 46.9205 38.9385V38.9385Z" fill="white"/>
<path d="M29.9977 25.5322H20.7886C20.5579 25.5349 20.3376 25.6285 20.1754 25.7926C20.0133 25.9567 19.9223 26.1781 19.9224 26.4088V29.5025C19.925 29.7315 20.0172 29.9502 20.179 30.1121C20.3409 30.274 20.5597 30.3661 20.7886 30.3688H29.9977C30.2284 30.3688 30.4498 30.2779 30.6139 30.1157C30.778 29.9535 30.8715 29.7332 30.8742 29.5025V26.4088C30.8742 26.2937 30.8516 26.1797 30.8075 26.0733C30.7635 25.967 30.6989 25.8704 30.6175 25.789C30.5361 25.7076 30.4395 25.643 30.3331 25.599C30.2268 25.5549 30.1128 25.5322 29.9977 25.5322Z" fill="white"/>
<path d="M46.0542 34.6279H19.9224V36.4945H46.0542V34.6279Z" fill="white"/>
<path d="M46.0542 38.4336H19.9224V40.3002H46.0542V38.4336Z" fill="white"/>
<path d="M39.6708 42.2383C39.3351 42.5015 39.0275 42.7987 38.753 43.1252L38.6602 43.2489L38.5158 43.4861C38.3632 43.6841 38.222 43.8907 38.093 44.1048H19.9224V42.2383H39.6708Z" fill="white"/>
<path d="M37.268 46.0332C37.1958 46.3013 37.1442 46.5695 37.0927 46.8376C37.0411 47.1057 37.0927 47.1366 37.0411 47.281C36.9896 47.4254 37.0411 47.6935 36.9895 47.8998H19.9224V46.0332H37.268Z" fill="white"/>
<path d="M37.2061 49.8389H35.4117H19.9224V51.6951H35.9996H37.9486H37.9589L37.2061 49.8389Z" fill="white"/>
<path d="M42.4346 55.5311H19.9224V53.6748H39.3099L39.7533 54.0873L39.8152 54.1492C40.5834 54.7859 41.4753 55.2564 42.4346 55.5311V55.5311Z" fill="white"/>
</svg>
