<svg width="74" height="74" viewBox="0 0 74 74" fill="none" xmlns="http://www.w3.org/2000/svg">
<path d="M51.7377 29.7772H27.7347C26.112 29.7772 24.7749 27.8842 24.7749 25.5791C24.7749 23.274 26.0731 21.381 27.7347 21.381H51.7377C53.3734 21.381 54.6975 23.274 54.6975 25.5791C54.6975 27.8842 53.3734 29.7772 51.7377 29.7772Z" fill="white"/>
<path d="M54.6975 32.9325H24.7749V45.0118H54.6975V32.9325Z" fill="white" stroke="white" stroke-width="0.75" stroke-linecap="round" stroke-linejoin="round"/>
<path d="M54.6975 46.8531H24.7749V53.7169H54.6975V46.8531Z" fill="white" stroke="white" stroke-width="0.75" stroke-linecap="round" stroke-linejoin="round"/>
<path d="M54.8276 14.015H19.3748H15.8568C15.5715 13.995 15.2852 13.995 15 14.015C17.4535 14.2983 19.3359 15.7921 19.3359 17.5692V59.5505H60.0332V17.6208C60.0332 15.6376 57.6835 14.015 54.8276 14.015Z" stroke="white" stroke-width="3" stroke-linecap="round" stroke-linejoin="round"/>
<path d="M31.4531 26.7717C31.4531 26.5899 31.3889 26.4368 31.2604 26.3123C31.134 26.1878 30.9196 26.0752 30.6173 25.9744C30.1964 25.846 29.8892 25.679 29.6955 25.4736C29.5038 25.2661 29.408 25.0033 29.408 24.6852C29.408 24.3611 29.5019 24.0954 29.6896 23.8879C29.8793 23.6804 30.1391 23.5569 30.4691 23.5174V22.8683H30.9107V23.5204C31.2427 23.5658 31.5005 23.7051 31.6843 23.9383C31.87 24.1714 31.9629 24.4905 31.9629 24.8956H31.4175C31.4175 24.617 31.3513 24.3957 31.2189 24.2317C31.0866 24.0677 30.9077 23.9857 30.6825 23.9857C30.4473 23.9857 30.2675 24.0469 30.1431 24.1695C30.0186 24.29 29.9563 24.4589 29.9563 24.6763C29.9563 24.8778 30.0215 25.0389 30.1519 25.1594C30.2843 25.2779 30.5007 25.3866 30.801 25.4854C31.1033 25.5822 31.3385 25.6899 31.5064 25.8085C31.6764 25.9251 31.8008 26.0614 31.8799 26.2175C31.9609 26.3736 32.0014 26.5564 32.0014 26.7658C32.0014 27.0997 31.9006 27.3685 31.6991 27.572C31.4995 27.7755 31.2189 27.896 30.8573 27.9336V28.4997H30.4187V27.9336C30.0512 27.9 29.7627 27.7696 29.5532 27.5423C29.3458 27.3131 29.242 27.0029 29.242 26.6117H29.7904C29.7904 26.8863 29.8625 27.0978 30.0067 27.2459C30.151 27.3941 30.3555 27.4682 30.6202 27.4682C30.8791 27.4682 31.0826 27.406 31.2308 27.2815C31.379 27.157 31.4531 26.9871 31.4531 26.7717Z" fill="url(#paint0_linear)"/>
<defs>
<linearGradient id="paint0_linear" x1="31.2516" y1="31.9897" x2="36.8698" y2="27.6621" gradientUnits="userSpaceOnUse">
<stop offset="0.318117" stop-color="#3564AC"/>
<stop offset="1" stop-color="#3C7DE1"/>
</linearGradient>
</defs>
</svg>
