<svg width="74" height="74" viewBox="0 0 74 74" fill="none" xmlns="http://www.w3.org/2000/svg">
<path d="M26.7554 28.5156L26.6745 28.6428H23.4717L23.5757 28.5156H26.7554Z" fill="white"/>
<path d="M50.5281 28.6428H47.3368L47.2212 28.5156H50.4356L50.5281 28.6428Z" fill="white"/>
<path d="M18.3265 28.8398V53.1211H16.7771C15.8214 53.0957 14.8802 52.8818 14.0074 52.4917C13.1346 52.1016 12.3474 51.543 11.691 50.8479C11.0346 50.1529 10.5219 49.335 10.1824 48.4413C9.84285 47.5477 9.68312 46.5957 9.71239 45.6402V36.2861C9.66266 34.3621 10.3788 32.497 11.7035 31.1008C13.0282 29.7045 14.8531 28.8913 16.7771 28.8398H18.3265Z" fill="white"/>
<path d="M64.2875 36.2856V45.6397C64.3373 47.5618 63.6227 49.4251 62.3004 50.821C60.9782 52.217 59.1563 53.0315 57.2344 53.0859H56.6562V28.8047H57.2922C59.2112 28.871 61.0255 29.696 62.3369 31.0985C63.6484 32.501 64.3499 34.3665 64.2875 36.2856V36.2856Z" fill="white"/>
<path d="M50.7362 28.8394V28.5157H49.1174C49.0747 28.3508 49.0044 28.1944 48.9093 28.0532L44.4462 22.0869C43.9605 21.451 42.1337 21 40.2374 21H33.7624C32.8864 20.9979 32.0133 21.0988 31.1609 21.3007C30.5634 21.4005 30.0084 21.6739 29.5652 22.0869L25.1021 28.0532C24.9968 28.19 24.9219 28.3476 24.8824 28.5157H23.2637V28.8394H19.5059V53.1207H55.4305V28.8394H50.7362ZM31.4615 23.6594C31.5774 23.498 31.7302 23.3665 31.9072 23.276C32.0842 23.1855 32.2802 23.1386 32.479 23.1391L41.4746 23.1969C41.6653 23.1963 41.8537 23.2386 42.0258 23.3207C42.1979 23.4028 42.3494 23.5225 42.469 23.671L46.2499 28.8394H27.669L31.4615 23.6594Z" fill="white"/>
</svg>
