<svg width="74" height="74" viewBox="0 0 74 74" fill="none" xmlns="http://www.w3.org/2000/svg">
<path d="M60.9858 25.1624L55.0771 28.6724C53.7212 29.4674 52.1538 29.3328 51.5567 28.3667L49.4171 24.8811C48.8201 23.9027 49.4171 22.4351 50.7855 21.6891L56.4579 18.3136C55.0727 17.494 53.4948 17.0423 51.8786 17.0028C50.2625 16.9633 48.6637 17.3374 47.2388 18.0884C45.814 18.8394 44.6122 19.9414 43.751 21.2866C42.8899 22.6318 42.3991 24.1738 42.3267 25.7617V25.7617C42.3267 25.884 42.3267 26.0063 42.3267 26.1408C42.1227 28.0904 41.2445 29.9122 39.8388 31.3018L36.3557 34.7629L35.5347 35.5701L34.5894 36.4874L31.1312 39.8628L30.1858 40.7801L29.8499 41.1225L29.427 41.5261L18.2315 52.5331C17.6555 53.0748 17.2571 53.7732 17.0871 54.5388C17.0322 54.7963 17.003 55.0584 17 55.3215C16.9999 56.2841 17.3845 57.2082 18.0709 57.8945C18.7574 58.5808 19.6907 58.9745 20.6696 58.9905C20.8352 59.0032 21.0016 59.0032 21.1672 58.9905C22.0591 58.8867 22.8862 58.4802 23.5058 57.8409L36.4926 45.0116L37.438 44.0944L39.08 42.48L41.5679 40.034L44.9265 36.732C45.6076 36.1655 46.4037 35.7482 47.2616 35.5078C48.1196 35.2674 49.0198 35.2094 49.9023 35.3377L50.3625 35.3989H50.4247C51.7481 35.5661 53.0925 35.4535 54.3679 35.0685C55.6434 34.6836 56.8205 34.0352 57.8204 33.1667C58.8204 32.2982 59.6201 31.2298 60.166 30.0329C60.7119 28.8359 60.9914 27.5382 60.9858 26.2264C61.0047 25.872 61.0047 25.5168 60.9858 25.1624V25.1624ZM21.0801 56.6423C20.7431 56.6423 20.4136 56.5441 20.1333 56.36C19.8531 56.1759 19.6346 55.9142 19.5057 55.608C19.3767 55.3019 19.3429 54.965 19.4087 54.64C19.4744 54.315 19.6367 54.0164 19.8751 53.7821C20.1134 53.5478 20.4171 53.3882 20.7477 53.3235C21.0782 53.2589 21.4209 53.2921 21.7323 53.4189C22.0437 53.5457 22.3099 53.7604 22.4971 54.036C22.6844 54.3115 22.7843 54.6355 22.7843 54.9668C22.7843 55.1869 22.7403 55.4047 22.6546 55.608C22.569 55.8113 22.4434 55.996 22.2852 56.1516C22.1269 56.3072 21.9391 56.4306 21.7323 56.5148C21.5255 56.599 21.3039 56.6423 21.0801 56.6423V56.6423Z" fill="white"/>
<path d="M50.8 52.2751L53 56.3643L51.35 58L47.3535 55.6807L47.4879 54.0695L35.0093 41.5944L33.4571 43.0714L32.1615 41.7775L32.736 41.2038L30.4994 39.0432C30.0398 39.2586 29.536 39.3631 29.0286 39.3482C28.5212 39.3334 28.0244 39.1996 27.5783 38.9578C27.4439 38.8113 27.2605 38.6404 27.1139 38.4939L12.8386 24.2733L12.7286 24.2C11.5064 22.8939 11.8364 20.416 13.6086 18.6338C15.3808 16.8517 17.8741 16.4733 19.1696 17.7672L33.7137 32.2808C33.7616 32.3367 33.8026 32.3982 33.836 32.4639C34.1087 32.966 34.2516 33.5283 34.2516 34.0995C34.2516 34.6708 34.1087 35.2331 33.836 35.7352L35.9748 37.847L36.5981 37.2244L37.8814 38.4451L36.647 40.0075L49.0279 52.3728L50.8 52.2751Z" fill="white"/>
</svg>
